<?xml version="1.0" standalone="no"?>
<!DOCTYPE svg PUBLIC "-//W3C//DTD SVG 1.1//EN" "http://www.w3.org/Graphics/SVG/1.1/DTD/svg11.dtd" >
<svg xmlns="http://www.w3.org/2000/svg" xmlns:xlink="http://www.w3.org/1999/xlink" version="1.1">
<metadata></metadata>
<defs>
<font id="routed_gothic_narrowregular" horiz-adv-x="460" >
<font-face units-per-em="2048" ascent="1664" descent="-384" />
<missing-glyph horiz-adv-x="500" />
<glyph horiz-adv-x="0" />
<glyph unicode="&#xd;" horiz-adv-x="682" />
<glyph unicode=" " />
<glyph unicode="!" d="M96 128q0 60 39 110t109 50q62 0 91 -41t29 -87q0 -58 -38 -109t-108 -51q-60 0 -91 39t-31 89zM134 576v800q0 40 28 68t68 28t68 -28t28 -68v-800q0 -40 -28 -68t-68 -28t-68 28t-28 68z" />
<glyph unicode="&#x22;" horiz-adv-x="614" d="M84 960v416q0 40 28 68t68 28t68 -28t28 -68v-416q0 -40 -28 -68t-68 -28t-68 28t-28 68zM340 960v416q0 40 28 68t68 28t68 -28t28 -68v-416q0 -40 -28 -68t-68 -28t-68 28t-28 68z" />
<glyph unicode="#" horiz-adv-x="1074" d="M84 576q0 40 28 68t68 28h104l28 128h-132q-40 0 -68 28t-28 68t28 68t68 28h176l88 404q4 16 13 31t22 24t28 15t31 6q10 0 20 -2q22 -6 39 -20t27 -33t10 -41v-7t-1 -7t-1 -6l-80 -364h86l88 404q4 14 10 26t15 21t20 15t24 10t25 4q10 0 20 -2q34 -8 55 -35t21 -59 q0 -6 -1 -11t-1 -9l-80 -364h62q40 0 68 -28t28 -68t-28 -68t-68 -28h-104l-28 -128h132q40 0 68 -28t28 -68t-28 -68t-68 -28h-176l-88 -404q-8 -34 -35 -55t-59 -21q-12 0 -20 2q-34 8 -55 35t-21 59q0 6 1 11t1 9l80 364h-86l-88 -404q-4 -16 -13 -31t-22 -24t-28 -15 t-31 -6q-10 0 -20 2q-34 8 -55 35t-21 59v7t1 7t1 6l80 364h-62q-40 0 -68 28t-28 68zM482 672h84l28 128h-84z" />
<glyph unicode="$" horiz-adv-x="806" d="M84 432q0 54 44 82q24 14 52 14q12 0 23 -3t21 -8t19 -13t17 -18q18 -28 54 -60v256q-78 24 -130 80t-70 111t-18 111q0 98 61 176t157 108v108q0 40 28 68t68 28t68 -28t28 -68v-110q42 -14 80 -36t61 -48t33 -38t16 -22q6 -12 10 -24t4 -26q0 -54 -44 -82q-6 -4 -13 -6 t-13 -4t-13 -3t-13 -1q-50 0 -84 50q-2 0 -3 2t-8 9t-13 11v-212q80 -26 131 -79t69 -110t18 -119q0 -70 -24 -134t-75 -114t-119 -72v-112q0 -40 -28 -68t-68 -28t-68 28t-28 68v110q-130 38 -216 176q-14 24 -14 50zM288 984q0 -26 5 -48t21 -38v150q-26 -28 -26 -64z M506 430q26 38 26 98q0 24 -13 57t-13 43v-198z" />
<glyph unicode="%" horiz-adv-x="1382" d="M84 1136q0 134 85 235t215 101t215 -101t85 -235t-85 -235t-215 -101t-215 101t-85 235zM276 1136q0 -66 34 -105t74 -39t74 40t34 104q0 66 -34 105t-74 39t-74 -40t-34 -104zM314 96q0 20 8 38l562 1280q6 14 15 25t21 18t25 11t27 4q20 0 38 -8q58 -26 58 -88 q0 -10 -2 -20t-6 -18l-562 -1280q-26 -58 -88 -58q-10 0 -20 2t-18 6q-58 26 -58 88zM698 336q0 134 85 235t215 101t216 -101t86 -235t-86 -235t-216 -101t-215 101t-85 235zM890 336q0 -66 34 -105t74 -39t75 40t35 104t-35 104t-75 40t-74 -40t-34 -104z" />
<glyph unicode="&#x26;" horiz-adv-x="1254" d="M76 448q0 116 44 210t116 158q-120 106 -120 288q0 148 111 266t317 118q198 0 317 -114t119 -270q0 -174 -124 -288q46 -30 86 -68q14 20 30 37t23 23t13 12q26 20 60 20q46 0 74 -36q22 -24 22 -58q0 -46 -34 -76q-4 -4 -11 -10t-23 -26t-32 -44q114 -204 114 -494 q0 -40 -28 -68t-68 -28t-68 28t-28 68q0 128 -26 234q-28 -100 -79 -170t-115 -107t-127 -53t-133 -16q-200 0 -315 139t-115 325zM268 448q0 -120 63 -196t175 -76q34 0 60 3t55 11t51 23t43 40t38 64t29 91q12 46 27 89t31 81q-68 78 -166 118q-86 36 -190 36 q-72 -8 -144 -84t-72 -200zM308 1104q0 -96 41 -138t131 -42q14 0 29 -1t29 -2l28 -2t28 -3t28 -6q78 12 122 65t44 129q0 78 -59 135t-185 57q-128 0 -182 -57t-54 -135z" />
<glyph unicode="'" horiz-adv-x="358" d="M84 960v416q0 40 28 68t68 28t68 -28t28 -68v-416q0 -40 -28 -68t-68 -28t-68 28t-28 68z" />
<glyph unicode="(" horiz-adv-x="550" d="M84 736q0 138 22 276t48 230t61 180t49 116t26 46q12 22 35 35t49 13q12 0 23 -3t23 -9q48 -28 48 -84q0 -12 -3 -24t-9 -22q-8 -14 -21 -40t-44 -104t-54 -161t-42 -206t-19 -243t19 -243t43 -206t54 -161t43 -104t21 -40q12 -22 12 -46q0 -26 -13 -48t-35 -36 q-12 -6 -24 -9t-24 -3q-54 0 -82 48l-25 45t-50 115t-61 180t-48 231t-22 277z" />
<glyph unicode=")" horiz-adv-x="550" d="M32 -64q0 24 12 46q2 4 7 13t17 35t24 55t28 72t30 89t28 104t24 117t16 129t6 140q0 88 -10 177t-25 159t-35 139t-37 114t-36 87t-26 56l-11 22q-12 20 -12 46q0 24 13 47t35 37q22 12 46 12q10 0 20 -2t19 -6t18 -10t16 -13t11 -17q4 -6 9 -15t20 -39t28 -62t32 -81 t34 -99t31 -116t27 -133t18 -146t7 -157q0 -138 -22 -276t-48 -230t-61 -180t-49 -116t-26 -46q-28 -48 -82 -48q-8 0 -16 1t-16 4t-16 7q-22 14 -35 36t-13 48z" />
<glyph unicode="*" horiz-adv-x="818" d="M84 1120q0 40 28 68t68 28h80l-54 114q-4 10 -6 20t-2 20q0 62 56 88q18 8 40 8q18 0 35 -7t31 -19t22 -30l26 -60l28 60q26 56 88 56q22 0 40 -8q26 -12 41 -36t15 -52q0 -10 -2 -20t-6 -20l-54 -114h82q40 0 68 -28t28 -68t-28 -68t-68 -28h-82l54 -114q4 -10 6 -20 t2 -20q0 -62 -56 -88q-18 -8 -40 -8q-62 0 -88 56l-28 60l-26 -60q-26 -56 -88 -56q-22 0 -40 8q-56 26 -56 88q0 8 1 14t3 13t4 13l54 114h-80q-40 0 -68 28t-28 68z" />
<glyph unicode="+" horiz-adv-x="1024" d="M70 736q0 40 28 68t68 28h250v336q0 40 28 68t68 28t68 -28t28 -68v-336h250q40 0 68 -28t28 -68t-28 -68t-68 -28h-250v-336q0 -40 -28 -68t-68 -28t-68 28t-28 68v336h-250q-40 0 -68 28t-28 68z" />
<glyph unicode="," horiz-adv-x="472" d="M96 128q0 60 39 110t109 50q60 0 97 -48t37 -112q0 -96 -60 -272q-10 -30 -35 -47t-55 -17q-16 0 -30 6q-30 8 -48 34t-18 56q0 16 6 30q14 42 28 96q-32 18 -51 47t-19 67z" />
<glyph unicode="-" horiz-adv-x="664" d="M32 528q0 40 28 68t68 28h410q40 0 68 -28t28 -68t-28 -68t-68 -28h-410q-40 0 -68 28t-28 68z" />
<glyph unicode="." d="M96 128q0 60 39 110t109 50q62 0 91 -41t29 -87q0 -58 -38 -109t-108 -51q-60 0 -91 39t-31 89z" />
<glyph unicode="/" horiz-adv-x="920" d="M84 96q0 20 8 38l562 1280q6 14 15 25t21 18t25 11t27 4q20 0 38 -8q58 -26 58 -88q0 -8 -1 -14t-3 -12l-4 -12l-562 -1280q-6 -14 -15 -25t-21 -18t-25 -11t-27 -4q-20 0 -38 8q-58 26 -58 88z" />
<glyph unicode="0" horiz-adv-x="1074" d="M44 736q0 192 57 361t172 280t265 111t265 -111t171 -280t56 -361t-56 -361t-171 -280t-265 -111t-265 111t-172 280t-57 361zM236 736q0 -244 98 -402t204 -158t203 158t97 402t-97 402t-203 158t-204 -158t-98 -402z" />
<glyph unicode="1" horiz-adv-x="562" d="M186 96v1280q0 40 28 68t68 28t68 -28t28 -68v-1280q0 -40 -28 -68t-68 -28t-68 28t-28 68z" />
<glyph unicode="2" horiz-adv-x="1074" d="M108 1072q0 192 119 304t289 112q176 0 291 -126t115 -306q0 -114 -54 -198t-170 -170q-16 -12 -46 -36q-196 -146 -258 -224t-76 -236h552q40 0 68 -28t28 -68t-28 -68t-68 -28h-652q-34 0 -65 28t-31 68q0 66 7 124t16 105t31 94t39 79t54 73t60 66t73 65t80 63l90 69 q8 4 10 6q70 54 100 85t39 57t9 74q0 108 -60 174t-154 66q-216 0 -216 -224q0 -40 -28 -68t-68 -28t-68 28t-28 68z" />
<glyph unicode="3" horiz-adv-x="1074" d="M90 1376q0 40 28 68t68 28h588q36 0 66 -28t30 -68v-12q-2 -10 -5 -26t-15 -63t-30 -92t-54 -106t-80 -115q142 -48 221 -184t79 -298q0 -202 -131 -349t-321 -147q-134 0 -244 80t-162 206q-2 4 -3 8t-2 7t-2 7t-1 8v8q0 28 16 53t42 35q18 8 37 8t37 -7t32 -21t20 -30 q34 -78 96 -124t134 -46q102 0 181 88t79 216q0 140 -68 226t-176 86q-50 0 -118 -34q-18 -10 -42 -10q-14 0 -30 4q-6 4 -13 7t-13 7t-11 9t-10 11t-7 14h-2v2q-10 18 -10 42q0 14 4 30q6 16 18 31t30 23q216 116 304 352h-464q-40 0 -68 28t-28 68z" />
<glyph unicode="4" horiz-adv-x="1074" d="M84 540v30v94q0 30 16 54l488 708q30 42 80 42h62h38q40 0 68 -31t28 -65v-736h84q40 0 68 -28t28 -68t-28 -68t-68 -28h-84v-352q0 -40 -28 -68t-68 -28t-68 28t-28 68v352h-492q-40 0 -68 31t-28 65zM278 636h394v572z" />
<glyph unicode="5" horiz-adv-x="1074" d="M108 312q0 28 16 52t42 36l12 4t12 3t14 1q28 0 52 -16t36 -42q24 -54 60 -94t78 -60t86 -20q98 0 178 99t80 253t-80 253t-178 99q-60 0 -116 -33t-102 -101q-10 -14 -23 -23t-27 -14t-30 -5q-34 0 -60 22q-40 32 -36 82l50 576q4 38 32 63t64 25h512q40 0 68 -28 t28 -68t-28 -68t-68 -28h-424l-22 -250q42 20 89 31t93 11q196 0 323 -163t127 -381t-127 -381t-323 -163q-132 0 -238 81t-162 209q-8 18 -8 38z" />
<glyph unicode="6" horiz-adv-x="1074" d="M92 736q0 194 46 346t120 236t154 127t160 43q56 0 106 -13t86 -36t64 -44t47 -47t26 -37t13 -19q4 -10 7 -21t3 -23q0 -58 -50 -84q-22 -12 -44 -12q-26 0 -50 13t-36 37q-8 14 -22 30t-57 40t-93 24q-14 0 -32 -5t-45 -19t-53 -36t-52 -61t-47 -88t-37 -122t-20 -159 q54 48 125 73t149 25q186 0 311 -138t125 -322q0 -178 -114 -319t-310 -141q-70 0 -141 30t-139 93t-119 177t-71 264q-4 44 -7 91t-3 97zM334 398q24 -68 57 -115t67 -68t61 -30t53 -9q104 0 168 78t64 190q0 110 -73 189t-171 79q-108 0 -167 -68t-59 -236v-10z" />
<glyph unicode="7" horiz-adv-x="1074" d="M70 1376q0 40 28 68t68 28h718q40 0 68 -31t28 -65v-116q0 -16 -6 -31t-15 -27t-17 -20q-12 -6 -27 -19t-57 -57t-79 -95t-82 -139t-77 -186t-54 -236t-22 -290v-64q0 -40 -28 -68t-68 -28t-68 28t-28 68v64q0 184 30 352t74 284t103 219t106 161t95 104h-594 q-40 0 -68 28t-28 68z" />
<glyph unicode="8" horiz-adv-x="1074" d="M90 456q0 204 144 346q-118 118 -118 286t122 284t300 116q170 0 296 -115t126 -285q0 -158 -132 -312q52 -42 89 -101t53 -119t16 -124q0 -180 -122 -314t-326 -134q-198 0 -323 145t-125 327zM282 456q0 -110 74 -195t182 -85q122 0 189 73t67 183q0 72 -35 133t-97 89 q-48 22 -108 22q-38 0 -75 6t-73 16q-48 -34 -86 -93t-38 -149zM308 1088q0 -120 102 -182q62 -38 144 -38q44 0 88 -8q28 28 55 61t49 80t22 87q0 84 -67 146t-163 62q-104 0 -167 -61t-63 -147z" />
<glyph unicode="9" horiz-adv-x="1074" d="M80 1028q0 178 113 319t309 141q70 0 142 -31t140 -94t119 -179t69 -266q10 -86 10 -182q0 -194 -46 -346t-120 -236t-154 -127t-160 -43q-66 0 -125 20t-95 45t-66 58t-40 47t-16 26q-10 20 -10 44q0 58 50 84q22 12 44 12q26 0 50 -13t36 -37q8 -14 22 -30t57 -40 t93 -24q16 0 39 8t55 26t62 54t58 87t47 133t25 180q-108 -96 -272 -96q-186 0 -311 138t-125 322zM272 1028q0 -110 73 -189t171 -79q108 0 167 68t59 236v3v3q-24 68 -57 116t-68 70t-62 31t-53 9q-104 0 -167 -78t-63 -190z" />
<glyph unicode=":" d="M96 128q0 60 39 110t109 50q62 0 91 -41t29 -87q0 -58 -38 -109t-108 -51q-60 0 -91 39t-31 89zM96 896q0 60 39 110t109 50q62 0 91 -41t29 -87q0 -58 -38 -109t-108 -51q-60 0 -91 39t-31 89z" />
<glyph unicode=";" horiz-adv-x="472" d="M96 128q0 60 39 110t109 50q60 0 97 -48t37 -112q0 -96 -60 -272q-10 -30 -35 -47t-55 -17q-16 0 -30 6q-30 8 -48 34t-18 56q0 16 6 30q14 42 28 96q-32 18 -51 47t-19 67zM96 896q0 60 39 110t109 50q62 0 91 -41t29 -87q0 -58 -38 -109t-108 -51q-60 0 -91 39t-31 89z " />
<glyph unicode="&#x3c;" horiz-adv-x="1024" d="M70 736q0 8 2 17t5 18t7 15t7 10t7 8t8 7t10 7l692 432q22 14 50 14q54 0 82 -46q14 -22 14 -50q0 -24 -12 -46t-34 -36l-560 -350l560 -350q46 -28 46 -82q0 -14 -4 -27t-10 -23q-28 -46 -82 -46q-28 0 -50 14l-692 432q-10 6 -18 14t-14 18q-14 22 -14 50z" />
<glyph unicode="=" horiz-adv-x="1024" d="M70 496q0 40 28 68t68 28h692q40 0 68 -28t28 -68t-28 -68t-68 -28h-692q-40 0 -68 28t-28 68zM70 976q0 40 28 68t68 28h692q40 0 68 -28t28 -68t-28 -68t-68 -28h-692q-40 0 -68 28t-28 68z" />
<glyph unicode="&#x3e;" horiz-adv-x="1024" d="M70 304q0 54 46 82l560 350l-560 350q-46 28 -46 82q0 10 2 18t5 17t7 15q28 46 82 46q28 0 50 -14l692 -432q6 -4 10 -7t8 -7t7 -8t7 -10q14 -22 14 -50q0 -8 -2 -17t-5 -18t-7 -15q-6 -10 -14 -18t-18 -14l-692 -432q-10 -6 -23 -10t-27 -4q-54 0 -82 46q-14 22 -14 50 z" />
<glyph unicode="?" horiz-adv-x="1024" d="M84 1072q0 192 116 304t286 112t287 -98t117 -270q0 -120 -51 -202t-143 -148q-54 -40 -75 -67t-30 -75t-9 -148q0 -40 -28 -68t-68 -28t-68 28t-28 68q0 112 19 191t61 140t114 115q72 50 93 84t21 110q0 176 -212 176q-210 0 -210 -224q0 -40 -28 -68t-68 -28t-68 28 t-28 68zM352 128q0 60 39 110t109 50q62 0 91 -41t29 -87q0 -58 -38 -109t-108 -51q-60 0 -91 39t-31 89z" />
<glyph unicode="@" horiz-adv-x="1408" d="M84 736q0 304 177 528t443 224t443 -224t177 -528v-10v-10q0 -40 -1 -65t-5 -62t-14 -72t-26 -69t-42 -61t-56 -45t-64 -28t-66 -10q-96 0 -172 64q-82 -84 -190 -84q-150 0 -235 138t-85 314t85 314t235 138q74 0 136 -40q14 12 31 20t37 8q40 0 68 -28t28 -68v-536 q0 -12 19 -30t43 -18q6 0 14 3t16 8t15 12t9 13q16 34 22 83t6 121q0 238 -129 399t-299 161t-299 -161t-129 -399t129 -399t299 -161q94 0 174 46q22 14 48 14q24 0 47 -13t35 -35q8 -10 11 -22t3 -26q0 -24 -13 -47t-35 -35q-124 -74 -270 -74q-266 0 -443 224t-177 528z M560 736q0 -82 26 -146t54 -89t48 -25q24 0 55 32t53 96v264q-22 64 -53 96t-55 32q-20 0 -48 -25t-54 -89t-26 -146z" />
<glyph unicode="A" horiz-adv-x="1100" d="M58 96q0 6 1 13t3 13l352 1280q8 30 36 50t56 20h44h46q32 0 58 -21t34 -49l352 -1280q4 -12 4 -26q0 -32 -20 -58t-50 -34q-12 -4 -26 -4q-32 0 -58 20t-34 50l-60 218h-490l-60 -218q-6 -20 -20 -36t-33 -25t-39 -9q-14 0 -26 4q-30 8 -50 34t-20 58zM360 480h382 l-190 698z" />
<glyph unicode="B" horiz-adv-x="1112" d="M134 96v682v598q0 34 28 65t68 31h410q158 0 255 -120t97 -276q0 -174 -110 -292q46 -44 77 -103t45 -120t14 -125q0 -72 -21 -145t-61 -140t-111 -109t-159 -42h-436q-34 0 -65 28t-31 68zM326 192h340q64 0 112 71t48 173t-48 173t-112 71h-4h-6h-16h-314v-488z M326 872h314q32 0 60 12q42 22 71 73t29 119q0 90 -47 147t-113 57h-314v-408z" />
<glyph unicode="C" horiz-adv-x="1094" d="M96 736q0 192 56 361t171 280t265 111q62 0 116 -17t91 -45t68 -61t50 -66t32 -60t18 -44l5 -17q4 -14 4 -26q0 -16 -5 -31t-14 -27t-22 -21t-27 -13q-8 -2 -14 -3t-14 -1q-14 0 -29 5t-27 13t-21 21t-15 27q-4 16 -15 38t-34 56t-62 57t-85 23q-106 0 -203 -158 t-97 -402t97 -402t203 -158q28 0 57 13t51 33t42 46t34 51t23 47t11 38q2 38 30 65t66 27q40 0 68 -28t28 -68q0 -38 -23 -101t-67 -136t-129 -126t-191 -53q-148 0 -263 111t-172 280t-57 361z" />
<glyph unicode="D" horiz-adv-x="1112" d="M134 96v1280q0 40 31 68t65 28h334q70 0 145 -40t146 -122t117 -232t46 -342t-46 -342t-117 -232t-146 -122t-145 -40h-334q-40 0 -68 31t-28 65zM326 192h238q14 0 39 9t66 44t74 90t58 160t25 241t-25 241t-58 160t-74 90t-66 44t-39 9h-238v-1088z" />
<glyph unicode="E" horiz-adv-x="1112" d="M134 96v1280q0 34 28 65t68 31h666q40 0 68 -28t28 -68t-28 -68t-68 -28h-570v-408h366q40 0 68 -28t28 -68t-28 -68t-68 -28h-366v-488h596q40 0 68 -28t28 -68t-28 -68t-68 -28h-692q-34 0 -65 28t-31 68z" />
<glyph unicode="F" horiz-adv-x="1062" d="M134 96v1280q0 40 31 68t65 28h640q40 0 68 -28t28 -68t-28 -68t-68 -28h-544v-408h378q40 0 68 -28t28 -68t-28 -68t-68 -28h-378v-584q0 -40 -28 -68t-68 -28t-68 28t-28 68z" />
<glyph unicode="G" horiz-adv-x="1074" d="M96 736q0 192 56 361t171 280t265 111q84 0 154 -34t108 -73t70 -95t38 -74t10 -34q2 -6 3 -12t1 -12q0 -32 -19 -58t-49 -36q-14 -4 -26 -4q-32 0 -58 19t-36 47q-4 16 -16 39t-35 56t-61 56t-84 23q-106 0 -203 -158t-97 -402t97 -402t203 -158q48 0 92 29t68 59t40 62 v266h-174q-40 0 -68 28t-28 68t28 68t68 28h270q34 0 65 -28t31 -68v-384q0 -8 -2 -18t-6 -18q-4 -12 -12 -31t-42 -68t-74 -86t-109 -68t-147 -31q-148 0 -263 111t-172 280t-57 361z" />
<glyph unicode="H" horiz-adv-x="1138" d="M134 96v1280q0 40 28 68t68 28t68 -28t28 -68v-504h486v504q0 40 28 68t68 28t68 -28t28 -68v-1280q0 -40 -28 -68t-68 -28t-68 28t-28 68v584h-486v-584q0 -40 -28 -68t-68 -28t-68 28t-28 68z" />
<glyph unicode="I" horiz-adv-x="536" d="M172 96v1280q0 40 28 68t68 28t68 -28t28 -68v-1280q0 -40 -28 -68t-68 -28t-68 28t-28 68z" />
<glyph unicode="J" horiz-adv-x="870" d="M58 432v128q0 40 28 68t68 28t68 -28t28 -68v-128q0 -116 49 -186t97 -70q24 0 57 31t62 104t29 169v896q0 40 28 68t68 28t68 -28t28 -68v-896q0 -192 -91 -344t-249 -152q-154 0 -246 136t-92 312z" />
<glyph unicode="K" horiz-adv-x="1074" d="M134 96v1280q0 40 28 68t68 28t68 -28t28 -68v-548l496 608q28 36 74 36q16 0 32 -6t28 -16q36 -28 36 -74q0 -16 -6 -32t-16 -28l-370 -456l406 -716q12 -22 12 -48q0 -56 -48 -84q-22 -12 -48 -12q-56 0 -84 48l-370 652l-142 -176v-428q0 -40 -28 -68t-68 -28t-68 28 t-28 68z" />
<glyph unicode="L" horiz-adv-x="1048" d="M134 96v1280q0 40 28 68t68 28t68 -28t28 -68v-1184h570q40 0 68 -28t28 -68t-28 -68t-68 -28h-666q-34 0 -65 28t-31 68z" />
<glyph unicode="M" horiz-adv-x="1328" d="M134 96v1280q0 40 31 68t65 28h32h32q32 0 58 -20t34 -50l280 -962l278 962q4 16 13 29t22 22t27 14t30 5h30h34q40 0 68 -31t28 -65v-1280q0 -40 -28 -68t-68 -28t-68 28t-28 68v824l-246 -850q-14 -46 -58 -64q-16 -6 -34 -6q-30 0 -57 19t-35 51l-248 852v-826 q0 -40 -28 -68t-68 -28t-68 28t-28 68z" />
<glyph unicode="N" horiz-adv-x="1152" d="M134 96v1280q0 40 31 68t65 28h30h34q18 0 37 -8t31 -21t20 -27l444 -988v948q0 40 28 68t68 28t68 -28t28 -68v-1280q0 -34 -28 -65t-68 -31h-26h-26q-16 0 -33 7t-32 20t-23 29l-456 1014v-974q0 -40 -28 -68t-68 -28t-68 28t-28 68z" />
<glyph unicode="O" horiz-adv-x="1176" d="M96 736q0 192 56 361t171 280t265 111t265 -111t172 -280t57 -361t-57 -361t-172 -280t-265 -111t-265 111t-171 280t-56 361zM288 736q0 -244 97 -402t203 -158t204 158t98 402t-98 402t-204 158t-203 -158t-97 -402z" />
<glyph unicode="P" horiz-adv-x="1088" d="M134 96v606v674q0 40 31 68t65 28h384q162 0 270 -118t108 -314t-108 -314t-270 -118h-288v-512q0 -40 -28 -68t-68 -28t-68 28t-28 68zM326 800h288q82 0 134 56t52 184t-52 184t-134 56h-288v-480z" />
<glyph unicode="Q" horiz-adv-x="1176" d="M96 736q0 192 56 361t171 280t265 111t265 -111t172 -280t57 -361q0 -176 -51 -339t-145 -269q4 -8 9 -13t13 -9t18 -6q36 -4 59 -32t23 -62q0 -8 -2 -14q-4 -36 -32 -59t-62 -23q-8 0 -14 2q-56 8 -99 34t-75 64q-66 -26 -136 -26q-150 0 -265 111t-171 280t-56 361z M288 736q0 -244 97 -402t203 -158q22 0 48 8q-12 46 -16 76q-42 28 -42 80q0 30 16 54q28 42 80 42q10 0 19 -2t18 -6t17 -8q46 -32 76 -66q86 160 86 382q0 244 -98 402t-204 158t-203 -158t-97 -402z" />
<glyph unicode="R" horiz-adv-x="1126" d="M134 96v670v610q0 40 31 68t65 28h422q160 0 269 -102t109 -298q0 -142 -61 -236t-161 -134l198 -574l6 -32q0 -30 -18 -55t-46 -35q-16 -6 -32 -6q-30 0 -55 18t-35 46l-212 608h-288v-576q0 -40 -28 -68t-68 -28t-68 28t-28 68zM326 864h326q94 0 140 43t46 165 t-46 165t-140 43h-326v-416z" />
<glyph unicode="S" horiz-adv-x="1074" d="M96 336q0 30 18 55t46 35q4 2 8 3l8 2t8 1h8q28 0 53 -17t37 -45q6 -16 19 -39t44 -63t82 -66t111 -26q118 0 184 71t66 185q0 34 -5 60t-20 56t-40 52t-70 42t-107 32q-114 20 -199 65t-133 103t-70 119t-22 127q0 182 121 291t295 109q92 0 169 -33t119 -73t74 -94 t39 -76t13 -36q0 -6 1 -11t1 -11q0 -22 -9 -41t-25 -33t-38 -20q-2 -2 -6 -3t-8 -1h-8q-8 0 -16 2t-15 4t-14 6l-14 8t-12 10t-9 12l-8 12t-6 12q-4 14 -9 28t-24 43t-42 50t-64 37t-89 16q-104 0 -164 -54t-60 -154q0 -34 8 -62t33 -61t82 -60t145 -43q108 -20 188 -66 t124 -106t65 -125t21 -133q0 -184 -122 -316t-320 -132q-92 0 -172 35t-124 76t-81 98t-46 77t-15 36q-4 14 -4 30z" />
<glyph unicode="T" horiz-adv-x="1100" d="M58 1376q0 40 28 68t68 28h794q40 0 68 -28t28 -68t-28 -68t-68 -28h-302v-1184q0 -40 -28 -68t-68 -28t-68 28t-28 68v1184h-300q-40 0 -68 28t-28 68z" />
<glyph unicode="U" horiz-adv-x="1138" d="M134 432v944q0 40 28 68t68 28t68 -28t28 -68v-944q0 -108 72 -182t172 -74t171 74t71 182v944q0 40 28 68t68 28t68 -28t28 -68v-944q0 -184 -126 -316t-308 -132t-309 132t-127 316z" />
<glyph unicode="V" horiz-adv-x="1100" d="M58 1376q0 30 19 56t49 36q14 4 28 4q20 0 39 -8t33 -24t20 -36l304 -1018l306 1018q6 20 20 36t33 24t39 8q14 0 28 -4q30 -10 49 -36t19 -56q0 -14 -4 -28l-384 -1280q-8 -28 -34 -48t-58 -20h-26q-30 0 -56 19t-36 49l-384 1280q-4 14 -4 28z" />
<glyph unicode="W" horiz-adv-x="1394" d="M58 1376q0 34 22 60t54 34q10 2 20 2q22 0 42 -10t34 -27t18 -39l184 -876l166 874q4 22 19 41t35 28t40 9h12q34 0 61 -24t33 -54l166 -870l184 872q4 22 18 39t34 27t42 10q10 0 20 -2q34 -8 55 -35t21 -59q0 -10 -2 -20l-270 -1280q-6 -32 -33 -54t-61 -22h-24 q-32 0 -60 22t-34 56l-156 816l-156 -816q-6 -30 -33 -54t-61 -24h-26q-34 0 -61 22t-33 54l-268 1280q0 6 -1 10t-1 10z" />
<glyph unicode="X" horiz-adv-x="1010" d="M58 96q0 26 12 46l326 594l-326 594q-12 20 -12 46q0 16 6 32t17 30t27 22q20 12 46 12q56 0 84 -50l268 -486l268 486q8 16 22 27t30 17t32 6q26 0 46 -12q50 -28 50 -84q0 -8 -1 -16t-4 -16t-7 -14l-326 -594l326 -594q6 -10 9 -22t3 -24q0 -56 -50 -84q-6 -4 -14 -7 t-16 -4t-16 -1q-56 0 -84 50l-268 486l-268 -486q-28 -50 -84 -50q-26 0 -46 12q-50 28 -50 84z" />
<glyph unicode="Y" horiz-adv-x="1048" d="M58 1376q0 24 12 46t34 36t50 14q24 0 46 -12t36 -34l288 -474l290 474q14 22 36 34t46 12q28 0 50 -14t34 -36t12 -46q0 -28 -14 -50l-358 -586v-644q0 -40 -28 -68t-68 -28t-68 28t-28 68v646l-356 584q-14 22 -14 50z" />
<glyph unicode="Z" horiz-adv-x="1010" d="M58 96q0 24 12 46l614 1138h-518q-40 0 -68 28t-28 68t28 68t68 28h678q26 0 48 -13t35 -35t13 -48q0 -24 -12 -46l-614 -1138h544q40 0 68 -28t28 -68t-28 -68t-68 -28h-704q-20 0 -38 8q-58 26 -58 88z" />
<glyph unicode="[" horiz-adv-x="498" d="M84 -64v1600q0 34 28 65t68 31h192q40 0 68 -28t28 -68t-28 -68t-68 -28h-96v-1408h96q40 0 68 -28t28 -68t-28 -68t-68 -28h-192q-34 0 -65 28t-31 68z" />
<glyph unicode="\" horiz-adv-x="920" d="M84 1376q0 62 58 88l12 4t12 3t14 1q62 0 88 -58l562 -1280q4 -8 6 -18t2 -20q0 -62 -58 -88q-18 -8 -38 -8q-62 0 -88 58l-562 1280q-8 18 -8 38z" />
<glyph unicode="]" horiz-adv-x="498" d="M32 -64q0 40 28 68t68 28h96v1408h-96q-40 0 -68 28t-28 68t28 68t68 28h192q40 0 68 -31t28 -65v-1600q0 -40 -31 -68t-65 -28h-192q-40 0 -68 28t-28 68z" />
<glyph unicode="^" horiz-adv-x="818" d="M84 896q0 22 10 42l230 480q26 54 86 54q26 0 48 -12q8 -6 16 -13t14 -15t8 -14l230 -480q6 -10 8 -20t2 -22q0 -60 -54 -86q-20 -10 -42 -10q-26 0 -50 15t-36 39l-144 300l-144 -300q-26 -54 -86 -54q-6 0 -11 1l-10 2t-10 3t-11 4q-54 26 -54 86z" />
<glyph unicode="_" horiz-adv-x="920" d="M-20 -192q0 40 28 68t68 28h768q40 0 68 -28t28 -68t-28 -68t-68 -28h-768q-40 0 -68 28t-28 68z" />
<glyph unicode="`" horiz-adv-x="614" d="M84 1376q0 54 46 82q22 14 50 14q54 0 82 -46l256 -416q14 -22 14 -50q0 -54 -46 -82q-22 -14 -50 -14q-54 0 -82 46l-256 416q-4 8 -7 16t-5 16t-2 18z" />
<glyph unicode="a" horiz-adv-x="940" d="M76 528q0 214 102 379t276 165q50 0 94 -15t82 -45q14 20 35 32t45 12q40 0 68 -28t28 -68v-864q0 -40 -28 -68t-68 -28q-52 0 -80 44q-80 -60 -176 -60q-174 0 -276 165t-102 379zM268 528q0 -158 63 -255t123 -97q24 0 52 17t58 60t50 103v344q-28 88 -74 134t-86 46 q-60 0 -123 -97t-63 -255z" />
<glyph unicode="b" horiz-adv-x="940" d="M122 96q0 8 2 16q10 60 10 176v1088q0 40 28 68t68 28t68 -28t28 -68v-352q74 48 160 48q174 0 276 -165t102 -379t-102 -379t-276 -165q-102 0 -184 66q-28 -50 -84 -50q-8 0 -18 2q-78 14 -78 94zM326 356q28 -88 74 -134t86 -46q60 0 123 97t63 255t-63 255t-123 97 q-40 0 -86 -46t-74 -134v-344z" />
<glyph unicode="c" horiz-adv-x="844" d="M76 528q0 136 41 257t128 204t203 83q96 0 173 -59t125 -153q10 -20 10 -44q0 -58 -52 -86q-6 -2 -11 -4t-10 -3t-11 -2t-12 -1q-58 0 -86 52q-28 56 -62 82t-64 26q-56 0 -118 -97t-62 -255t62 -255t118 -97q32 0 69 32t67 98q12 26 36 42t52 16q6 0 11 -1t9 -2t9 -2 t9 -3q26 -12 42 -36t16 -52q0 -20 -8 -38q-30 -70 -73 -123t-106 -88t-133 -35q-116 0 -203 83t-128 204t-41 257z" />
<glyph unicode="d" horiz-adv-x="946" d="M84 528q0 214 101 379t275 165q22 0 44 -3t42 -10t38 -15t36 -20v352q0 40 28 68t68 28t68 -28t28 -68v-1088q0 -114 12 -174q2 -8 2 -18q0 -34 -21 -60t-55 -34q-10 -2 -20 -2q-56 0 -84 50q-40 -32 -87 -49t-99 -17q-174 0 -275 165t-101 379zM276 528q0 -158 62 -255 t122 -97q18 0 39 10t43 30t43 55t35 79v356q-28 86 -74 130t-86 44q-60 0 -122 -97t-62 -255z" />
<glyph unicode="e" horiz-adv-x="870" d="M76 528q0 32 2 66q8 92 35 176t71 152t111 109t147 41q46 0 89 -14t79 -39t67 -62t55 -83q62 -126 62 -298q0 -40 -31 -68t-65 -28h-428q10 -144 66 -224t106 -80q48 0 89 29t56 51t25 42q10 24 35 39t53 15q10 0 19 -2t17 -6q28 -12 43 -36t15 -54q0 -8 -2 -17t-6 -17 q-6 -14 -13 -29t-38 -57t-66 -71t-96 -54t-131 -25q-170 0 -268 163t-98 381zM284 672h312q-10 62 -36 118q-26 50 -55 70t-63 20q-24 0 -52 -19t-59 -68t-47 -121z" />
<glyph unicode="f" horiz-adv-x="600" d="M38 960q0 40 28 68t68 28h58v192q0 118 75 187t161 69q20 0 41 -3t25 -4t16 -5q20 -8 35 -22t23 -32t8 -38q0 -14 -4 -28q-2 -8 -6 -15t-8 -13t-10 -11l-12 -10t-13 -8l-14 -6t-15 -4t-14 -1l-24 4q-16 4 -28 4q-4 0 -11 -3t-15 -10t-13 -20t-5 -31v-192h84q40 0 68 -28 t28 -68t-28 -68t-68 -28h-84v-768q0 -40 -28 -68t-68 -28t-68 28t-28 68v768h-58q-40 0 -68 28t-28 68z" />
<glyph unicode="g" horiz-adv-x="940" d="M76 528q0 214 102 379t276 165q102 0 186 -68q28 52 84 52q6 0 11 -1t9 -1q34 -8 55 -35t21 -61l-2 -16q0 -4 -1 -10t-3 -22t-4 -34t-3 -47t-1 -61v-768q0 -88 -26 -170t-97 -148t-177 -66q-126 0 -218 80q-32 30 -32 72q0 36 24 62q6 8 15 15t18 11t19 6t20 2 q34 0 62 -22q2 -4 10 -8t20 -11t29 -11t33 -4q44 0 76 50t32 142v32q-74 -48 -160 -48q-174 0 -276 165t-102 379zM268 528q0 -158 63 -255t123 -97q40 0 86 46t74 134v344q-28 88 -74 134t-86 46q-60 0 -123 -97t-63 -255z" />
<glyph unicode="h" horiz-adv-x="934" d="M134 96v1280q0 40 28 68t68 28t68 -28t28 -68v-360q86 56 186 56q130 0 209 -110t79 -258v-608q0 -40 -28 -68t-68 -28t-68 28t-28 68v608q0 60 -20 103t-40 58t-36 15q-56 0 -106 -51t-80 -103v-630q0 -40 -28 -68t-68 -28t-68 28t-28 68z" />
<glyph unicode="i" d="M134 96v864q0 40 28 68t68 28t68 -28t28 -68v-864q0 -40 -28 -68t-68 -28t-68 28t-28 68zM134 1312v96q0 40 28 68t68 28t68 -28t28 -68v-96q0 -40 -28 -68t-68 -28t-68 28t-28 68z" />
<glyph unicode="j" d="M-20 -284q0 14 4 26q8 30 34 50t58 20h7t6 -1t6 -1t7 -2h2q30 2 30 64v1088q0 40 28 68t68 28t68 -28t28 -68v-1088q0 -94 -56 -175t-168 -81q-8 0 -15 1t-12 1t-10 1t-7 2t-5 2t-5 1q-30 10 -49 36t-19 56zM134 1312v96q0 40 28 68t68 28t68 -28t28 -68v-96 q0 -40 -28 -68t-68 -28t-68 28t-28 68z" />
<glyph unicode="k" horiz-adv-x="844" d="M134 96v1280q0 40 28 68t68 28t68 -28t28 -68v-652l214 292q30 40 78 40q32 0 56 -18q40 -30 40 -78q0 -32 -18 -56l-168 -230l232 -540q4 -8 6 -18t2 -20q0 -28 -16 -52t-42 -36q-8 -4 -18 -6t-20 -2q-28 0 -52 16t-36 42l-188 436l-70 -94v-304q0 -40 -28 -68t-68 -28 t-68 28t-28 68z" />
<glyph unicode="l" d="M134 288v1088q0 40 28 68t68 28t68 -28t28 -68v-1088q0 -114 12 -174q2 -8 2 -18q0 -34 -21 -60t-55 -34q-10 -2 -20 -2q-22 0 -41 9t-33 26t-20 39q0 6 -2 13t-4 27t-4 43t-4 58t-2 73z" />
<glyph unicode="m" horiz-adv-x="1382" d="M134 96v864q0 40 28 68t68 28q50 0 80 -44q86 60 190 60q128 0 210 -112q106 112 250 112q130 0 209 -110t79 -258v-608q0 -40 -28 -68t-68 -28t-68 28t-28 68v608q0 60 -20 103t-40 58t-36 15q-54 0 -100 -49t-72 -101v-26v-608q0 -40 -28 -68t-68 -28t-68 28t-28 68 v608q0 60 -20 103t-40 58t-36 15q-54 0 -101 -50t-73 -102v-632q0 -40 -28 -68t-68 -28t-68 28t-28 68z" />
<glyph unicode="n" horiz-adv-x="928" d="M134 96v864q0 40 28 68t68 28q52 0 82 -46q40 30 89 46t105 16q130 0 209 -110t79 -258v-608q0 -40 -28 -68t-68 -28t-68 28t-28 68v608q0 60 -20 103t-40 58t-36 15q-56 0 -104 -50t-76 -102v-632q0 -40 -28 -68t-68 -28t-68 28t-28 68z" />
<glyph unicode="o" horiz-adv-x="908" d="M76 528q0 214 102 379t276 165t276 -165t102 -379t-102 -379t-276 -165t-276 165t-102 379zM268 528q0 -158 63 -255t123 -97t123 97t63 255t-63 255t-123 97t-123 -97t-63 -255z" />
<glyph unicode="p" horiz-adv-x="940" d="M134 -288v1248q0 40 28 68t68 28q16 0 31 -5t28 -15t21 -24q80 60 176 60q174 0 276 -165t102 -379t-102 -379t-276 -165q-86 0 -160 48v-320q0 -40 -28 -68t-68 -28t-68 28t-28 68zM326 356q28 -88 74 -134t86 -46q60 0 123 97t63 255t-63 255t-123 97q-18 0 -39 -10 t-43 -31t-43 -57t-35 -82v-344z" />
<glyph unicode="q" horiz-adv-x="940" d="M76 528q0 214 102 379t276 165q36 0 69 -8t61 -23t56 -37q12 24 35 38t49 14q10 0 20 -2q34 -8 55 -34t21 -60v-9t-2 -9q-12 -60 -12 -174v-1056q0 -40 -28 -68t-68 -28t-68 28t-28 68v320q-74 -48 -160 -48q-174 0 -276 165t-102 379zM268 528q0 -158 63 -255t123 -97 q24 0 52 17t58 60t50 103v344q-28 88 -74 134t-86 46q-60 0 -123 -97t-63 -255z" />
<glyph unicode="r" horiz-adv-x="678" d="M134 96v864q0 40 28 68t68 28q38 0 67 -28t29 -66q88 94 198 94q40 0 68 -28t28 -68t-28 -68t-68 -28q-16 0 -49 -38t-76 -120t-73 -182v-428q0 -40 -28 -68t-68 -28t-68 28t-28 68z" />
<glyph unicode="s" horiz-adv-x="792" d="M76 224q0 54 44 82q24 14 52 14q24 0 45 -11t35 -31q16 -26 59 -64t85 -38q128 0 128 144q0 28 -1 42t-8 33t-21 29t-41 19t-69 13q-80 10 -141 45t-93 84t-46 97t-14 94q0 122 89 209t217 87q54 0 104 -16t81 -35t58 -46t35 -38t16 -23q14 -22 14 -50q0 -52 -44 -80 q-12 -8 -25 -12t-25 -4q-52 0 -82 42q-6 10 -19 23t-45 30t-68 17q-50 0 -82 -32t-32 -72q0 -20 2 -34t9 -31t20 -29t37 -21t58 -13q86 -10 149 -44t96 -82t48 -98t15 -104q0 -134 -86 -235t-234 -101q-56 0 -107 20t-84 44t-62 56t-38 46t-15 24q-6 12 -10 25t-4 25z" />
<glyph unicode="t" horiz-adv-x="550" d="M38 960q0 40 28 68t68 28h46v224q0 40 28 68t68 28t68 -28t28 -68v-224h44q40 0 68 -28t28 -68t-28 -68t-68 -28h-44v-768q0 -40 -28 -68t-68 -28t-68 28t-28 68v768h-46q-40 0 -68 28t-28 68z" />
<glyph unicode="u" horiz-adv-x="928" d="M134 352v608q0 40 28 68t68 28t68 -28t28 -68v-608q0 -60 20 -103t40 -58t36 -15q56 0 104 50t76 102v632q0 40 28 68t68 28t68 -28t28 -68v-864q0 -40 -28 -68t-68 -28q-52 0 -82 46q-40 -30 -89 -46t-105 -16q-130 0 -209 110t-79 258z" />
<glyph unicode="v" horiz-adv-x="792" d="M58 960q0 32 20 59t52 35q12 2 24 2q20 0 40 -9t34 -26t20 -37l148 -594l150 594q8 32 35 52t59 20q12 0 24 -2q10 -4 20 -9t18 -12t14 -15t11 -18t7 -20t2 -20q0 -12 -2 -24l-218 -864q-8 -28 -35 -50t-59 -22h-26h-24q-30 0 -58 20t-36 52l-218 864q0 6 -1 12t-1 12z " />
<glyph unicode="w" horiz-adv-x="1112" d="M58 960q0 34 22 61t54 33q10 2 20 2q22 0 42 -10t34 -27t18 -39l102 -498l100 420q8 32 35 53t59 21h26q34 0 60 -22t34 -52l98 -418l104 496q4 16 13 30t21 24t28 16t32 6h7t6 -1t7 -1q32 -6 54 -33t22 -61q0 -10 -2 -20l-180 -864q-6 -32 -33 -54t-61 -22h-24 q-20 0 -40 9t-34 26t-20 39l-106 444l-104 -444q-8 -30 -34 -52t-60 -22h-26q-34 0 -61 22t-33 54l-178 864q0 6 -1 10t-1 10z" />
<glyph unicode="x" horiz-adv-x="792" d="M58 96q0 24 10 44l220 424l-182 352q-4 10 -7 21t-3 23q0 58 52 86q20 10 44 10q26 0 49 -14t37 -38l118 -230l120 230q28 52 86 52q24 0 44 -10q52 -28 52 -86q0 -24 -10 -44l-182 -352l220 -424q10 -20 10 -44q0 -58 -52 -86q-10 -4 -21 -7t-23 -3q-58 0 -86 52 l-158 304l-156 -304q-28 -52 -86 -52q-24 0 -44 10q-16 10 -28 23t-18 30t-6 33z" />
<glyph unicode="y" horiz-adv-x="792" d="M58 -288q0 12 2 22q6 22 20 39t33 26t41 9q10 0 20 -2t18 -2t22 14t33 50t33 84l28 112l-246 870q-2 6 -3 12t-1 14q0 32 19 58t51 34q12 4 26 4q32 0 58 -19t34 -51l158 -554l144 552q8 32 34 52t58 20q12 0 24 -4q32 -8 52 -34t20 -58q0 -12 -4 -24l-268 -1032 q-78 -292 -272 -292q-32 0 -62 8q-32 8 -52 34t-20 58z" />
<glyph unicode="z" horiz-adv-x="806" d="M76 96q0 24 10 44l376 724h-276q-40 0 -68 28t-28 68t28 68t68 28h434h5t7 -1t9 -2t9 -2t8 -3q10 -4 19 -11t16 -16t12 -19t8 -21t3 -21q0 -8 -1 -15t-4 -15t-5 -14l-376 -724h304q40 0 68 -28t28 -68t-28 -68t-68 -28h-462q-40 0 -68 29t-28 67z" />
<glyph unicode="{" horiz-adv-x="690" d="M134 736q0 18 6 34q4 10 10 18l12 16q4 4 10 8t11 7t13 7q100 38 100 160q0 36 -8 88t-15 107t-7 99q0 54 11 99t39 91t81 85t133 71q16 6 34 6q14 0 28 -4t26 -12t21 -20t15 -26q6 -16 6 -34q0 -28 -17 -53t-45 -37q-28 -10 -48 -27t-31 -38t-16 -44t-5 -51 q0 -40 15 -140t15 -154q0 -162 -108 -256q108 -94 108 -256q0 -44 -7 -99t-15 -107t-8 -88q0 -122 100 -160q28 -12 45 -37t17 -53q0 -18 -6 -34q-8 -20 -22 -34t-32 -21t-36 -7t-34 6q-150 58 -207 146t-57 200q0 54 15 154t15 140q0 122 -100 160q-10 4 -18 10t-15 13 t-13 15t-10 18q-2 8 -4 17t-2 17z" />
<glyph unicode="|" d="M134 -64v1600q0 40 28 68t68 28t68 -28t28 -68v-1600q0 -40 -28 -68t-68 -28t-68 28t-28 68z" />
<glyph unicode="}" horiz-adv-x="690" d="M32 -64q0 18 7 36t21 32t34 22q18 6 33 16t26 22t19 25t12 29t6 32t2 34q0 42 -15 142t-15 156q0 160 108 254q-108 94 -108 254q0 36 5 79t10 77t10 73t5 69q0 120 -98 158q-28 12 -45 37t-17 53q0 10 2 18l4 16q12 28 37 45t53 17q6 0 12 -1l12 -2t10 -3 q104 -40 164 -99t80 -116t20 -129q0 -56 -15 -156t-15 -142q0 -28 4 -51t15 -43t31 -37t48 -27q20 -8 34 -22t22 -34q2 -8 4 -17t2 -17t-2 -17t-4 -17q-8 -20 -22 -34l-5 -5t-7 -5t-7 -4t-7 -4l-8 -4q-98 -38 -98 -158q0 -42 15 -142t15 -156q0 -112 -57 -199t-207 -145 q-16 -6 -34 -6q-14 0 -28 4t-26 12t-21 20t-15 26l-4 16t-2 18z" />
<glyph unicode="~" horiz-adv-x="1036" d="M70 432q0 14 4 28q64 216 248 216q60 0 127 -20t128 -47t75 -31q46 -14 56 -14q6 0 11 1t10 6t9 11t9 16t9 23t10 31q10 30 36 49t56 19q8 0 14 -1t14 -3q30 -10 49 -36t19 -56q0 -8 -1 -14t-3 -14q-34 -112 -104 -164t-156 -52q-24 0 -47 3t-47 11q-40 12 -79 27t-66 27 t-51 22t-42 16t-32 6q-22 0 -38 -20t-30 -68q-10 -30 -36 -49t-56 -19q-8 0 -14 1t-14 3q-30 10 -49 36t-19 56z" />
<glyph unicode="&#xa0;" />
<glyph unicode="&#xa1;" d="M96 898q0 58 38 109t108 51q60 0 91 -39t31 -89q0 -60 -39 -110t-109 -50q-62 0 -91 41t-29 87zM134 -318v800q0 40 28 68t68 28t68 -28t28 -68v-800q0 -40 -28 -68t-68 -28t-68 28t-28 68z" />
<glyph unicode="&#xa2;" horiz-adv-x="844" d="M76 528q0 136 41 257t128 204t203 83q96 0 173 -59t125 -153q10 -20 10 -44q0 -58 -52 -86q-6 -2 -11 -4t-10 -3t-11 -2t-12 -1q-58 0 -86 52q-28 56 -62 82t-64 26q-56 0 -118 -97t-62 -255t62 -255t118 -97q32 0 69 32t67 98q12 26 36 42t52 16q6 0 11 -1t9 -2t9 -2 t9 -3q26 -12 42 -36t16 -52q0 -20 -8 -38q-30 -70 -73 -123t-106 -88t-133 -35q-116 0 -203 83t-128 204t-41 257zM262 -262l180 1600q4 36 32 61t64 25h5h5q24 -4 44 -17t31 -34t11 -45v-10l-180 -1600q-4 -36 -32 -61t-64 -25h-10q-24 4 -44 17t-31 34t-11 45v5v5z" />
<glyph unicode="&#xa3;" horiz-adv-x="1126" d="M108 736q0 40 28 68t68 28h52q-44 112 -44 224q0 180 115 306t291 126q170 0 288 -112t118 -304q0 -40 -28 -68t-68 -28t-68 28t-28 68q0 224 -214 224q-94 0 -154 -66t-60 -174q0 -18 4 -38t11 -41t15 -42t19 -50t19 -53h194q40 0 68 -28t28 -68t-28 -68t-68 -28h-158 v-40q0 -184 -84 -408h498q40 0 68 -28t28 -68t-28 -68t-68 -28h-640q-16 0 -32 6q-28 10 -46 35t-18 55q0 20 8 38q46 106 75 193t41 148t12 113q0 14 -1 27t-3 25h-114q-40 0 -68 28t-28 68z" />
<glyph unicode="&#xa4;" horiz-adv-x="920" d="M84 384q0 34 20 60l94 118q-38 82 -38 174t38 174l-94 118q-20 26 -20 60q0 22 9 42t27 34q26 20 60 20q8 0 16 -2t17 -5t16 -7t14 -10t13 -12l74 -94q60 34 130 34q72 0 132 -34l74 94q30 36 76 36q8 0 16 -1t15 -4t15 -7t14 -8q8 -8 15 -17t12 -18t7 -20t2 -21 q0 -8 -1 -16t-4 -15t-7 -15t-8 -14l-96 -118q40 -82 40 -174t-40 -174l96 -118q10 -12 15 -28t5 -32q0 -10 -2 -21t-7 -20t-12 -18t-15 -17q-12 -10 -28 -15t-32 -5q-46 0 -76 36l-74 94q-60 -34 -132 -34q-24 0 -47 4t-44 11t-39 19l-74 -94q-30 -36 -76 -36q-34 2 -60 20 q-8 8 -15 17t-12 18t-7 20t-2 21zM352 736q0 -74 35 -117t73 -43t74 43t36 117t-36 117t-74 43t-73 -43t-35 -117z" />
<glyph unicode="&#xa5;" horiz-adv-x="1048" d="M58 1376q0 24 12 46t34 36t50 14q24 0 46 -12t36 -34l288 -474l290 474q14 22 36 34t46 12q28 0 50 -14t34 -36t12 -46q0 -28 -14 -50l-358 -586v-644q0 -40 -28 -68t-68 -28t-68 28t-28 68v646l-356 584q-14 22 -14 50zM82 496q0 40 28 68t68 28h692q40 0 68 -28t28 -68 t-28 -68t-68 -28h-692q-40 0 -68 28t-28 68zM82 976q0 40 28 68t68 28h692q40 0 68 -28t28 -68t-28 -68t-68 -28h-692q-40 0 -68 28t-28 68z" />
<glyph unicode="&#xa6;" d="M134 -64v608q0 40 28 68t68 28t68 -28t28 -68v-608q0 -40 -28 -68t-68 -28t-68 28t-28 68zM134 928v608q0 40 28 68t68 28t68 -28t28 -68v-608q0 -40 -28 -68t-68 -28t-68 28t-28 68z" />
<glyph unicode="&#xa7;" horiz-adv-x="998" d="M96 536q0 96 42 179t118 139q-138 106 -138 272q0 164 112 263t270 99q84 0 154 -30t108 -66t67 -84t37 -68t12 -34q2 -12 2 -22q0 -22 -9 -41t-25 -33t-38 -20q-4 -2 -10 -3t-12 -1q-12 0 -25 4t-24 10t-20 14t-15 17t-8 19q-4 14 -9 26t-21 36t-35 41t-53 30t-76 13 q-90 0 -140 -44t-50 -126q0 -28 6 -50t27 -50t71 -50t126 -36q78 -14 141 -44t104 -69t68 -86t38 -94t11 -95q0 -96 -42 -179t-118 -139q138 -106 138 -272q0 -164 -111 -263t-269 -99q-234 0 -346 204q-24 42 -32 78q-4 10 -4 22q0 32 19 59t51 35q6 2 12 3t12 1 q30 0 57 -19t35 -43q6 -18 15 -36t30 -47t61 -47t90 -18q90 0 139 44t49 126q0 22 -3 39t-16 41t-36 41t-68 35t-107 30q-96 18 -169 59t-114 96t-60 113t-19 120zM288 536q0 -74 39 -124t157 -74q102 2 164 65t62 149q0 34 -6 60t-25 55t-61 50t-104 33q-68 -2 -120 -32 t-79 -78t-27 -104z" />
<glyph unicode="&#xa8;" horiz-adv-x="768" d="M134 1280v96q0 40 28 68t68 28t68 -28t28 -68v-96q0 -40 -28 -68t-68 -28t-68 28t-28 68zM442 1280v96q0 40 28 68t68 28t68 -28t28 -68v-96q0 -40 -28 -68t-68 -28t-68 28t-28 68z" />
<glyph unicode="&#xa9;" horiz-adv-x="1176" d="M-20 736q0 298 174 517t434 219t434 -219t174 -517t-174 -517t-434 -219t-434 219t-174 517zM172 736q0 -232 126 -388t290 -156t290 156t126 388t-126 388t-290 156t-290 -156t-126 -388zM294 736q0 164 77 294t217 130q30 0 58 -6t49 -17t39 -26t31 -30t23 -31t17 -30 t11 -25t6 -19l2 -6q4 -12 4 -26q0 -32 -19 -57t-49 -35q-14 -4 -28 -4q-20 0 -38 8t-32 23t-22 35q-2 10 -10 22t-19 22t-23 10t-34 -21t-45 -78t-23 -133t23 -133t45 -78t34 -21q4 0 10 3t12 8t12 12t11 15t10 17t7 19q4 24 17 44t34 31t45 11q40 0 68 -28t28 -68 q0 -38 -21 -93t-83 -109t-150 -54q-140 0 -217 130t-77 294z" />
<glyph unicode="&#xaa;" horiz-adv-x="704" d="M108 1160q0 122 61 221t177 99q12 0 23 -1t22 -4t20 -6t19 -7q20 10 44 10q40 0 68 -28t28 -68v-432q0 -40 -28 -68t-68 -28q-12 0 -23 3t-21 7q-40 -18 -84 -18q-116 0 -177 99t-61 221zM300 1160q0 -36 10 -66t20 -44t16 -18q6 4 15 18t17 34v152q-14 40 -32 52 q-4 -2 -11 -12t-15 -25t-14 -40t-6 -51z" />
<glyph unicode="&#xab;" horiz-adv-x="1228" d="M108 528q0 34 22 60l346 432q8 12 20 20t26 12t28 4q16 0 32 -5t28 -17q36 -28 36 -74q0 -34 -22 -60l-298 -372l298 -372q8 -8 13 -18t7 -20t2 -21t-2 -22t-7 -20t-12 -18t-15 -15q-26 -22 -60 -22q-46 0 -74 36l-346 432q-8 8 -12 18t-7 21t-3 21zM556 528q0 10 2 21 t7 21t13 18l346 432q12 18 32 27t42 9q34 0 60 -22q36 -28 36 -74q0 -16 -5 -32t-17 -28l-298 -372l298 -372q12 -12 17 -28t5 -32q0 -22 -9 -42t-27 -32q-26 -22 -60 -22q-14 0 -28 4t-26 12t-20 20l-346 432q-22 26 -22 60z" />
<glyph unicode="&#xac;" horiz-adv-x="1024" d="M70 920q0 40 28 68t68 28h692q40 0 68 -31t28 -65v-368q0 -40 -28 -68t-68 -28t-68 28t-28 68v272h-596q-40 0 -68 28t-28 68z" />
<glyph unicode="&#xad;" horiz-adv-x="664" d="M32 528q0 40 28 68t68 28h410q40 0 68 -28t28 -68t-28 -68t-68 -28h-410q-40 0 -68 28t-28 68z" />
<glyph unicode="&#xae;" horiz-adv-x="1176" d="M-20 736q0 298 174 517t434 219t434 -219t174 -517t-174 -517t-434 -219t-434 219t-174 517zM172 736q0 -232 126 -388t290 -156t290 156t126 388t-126 388t-290 156t-290 -156t-126 -388zM326 416v336v304q0 40 31 68t65 28h212q96 0 166 -66t70 -182q0 -70 -27 -122 t-73 -84l84 -252q6 -14 6 -30q0 -20 -8 -38t-23 -32t-35 -20q-6 -4 -14 -5t-16 -1q-30 0 -55 18t-35 48l-92 270h-64v-240q0 -40 -28 -68t-68 -28t-68 28t-28 68zM518 848h116h7h7q18 0 24 9t6 47q0 20 -1 31t-6 17t-10 7t-15 1h-5h-7h-116v-112z" />
<glyph unicode="&#xaf;" horiz-adv-x="512" d="M6 1376q0 40 28 68t68 28h308q40 0 68 -28t28 -68t-28 -68t-68 -28h-308q-40 0 -68 28t-28 68z" />
<glyph unicode="&#xb0;" horiz-adv-x="768" d="M84 1120q0 140 83 246t217 106t217 -106t83 -246t-83 -246t-217 -106t-217 106t-83 246zM276 1120q0 -74 35 -117t73 -43t73 43t35 117t-35 117t-73 43t-73 -43t-35 -117z" />
<glyph unicode="&#xb1;" horiz-adv-x="1024" d="M70 112q0 40 28 68t68 28h692q40 0 68 -28t28 -68t-28 -68t-68 -28h-692q-40 0 -68 28t-28 68zM70 928q0 40 28 68t68 28h250v336q0 40 28 68t68 28t68 -28t28 -68v-336h250q40 0 68 -28t28 -68t-28 -68t-68 -28h-250v-336q0 -40 -28 -68t-68 -28t-68 28t-28 68v336h-250 q-40 0 -68 28t-28 68z" />
<glyph unicode="&#xb2;" horiz-adv-x="844" d="M76 1788q0 154 96 245t234 91q142 0 235 -102t93 -246q0 -62 -21 -115t-59 -95t-96 -86q-10 -8 -30 -22q-64 -48 -91 -70t-62 -53t-48 -54t-25 -55t-18 -74h388q40 0 68 -28t28 -68t-28 -68t-68 -28h-490q-34 0 -65 28t-31 68q0 66 10 123t22 99t42 87t51 72t68 68t74 62 t89 65q72 54 86 76t14 68q0 72 -39 114t-97 42q-138 0 -138 -144q0 -40 -28 -68t-68 -28t-68 28t-28 68z" />
<glyph unicode="&#xb3;" horiz-adv-x="844" d="M62 2016q0 40 28 68t68 28h442q18 0 35 -7t31 -20t22 -31t8 -38v-5v-7q-2 -8 -4 -19t-10 -44t-20 -65t-35 -77t-53 -83q98 -46 153 -150t55 -222q0 -160 -104 -278t-258 -118q-110 0 -197 64t-129 164q-8 18 -8 38q0 28 16 53t42 35l12 4t13 3t13 1q28 0 53 -16t35 -42 q22 -54 63 -83t87 -29q66 0 118 58t52 146q0 98 -45 154t-113 56q-26 0 -80 -24q-18 -10 -40 -10q-8 0 -15 1t-15 5q-38 12 -54 46q-2 0 -2 1v3q-10 18 -10 40q0 16 6 30q12 38 46 54q76 42 126 99t78 121h-314q-40 0 -68 28t-28 68z" />
<glyph unicode="&#xb4;" d="M-20 1470q0 54 46 82l308 192q22 14 50 14q16 0 31 -5t28 -16t23 -25q14 -22 14 -50q0 -54 -46 -82l-308 -192q-4 -4 -11 -6t-13 -4t-12 -3t-14 -1q-54 0 -82 46q-14 22 -14 50z" />
<glyph unicode="&#xb5;" horiz-adv-x="928" d="M134 -288v640v576v32q0 40 28 68t68 28t68 -28t28 -68v-32v-576q0 -60 20 -103t40 -58t36 -15q56 0 104 50t76 102v632q0 40 28 68t68 28t68 -28t28 -68v-864q0 -40 -28 -68t-68 -28q-52 0 -82 46q-40 -30 -89 -46t-105 -16q-50 0 -96 20v-292q0 -40 -28 -68t-68 -28 t-68 28t-28 68z" />
<glyph unicode="&#xb6;" horiz-adv-x="1048" d="M58 1040q0 196 108 314t270 118h384q34 0 65 -28t31 -68v-1664q0 -40 -28 -68t-68 -28t-68 28t-28 68v1568h-116v-1568q0 -40 -28 -68t-68 -28t-68 28t-28 68v896q-154 8 -256 126t-102 306z" />
<glyph unicode="&#xb7;" d="M96 720q0 60 39 110t109 50q62 0 91 -41t29 -87q0 -58 -38 -109t-108 -51q-60 0 -91 39t-31 89z" />
<glyph unicode="&#xb8;" horiz-adv-x="512" d="M58 -144q0 20 8 40l102 224q26 56 88 56q10 0 20 -2t20 -6q16 -8 29 -22t20 -31t7 -35q0 -22 -8 -40l-48 -106q82 -24 122 -82q18 -28 27 -59t9 -65q0 -14 -1 -27t-4 -26t-8 -25t-11 -24t-14 -24q-42 -58 -108 -78t-154 -20q-40 0 -68 28t-28 68t28 68t68 28q34 0 61 5 t35 8t10 5q2 4 2 14t-2 14q-2 2 -10 5t-35 8t-61 5q-40 0 -68 29t-28 67z" />
<glyph unicode="&#xb9;" d="M134 1056v960q0 40 28 68t68 28t68 -28t28 -68v-960q0 -40 -28 -68t-68 -28t-68 28t-28 68z" />
<glyph unicode="&#xba;" horiz-adv-x="690" d="M108 1160q0 122 61 221t177 99t176 -99t60 -221t-60 -221t-176 -99t-177 99t-61 221zM300 1160q0 -18 3 -36t7 -31t9 -24t11 -19t10 -12l6 -6q6 4 15 18t19 44t10 65t-9 66t-19 45t-16 18q-6 -4 -16 -18t-20 -44t-10 -66z" />
<glyph unicode="&#xbb;" horiz-adv-x="1228" d="M134 96q0 34 22 60l298 372l-298 372q-22 26 -22 60q0 46 36 74q12 12 28 17t32 5q46 0 74 -36l346 -432q6 -6 9 -11t5 -11l4 -12t3 -13t1 -13q0 -16 -6 -32t-16 -28l-346 -432q-28 -36 -74 -36q-34 2 -60 22q-36 28 -36 74zM582 96q0 34 22 60l298 372l-298 372 q-12 12 -17 28t-5 32q0 46 36 74q6 6 13 10t15 7t16 4t16 1q46 0 74 -36l346 -432q22 -26 22 -60q0 -8 -2 -16l-4 -16t-6 -15t-10 -13l-346 -432q-28 -36 -74 -36q-34 0 -60 22q-36 28 -36 74z" />
<glyph unicode="&#xbc;" horiz-adv-x="998" d="M58 736q0 40 28 68t68 28h690q40 0 68 -28t28 -68t-28 -68t-68 -28h-690q-40 0 -68 28t-28 68zM134 -118q0 14 5 29t13 25l366 530q28 42 78 42h46h30q40 0 68 -31t28 -65v-528h38q40 0 68 -28t28 -68t-28 -68t-68 -28h-38v-240q0 -40 -28 -68t-68 -28t-68 28t-28 68v240 h-346q-40 0 -68 31t-28 65v94zM348 -116h228v330zM402 1056v960q0 40 28 68t68 28t68 -28t28 -68v-960q0 -40 -28 -68t-68 -28t-68 28t-28 68z" />
<glyph unicode="&#xbd;" horiz-adv-x="998" d="M58 736q0 40 28 68t68 28h690q40 0 68 -28t28 -68t-28 -68t-68 -28h-690q-40 0 -68 28t-28 68zM152 188q0 154 96 245t234 91q142 0 235 -102t93 -246q0 -152 -148 -274q-14 -12 -28 -22q-10 -8 -30 -22q-64 -48 -91 -70t-62 -53t-48 -54t-25 -55t-18 -74h388 q40 0 68 -28t28 -68t-28 -68t-68 -28h-490q-34 0 -65 28t-31 68q0 66 10 123t22 99t42 87t51 72t68 68t74 62t89 65q72 54 86 76t14 68q0 72 -39 114t-97 42q-138 0 -138 -144q0 -40 -28 -68t-68 -28t-68 28t-28 68zM402 1056v960q0 40 28 68t68 28t68 -28t28 -68v-960 q0 -40 -28 -68t-68 -28t-68 28t-28 68z" />
<glyph unicode="&#xbe;" horiz-adv-x="998" d="M58 736q0 40 28 68t68 28h690q40 0 68 -28t28 -68t-28 -68t-68 -28h-690q-40 0 -68 28t-28 68zM134 -118q0 14 5 29t13 25l366 530q28 42 78 42h46h30q40 0 68 -31t28 -65v-528h38q40 0 68 -28t28 -68t-28 -68t-68 -28h-38v-240q0 -40 -28 -68t-68 -28t-68 28t-28 68v240 h-346q-40 0 -68 31t-28 65v94zM138 2016q0 40 28 68t68 28h442q18 0 35 -7t31 -20t22 -31t8 -38v-5v-7q-2 -8 -4 -19t-10 -44t-20 -65t-35 -77t-53 -83q98 -46 153 -150t55 -222q0 -160 -104 -278t-258 -118q-110 0 -197 64t-129 164q-8 18 -8 38q0 28 16 53t42 35l12 4 t13 3t13 1q28 0 53 -16t35 -42q22 -54 63 -83t87 -29q66 0 118 58t52 146q0 98 -45 154t-113 56q-26 0 -80 -24q-18 -10 -40 -10q-8 0 -15 1t-15 5q-38 12 -54 46q-2 0 -2 1v3q-10 18 -10 40q0 16 6 30q12 38 46 54q76 42 126 99t78 121h-314q-40 0 -68 28t-28 68zM348 -116 h228v330z" />
<glyph unicode="&#xbf;" horiz-adv-x="1024" d="M134 -48q0 120 51 202t143 148q54 40 75 67t30 75t9 148q0 40 28 68t68 28t68 -28t28 -68q0 -112 -19 -191t-61 -140t-114 -115q-72 -50 -93 -84t-21 -110q0 -176 212 -176q210 0 210 224q0 40 28 68t68 28t68 -28t28 -68q0 -192 -116 -304t-286 -112t-287 98t-117 270z M404 912q0 58 38 109t108 51q60 0 91 -39t31 -89q0 -60 -39 -110t-109 -50q-62 0 -91 41t-29 87z" />
<glyph unicode="&#xc0;" horiz-adv-x="1100" d="M58 96q0 6 1 13t3 13l352 1280q8 30 36 50t56 20h44h46q32 0 58 -21t34 -49l352 -1280q4 -12 4 -26q0 -32 -20 -58t-50 -34q-12 -4 -26 -4q-32 0 -58 20t-34 50l-60 218h-490l-60 -218q-6 -20 -20 -36t-33 -25t-39 -9q-14 0 -26 4q-30 8 -50 34t-20 58zM300 1952 q0 28 14 50t36 34t46 12q28 0 50 -14l308 -192q46 -28 46 -82q0 -28 -14 -50q-28 -46 -82 -46q-10 0 -18 2t-17 5t-15 7l-308 192q-46 28 -46 82zM360 480h382l-190 698z" />
<glyph unicode="&#xc1;" horiz-adv-x="1100" d="M58 96q0 6 1 13t3 13l352 1280q8 30 36 50t56 20h44h46q32 0 58 -21t34 -49l352 -1280q4 -12 4 -26q0 -32 -20 -58t-50 -34q-12 -4 -26 -4q-32 0 -58 20t-34 50l-60 218h-490l-60 -218q-6 -20 -20 -36t-33 -25t-39 -9q-14 0 -26 4q-30 8 -50 34t-20 58zM300 1760 q0 54 46 82l308 192q22 14 50 14q16 0 31 -5t28 -16t23 -25q14 -22 14 -50q0 -54 -46 -82l-308 -192q-4 -4 -11 -6t-13 -4t-12 -3t-14 -1q-54 0 -82 46q-14 22 -14 50zM360 480h382l-190 698z" />
<glyph unicode="&#xc2;" horiz-adv-x="1100" d="M58 96q0 6 1 13t3 13l352 1280q8 30 36 50t56 20h44h46q32 0 58 -21t34 -49l352 -1280q4 -12 4 -26q0 -32 -20 -58t-50 -34q-12 -4 -26 -4q-32 0 -58 20t-34 50l-60 218h-490l-60 -218q-6 -20 -20 -36t-33 -25t-39 -9q-14 0 -26 4q-30 8 -50 34t-20 58zM274 1760 q0 44 32 72l180 160q26 24 64 24t64 -24l180 -160q32 -28 32 -72q0 -8 -1 -14t-3 -13t-5 -13t-7 -12l-8 -12q-28 -32 -72 -32q-36 0 -64 24l-116 104l-116 -104q-28 -24 -64 -24q-44 0 -72 32q-24 28 -24 64zM360 480h382l-190 698z" />
<glyph unicode="&#xc3;" horiz-adv-x="1100" d="M58 96q0 6 1 13t3 13l352 1280q8 30 36 50t56 20h44h46q32 0 58 -21t34 -49l352 -1280q4 -12 4 -26q0 -32 -20 -58t-50 -34q-12 -4 -26 -4q-32 0 -58 20t-34 50l-60 218h-490l-60 -218q-6 -20 -20 -36t-33 -25t-39 -9q-14 0 -26 4q-30 8 -50 34t-20 58zM224 1762 q0 8 2 16q0 8 3 22t19 50t38 63t65 49t97 22q36 0 68 -12q98 -38 134 -116h2q4 0 11 8t14 21t9 25q4 16 13 30t22 24t28 15t31 5h9t11 -2q32 -6 54 -33t22 -61v-7t-1 -5t-1 -6q0 -8 -3 -22t-18 -50t-37 -63t-66 -49t-98 -22q-38 0 -70 12q-28 12 -52 28t-38 30t-24 28 t-14 22l-4 8h-2q-4 0 -11 -8t-14 -20t-9 -26q-6 -20 -19 -37t-33 -27t-42 -10q-10 0 -20 2q-22 4 -40 19t-27 35t-9 42zM360 480h382l-190 698z" />
<glyph unicode="&#xc4;" horiz-adv-x="1100" d="M58 96q0 6 1 13t3 13l352 1280q8 30 36 50t56 20h44h46q32 0 58 -21t34 -49l352 -1280q4 -12 4 -26q0 -32 -20 -58t-50 -34q-12 -4 -26 -4q-32 0 -58 20t-34 50l-60 218h-490l-60 -218q-6 -20 -20 -36t-33 -25t-39 -9q-14 0 -26 4q-30 8 -50 34t-20 58zM300 1760v96 q0 40 28 68t68 28t68 -28t28 -68v-96q0 -40 -28 -68t-68 -28t-68 28t-28 68zM360 480h382l-190 698zM608 1760v96q0 40 28 68t68 28t68 -28t28 -68v-96q0 -40 -28 -68t-68 -28t-68 28t-28 68z" />
<glyph unicode="&#xc5;" horiz-adv-x="1100" d="M58 96q0 6 1 13t3 13l352 1280q8 30 36 50t56 20h44h46q32 0 58 -21t34 -49l352 -1280q4 -12 4 -26q0 -32 -20 -58t-50 -34q-12 -4 -26 -4q-32 0 -58 20t-34 50l-60 218h-490l-60 -218q-6 -20 -20 -36t-33 -25t-39 -9q-14 0 -26 4q-30 8 -50 34t-20 58zM326 1920 q0 100 62 178t162 78t162 -78t62 -178t-62 -178t-162 -78t-162 78t-62 178zM360 480h382l-190 698zM518 1920q0 -24 8 -40t16 -20l8 -4q32 12 32 64q0 24 -8 40t-16 20l-8 4q-32 -12 -32 -64z" />
<glyph unicode="&#xc6;" horiz-adv-x="1458" d="M58 96q0 18 6 36l506 1280q12 26 37 43t53 17h46h42h500q40 0 68 -28t28 -68t-28 -68t-68 -28h-404v-408h250q40 0 68 -28t28 -68t-28 -68t-68 -28h-250v-488h424q40 0 68 -28t28 -68t-28 -68t-68 -28h-520q-40 0 -68 28t-28 68v192h-318l-90 -228q-12 -26 -37 -43 t-53 -17q-18 0 -36 6q-8 4 -15 8t-13 10t-11 12t-9 14t-7 15t-4 15t-1 16zM410 480h242v614z" />
<glyph unicode="&#xc7;" horiz-adv-x="1094" d="M96 736q0 192 56 361t171 280t265 111q62 0 116 -17t91 -45t68 -61t50 -66t32 -60t18 -44l5 -17q4 -14 4 -26q0 -16 -5 -31t-14 -27t-22 -21t-27 -13q-8 -2 -14 -3t-14 -1q-14 0 -29 5t-27 13t-21 21t-15 27q-4 16 -15 38t-34 56t-62 57t-85 23q-106 0 -203 -158 t-97 -402t97 -402t203 -158q28 0 57 13t51 33t42 46t34 51t23 47t11 38q2 38 30 65t66 27q40 0 68 -28t28 -68q0 -38 -23 -101t-67 -136t-129 -126t-191 -53q-148 0 -263 111t-172 280t-57 361zM390 -144q0 20 8 40l102 224q26 56 88 56q10 0 20 -2t20 -6q16 -8 29 -22 t20 -31t7 -35q0 -22 -8 -40l-48 -106q82 -24 122 -82q18 -28 27 -59t9 -65q0 -14 -1 -27t-4 -26t-8 -25t-11 -24t-14 -24q-42 -58 -108 -78t-154 -20q-40 0 -68 28t-28 68t28 68t68 28q34 0 61 5t35 8t10 5q2 4 2 14t-2 14q-2 2 -10 5t-35 8t-61 5q-40 0 -68 29t-28 67z" />
<glyph unicode="&#xc8;" horiz-adv-x="1112" d="M134 96v1280q0 34 28 65t68 31h666q40 0 68 -28t28 -68t-28 -68t-68 -28h-570v-408h366q40 0 68 -28t28 -68t-28 -68t-68 -28h-366v-488h596q40 0 68 -28t28 -68t-28 -68t-68 -28h-692q-34 0 -65 28t-31 68zM306 1952q0 28 14 50t36 34t46 12q28 0 50 -14l308 -192 q46 -28 46 -82q0 -28 -14 -50q-28 -46 -82 -46q-10 0 -18 2t-17 5t-15 7l-308 192q-46 28 -46 82z" />
<glyph unicode="&#xc9;" horiz-adv-x="1112" d="M134 96v1280q0 34 28 65t68 31h666q40 0 68 -28t28 -68t-28 -68t-68 -28h-570v-408h366q40 0 68 -28t28 -68t-28 -68t-68 -28h-366v-488h596q40 0 68 -28t28 -68t-28 -68t-68 -28h-692q-34 0 -65 28t-31 68zM306 1760q0 54 46 82l308 192q22 14 50 14q16 0 31 -5t28 -16 t23 -25q14 -22 14 -50q0 -54 -46 -82l-308 -192q-4 -4 -11 -6t-13 -4t-12 -3t-14 -1q-54 0 -82 46q-14 22 -14 50z" />
<glyph unicode="&#xca;" horiz-adv-x="1112" d="M134 96v1280q0 34 28 65t68 31h666q40 0 68 -28t28 -68t-28 -68t-68 -28h-570v-408h366q40 0 68 -28t28 -68t-28 -68t-68 -28h-366v-488h596q40 0 68 -28t28 -68t-28 -68t-68 -28h-692q-34 0 -65 28t-31 68zM280 1760q0 44 32 72l180 160q26 24 64 24t64 -24l180 -160 q32 -28 32 -72q0 -8 -1 -14t-3 -13t-5 -13t-7 -12l-8 -12q-28 -32 -72 -32q-36 0 -64 24l-116 104l-116 -104q-28 -24 -64 -24q-44 0 -72 32q-24 28 -24 64z" />
<glyph unicode="&#xcb;" horiz-adv-x="1112" d="M134 96v1280q0 34 28 65t68 31h666q40 0 68 -28t28 -68t-28 -68t-68 -28h-570v-408h366q40 0 68 -28t28 -68t-28 -68t-68 -28h-366v-488h596q40 0 68 -28t28 -68t-28 -68t-68 -28h-692q-34 0 -65 28t-31 68zM306 1760v96q0 40 28 68t68 28t68 -28t28 -68v-96 q0 -40 -28 -68t-68 -28t-68 28t-28 68zM614 1760v96q0 40 28 68t68 28t68 -28t28 -68v-96q0 -40 -28 -68t-68 -28t-68 28t-28 68z" />
<glyph unicode="&#xcc;" horiz-adv-x="536" d="M18 1952q0 28 14 50t36 34t46 12q28 0 50 -14l308 -192q46 -28 46 -82q0 -28 -14 -50q-28 -46 -82 -46q-10 0 -18 2t-17 5t-15 7l-308 192q-46 28 -46 82zM172 96v1280q0 40 28 68t68 28t68 -28t28 -68v-1280q0 -40 -28 -68t-68 -28t-68 28t-28 68z" />
<glyph unicode="&#xcd;" horiz-adv-x="536" d="M18 1760q0 54 46 82l308 192q22 14 50 14q16 0 31 -5t28 -16t23 -25q14 -22 14 -50q0 -54 -46 -82l-308 -192q-4 -4 -11 -6t-13 -4t-12 -3t-14 -1q-54 0 -82 46q-14 22 -14 50zM172 96v1280q0 40 28 68t68 28t68 -28t28 -68v-1280q0 -40 -28 -68t-68 -28t-68 28t-28 68z " />
<glyph unicode="&#xce;" horiz-adv-x="536" d="M-8 1760q0 44 32 72l180 160q26 24 64 24t64 -24l180 -160q32 -28 32 -72q0 -8 -1 -14t-3 -13t-5 -13t-7 -12l-8 -12q-28 -32 -72 -32q-36 0 -64 24l-116 104l-116 -104q-28 -24 -64 -24q-44 0 -72 32q-24 28 -24 64zM172 96v1280q0 40 28 68t68 28t68 -28t28 -68v-1280 q0 -40 -28 -68t-68 -28t-68 28t-28 68z" />
<glyph unicode="&#xcf;" horiz-adv-x="536" d="M18 1760v96q0 40 28 68t68 28t68 -28t28 -68v-96q0 -40 -28 -68t-68 -28t-68 28t-28 68zM172 96v1280q0 40 28 68t68 28t68 -28t28 -68v-1280q0 -40 -28 -68t-68 -28t-68 28t-28 68zM326 1760v96q0 40 28 68t68 28t68 -28t28 -68v-96q0 -40 -28 -68t-68 -28t-68 28 t-28 68z" />
<glyph unicode="&#xd0;" horiz-adv-x="1112" d="M-20 776q0 40 28 68t68 28h58v504q0 40 31 68t65 28h334q70 0 145 -40t146 -122t117 -232t46 -342t-46 -342t-117 -232t-146 -122t-145 -40h-334q-40 0 -68 31t-28 65v584h-58q-40 0 -68 28t-28 68zM326 192h238q14 0 39 9t66 44t74 90t58 160t25 241t-25 241t-58 160 t-74 90t-66 44t-39 9h-238v-408h134q40 0 68 -28t28 -68t-28 -68t-68 -28h-134v-488z" />
<glyph unicode="&#xd1;" horiz-adv-x="1152" d="M134 96v1280q0 40 31 68t65 28h30h34q18 0 37 -8t31 -21t20 -27l444 -988v948q0 40 28 68t68 28t68 -28t28 -68v-1280q0 -34 -28 -65t-68 -31h-26h-26q-16 0 -33 7t-32 20t-23 29l-456 1014v-974q0 -40 -28 -68t-68 -28t-68 28t-28 68zM250 1762q0 8 2 16q0 8 3 22t19 50 t38 63t65 49t97 22q36 0 68 -12q98 -38 134 -116h2q4 0 11 8t14 21t9 25q4 16 13 30t22 24t28 15t31 5h9t11 -2q32 -6 54 -33t22 -61v-7t-1 -5t-1 -6q0 -8 -3 -22t-18 -50t-37 -63t-66 -49t-98 -22q-38 0 -70 12q-28 12 -52 28t-38 30t-24 28t-14 22l-4 8h-2q-4 0 -11 -8 t-14 -20t-9 -26q-6 -20 -19 -37t-33 -27t-42 -10q-10 0 -20 2q-22 4 -40 19t-27 35t-9 42z" />
<glyph unicode="&#xd2;" horiz-adv-x="1176" d="M96 736q0 192 56 361t171 280t265 111t265 -111t172 -280t57 -361t-57 -361t-172 -280t-265 -111t-265 111t-171 280t-56 361zM288 736q0 -244 97 -402t203 -158t204 158t98 402t-98 402t-204 158t-203 -158t-97 -402zM338 1952q0 28 14 50t36 34t46 12q28 0 50 -14 l308 -192q46 -28 46 -82q0 -28 -14 -50q-28 -46 -82 -46q-10 0 -18 2t-17 5t-15 7l-308 192q-46 28 -46 82z" />
<glyph unicode="&#xd3;" horiz-adv-x="1176" d="M96 736q0 192 56 361t171 280t265 111t265 -111t172 -280t57 -361t-57 -361t-172 -280t-265 -111t-265 111t-171 280t-56 361zM288 736q0 -244 97 -402t203 -158t204 158t98 402t-98 402t-204 158t-203 -158t-97 -402zM338 1760q0 54 46 82l308 192q22 14 50 14 q16 0 31 -5t28 -16t23 -25q14 -22 14 -50q0 -54 -46 -82l-308 -192q-4 -4 -11 -6t-13 -4t-12 -3t-14 -1q-54 0 -82 46q-14 22 -14 50z" />
<glyph unicode="&#xd4;" horiz-adv-x="1176" d="M96 736q0 192 56 361t171 280t265 111t265 -111t172 -280t57 -361t-57 -361t-172 -280t-265 -111t-265 111t-171 280t-56 361zM288 736q0 -244 97 -402t203 -158t204 158t98 402t-98 402t-204 158t-203 -158t-97 -402zM312 1760q0 44 32 72l180 160q26 24 64 24t64 -24 l180 -160q32 -28 32 -72q0 -8 -1 -14t-3 -13t-5 -13t-7 -12l-8 -12q-28 -32 -72 -32q-36 0 -64 24l-116 104l-116 -104q-28 -24 -64 -24q-44 0 -72 32q-24 28 -24 64z" />
<glyph unicode="&#xd5;" horiz-adv-x="1176" d="M96 736q0 192 56 361t171 280t265 111t265 -111t172 -280t57 -361t-57 -361t-172 -280t-265 -111t-265 111t-171 280t-56 361zM262 1762q0 8 2 16q0 8 3 22t19 50t38 63t65 49t97 22q36 0 68 -12q98 -38 134 -116h2q4 0 11 8t14 21t9 25q4 16 13 30t22 24t28 15t31 5h9 t11 -2q32 -6 54 -33t22 -61v-7t-1 -5t-1 -6q0 -8 -3 -22t-18 -50t-37 -63t-66 -49t-98 -22q-38 0 -70 12q-28 12 -52 28t-38 30t-24 28t-14 22l-4 8h-2q-4 0 -11 -8t-14 -20t-9 -26q-6 -20 -19 -37t-33 -27t-42 -10q-10 0 -20 2q-22 4 -40 19t-27 35t-9 42zM288 736 q0 -244 97 -402t203 -158t204 158t98 402t-98 402t-204 158t-203 -158t-97 -402z" />
<glyph unicode="&#xd6;" horiz-adv-x="1176" d="M96 736q0 192 56 361t171 280t265 111t265 -111t172 -280t57 -361t-57 -361t-172 -280t-265 -111t-265 111t-171 280t-56 361zM288 736q0 -244 97 -402t203 -158t204 158t98 402t-98 402t-204 158t-203 -158t-97 -402zM338 1760v96q0 40 28 68t68 28t68 -28t28 -68v-96 q0 -40 -28 -68t-68 -28t-68 28t-28 68zM646 1760v96q0 40 28 68t68 28t68 -28t28 -68v-96q0 -40 -28 -68t-68 -28t-68 28t-28 68z" />
<glyph unicode="&#xd7;" horiz-adv-x="1024" d="M134 384q0 16 5 32t17 28l232 292l-232 292q-22 26 -22 60q0 46 36 74q8 8 18 13t20 7t22 2q46 0 74 -36l208 -258l208 258q12 18 32 27t42 9q34 0 60 -22q36 -28 36 -74q0 -8 -1 -16t-4 -16t-7 -15t-10 -13l-232 -292l232 -292q22 -26 22 -60q0 -46 -36 -74 q-6 -6 -11 -9t-11 -5l-12 -4t-13 -3t-13 -1q-8 0 -16 2t-17 5t-16 7t-14 10t-11 12l-208 258l-208 -258q-12 -18 -32 -27t-42 -9q-34 0 -60 22q-36 28 -36 74z" />
<glyph unicode="&#xd8;" horiz-adv-x="1176" d="M96 736q0 192 56 361t171 280t265 111t265 -111t172 -280t57 -361t-57 -361t-172 -280t-265 -111t-265 111t-171 280t-56 361zM108 96q0 28 14 50l768 1280q12 22 35 34t47 12q28 0 50 -14q46 -28 46 -82q0 -14 -3 -26t-11 -24l-768 -1280q-28 -46 -82 -46q-28 0 -50 14 q-46 28 -46 82zM288 736q0 -244 97 -402t203 -158t204 158t98 402t-98 402t-204 158t-203 -158t-97 -402z" />
<glyph unicode="&#xd9;" horiz-adv-x="1138" d="M134 432v944q0 40 28 68t68 28t68 -28t28 -68v-944q0 -108 72 -182t172 -74t171 74t71 182v944q0 40 28 68t68 28t68 -28t28 -68v-944q0 -184 -126 -316t-308 -132t-309 132t-127 316zM320 1952q0 28 14 50t36 34t46 12q28 0 50 -14l308 -192q46 -28 46 -82 q0 -28 -14 -50q-28 -46 -82 -46q-10 0 -18 2t-17 5t-15 7l-308 192q-46 28 -46 82z" />
<glyph unicode="&#xda;" horiz-adv-x="1138" d="M134 432v944q0 40 28 68t68 28t68 -28t28 -68v-944q0 -108 72 -182t172 -74t171 74t71 182v944q0 40 28 68t68 28t68 -28t28 -68v-944q0 -184 -126 -316t-308 -132t-309 132t-127 316zM320 1760q0 54 46 82l308 192q22 14 50 14q16 0 31 -5t28 -16t23 -25q14 -22 14 -50 q0 -54 -46 -82l-308 -192q-4 -4 -11 -6t-13 -4t-12 -3t-14 -1q-54 0 -82 46q-14 22 -14 50z" />
<glyph unicode="&#xdb;" horiz-adv-x="1138" d="M134 432v944q0 40 28 68t68 28t68 -28t28 -68v-944q0 -108 72 -182t172 -74t171 74t71 182v944q0 40 28 68t68 28t68 -28t28 -68v-944q0 -184 -126 -316t-308 -132t-309 132t-127 316zM294 1760q0 44 32 72l180 160q26 24 64 24t64 -24l180 -160q32 -28 32 -72 q0 -8 -1 -14t-3 -13t-5 -13t-7 -12l-8 -12q-28 -32 -72 -32q-36 0 -64 24l-116 104l-116 -104q-28 -24 -64 -24q-44 0 -72 32q-24 28 -24 64z" />
<glyph unicode="&#xdc;" horiz-adv-x="1138" d="M134 432v944q0 40 28 68t68 28t68 -28t28 -68v-944q0 -108 72 -182t172 -74t171 74t71 182v944q0 40 28 68t68 28t68 -28t28 -68v-944q0 -184 -126 -316t-308 -132t-309 132t-127 316zM320 1760v96q0 40 28 68t68 28t68 -28t28 -68v-96q0 -40 -28 -68t-68 -28t-68 28 t-28 68zM628 1760v96q0 40 28 68t68 28t68 -28t28 -68v-96q0 -40 -28 -68t-68 -28t-68 28t-28 68z" />
<glyph unicode="&#xdd;" horiz-adv-x="1048" d="M58 1376q0 24 12 46t34 36t50 14q24 0 46 -12t36 -34l288 -474l290 474q14 22 36 34t46 12q28 0 50 -14t34 -36t12 -46q0 -28 -14 -50l-358 -586v-644q0 -40 -28 -68t-68 -28t-68 28t-28 68v646l-356 584q-14 22 -14 50zM274 1760q0 54 46 82l308 192q22 14 50 14 q16 0 31 -5t28 -16t23 -25q14 -22 14 -50q0 -54 -46 -82l-308 -192q-4 -4 -11 -6t-13 -4t-12 -3t-14 -1q-54 0 -82 46q-14 22 -14 50z" />
<glyph unicode="&#xde;" horiz-adv-x="1088" d="M134 96v1016v264q0 40 28 68t68 28t68 -28t28 -68v-168h288q162 0 270 -118t108 -314t-108 -314t-270 -118h-288v-248q0 -40 -28 -68t-68 -28t-68 28t-28 68zM326 536h288q82 0 134 56t52 184t-52 184t-134 56h-288v-480z" />
<glyph unicode="&#xdf;" horiz-adv-x="1010" d="M134 96v960q0 98 37 194t121 167t194 71h52q160 0 256 -124t96 -280q0 -176 -112 -298q68 -66 103 -165t35 -193q0 -72 -20 -146t-60 -142t-111 -112t-161 -44h-26q-40 0 -68 28t-28 68t28 68t68 28h26q62 0 111 74t49 178t-49 178t-111 74h-26q-40 0 -68 28t-28 68 t28 68t68 28q64 0 112 60t48 152t-48 152t-112 60h-52q-58 0 -109 -71t-51 -169v-960q0 -40 -28 -68t-68 -28t-68 28t-28 68z" />
<glyph unicode="&#xe0;" horiz-adv-x="940" d="M76 528q0 214 102 379t276 165q50 0 94 -15t82 -45q14 20 35 32t45 12q40 0 68 -28t28 -68v-864q0 -40 -28 -68t-68 -28q-52 0 -80 44q-80 -60 -176 -60q-174 0 -276 165t-102 379zM220 1536q0 28 14 50t36 34t46 12q28 0 50 -14l308 -192q46 -28 46 -82q0 -28 -14 -50 q-28 -46 -82 -46q-10 0 -18 2t-17 5t-15 7l-308 192q-46 28 -46 82zM268 528q0 -158 63 -255t123 -97q24 0 52 17t58 60t50 103v344q-28 88 -74 134t-86 46q-60 0 -123 -97t-63 -255z" />
<glyph unicode="&#xe1;" horiz-adv-x="940" d="M76 528q0 214 102 379t276 165q50 0 94 -15t82 -45q14 20 35 32t45 12q40 0 68 -28t28 -68v-864q0 -40 -28 -68t-68 -28q-52 0 -80 44q-80 -60 -176 -60q-174 0 -276 165t-102 379zM220 1344q0 54 46 82l308 192q22 14 50 14q16 0 31 -5t28 -16t23 -25q14 -22 14 -50 q0 -54 -46 -82l-308 -192q-4 -4 -11 -6t-13 -4t-12 -3t-14 -1q-54 0 -82 46q-14 22 -14 50zM268 528q0 -158 63 -255t123 -97q24 0 52 17t58 60t50 103v344q-28 88 -74 134t-86 46q-60 0 -123 -97t-63 -255z" />
<glyph unicode="&#xe2;" horiz-adv-x="940" d="M76 528q0 214 102 379t276 165q50 0 94 -15t82 -45q14 20 35 32t45 12q40 0 68 -28t28 -68v-864q0 -40 -28 -68t-68 -28q-52 0 -80 44q-80 -60 -176 -60q-174 0 -276 165t-102 379zM194 1344q0 44 32 72l180 160q26 24 64 24t64 -24l180 -160q32 -28 32 -72q0 -8 -1 -14 t-3 -13t-5 -13t-7 -12l-8 -12q-28 -32 -72 -32q-36 0 -64 24l-116 104l-116 -104q-28 -24 -64 -24q-44 0 -72 32q-24 28 -24 64zM268 528q0 -158 63 -255t123 -97q24 0 52 17t58 60t50 103v344q-28 88 -74 134t-86 46q-60 0 -123 -97t-63 -255z" />
<glyph unicode="&#xe3;" horiz-adv-x="940" d="M76 528q0 214 102 379t276 165q50 0 94 -15t82 -45q14 20 35 32t45 12q40 0 68 -28t28 -68v-864q0 -40 -28 -68t-68 -28q-52 0 -80 44q-80 -60 -176 -60q-174 0 -276 165t-102 379zM144 1346q0 8 2 16q0 8 3 22t19 50t38 63t65 49t97 22q36 0 68 -12q98 -38 134 -116h2 q4 0 11 8t14 21t9 25q4 16 13 30t22 24t28 15t31 5h9t11 -2q32 -6 54 -33t22 -61v-7t-1 -5t-1 -6q0 -8 -3 -22t-18 -50t-37 -63t-66 -49t-98 -22q-38 0 -70 12q-28 12 -52 28t-38 30t-24 28t-14 22l-4 8h-2q-4 0 -11 -8t-14 -20t-9 -26q-6 -20 -19 -37t-33 -27t-42 -10 q-10 0 -20 2q-22 4 -40 19t-27 35t-9 42zM268 528q0 -158 63 -255t123 -97q24 0 52 17t58 60t50 103v344q-28 88 -74 134t-86 46q-60 0 -123 -97t-63 -255z" />
<glyph unicode="&#xe4;" horiz-adv-x="940" d="M76 528q0 214 102 379t276 165q50 0 94 -15t82 -45q14 20 35 32t45 12q40 0 68 -28t28 -68v-864q0 -40 -28 -68t-68 -28q-52 0 -80 44q-80 -60 -176 -60q-174 0 -276 165t-102 379zM220 1344v96q0 40 28 68t68 28t68 -28t28 -68v-96q0 -40 -28 -68t-68 -28t-68 28t-28 68 zM268 528q0 -158 63 -255t123 -97q24 0 52 17t58 60t50 103v344q-28 88 -74 134t-86 46q-60 0 -123 -97t-63 -255zM528 1344v96q0 40 28 68t68 28t68 -28t28 -68v-96q0 -40 -28 -68t-68 -28t-68 28t-28 68z" />
<glyph unicode="&#xe5;" horiz-adv-x="940" d="M76 528q0 214 102 379t276 165q50 0 94 -15t82 -45q14 20 35 32t45 12q40 0 68 -28t28 -68v-864q0 -40 -28 -68t-68 -28q-52 0 -80 44q-80 -60 -176 -60q-174 0 -276 165t-102 379zM246 1504q0 100 62 178t162 78t162 -78t62 -178t-62 -178t-162 -78t-162 78t-62 178z M268 528q0 -158 63 -255t123 -97q24 0 52 17t58 60t50 103v344q-28 88 -74 134t-86 46q-60 0 -123 -97t-63 -255zM438 1504q0 -24 8 -40t16 -20l8 -4q32 12 32 64q0 24 -8 40t-16 20l-8 4q-32 -12 -32 -64z" />
<glyph unicode="&#xe6;" horiz-adv-x="1280" d="M76 320q0 54 15 104t48 98t96 82t149 44q78 8 103 42t25 86q0 40 -33 72t-83 32q-34 0 -66 -16t-46 -30l-14 -16q-34 -50 -84 -50q-26 0 -52 14q-14 10 -24 23t-15 28t-5 31q0 28 14 50q6 10 14 21t36 38t58 47t80 36t104 16q142 0 234 -104q94 104 222 104q92 0 166 -52 t122 -146q64 -130 64 -298q0 -40 -31 -68t-65 -28h-428q10 -144 66 -224t106 -80q36 0 68 15t53 39t32 40t17 28q4 10 11 18t15 14t18 11t21 8t23 3q20 0 36 -8q28 -12 43 -36t15 -54q0 -18 -8 -34q-56 -130 -174 -194q-78 -42 -170 -42q-128 0 -220 102 q-106 -102 -236 -102q-148 0 -234 101t-86 235zM268 320q0 -144 128 -144q62 0 134 88q-36 98 -42 210q-38 -12 -80 -18q-52 -6 -81 -16t-42 -31t-15 -37t-2 -52zM694 672h312q-10 60 -38 118q-46 90 -116 90q-24 0 -52 -19t-59 -68t-47 -121z" />
<glyph unicode="&#xe7;" horiz-adv-x="844" d="M76 528q0 136 41 257t128 204t203 83q96 0 173 -59t125 -153q10 -20 10 -44q0 -58 -52 -86q-6 -2 -11 -4t-10 -3t-11 -2t-12 -1q-58 0 -86 52q-28 56 -62 82t-64 26q-56 0 -118 -97t-62 -255t62 -255t118 -97q32 0 69 32t67 98q12 26 36 42t52 16q6 0 11 -1t9 -2t9 -2 t9 -3q26 -12 42 -36t16 -52q0 -20 -8 -38q-30 -70 -73 -123t-106 -88t-133 -35q-116 0 -203 83t-128 204t-41 257zM250 -144q0 20 8 40l102 224q26 56 88 56q10 0 20 -2t20 -6q16 -8 29 -22t20 -31t7 -35q0 -22 -8 -40l-48 -106q82 -24 122 -82q18 -28 27 -59t9 -65 q0 -14 -1 -27t-4 -26t-8 -25t-11 -24t-14 -24q-42 -58 -108 -78t-154 -20q-40 0 -68 28t-28 68t28 68t68 28q34 0 61 5t35 8t10 5q2 4 2 14t-2 14q-2 2 -10 5t-35 8t-61 5q-40 0 -68 29t-28 67z" />
<glyph unicode="&#xe8;" horiz-adv-x="870" d="M76 528q0 32 2 66q8 92 35 176t71 152t111 109t147 41q46 0 89 -14t79 -39t67 -62t55 -83q62 -126 62 -298q0 -40 -31 -68t-65 -28h-428q10 -144 66 -224t106 -80q48 0 89 29t56 51t25 42q10 24 35 39t53 15q10 0 19 -2t17 -6q28 -12 43 -36t15 -54q0 -8 -2 -17t-6 -17 q-6 -14 -13 -29t-38 -57t-66 -71t-96 -54t-131 -25q-170 0 -268 163t-98 381zM186 1536q0 28 14 50t36 34t46 12q28 0 50 -14l308 -192q46 -28 46 -82q0 -28 -14 -50q-28 -46 -82 -46q-10 0 -18 2t-17 5t-15 7l-308 192q-46 28 -46 82zM284 672h312q-10 62 -36 118 q-26 50 -55 70t-63 20q-24 0 -52 -19t-59 -68t-47 -121z" />
<glyph unicode="&#xe9;" horiz-adv-x="870" d="M76 528q0 32 2 66q8 92 35 176t71 152t111 109t147 41q46 0 89 -14t79 -39t67 -62t55 -83q62 -126 62 -298q0 -40 -31 -68t-65 -28h-428q10 -144 66 -224t106 -80q48 0 89 29t56 51t25 42q10 24 35 39t53 15q10 0 19 -2t17 -6q28 -12 43 -36t15 -54q0 -8 -2 -17t-6 -17 q-6 -14 -13 -29t-38 -57t-66 -71t-96 -54t-131 -25q-170 0 -268 163t-98 381zM186 1344q0 54 46 82l308 192q22 14 50 14q16 0 31 -5t28 -16t23 -25q14 -22 14 -50q0 -54 -46 -82l-308 -192q-4 -4 -11 -6t-13 -4t-12 -3t-14 -1q-54 0 -82 46q-14 22 -14 50zM284 672h312 q-10 62 -36 118q-26 50 -55 70t-63 20q-24 0 -52 -19t-59 -68t-47 -121z" />
<glyph unicode="&#xea;" horiz-adv-x="870" d="M76 528q0 32 2 66q8 92 35 176t71 152t111 109t147 41q46 0 89 -14t79 -39t67 -62t55 -83q62 -126 62 -298q0 -40 -31 -68t-65 -28h-428q10 -144 66 -224t106 -80q48 0 89 29t56 51t25 42q10 24 35 39t53 15q10 0 19 -2t17 -6q28 -12 43 -36t15 -54q0 -8 -2 -17t-6 -17 q-6 -14 -13 -29t-38 -57t-66 -71t-96 -54t-131 -25q-170 0 -268 163t-98 381zM160 1344q0 44 32 72l180 160q26 24 64 24t64 -24l180 -160q32 -28 32 -72q0 -8 -1 -14t-3 -13t-5 -13t-7 -12l-8 -12q-28 -32 -72 -32q-36 0 -64 24l-116 104l-116 -104q-28 -24 -64 -24 q-44 0 -72 32q-24 28 -24 64zM284 672h312q-10 62 -36 118q-26 50 -55 70t-63 20q-24 0 -52 -19t-59 -68t-47 -121z" />
<glyph unicode="&#xeb;" horiz-adv-x="870" d="M76 528q0 32 2 66q8 92 35 176t71 152t111 109t147 41q46 0 89 -14t79 -39t67 -62t55 -83q62 -126 62 -298q0 -40 -31 -68t-65 -28h-428q10 -144 66 -224t106 -80q48 0 89 29t56 51t25 42q10 24 35 39t53 15q10 0 19 -2t17 -6q28 -12 43 -36t15 -54q0 -8 -2 -17t-6 -17 q-6 -14 -13 -29t-38 -57t-66 -71t-96 -54t-131 -25q-170 0 -268 163t-98 381zM186 1344v96q0 40 28 68t68 28t68 -28t28 -68v-96q0 -40 -28 -68t-68 -28t-68 28t-28 68zM284 672h312q-10 62 -36 118q-26 50 -55 70t-63 20q-24 0 -52 -19t-59 -68t-47 -121zM494 1344v96 q0 40 28 68t68 28t68 -28t28 -68v-96q0 -40 -28 -68t-68 -28t-68 28t-28 68z" />
<glyph unicode="&#xec;" d="M-20 1536q0 28 14 50t36 34t46 12q28 0 50 -14l308 -192q46 -28 46 -82q0 -28 -14 -50q-28 -46 -82 -46q-10 0 -18 2t-17 5t-15 7l-308 192q-46 28 -46 82zM134 96v864q0 40 28 68t68 28t68 -28t28 -68v-864q0 -40 -28 -68t-68 -28t-68 28t-28 68z" />
<glyph unicode="&#xed;" d="M-20 1344q0 54 46 82l308 192q22 14 50 14q16 0 31 -5t28 -16t23 -25q14 -22 14 -50q0 -54 -46 -82l-308 -192q-4 -4 -11 -6t-13 -4t-12 -3t-14 -1q-54 0 -82 46q-14 22 -14 50zM134 96v864q0 40 28 68t68 28t68 -28t28 -68v-864q0 -40 -28 -68t-68 -28t-68 28t-28 68z " />
<glyph unicode="&#xee;" d="M-46 1344q0 44 32 72l180 160q26 24 64 24t64 -24l180 -160q32 -28 32 -72q0 -8 -1 -14t-3 -13t-5 -13t-7 -12l-8 -12q-28 -32 -72 -32q-36 0 -64 24l-116 104l-116 -104q-28 -24 -64 -24q-44 0 -72 32q-24 28 -24 64zM134 96v864q0 40 28 68t68 28t68 -28t28 -68v-864 q0 -40 -28 -68t-68 -28t-68 28t-28 68z" />
<glyph unicode="&#xef;" d="M-20 1344v96q0 40 28 68t68 28t68 -28t28 -68v-96q0 -40 -28 -68t-68 -28t-68 28t-28 68zM134 96v864q0 40 28 68t68 28t68 -28t28 -68v-864q0 -40 -28 -68t-68 -28t-68 28t-28 68zM288 1344v96q0 40 28 68t68 28t68 -28t28 -68v-96q0 -40 -28 -68t-68 -28t-68 28t-28 68 z" />
<glyph unicode="&#xf0;" horiz-adv-x="908" d="M76 528q0 214 102 379t276 165q18 0 36 -2q-20 30 -44 64q-94 -46 -190 -46q-40 0 -68 28t-28 68t28 68t68 28q24 0 62 24q-4 6 -10 12q-20 26 -20 60q0 46 36 76q26 20 60 20q46 0 76 -36l8 -12t10 -12q106 60 214 60q40 0 68 -28t28 -68t-28 -68t-68 -28q-16 0 -36 -10 t-50 -32q114 -166 170 -332t56 -378q0 -214 -102 -379t-276 -165t-276 165t-102 379zM268 528q0 -158 63 -255t123 -97t123 97t63 255t-63 255t-123 97t-123 -97t-63 -255z" />
<glyph unicode="&#xf1;" horiz-adv-x="928" d="M134 96v864q0 40 28 68t68 28q52 0 82 -46q40 30 89 46t105 16q130 0 209 -110t79 -258v-608q0 -40 -28 -68t-68 -28t-68 28t-28 68v608q0 60 -20 103t-40 58t-36 15q-56 0 -104 -50t-76 -102v-632q0 -40 -28 -68t-68 -28t-68 28t-28 68zM138 1346q0 8 2 16q0 8 3 22 t19 50t38 63t65 49t97 22q36 0 68 -12q98 -38 134 -116h2q4 0 11 8t14 21t9 25q4 16 13 30t22 24t28 15t31 5h9t11 -2q32 -6 54 -33t22 -61v-7t-1 -5t-1 -6q0 -8 -3 -22t-18 -50t-37 -63t-66 -49t-98 -22q-38 0 -70 12q-28 12 -52 28t-38 30t-24 28t-14 22l-4 8h-2 q-4 0 -11 -8t-14 -20t-9 -26q-6 -20 -19 -37t-33 -27t-42 -10q-10 0 -20 2q-22 4 -40 19t-27 35t-9 42z" />
<glyph unicode="&#xf2;" horiz-adv-x="908" d="M76 528q0 214 102 379t276 165t276 -165t102 -379t-102 -379t-276 -165t-276 165t-102 379zM204 1536q0 28 14 50t36 34t46 12q28 0 50 -14l308 -192q46 -28 46 -82q0 -28 -14 -50q-28 -46 -82 -46q-10 0 -18 2t-17 5t-15 7l-308 192q-46 28 -46 82zM268 528 q0 -158 63 -255t123 -97t123 97t63 255t-63 255t-123 97t-123 -97t-63 -255z" />
<glyph unicode="&#xf3;" horiz-adv-x="908" d="M76 528q0 214 102 379t276 165t276 -165t102 -379t-102 -379t-276 -165t-276 165t-102 379zM204 1344q0 54 46 82l308 192q22 14 50 14q16 0 31 -5t28 -16t23 -25q14 -22 14 -50q0 -54 -46 -82l-308 -192q-4 -4 -11 -6t-13 -4t-12 -3t-14 -1q-54 0 -82 46q-14 22 -14 50z M268 528q0 -158 63 -255t123 -97t123 97t63 255t-63 255t-123 97t-123 -97t-63 -255z" />
<glyph unicode="&#xf4;" horiz-adv-x="908" d="M76 528q0 214 102 379t276 165t276 -165t102 -379t-102 -379t-276 -165t-276 165t-102 379zM178 1344q0 44 32 72l180 160q26 24 64 24t64 -24l180 -160q32 -28 32 -72q0 -8 -1 -14t-3 -13t-5 -13t-7 -12l-8 -12q-28 -32 -72 -32q-36 0 -64 24l-116 104l-116 -104 q-28 -24 -64 -24q-44 0 -72 32q-24 28 -24 64zM268 528q0 -158 63 -255t123 -97t123 97t63 255t-63 255t-123 97t-123 -97t-63 -255z" />
<glyph unicode="&#xf5;" horiz-adv-x="908" d="M76 528q0 214 102 379t276 165t276 -165t102 -379t-102 -379t-276 -165t-276 165t-102 379zM268 528q0 -158 63 -255t123 -97t123 97t63 255t-63 255t-123 97t-123 -97t-63 -255z" />
<glyph unicode="&#xf6;" horiz-adv-x="908" d="M76 528q0 214 102 379t276 165t276 -165t102 -379t-102 -379t-276 -165t-276 165t-102 379zM204 1344v96q0 40 28 68t68 28t68 -28t28 -68v-96q0 -40 -28 -68t-68 -28t-68 28t-28 68zM268 528q0 -158 63 -255t123 -97t123 97t63 255t-63 255t-123 97t-123 -97t-63 -255z M512 1344v96q0 40 28 68t68 28t68 -28t28 -68v-96q0 -40 -28 -68t-68 -28t-68 28t-28 68z" />
<glyph unicode="&#xf7;" horiz-adv-x="1024" d="M70 736q0 40 28 68t68 28h692q40 0 68 -28t28 -68t-28 -68t-68 -28h-692q-40 0 -68 28t-28 68zM378 288q0 58 38 109t108 51q60 0 91 -39t31 -89q0 -58 -38 -109t-108 -51q-60 0 -91 39t-31 89zM378 1152q0 58 38 109t108 51q60 0 91 -39t31 -89q0 -58 -38 -109t-108 -51 q-60 0 -91 39t-31 89z" />
<glyph unicode="&#xf8;" horiz-adv-x="908" d="M76 528q0 214 102 379t276 165t276 -165t102 -379t-102 -379t-276 -165t-276 165t-102 379zM90 96q0 6 1 11l2 10t3 10l4 10t4 9l538 864q14 22 36 34t46 12q28 0 50 -14q46 -28 46 -82q0 -8 -1 -14t-3 -12t-4 -13t-6 -11l-538 -864q-28 -46 -82 -46q-28 0 -50 14 q-46 28 -46 82zM268 528q0 -158 63 -255t123 -97t123 97t63 255t-63 255t-123 97t-123 -97t-63 -255z" />
<glyph unicode="&#xf9;" horiz-adv-x="928" d="M134 352v608q0 40 28 68t68 28t68 -28t28 -68v-608q0 -60 20 -103t40 -58t36 -15q56 0 104 50t76 102v632q0 40 28 68t68 28t68 -28t28 -68v-864q0 -40 -28 -68t-68 -28q-52 0 -82 46q-40 -30 -89 -46t-105 -16q-130 0 -209 110t-79 258zM214 1536q0 28 14 50t36 34 t46 12q28 0 50 -14l308 -192q46 -28 46 -82q0 -28 -14 -50q-28 -46 -82 -46q-10 0 -18 2t-17 5t-15 7l-308 192q-46 28 -46 82z" />
<glyph unicode="&#xfa;" horiz-adv-x="928" d="M134 352v608q0 40 28 68t68 28t68 -28t28 -68v-608q0 -60 20 -103t40 -58t36 -15q56 0 104 50t76 102v632q0 40 28 68t68 28t68 -28t28 -68v-864q0 -40 -28 -68t-68 -28q-52 0 -82 46q-40 -30 -89 -46t-105 -16q-130 0 -209 110t-79 258zM214 1344q0 54 46 82l308 192 q22 14 50 14q16 0 31 -5t28 -16t23 -25q14 -22 14 -50q0 -54 -46 -82l-308 -192q-4 -4 -11 -6t-13 -4t-12 -3t-14 -1q-54 0 -82 46q-14 22 -14 50z" />
<glyph unicode="&#xfb;" horiz-adv-x="928" d="M134 352v608q0 40 28 68t68 28t68 -28t28 -68v-608q0 -60 20 -103t40 -58t36 -15q56 0 104 50t76 102v632q0 40 28 68t68 28t68 -28t28 -68v-864q0 -40 -28 -68t-68 -28q-52 0 -82 46q-40 -30 -89 -46t-105 -16q-130 0 -209 110t-79 258zM188 1344q0 44 32 72l180 160 q26 24 64 24t64 -24l180 -160q32 -28 32 -72q0 -8 -1 -14t-3 -13t-5 -13t-7 -12l-8 -12q-28 -32 -72 -32q-36 0 -64 24l-116 104l-116 -104q-28 -24 -64 -24q-44 0 -72 32q-24 28 -24 64z" />
<glyph unicode="&#xfc;" horiz-adv-x="928" d="M134 352v608q0 40 28 68t68 28t68 -28t28 -68v-608q0 -60 20 -103t40 -58t36 -15q56 0 104 50t76 102v632q0 40 28 68t68 28t68 -28t28 -68v-864q0 -40 -28 -68t-68 -28q-52 0 -82 46q-40 -30 -89 -46t-105 -16q-130 0 -209 110t-79 258zM214 1344v96q0 40 28 68t68 28 t68 -28t28 -68v-96q0 -40 -28 -68t-68 -28t-68 28t-28 68zM522 1344v96q0 40 28 68t68 28t68 -28t28 -68v-96q0 -40 -28 -68t-68 -28t-68 28t-28 68z" />
<glyph unicode="&#xfd;" horiz-adv-x="792" d="M58 -288q0 12 2 22q6 22 20 39t33 26t41 9q10 0 20 -2t18 -2t22 14t33 50t33 84l28 112l-246 870q-2 6 -3 12t-1 14q0 32 19 58t51 34q12 4 26 4q32 0 58 -19t34 -51l158 -554l144 552q8 32 34 52t58 20q12 0 24 -4q32 -8 52 -34t20 -58q0 -12 -4 -24l-268 -1032 q-78 -292 -272 -292q-32 0 -62 8q-32 8 -52 34t-20 58zM146 1344q0 54 46 82l308 192q22 14 50 14q16 0 31 -5t28 -16t23 -25q14 -22 14 -50q0 -54 -46 -82l-308 -192q-4 -4 -11 -6t-13 -4t-12 -3t-14 -1q-54 0 -82 46q-14 22 -14 50z" />
<glyph unicode="&#xfe;" horiz-adv-x="940" d="M134 -288v1664q0 40 28 68t68 28t68 -28t28 -68v-352q74 48 160 48q174 0 276 -165t102 -379t-102 -379t-276 -165q-86 0 -160 48v-320q0 -40 -28 -68t-68 -28t-68 28t-28 68zM326 356q28 -88 74 -134t86 -46q60 0 123 97t63 255t-63 255t-123 97q-40 0 -86 -46t-74 -134 v-344z" />
<glyph unicode="&#xff;" horiz-adv-x="792" d="M58 -288q0 12 2 22q6 22 20 39t33 26t41 9q10 0 20 -2t18 -2t22 14t33 50t33 84l28 112l-246 870q-2 6 -3 12t-1 14q0 32 19 58t51 34q12 4 26 4q32 0 58 -19t34 -51l158 -554l144 552q8 32 34 52t58 20q12 0 24 -4q32 -8 52 -34t20 -58q0 -12 -4 -24l-268 -1032 q-78 -292 -272 -292q-32 0 -62 8q-32 8 -52 34t-20 58zM146 1344v96q0 40 28 68t68 28t68 -28t28 -68v-96q0 -40 -28 -68t-68 -28t-68 28t-28 68zM454 1344v96q0 40 28 68t68 28t68 -28t28 -68v-96q0 -40 -28 -68t-68 -28t-68 28t-28 68z" />
<glyph unicode="&#x178;" horiz-adv-x="1048" d="M58 1376q0 24 12 46t34 36t50 14q24 0 46 -12t36 -34l288 -474l290 474q14 22 36 34t46 12q28 0 50 -14t34 -36t12 -46q0 -28 -14 -50l-358 -586v-644q0 -40 -28 -68t-68 -28t-68 28t-28 68v646l-356 584q-14 22 -14 50zM274 1760v96q0 40 28 68t68 28t68 -28t28 -68v-96 q0 -40 -28 -68t-68 -28t-68 28t-28 68zM582 1760v96q0 40 28 68t68 28t68 -28t28 -68v-96q0 -40 -28 -68t-68 -28t-68 28t-28 68z" />
<glyph unicode="&#x2dc;" horiz-adv-x="0" d="M-326 1650q0 8 2 16q0 8 3 22t19 50t38 63t65 49t97 22q36 0 68 -12q98 -38 134 -116h2q4 0 11 8t14 21t9 25q4 16 13 30t22 24t28 15t31 5h9t11 -2q32 -6 54 -33t22 -61v-7t-1 -5t-1 -6q0 -8 -3 -22t-18 -50t-37 -63t-66 -49t-98 -22q-38 0 -70 12q-28 12 -52 28t-38 30 t-24 28t-14 22l-4 8h-2q-4 0 -11 -8t-14 -20t-9 -26q-6 -20 -19 -37t-33 -27t-42 -10q-10 0 -20 2q-22 4 -40 19t-27 35t-9 42z" />
<glyph unicode="&#x2000;" horiz-adv-x="1088" />
<glyph unicode="&#x2001;" horiz-adv-x="2176" />
<glyph unicode="&#x2002;" horiz-adv-x="1088" />
<glyph unicode="&#x2003;" horiz-adv-x="2176" />
<glyph unicode="&#x2004;" horiz-adv-x="725" />
<glyph unicode="&#x2005;" horiz-adv-x="544" />
<glyph unicode="&#x2006;" horiz-adv-x="362" />
<glyph unicode="&#x2007;" horiz-adv-x="362" />
<glyph unicode="&#x2008;" horiz-adv-x="272" />
<glyph unicode="&#x2009;" horiz-adv-x="435" />
<glyph unicode="&#x200a;" horiz-adv-x="120" />
<glyph unicode="&#x2010;" horiz-adv-x="664" d="M32 528q0 40 28 68t68 28h410q40 0 68 -28t28 -68t-28 -68t-68 -28h-410q-40 0 -68 28t-28 68z" />
<glyph unicode="&#x2011;" horiz-adv-x="664" d="M32 528q0 40 28 68t68 28h410q40 0 68 -28t28 -68t-28 -68t-68 -28h-410q-40 0 -68 28t-28 68z" />
<glyph unicode="&#x2012;" horiz-adv-x="664" d="M32 528q0 40 28 68t68 28h410q40 0 68 -28t28 -68t-28 -68t-68 -28h-410q-40 0 -68 28t-28 68z" />
<glyph unicode="&#x2013;" horiz-adv-x="818" d="M-20 528q0 40 28 68t68 28h666q40 0 68 -28t28 -68t-28 -68t-68 -28h-666q-40 0 -68 28t-28 68z" />
<glyph unicode="&#x2014;" horiz-adv-x="1638" d="M-20 528q0 40 28 68t68 28h1486q40 0 68 -28t28 -68t-28 -68t-68 -28h-1486q-40 0 -68 28t-28 68z" />
<glyph unicode="&#x2018;" horiz-adv-x="472" d="M96 1136q0 100 60 272q10 30 35 47t55 17q16 0 30 -6q30 -8 48 -34t18 -56q0 -16 -6 -30q0 -2 -1 -5t-4 -13t-6 -21t-8 -26t-9 -31q32 -18 51 -47t19 -67q0 -60 -39 -110t-109 -50q-60 0 -97 48t-37 112z" />
<glyph unicode="&#x2019;" horiz-adv-x="472" d="M96 1312q0 60 39 110t109 50q60 0 97 -48t37 -112q0 -100 -60 -272q-6 -20 -21 -34t-32 -22t-37 -8q-8 0 -16 1t-14 5q-20 6 -35 20t-23 32t-8 38q0 16 6 30q0 6 3 14t10 33t15 49q-22 10 -37 27t-24 39t-9 48z" />
<glyph unicode="&#x201a;" horiz-adv-x="472" d="M96 128q0 60 39 110t109 50q60 0 97 -48t37 -112q0 -96 -60 -272q-10 -30 -35 -47t-55 -17q-16 0 -30 6q-30 8 -48 34t-18 56q0 16 6 30q14 42 28 96q-32 18 -51 47t-19 67z" />
<glyph unicode="&#x201c;" horiz-adv-x="818" d="M96 1136q0 100 60 272q10 30 35 47t55 17q16 0 30 -6q30 -8 48 -34t18 -56q0 -16 -6 -30q0 -2 -1 -5t-4 -13t-6 -21t-8 -26t-9 -31q32 -18 51 -47t19 -67q0 -60 -39 -110t-109 -50q-60 0 -97 48t-37 112zM442 1136q0 96 60 272q10 30 35 47t55 17q8 0 16 -1t14 -5 q12 -2 22 -9t18 -16t14 -20t9 -22t3 -23l-6 -30q0 -6 -3 -14t-10 -33t-15 -49q32 -18 51 -47t19 -67q0 -60 -39 -110t-109 -50q-60 0 -97 48t-37 112z" />
<glyph unicode="&#x201d;" horiz-adv-x="818" d="M96 1312q0 60 39 110t109 50q60 0 97 -48t37 -112q0 -100 -60 -272q-6 -20 -21 -34t-32 -22t-37 -8q-8 0 -16 1t-14 5q-20 6 -35 20t-23 32t-8 38q0 16 6 30q0 6 3 14t10 33t15 49q-22 10 -37 27t-24 39t-9 48zM442 1312q0 58 38 109t108 51q60 0 98 -47t38 -113 q0 -96 -62 -274q-12 -28 -36 -45t-54 -17q-16 0 -32 6q-28 10 -46 35t-18 55q0 6 1 11l2 10t3 10t4 14t10 33t14 48q-32 18 -50 47t-18 67z" />
<glyph unicode="&#x201e;" horiz-adv-x="818" d="M96 128q0 60 39 110t109 50q60 0 97 -48t37 -112q0 -96 -60 -272q-10 -30 -35 -47t-55 -17q-16 0 -30 6q-30 8 -48 34t-18 56q0 16 6 30q14 42 28 96q-32 18 -51 47t-19 67zM442 128q0 58 38 109t108 51q60 0 98 -47t38 -113q0 -96 -62 -274q-8 -18 -22 -33t-31 -22 t-37 -7q-8 0 -16 1t-16 5q-18 6 -33 20t-23 32t-8 38q0 16 6 32q14 42 28 94q-68 38 -68 114z" />
<glyph unicode="&#x2022;" horiz-adv-x="562" d="M84 736q0 86 54 155t144 69t144 -69t54 -155t-54 -155t-144 -69t-144 69t-54 155z" />
<glyph unicode="&#x202f;" horiz-adv-x="435" />
<glyph unicode="&#x205f;" horiz-adv-x="544" />
<glyph unicode="&#x25fc;" horiz-adv-x="1060" d="M0 0v1060h1060v-1060h-1060z" />
</font>
</defs>
</svg>
