<?xml version="1.0" standalone="no"?>
<!DOCTYPE svg PUBLIC "-//W3C//DTD SVG 1.1//EN" "http://www.w3.org/Graphics/SVG/1.1/DTD/svg11.dtd" >
<svg xmlns="http://www.w3.org/2000/svg" xmlns:xlink="http://www.w3.org/1999/xlink" version="1.1">
<metadata></metadata>
<defs>
<font id="routed_gothicitalic" horiz-adv-x="576" >
<font-face units-per-em="2048" ascent="1664" descent="-384" />
<missing-glyph horiz-adv-x="500" />
<glyph horiz-adv-x="0" />
<glyph unicode="&#xd;" horiz-adv-x="682" />
<glyph unicode=" " />
<glyph unicode="!" d="M-108 122q0 10 1 20t5 20q2 2 2 4q24 54 71 88t107 34q36 0 63 -18t41 -45t14 -57q0 -22 -8 -42v-1l-2 -3q-24 -54 -72 -88t-108 -34q-56 0 -85 37t-29 85zM126 576q0 20 8 36l332 800q10 28 35 44t53 16q20 0 36 -8q14 -4 25 -14t19 -22t12 -25t4 -27q0 -10 -2 -19 t-6 -17l-332 -800q-6 -18 -20 -32t-32 -21t-37 -7t-35 8q-28 10 -44 35t-16 53z" />
<glyph unicode="&#x22;" horiz-adv-x="768" d="M220 960q0 20 8 38l174 416q10 26 35 42t53 16q20 0 38 -8q16 -6 30 -20t21 -32t7 -37t-8 -37l-174 -416q-6 -12 -15 -23t-21 -19t-25 -12t-27 -4q-20 0 -38 8q-26 10 -42 35t-16 53zM540 960q0 10 2 19t6 19l174 416q10 26 35 42t53 16q20 0 38 -8q16 -6 30 -20t21 -32 t7 -37t-8 -37l-174 -416q-10 -26 -35 -42t-53 -16q-20 0 -38 8q-26 10 -42 35t-16 53z" />
<glyph unicode="#" horiz-adv-x="1344" d="M-42 96q2 32 18 54l226 330h-44q-40 0 -68 28t-28 68t28 68t68 28h178l88 128h-134q-40 0 -68 28t-28 68t28 68t68 28h266l304 438q6 10 15 18t19 13t22 8t22 3q30 0 54 -18q8 -4 15 -11t12 -15t8 -17t5 -18t2 -17q0 -30 -18 -54l-226 -330h118l304 438q28 42 78 42 q30 0 54 -18q20 -12 31 -34t11 -44q0 -14 -4 -28t-14 -26l-226 -330h44q40 0 68 -28t28 -68t-28 -68t-68 -28h-178l-88 -128h134q40 0 68 -28t28 -68t-28 -68t-68 -28h-266l-304 -438q-28 -42 -78 -42q-30 0 -54 18q-20 12 -31 34t-11 44q0 30 18 54l226 330h-118l-304 -438 q-28 -42 -78 -42q-30 0 -54 18q-42 28 -42 78zM568 672h120l88 128h-120z" />
<glyph unicode="$" horiz-adv-x="1008" d="M2 432q0 30 17 55t47 35q8 4 16 5t16 1q30 0 54 -17t36 -47q22 -50 78 -72l124 300q-78 30 -119 88t-41 128v12v12q4 42 24 88q42 102 148 172t230 84l58 136q10 28 35 44t53 16q20 0 36 -8q10 -4 18 -9t14 -12t12 -15t9 -16t5 -18t2 -19t-2 -18t-6 -17l-34 -84 q52 -20 92 -56t54 -57t20 -39q2 -6 4 -14t2 -16q0 -10 -2 -20t-6 -18t-9 -17t-12 -15t-15 -12t-18 -10q-6 -2 -11 -3t-11 -2t-10 -1q-30 0 -55 17t-35 43q-18 30 -62 44l-104 -252q10 -2 18 -6q52 -22 84 -56t45 -70t13 -78q0 -64 -28 -128q-18 -42 -46 -82t-65 -75t-80 -63 t-95 -47t-108 -25l-58 -138q-10 -28 -35 -44t-53 -16q-20 0 -36 8q-28 10 -44 35t-16 53q0 20 8 36l34 82q-38 16 -71 40t-52 46t-35 48t-20 36t-7 17t-4 15t-1 16zM418 896q0 -20 44 -30l74 180q-84 -46 -106 -98q-8 -20 -8 -36q0 -2 -2 -7t-2 -9zM490 430q42 26 73 61 t47 75q18 44 18 55t-22 21q-4 2 -6 2q-10 4 -20 6z" />
<glyph unicode="%" horiz-adv-x="1728" d="M150 96q0 40 26 66l1236 1280q10 10 21 17t24 10t25 3q40 0 66 -26q30 -28 30 -70q0 -40 -26 -66l-1236 -1280q-28 -30 -70 -30q-40 0 -66 26q-30 28 -30 70zM276 1052q0 62 26 120q52 128 179 214t265 86q64 0 118 -22q50 -20 84 -56t51 -80t17 -94q0 -16 -2 -31t-5 -30 t-8 -30t-11 -29q-52 -128 -179 -214t-265 -86q-64 0 -118 22q-74 30 -113 92t-39 138zM466 1046q0 -32 34 -46q8 -4 20 -6t26 -2q74 0 156 55t112 125q12 32 12 54q0 32 -34 46q-18 8 -46 8q-74 0 -156 -55t-112 -125q-12 -32 -12 -54zM712 252q0 62 26 120q52 128 179 214 t265 86q64 0 118 -22q50 -20 84 -56t51 -80t17 -94q0 -62 -26 -120q-52 -128 -179 -214t-265 -86q-64 0 -118 22q-74 30 -113 92t-39 138zM902 246q0 -32 34 -46q18 -8 46 -8q74 0 156 55t112 125q12 32 12 54q0 32 -34 46q-18 8 -46 8q-74 0 -156 -55t-112 -125 q-2 -8 -5 -16t-4 -14l-2 -12t-1 -12z" />
<glyph unicode="&#x26;" horiz-adv-x="1568" d="M-28 310q0 88 36 174q94 228 342 356q-52 66 -52 158q0 18 2 35t5 35t9 36t14 36q60 142 224 245t400 103q70 0 128 -10t106 -30q38 -14 68 -36t51 -47t36 -54t22 -60t7 -63q0 -62 -26 -120q-22 -56 -60 -106t-89 -92t-111 -74q38 -30 66 -64q38 28 74 53t50 33t24 12 t20 7t22 3q60 0 86 -52q10 -20 10 -42q0 -58 -50 -86l-10 -5t-21 -13t-31 -21t-39 -28t-47 -37q18 -64 18 -138q0 -82 -21 -172t-61 -186q-10 -28 -35 -44t-53 -16q-6 0 -10 1t-9 1t-9 2l-8 4q-28 10 -44 35t-16 53q0 20 8 36q8 24 16 46t15 43t12 41t9 39t7 37t5 34 q-8 -10 -17 -21t-17 -23q-250 -344 -668 -344q-56 0 -105 9t-93 25q-96 40 -143 118t-47 174zM160 306q0 -78 76 -110q50 -20 124 -20q150 0 275 54t237 210q64 88 138 164l-15 15l-14 14t-16 14t-18 12t-19 11t-21 11t-21 9q-48 20 -110 31t-134 11q-70 -6 -158 -43 t-175 -112t-125 -165q-24 -62 -24 -106zM484 990q0 -20 10 -30t34 -20q40 -16 110 -16q90 0 170 -14q128 12 226 80t134 150q14 34 14 56q0 24 -16 42t-52 32q-28 12 -69 19t-93 7q-180 0 -296 -72t-152 -156q-20 -52 -20 -78z" />
<glyph unicode="'" horiz-adv-x="448" d="M220 960q0 20 8 38l174 416q10 26 35 42t53 16q20 0 38 -8q16 -6 30 -20t21 -32t7 -37t-8 -37l-174 -416q-6 -12 -15 -23t-21 -19t-25 -12t-27 -4q-20 0 -38 8q-26 10 -42 35t-16 53z" />
<glyph unicode="(" horiz-adv-x="688" d="M10 172q0 298 126 600q56 138 140 275t154 228t149 178t107 113t48 42q12 12 29 18t33 6q8 0 14 -1t12 -3t13 -5t12 -6t11 -8t10 -9q6 -8 10 -15t7 -15t5 -16t2 -16q0 -14 -4 -27t-11 -25t-17 -20q-14 -14 -42 -41t-100 -106t-137 -164t-141 -209t-128 -246 q-110 -268 -110 -528q0 -130 22 -210q4 -14 4 -26q0 -20 -9 -39t-24 -33t-35 -20q-8 -2 -15 -3t-13 -1q-20 0 -38 8t-32 23t-22 37q-4 14 -9 37t-13 89t-8 138z" />
<glyph unicode=")" horiz-adv-x="688" d="M-268 -64q0 42 32 70q14 14 41 40t99 106t138 164t142 209t128 247q110 268 110 528q0 28 -1 53t-3 45t-4 38t-5 30t-5 23t-3 15t-1 6q-2 4 -2 8t-1 8t-1 8q0 20 8 39t24 34t36 21q14 4 28 4t29 -5t27 -14t21 -21t15 -28q30 -102 30 -264q0 -298 -126 -600 q-56 -136 -139 -273t-153 -228t-149 -177t-108 -114t-49 -44q-14 -12 -30 -18t-32 -6q-44 0 -72 32q-24 28 -24 64z" />
<glyph unicode="*" horiz-adv-x="1024" d="M288 1120q0 40 28 68t68 28h174l-22 138q-2 8 -2 16q0 16 6 32t17 29t26 22t31 11q8 2 16 2q22 0 43 -10t34 -29t17 -41l12 -64l114 116q28 28 68 28q18 0 36 -7t32 -21q28 -28 28 -68q0 -12 -3 -24t-9 -23t-16 -21l-86 -86h60q40 0 68 -28t28 -68t-28 -68t-68 -28h-176 l22 -138q2 -8 2 -16q0 -34 -23 -62t-57 -32q-4 -2 -8 -2h-8q-34 0 -62 23t-32 57l-12 64l-114 -116q-28 -28 -68 -28t-68 28q-14 14 -21 31t-7 36t7 37t21 32l86 86h-58q-40 0 -68 28t-28 68z" />
<glyph unicode="+" horiz-adv-x="1280" d="M112 736q0 40 28 68t68 28h368l154 372q6 18 20 32t32 21t36 7q10 0 19 -2t17 -6q28 -10 44 -35t16 -53q0 -20 -8 -36l-122 -300h288q40 0 68 -28t28 -68t-28 -68t-68 -28h-368l-154 -372q-10 -28 -35 -44t-53 -16q-20 0 -36 8q-18 6 -32 20t-21 32t-7 37t8 35l122 300 h-288q-40 0 -68 28t-28 68z" />
<glyph unicode="," horiz-adv-x="592" d="M-164 -112q0 36 22 62q30 36 66 84q-34 34 -34 84q0 24 8 44q2 2 2 4q24 54 71 88t107 34q12 0 23 -2t23 -6q38 -16 58 -50t20 -76q0 -8 -1 -16t-3 -16l-4 -16t-6 -16q-40 -92 -182 -264q-28 -34 -74 -34q-16 0 -32 6t-30 16q-6 6 -10 11t-8 11t-7 12t-5 13t-3 14t-1 13z " />
<glyph unicode="-" horiz-adv-x="832" d="M-22 528q0 40 28 68t68 28h512q40 0 68 -28t28 -68t-28 -68t-68 -28h-512q-40 0 -68 28t-28 68z" />
<glyph unicode="." d="M-108 122q0 10 1 20t5 20q2 2 2 4q24 54 71 88t107 34q36 0 63 -18t41 -45t14 -57q0 -22 -8 -42v-1l-2 -3q-24 -54 -72 -88t-108 -34q-56 0 -85 37t-29 85z" />
<glyph unicode="/" horiz-adv-x="1152" d="M-138 96q0 40 26 66l1236 1280q14 14 32 22t38 8q40 0 66 -26q30 -28 30 -70q0 -40 -26 -66l-1236 -1280q-28 -30 -70 -30q-40 0 -66 26q-30 28 -30 70z" />
<glyph unicode="0" horiz-adv-x="1344" d="M10 418q0 170 78 354q122 296 366 506t490 210q84 0 156 -30q116 -48 175 -154t59 -250q0 -170 -78 -354q-122 -296 -366 -506t-490 -210q-84 0 -156 30q-116 48 -175 154t-59 250zM202 424q0 -92 32 -152t84 -82q36 -14 82 -14q166 0 371 175t309 421q32 78 47 147 t15 129q0 92 -32 152t-84 82q-36 14 -82 14q-166 0 -371 -175t-309 -421q-62 -152 -62 -276z" />
<glyph unicode="1" horiz-adv-x="704" d="M-10 96q0 20 8 36l532 1280q10 28 35 44t53 16q20 0 36 -8q10 -4 18 -9t14 -12t12 -15t9 -16t5 -18t2 -19t-2 -18t-6 -17l-532 -1280q-4 -14 -14 -25t-22 -19t-25 -12t-27 -4q-20 0 -36 8q-28 10 -44 35t-16 53z" />
<glyph unicode="2" horiz-adv-x="1344" d="M-90 96q0 20 8 36q24 58 49 108t56 95t58 80t69 72t71 63t84 59t89 53t102 55t108 54t124 59l14 7l14 7t14 6q162 78 218 124t88 120q20 50 20 88q0 66 -72 96q-14 6 -30 10t-36 6t-42 2q-144 0 -262 -68t-170 -192q-10 -28 -35 -44t-53 -16q-6 0 -12 1l-12 2t-12 5 q-28 10 -44 35t-16 53q0 20 8 36q38 94 104 168t148 120t172 69t184 23q102 0 180 -32q62 -26 104 -69t64 -97t22 -116q0 -20 -3 -39t-7 -38t-10 -39t-14 -40q-46 -110 -135 -183t-263 -157q-14 -6 -38 -18q-118 -56 -172 -83t-134 -70t-118 -70t-88 -68t-82 -83t-62 -94 h662q40 0 68 -28t28 -68t-28 -68t-68 -28h-816q-16 0 -30 4q-66 22 -66 92z" />
<glyph unicode="3" horiz-adv-x="1344" d="M-2 296v12q0 36 24 64t60 32h6h6q14 0 27 -4t25 -12t21 -18t15 -23t8 -27q8 -66 58 -105t148 -39q38 0 78 7t79 21t78 33t74 42t68 51t60 58t49 63t36 67t21 66t7 58q0 72 -43 111t-153 39q-74 0 -186 -38q-8 -4 -16 -5t-16 -1q-22 0 -42 10q-36 16 -48 54q-6 16 -6 32 q0 6 1 14t3 14t6 14q16 36 54 48q180 64 314 157t224 189h-540q-40 0 -68 28t-28 68t28 68t68 28h736q22 0 40 -8q14 -6 24 -16t17 -21t11 -25t4 -26t-3 -24t-9 -22q-6 -12 -16 -27t-43 -59t-73 -87t-106 -102t-138 -109q92 -42 144 -121t52 -183q0 -96 -44 -200 q-80 -194 -282 -326t-416 -132q-160 0 -270 86t-128 226z" />
<glyph unicode="4" horiz-adv-x="1344" d="M46 540q0 6 8 38l52 124q10 22 28 38l906 708q14 10 30 15t30 5h124q40 0 68 -29t28 -67q0 -8 -1 -14t-2 -11t-5 -11l-288 -700h78q40 0 68 -28t28 -68t-28 -68t-68 -28h-158l-162 -388q-10 -28 -35 -44t-53 -16q-20 0 -36 8q-28 10 -44 35t-16 53q0 20 8 36l130 316 h-594q-40 0 -68 29t-28 67zM314 636h502l240 580z" />
<glyph unicode="5" horiz-adv-x="1344" d="M-16 300v12q0 36 24 63t60 33h5h7q22 0 43 -11t35 -30t18 -43q18 -148 196 -148q58 0 124 20t128 56t118 84t101 107t71 121q30 74 30 138q0 178 -200 178q-88 0 -190 -40t-196 -116q-4 -2 -9 -5t-10 -5l-10 -4t-10 -3l-10 -2t-11 -1q-12 0 -23 3t-21 8t-20 13t-16 18 q-16 24 -16 54q0 24 12 44l304 576q8 16 22 28t30 18t32 6h640q40 0 68 -28t28 -68t-28 -68t-68 -28h-582l-128 -244q110 36 212 36q172 0 282 -105t110 -265q0 -22 -2 -42t-6 -41t-9 -42t-12 -43t-17 -42q-88 -214 -294 -361t-424 -147q-156 0 -262 87t-126 229z" />
<glyph unicode="6" horiz-adv-x="1344" d="M54 382q0 102 34 224q12 38 26 80t34 86q54 132 125 243t147 187t155 133t155 89t140 48t118 16q78 0 142 -21t100 -48t63 -61t36 -54t13 -34q2 -10 2 -20q0 -32 -20 -59t-52 -37q-12 -2 -22 -2q-22 0 -42 9t-33 25t-19 36q-28 74 -168 74q-36 0 -85 -13t-118 -47 t-137 -86t-141 -141t-131 -199q160 94 354 94q170 0 283 -96t113 -244q0 -26 -4 -53t-11 -53t-19 -50q-44 -112 -137 -206t-229 -156t-282 -62q-50 0 -101 12t-103 42t-93 74t-67 114t-26 156zM248 364q10 -188 196 -188q154 0 289 94t183 210q18 44 18 84t-19 72t-66 54 t-119 22q-158 0 -283 -84t-197 -256q0 -4 -2 -8z" />
<glyph unicode="7" horiz-adv-x="1344" d="M198 96q0 20 8 38l28 64q74 176 175 337t198 274t207 212t188 156t156 103h-684q-40 0 -68 28t-28 68t28 68t68 28h896q40 0 68 -29t28 -67q0 -8 -1 -14t-2 -11t-5 -11l-48 -116q-14 -36 -48 -52q-158 -70 -354 -236q-400 -336 -598 -814l-28 -64q-12 -26 -36 -42 t-52 -16q-22 2 -38 8q-58 26 -58 88z" />
<glyph unicode="8" horiz-adv-x="1344" d="M-4 338q0 78 32 154q82 204 316 334q-26 36 -38 78t-12 86q0 32 7 67t21 67q66 160 243 262t379 102q162 0 279 -83t117 -229q0 -62 -26 -124q-62 -154 -284 -300q76 -82 76 -202q0 -78 -32 -156q-72 -172 -257 -291t-417 -119q-106 0 -190 34q-104 44 -159 130t-55 190z M186 332q0 -96 96 -136q24 -10 53 -15t65 -5q174 0 311 88t187 204q18 46 18 82q0 66 -62 98q-6 4 -14 6q-52 22 -134 22q-34 0 -65 3t-60 9t-57 14q-24 -10 -52 -24t-69 -41t-76 -57t-69 -72t-54 -88q-8 -24 -13 -46t-5 -42zM484 988q0 -48 46 -78q60 -42 176 -42 q66 0 122 -12q80 44 180 122t130 146q10 28 10 52q0 46 -49 83t-155 37q-148 0 -277 -75t-169 -169q-14 -34 -14 -64z" />
<glyph unicode="9" horiz-adv-x="1344" d="M0 222q0 32 20 59t52 37q12 2 22 2q34 0 60 -20t34 -50q28 -74 168 -74q28 0 68 9t92 30t110 59t116 89t118 129t108 170q-160 -94 -354 -94q-112 0 -202 43t-142 121t-52 176q0 26 4 53t11 53t19 50q70 172 250 298t398 126q40 0 83 -9t87 -27t83 -50t70 -75t49 -104 t18 -133q0 -102 -34 -224q-8 -26 -17 -53t-20 -56t-23 -57q-64 -158 -154 -285t-180 -205t-187 -131t-175 -74t-144 -21q-78 0 -142 21t-100 48t-63 61t-36 54t-13 34q-2 10 -2 20zM410 908q0 -40 19 -72t66 -54t119 -22q158 0 283 84t197 256q0 2 1 4t1 4q-10 188 -196 188 q-104 0 -204 -47t-168 -115t-100 -142l-4 -12t-4 -11t-3 -11t-2 -11l-2 -10t-1 -10t-1 -9t-1 -10z" />
<glyph unicode=":" d="M-108 122q0 10 1 20t5 20q2 2 2 4q24 54 71 88t107 34q36 0 63 -18t41 -45t14 -57q0 -22 -8 -42v-1l-2 -3q-24 -54 -72 -88t-108 -34q-56 0 -85 37t-29 85zM208 888q0 8 1 15t3 14t4 13l1 2l1 2q12 26 29 48t40 38t51 26t58 10q52 0 85 -36t33 -84q0 -12 -2 -22t-6 -20 v-1l-2 -3q-24 -54 -71 -88t-107 -34q-26 0 -49 10t-37 28t-23 39t-9 43z" />
<glyph unicode=";" horiz-adv-x="592" d="M-164 -112q0 36 22 62q30 36 66 84q-34 34 -34 84q0 24 8 44q2 2 2 4q24 54 71 88t107 34q12 0 23 -2t23 -6q38 -16 58 -50t20 -76q0 -8 -1 -16t-3 -16l-4 -16t-6 -16q-40 -92 -182 -264q-28 -34 -74 -34q-16 0 -32 6t-30 16q-6 6 -10 11t-8 11t-7 12t-5 13t-3 14t-1 13z M208 888q0 8 1 15t3 14t4 13l1 2l1 2q12 26 29 48t40 38t51 26t58 10q52 0 85 -36t33 -84q0 -12 -2 -22t-6 -20v-1l-2 -3q-24 -54 -71 -88t-107 -34q-26 0 -49 10t-37 28t-23 39t-9 43z" />
<glyph unicode="&#x3c;" horiz-adv-x="1280" d="M112 744q2 24 14 44q8 12 20 21t26 15l1042 432q16 8 36 8q14 0 27 -4t25 -12t22 -19t14 -25q8 -16 8 -36q0 -28 -16 -53t-44 -35l-870 -362l530 -332q44 -28 44 -82q0 -28 -14 -52q-28 -44 -82 -44q-28 0 -52 14l-686 432q-12 8 -21 20t-15 26q-10 20 -8 44z" />
<glyph unicode="=" horiz-adv-x="1280" d="M12 496q0 40 28 68t68 28h864q40 0 68 -28t28 -68t-28 -68t-68 -28h-864q-40 0 -68 28t-28 68zM212 976q0 40 28 68t68 28h864q40 0 68 -28t28 -68t-28 -68t-68 -28h-864q-40 0 -68 28t-28 68z" />
<glyph unicode="&#x3e;" horiz-adv-x="1280" d="M-66 304q0 28 16 53t44 35l870 362l-530 332q-20 14 -32 36t-12 46q0 14 4 27t10 25q8 10 17 18t20 14t22 9t23 3q14 0 27 -4t25 -10l686 -432q12 -8 21 -20t15 -26q10 -20 8 -44t-14 -44q-8 -12 -20 -21t-26 -15l-1042 -432q-8 -4 -17 -6t-19 -2q-28 0 -53 16t-35 44 q-8 16 -8 36z" />
<glyph unicode="?" horiz-adv-x="1280" d="M212 122q0 22 6 40q2 2 2 4q24 54 71 88t107 34q52 0 85 -36t33 -84q0 -22 -8 -42l-2 -4q-24 -54 -72 -88t-108 -34q-56 0 -85 37t-29 85zM268 1072q0 20 8 36q76 184 242 282t362 98q128 0 216 -36q40 -16 72 -41t54 -56t33 -69t11 -78q0 -62 -26 -124q-14 -36 -33 -68 t-40 -58t-47 -50t-51 -43t-57 -38t-61 -34t-65 -33q-92 -42 -138 -76t-81 -87t-77 -153q-24 -60 -88 -60q-20 0 -36 8q-18 6 -32 20t-21 32t-7 37t8 35q68 166 154 257t238 163q118 54 171 98t87 122q8 22 12 37t4 25q0 14 -7 24t-18 17t-31 15q-54 22 -144 22 q-144 0 -260 -68t-168 -192q-10 -28 -35 -44t-53 -16q-6 0 -12 1l-12 2t-12 5q-28 10 -44 35t-16 53z" />
<glyph unicode="@" horiz-adv-x="1760" d="M76 488q0 140 60 284q80 196 242 361t368 260t406 95q44 0 85 -5t80 -15t73 -24q58 -24 105 -59t82 -78t59 -95t36 -109t12 -119q0 -140 -60 -284q-76 -184 -168 -276q-38 -38 -88 -66t-99 -41t-97 -13q-30 0 -57 5t-53 15q-50 20 -82 58q-34 -24 -98 -49t-113 -38 t-57 -13l2 2q-122 0 -193 84t-71 202q0 32 5 66t14 68t25 70q72 170 216 292t298 122q26 0 49 -4t44 -12t39 -18t34 -24q6 10 15 19t20 15t23 9t24 3q20 0 36 -8q28 -10 44 -35t16 -53q0 -20 -8 -36l-220 -536l10 -5t16 -5t22 -2q28 0 75 19t73 45q66 66 128 212 q48 118 48 216q0 52 -13 96t-36 79t-56 61t-73 42q-36 14 -77 22t-89 8q-58 0 -121 -12t-124 -35t-123 -56t-119 -73t-110 -88t-98 -101t-82 -112t-63 -119q-24 -60 -36 -114t-12 -102q0 -102 48 -173t130 -105q36 -14 77 -22t89 -8q134 0 266 54q18 6 36 6q28 0 53 -16 t37 -44q6 -18 6 -36t-7 -36t-21 -32t-32 -22q-168 -66 -338 -66q-132 0 -238 44q-144 58 -219 180t-75 280zM642 570q0 -54 17 -74t55 -20q52 0 125 44t133 120l108 264q0 54 -18 73t-54 19q-76 0 -181 -87t-157 -211q-28 -70 -28 -128z" />
<glyph unicode="A" horiz-adv-x="1376" d="M-170 96q0 16 5 31t15 27l972 1280q12 18 34 28t42 10h72h40q42 0 70 -31q26 -29 26 -66v-5l-92 -1280q-2 -38 -30 -64t-66 -26h-6q-40 4 -66 34q-24 28 -24 63v5l14 186h-644l-190 -250q-28 -38 -76 -38q-32 0 -58 20q-38 28 -38 76zM338 480h512l52 744z" />
<glyph unicode="B" horiz-adv-x="1392" d="M-74 96q0 20 8 36l298 720l234 560q10 26 35 43t53 17h512q138 0 226 -80t88 -202q0 -74 -32 -150q-22 -58 -60 -109t-86 -95t-104 -76q56 -78 56 -184q0 -86 -38 -176q-64 -156 -215 -278t-335 -122h-544q-16 0 -30 4q-30 10 -48 36t-18 56zM166 192h400q74 0 152 43 t136 107t86 130q10 28 16 54t6 50q0 54 -24 79t-90 25h-10h-22h-448zM448 872h368q50 0 100 16q84 26 155 89t101 135q6 16 10 30t5 25t1 23q0 44 -25 67t-97 23h-448z" />
<glyph unicode="C" horiz-adv-x="1368" d="M76 420q0 168 76 352q122 296 366 506t490 210q70 0 128 -18t94 -44t63 -62t40 -68t21 -67t9 -52t1 -29q0 -20 -8 -37t-22 -29t-31 -19t-35 -7h-4q-26 2 -47 15t-33 35t-12 48v2q0 14 -1 26t-9 35t-24 38t-49 28t-81 13q-166 0 -371 -175t-309 -421q-62 -152 -62 -274 q0 -92 33 -153t85 -83q16 -6 36 -10t44 -4q70 0 147 34t136 80t99 87t54 63q8 16 22 29t31 20t37 7q18 0 34 -8q28 -10 44 -35t16 -53q0 -20 -8 -36q-8 -24 -34 -59t-66 -78t-96 -85t-118 -78t-141 -58t-157 -22q-42 0 -80 7t-74 21q-118 48 -176 156t-58 252z" />
<glyph unicode="D" horiz-adv-x="1392" d="M-74 96q0 6 8 36l532 1280q10 28 35 44t53 16h416q66 0 130 -26q100 -42 162 -138t62 -242q0 -80 -20 -171t-64 -195q-64 -156 -153 -282t-176 -201t-180 -126t-164 -71t-129 -20h-416q-40 0 -68 29t-28 67zM166 192h272q30 0 78 13t121 54t144 102t149 169t134 242 q74 182 74 302q0 46 -11 83t-30 58t-35 33t-36 20q-28 12 -56 12h-352z" />
<glyph unicode="E" horiz-adv-x="1392" d="M-74 96q0 20 8 36l532 1280q10 26 35 43t53 17h832q40 0 68 -28t28 -68t-28 -68t-68 -28h-768l-170 -408h432q40 0 68 -28t28 -68t-28 -68t-68 -28h-512l-202 -488h720q40 0 68 -28t28 -68t-28 -68t-68 -28h-864q-16 0 -30 4q-30 10 -48 36t-18 56z" />
<glyph unicode="F" horiz-adv-x="1328" d="M-74 97q0 19 8 35l532 1280q10 28 35 44t53 16h800q40 0 68 -28t28 -68t-28 -68t-68 -28h-736l-170 -408h448q40 0 68 -28t28 -68t-28 -68t-68 -28h-528l-258 -620q-10 -28 -35 -44t-53 -16q-20 0 -36 8q-18 6 -32 20t-21 32t-7 37z" />
<glyph unicode="G" horiz-adv-x="1344" d="M74 422q0 166 78 350q80 194 216 356t307 261t333 99q48 0 90 -8t74 -22t59 -33t45 -42t33 -45t25 -46t16 -45t9 -40t4 -31t1 -20v-5v-5q-4 -36 -31 -63t-65 -27h-4q-26 2 -47 16t-33 36t-12 46v2q0 14 -1 26t-9 35t-24 38t-50 28t-80 13q-166 0 -371 -175t-309 -421 q-30 -76 -46 -147t-16 -131q0 -246 198 -246q36 0 73 8t69 20t65 29t58 34t49 35t39 31t27 25l96 234h-192q-40 0 -68 28t-28 68t28 68t68 28h336q16 0 30 -4q30 -10 48 -36t18 -56q0 -6 -1 -10t-1 -9t-2 -9l-4 -8l-158 -384q-6 -16 -18 -30q-14 -14 -27 -28t-71 -60 t-115 -78t-145 -60t-174 -28q-180 0 -285 126t-105 312z" />
<glyph unicode="H" horiz-adv-x="1424" d="M-74 97q0 19 8 35l532 1280q4 14 14 25t22 19t25 12t27 4q20 0 36 -8q28 -10 44 -35t16 -53q0 -20 -8 -36l-194 -468h640l226 540q10 28 35 44t53 16q10 0 19 -2t17 -6q28 -10 44 -35t16 -53q0 -20 -8 -36l-532 -1280q-10 -28 -35 -44t-53 -16q-20 0 -36 8q-28 10 -44 35 t-16 53q0 20 8 36l226 548h-640l-258 -620q-10 -28 -35 -44t-53 -16q-20 0 -36 8q-18 6 -32 20t-21 32t-7 37z" />
<glyph unicode="I" horiz-adv-x="672" d="M-26 96q0 20 8 36l532 1280q6 18 20 32t32 21t37 7t35 -8q10 -4 18 -9t14 -12t12 -15t9 -16t5 -18t2 -19t-2 -18t-6 -17l-532 -1280q-10 -28 -35 -44t-53 -16q-20 0 -36 8q-28 10 -44 35t-16 53z" />
<glyph unicode="J" horiz-adv-x="1088" d="M-64 280q0 90 42 188l54 130q8 18 21 31t31 20t36 7q10 0 19 -2t19 -6q26 -10 42 -35t16 -53q0 -10 -2 -19t-6 -19l-54 -126q-12 -32 -19 -62t-7 -54q0 -38 11 -61t31 -33t54 -10q54 0 127 43t144 123t111 174l372 896q10 28 35 44t53 16q10 0 19 -2t17 -6q18 -6 32 -20 t21 -32t7 -36q0 -10 -2 -19t-6 -17l-372 -896q-78 -190 -235 -325t-323 -135q-86 0 -152 41t-101 108t-35 147z" />
<glyph unicode="K" horiz-adv-x="1344" d="M-74 96q0 10 2 19t6 17l532 1280q4 12 11 21t16 16t19 12t21 8t21 3q20 0 36 -8q10 -4 18 -9t14 -12t12 -15t9 -16t5 -18t2 -19t-2 -18t-6 -17l-212 -512l902 626q24 18 54 18q50 0 78 -42q18 -24 18 -54q0 -14 -5 -29t-14 -28t-23 -21l-670 -468l208 -706q4 -14 4 -28 q0 -20 -9 -39t-24 -33t-35 -20q-14 -4 -28 -4q-30 0 -57 19t-35 49l-190 646l-312 -216l-182 -438q-10 -28 -35 -44t-53 -16q-20 0 -36 8q-14 4 -25 14t-19 22t-12 25t-4 27z" />
<glyph unicode="L" horiz-adv-x="1312" d="M-74 96q0 20 8 36l532 1280q4 12 11 21t16 16t19 12t21 8t21 3q20 0 36 -8q10 -4 18 -9t14 -12t12 -15t9 -16t5 -18t2 -19t-2 -18t-6 -17l-476 -1148h688q40 0 68 -28t28 -68t-28 -68t-68 -28h-832q-16 0 -30 4q-30 10 -48 36t-18 56z" />
<glyph unicode="M" horiz-adv-x="1660" d="M-74 97q0 19 8 35l532 1280q10 28 35 44t53 16h44h36q42 0 70 -31q26 -29 26 -66v-5l-52 -974l808 1038q10 12 23 21t27 13t26 4h80q40 0 68 -29t28 -67q0 -12 -8 -36l-532 -1280q-6 -18 -20 -32t-32 -21t-37 -7t-35 8q-14 4 -25 14t-19 22t-12 25t-4 27q0 20 8 36 l350 842l-730 -936q-28 -36 -74 -38h-2q-40 0 -69 30q-27 28 -27 67v5l50 942l-410 -984q-10 -28 -35 -44t-53 -16q-20 0 -36 8q-18 6 -32 20t-21 32t-7 37z" />
<glyph unicode="N" horiz-adv-x="1440" d="M-74 97q0 19 8 35l532 1280q10 28 35 44t53 16h48h32q18 0 34 -7t29 -18t21 -26t10 -31l156 -1050l446 1072q10 28 35 44t53 16q20 0 36 -8q28 -10 44 -35t16 -53q0 -10 -2 -19t-6 -17l-532 -1280q-10 -26 -35 -43t-53 -17h-40h-24q-34 0 -62 24t-32 58l-160 1078 l-458 -1100q-10 -28 -35 -44t-53 -16q-20 0 -36 8q-18 6 -32 20t-21 32t-7 37z" />
<glyph unicode="O" horiz-adv-x="1472" d="M74 418q0 170 78 354q122 296 366 506t490 210q84 0 156 -30q116 -48 175 -154t59 -250q0 -170 -78 -354q-122 -296 -366 -506t-490 -210q-84 0 -156 30q-78 32 -131 93t-78 139t-25 172zM266 424q0 -92 32 -152t84 -82q36 -14 82 -14q166 0 371 175t309 421 q32 78 47 147t15 129q0 92 -32 152t-84 82q-36 14 -82 14q-166 0 -371 -175t-309 -421q-22 -54 -36 -103t-20 -92t-6 -81z" />
<glyph unicode="P" horiz-adv-x="1360" d="M-74 97q0 19 8 35l268 646l264 634q10 28 35 44t53 16h480q94 0 168 -30q56 -22 94 -62t57 -91t19 -111q0 -84 -38 -174q-76 -190 -238 -293t-342 -103h-416l-228 -548q-10 -28 -35 -44t-53 -16q-20 0 -36 8q-18 6 -32 20t-21 32t-7 37zM418 800h336q124 0 236 72 t168 204q28 70 28 112q0 32 -15 49t-43 27q-36 16 -94 16h-416z" />
<glyph unicode="Q" horiz-adv-x="1472" d="M74 418q0 170 78 354q122 296 366 506t490 210q84 0 156 -30q116 -48 175 -154t59 -250q0 -170 -78 -354q-74 -184 -204 -341t-284 -255q8 -2 18 -2q36 -6 60 -33t24 -63v-12q-6 -36 -33 -60t-63 -24h-12q-62 8 -104 36t-68 72q-98 -34 -190 -34q-84 0 -156 30 q-78 32 -131 93t-78 139t-25 172zM266 424q0 -92 32 -152t84 -82q36 -14 82 -14q68 0 150 34q0 14 1 28t2 20l1 6q-16 16 -26 36t-10 42q0 14 4 27t14 25q28 42 78 42q14 0 28 -4t26 -14q14 -8 24 -19t20 -23q18 -26 30 -50q228 182 338 446q32 78 47 147t15 129 q0 92 -32 152t-84 82q-36 14 -82 14q-166 0 -371 -175t-309 -421q-22 -54 -36 -103t-20 -92t-6 -81z" />
<glyph unicode="R" horiz-adv-x="1408" d="M-74 97q0 19 8 35l294 708l238 572q10 28 35 44t53 16h528q112 0 192 -32q76 -32 117 -95t41 -147q0 -38 -9 -79t-27 -83q-18 -46 -42 -85t-51 -72t-58 -60t-64 -49t-69 -38t-72 -28t-74 -20l8 -586q0 -40 -28 -69t-66 -29h-2q-18 0 -36 8t-31 20t-21 30t-8 36l-8 578 h-408l-256 -612q-10 -28 -35 -44t-53 -16q-20 0 -36 8q-18 6 -32 20t-21 32t-7 37zM446 864h384q288 0 390 244q26 66 26 100q0 16 -7 28t-15 16t-24 10q-42 18 -118 18h-464z" />
<glyph unicode="S" horiz-adv-x="1344" d="M-22 336q0 10 2 19t6 18t9 16t11 14t14 12t16 9t17 6t19 2h2q38 0 66 -26t30 -66v-2q0 -10 2 -19t8 -31t22 -39t39 -35t65 -28t94 -10q168 0 304 86t186 206q10 26 16 46t6 36q0 56 -92 92q-48 20 -118 32q-78 12 -144 34t-113 52t-79 68t-48 80t-16 88q0 22 4 46 q6 40 24 82q72 174 244 269t370 95q100 0 176 -28t116 -68t65 -89t32 -83t7 -60v-7v-5v-6q-4 -34 -32 -60t-64 -26h-4h-4q-20 2 -37 11t-28 23t-17 32t-6 38v4q0 12 -1 23t-11 33t-29 37t-62 27t-101 12q-98 0 -187 -31t-155 -87t-96 -126q-2 -6 -4 -11t-3 -10l-2 -10t-3 -9 q-2 -14 -2 -22q0 -90 242 -128q92 -14 160 -42q202 -82 202 -280q0 -18 -2 -37t-6 -38t-9 -36t-13 -33q-74 -180 -257 -296t-409 -116q-294 0 -392 230q-28 68 -30 122z" />
<glyph unicode="T" horiz-adv-x="1376" d="M326 96q0 20 8 36l476 1148h-352q-40 0 -68 28t-28 68t28 68t68 28h992q40 0 68 -28t28 -68t-28 -68t-68 -28h-432l-508 -1220q-10 -28 -35 -44t-53 -16q-20 0 -36 8q-28 10 -44 35t-16 53z" />
<glyph unicode="U" horiz-adv-x="1424" d="M42 322q0 74 32 146l392 944q10 28 35 44t53 16q20 0 36 -8q8 -2 15 -7t13 -10t11 -12t9 -14t7 -14t4 -15t1 -16q0 -20 -8 -36l-392 -944q-18 -46 -18 -82q0 -80 92 -118q22 -10 52 -15t64 -5q96 0 197 42t177 109t108 141l392 944q6 18 20 32t32 21t37 7t35 -8 q28 -10 44 -35t16 -53q0 -10 -2 -19t-6 -17l-392 -944q-48 -118 -152 -212t-238 -147t-268 -53q-104 0 -190 34q-64 28 -111 74t-72 105t-25 125z" />
<glyph unicode="V" horiz-adv-x="1376" d="M310 100l52 1280q0 18 8 35t21 30t31 20t36 7h4q40 -2 67 -31q25 -27 25 -64v-5l-42 -1028l862 1092q30 36 76 36q34 0 60 -20q12 -10 20 -22t12 -26t4 -28q0 -34 -20 -60l-1012 -1280q-30 -36 -76 -36h-32q-38 0 -68 29q-28 27 -28 66v5z" />
<glyph unicode="W" horiz-adv-x="1744" d="M166 96l2 14l196 1280q4 36 32 59t62 23q8 0 14 -2q36 -4 59 -32t23 -62q0 -8 -2 -14l-138 -906l636 972q28 44 80 44h16q28 0 50 -15t34 -37t12 -46q0 -8 -2 -14l-160 -900l658 970q10 14 23 23t27 14t30 5q14 0 28 -4t26 -12q42 -28 42 -80q0 -30 -16 -54l-868 -1280 q-30 -42 -80 -42h-32q-36 0 -66 28t-30 68q0 8 2 16l150 852l-600 -920q-28 -44 -80 -44h-32q-34 0 -65 28t-31 68z" />
<glyph unicode="X" horiz-adv-x="1264" d="M-170 96q0 42 32 72l662 600l-158 582q-2 6 -3 13t-1 13q0 32 20 58t50 34q6 2 13 3t13 1q12 0 24 -3t23 -10t20 -15t16 -19t9 -23l134 -490l590 536q26 24 64 24q42 0 72 -32q12 -12 18 -29t6 -35q0 -14 -4 -26t-11 -24t-17 -22l-662 -600l158 -582l4 -26q0 -32 -20 -58 t-50 -34q-6 -2 -13 -3t-13 -1q-32 0 -58 20t-34 50l-134 490l-590 -536q-26 -24 -64 -24q-42 0 -72 32q-8 8 -13 19t-8 22t-3 23z" />
<glyph unicode="Y" horiz-adv-x="1312" d="M294 96q0 10 2 19t6 17l266 640l-200 572q-6 16 -6 32q0 14 5 28t13 26t20 22t26 14q16 6 32 6q20 0 38 -8t32 -23t20 -33l166 -476l610 518q26 22 62 22q44 0 74 -34q22 -26 22 -62q0 -44 -34 -74l-698 -592l-272 -650q-10 -28 -35 -44t-53 -16q-20 0 -36 8 q-28 10 -44 35t-16 53z" />
<glyph unicode="Z" horiz-adv-x="1264" d="M-170 96q0 42 32 70l1214 1114h-602q-40 0 -68 28t-28 68t28 68t68 28h848q40 0 68 -29t28 -67q0 -20 -9 -40t-23 -30l-1214 -1114h634q40 0 68 -28t28 -68t-28 -68t-68 -28h-880q-38 0 -66 26q-30 28 -30 70z" />
<glyph unicode="[" horiz-adv-x="624" d="M-204 -64q0 10 2 19t6 17l664 1600q10 26 35 43t53 17h240q40 0 68 -28t28 -68t-28 -68t-68 -28h-176l-584 -1408h96q40 0 68 -28t28 -68t-28 -68t-68 -28h-240q-16 0 -30 4q-10 4 -19 9t-16 12t-13 15t-10 18t-6 19t-2 19z" />
<glyph unicode="\" horiz-adv-x="1152" d="M394 1364v12q0 22 11 43t30 35t43 18h12q22 0 43 -11t35 -30t18 -43l172 -1280v-5v-7q0 -18 -6 -34t-17 -29t-27 -21t-34 -12h-5h-7q-36 0 -63 24t-33 60z" />
<glyph unicode="]" horiz-adv-x="624" d="M-268 -64q0 40 28 68t68 28h176l584 1408h-96q-40 0 -68 28t-28 68t28 68t68 28h240q26 0 48 -13t35 -35t13 -48q0 -12 -8 -36l-664 -1600q-10 -28 -35 -44t-53 -16h-240q-40 0 -68 28t-28 68z" />
<glyph unicode="^" horiz-adv-x="1024" d="M194 896q0 20 7 37t21 31l488 480q28 28 68 28q6 0 13 -1t14 -3t13 -5t12 -7t11 -8t11 -10q16 -20 20 -44l88 -480q2 -10 2 -18q0 -22 -10 -42t-28 -34t-40 -18q-10 -2 -18 -2q-34 0 -61 22t-33 56l-56 302l-358 -352q-14 -14 -32 -21t-36 -7q-40 0 -68 28q-14 14 -21 32 t-7 36z" />
<glyph unicode="_" horiz-adv-x="1152" d="M-384 -192q0 40 28 68t68 28h960q40 0 68 -28t28 -68t-28 -68t-68 -28h-960q-40 0 -68 28t-28 68z" />
<glyph unicode="`" horiz-adv-x="768" d="M394 1376q0 14 5 28t13 26t20 22t26 14q8 4 16 5t16 1q30 0 55 -18t35 -46l146 -416q6 -16 6 -32q0 -12 -3 -23t-9 -22t-13 -19t-17 -15t-22 -11q-16 -6 -32 -6q-30 0 -55 18t-35 46l-146 416z" />
<glyph unicode="a" horiz-adv-x="1176" d="M-12 320v2q0 114 54 242q86 212 264 360t362 148q68 0 123 -23t95 -67l6 14q10 28 35 44t53 16q20 0 36 -8q28 -10 44 -35t16 -53q0 -10 -2 -19t-6 -17l-358 -864q-10 -28 -35 -44t-53 -16q-20 0 -36 8q-32 12 -48 44q-124 -68 -242 -68q-142 0 -225 97t-83 239zM180 318 q0 -76 29 -109t87 -33q72 0 168 58t176 156l144 348v2q0 74 -29 107t-87 33q-108 0 -246 -114t-204 -274q-38 -94 -38 -172v-2z" />
<glyph unicode="b" horiz-adv-x="1176" d="M-90 96q0 28 14 50q40 62 90 180l452 1086q6 18 20 32t32 21t37 7t35 -8q28 -10 44 -35t16 -53q0 -20 -8 -36l-128 -312q98 44 194 44q32 0 63 -6t59 -16q64 -26 106 -74t61 -107t19 -129q0 -24 -3 -49t-7 -50t-10 -50t-15 -50t-19 -49q-86 -212 -264 -360t-362 -148 q-140 0 -226 98q-14 -24 -24 -40q-30 -42 -80 -42q-30 2 -52 16q-44 28 -44 80zM220 320q-2 -144 116 -144q108 0 246 114t204 274q38 96 38 170q0 56 -19 91t-47 47q-6 2 -13 4t-17 3t-20 1q-74 0 -170 -59t-176 -157z" />
<glyph unicode="c" horiz-adv-x="1056" d="M-12 312q0 124 54 252q86 210 261 359t357 149q56 0 105 -18t86 -49t62 -74t37 -93q2 -12 2 -22q0 -22 -9 -41t-27 -33t-38 -20q-12 -2 -22 -2q-16 0 -31 6t-28 15t-22 23t-13 30q-10 46 -33 66t-69 20q-38 0 -86 -19t-99 -54t-98 -82t-89 -108t-70 -125 q-40 -98 -40 -174q0 -56 19 -90t45 -44q20 -8 46 -8q38 0 86 18t101 54t101 86q14 14 32 22t38 8q40 0 66 -26q30 -28 30 -70q0 -12 -3 -24t-9 -23t-14 -19q-210 -218 -428 -218q-64 0 -118 22q-92 38 -137 119t-45 187z" />
<glyph unicode="d" horiz-adv-x="1184" d="M-4 320q0 116 54 244q86 212 264 360t362 148q134 0 218 -90l180 430q4 12 11 21t16 16t19 12t21 8t21 3q20 0 36 -8q12 -4 21 -11t16 -16t12 -19t8 -21t3 -21q0 -20 -8 -36l-452 -1090q-22 -50 -36 -93t-17 -56t-5 -23q-6 -34 -33 -56t-61 -22q-8 0 -16 2q-52 8 -72 56 q-130 -74 -254 -74q-142 0 -225 97t-83 239zM188 318q0 -76 29 -109t87 -33q74 0 170 58t174 156l144 346q2 144 -116 144q-40 0 -90 -19t-101 -54t-99 -82t-90 -108t-70 -125q-38 -94 -38 -174z" />
<glyph unicode="e" horiz-adv-x="1088" d="M-16 304q0 124 58 260q24 58 56 114q100 172 250 283t304 111q108 0 187 -57t101 -169q4 -12 6 -25t2 -25v-26q0 -100 -54 -230q-10 -28 -35 -44t-53 -16h-592q-38 -98 -38 -170q0 -54 18 -86t42 -40q18 -8 44 -8q76 0 159 39t117 66t50 43q28 28 68 28t66 -28 q30 -26 30 -68q0 -4 -1 -8t-1 -8t-1 -8t-3 -7t-3 -7t-3 -8t-4 -7t-5 -6t-5 -7l-25 -25t-62 -50t-99 -62t-126 -47t-152 -22q-20 0 -41 2t-40 7t-37 13q-178 72 -178 298zM324 672h416q18 54 18 94q0 24 -6 46q-6 26 -15 40t-29 21t-56 7q-32 0 -73 -14t-84 -40t-87 -66 t-84 -88z" />
<glyph unicode="f" horiz-adv-x="752" d="M-2 96q0 20 8 36l302 732h-48q-40 0 -68 28t-28 68t28 68t68 28h128l96 228q30 76 93 128t123 72t114 20q44 0 88 -12q12 -4 23 -10t20 -15t15 -20t9 -23t3 -24t-4 -24q-8 -32 -34 -52t-58 -20q-12 0 -22 2q-22 6 -40 6q-12 0 -34 -7t-45 -20t-44 -32t-31 -41l-64 -156 h80q40 0 68 -28t28 -68t-28 -68t-68 -28h-160l-334 -804q-6 -18 -20 -32t-32 -21t-37 -7t-35 8q-28 10 -44 35t-16 53z" />
<glyph unicode="g" horiz-adv-x="1176" d="M-56 -232q0 18 7 36t21 32t31 21t37 7q8 0 17 -2t18 -5t17 -8t14 -11q36 -30 102 -30q86 0 164 64t120 156q-100 -44 -196 -44q-142 0 -225 97t-83 239q0 116 54 244q86 212 264 360t362 148q140 0 226 -98q12 22 22 38q12 20 35 32t47 12q12 0 25 -4t23 -10 q12 -8 20 -17t14 -20t9 -22t3 -23q0 -28 -14 -50l-1 -2t-4 -7l-6 -10t-7 -12t-8 -16t-10 -19t-12 -23t-12 -27t-13 -30t-15 -34l-318 -766q-26 -66 -69 -126t-101 -111t-134 -81t-160 -30q-66 0 -124 21t-78 36t-34 27q-14 16 -21 33t-7 35zM180 318q0 -76 29 -109t87 -33 q74 0 171 59t175 159l142 340q2 146 -116 146q-108 0 -246 -114t-204 -274q-38 -94 -38 -174z" />
<glyph unicode="h" horiz-adv-x="1168" d="M-74 96q0 10 2 19t6 17l532 1280q4 12 11 21t16 16t19 12t21 8t21 3q20 0 36 -8q10 -4 18 -9t14 -12t12 -15t9 -16t5 -18t2 -19t-2 -18t-6 -17l-132 -320q118 52 230 52q106 0 177 -71t71 -179q0 -74 -34 -154l-252 -608q-10 -28 -35 -44t-53 -16q-20 0 -36 8 q-18 6 -32 20t-21 32t-7 37t8 35l252 608q10 26 14 46t4 38q0 22 -5 34t-17 17t-34 5q-66 0 -152 -42t-131 -77t-83 -67l-264 -634q-10 -28 -35 -44t-53 -16q-20 0 -36 8q-14 4 -25 14t-19 22t-12 25t-4 27z" />
<glyph unicode="i" d="M-74 97q0 19 8 35l358 864q10 28 35 44t53 16q10 0 19 -2t17 -6q28 -10 44 -35t16 -53q0 -20 -8 -36l-358 -864q-10 -28 -35 -44t-53 -16q-20 0 -36 8q-18 6 -32 20t-21 32t-7 37zM430 1312q0 20 8 36l40 96q6 18 20 32t32 21t37 7t35 -8q28 -10 44 -35t16 -53 q0 -10 -2 -19t-6 -17l-40 -96q-10 -28 -35 -44t-53 -16q-20 0 -36 8q-28 10 -44 35t-16 53z" />
<glyph unicode="j" d="M-422 -284q0 6 1 13t3 13q6 20 19 36t32 25t41 9q14 0 28 -4h2q44 0 82 29t56 73l450 1086q10 28 35 44t53 16q10 0 19 -2t17 -6q18 -6 32 -20t21 -32t7 -37t-8 -35l-450 -1090q-38 -88 -120 -153t-194 -65q-28 0 -56 8q-32 10 -51 35t-19 57zM430 1312q0 20 8 36l40 96 q6 18 20 32t32 21t37 7t35 -8q28 -10 44 -35t16 -53q0 -10 -2 -19t-6 -17l-40 -96q-10 -28 -35 -44t-53 -16q-20 0 -36 8q-28 10 -44 35t-16 53z" />
<glyph unicode="k" horiz-adv-x="1056" d="M-74 97q0 19 8 35l532 1280q4 14 14 25t22 19t25 12t27 4q20 0 36 -8q28 -10 44 -35t16 -53q0 -20 -8 -36l-256 -620l420 316q26 20 58 20q6 0 14 -1t15 -3t13 -6t13 -8t12 -9t9 -11q8 -8 12 -18t6 -20t2 -20q0 -22 -10 -43t-28 -33l-320 -242l68 -534v-12q0 -18 -6 -34 t-18 -29t-27 -22t-33 -11h-12q-36 0 -63 24t-33 60l-52 426l-186 -138l-130 -312q-10 -28 -35 -44t-53 -16q-20 0 -36 8q-18 6 -32 20t-21 32t-7 37z" />
<glyph unicode="l" d="M-58 96v7v7q14 78 72 216l452 1086q6 18 20 32t32 21t37 7t35 -8q28 -10 44 -35t16 -53q0 -20 -8 -36l-452 -1090q-46 -112 -58 -172q-6 -34 -33 -56t-61 -22q-8 0 -16 2q-34 4 -57 31t-23 63z" />
<glyph unicode="m" horiz-adv-x="1728" d="M-74 97q0 19 8 35l358 864q10 28 35 44t53 16q10 0 19 -2t17 -6q16 -6 29 -18t19 -26q132 68 260 68q72 0 130 -35t90 -93q178 128 356 128q70 0 127 -32t89 -89t32 -129q0 -36 -8 -75t-26 -79l-252 -608q-10 -28 -35 -44t-53 -16q-20 0 -36 8q-28 10 -44 35t-16 53 q0 20 8 36l252 608q10 26 14 46t4 38q0 22 -5 34t-17 17t-34 5q-68 0 -153 -44t-127 -79t-72 -65q-4 -12 -10 -24l-252 -608q-10 -28 -35 -44t-53 -16q-20 0 -36 8q-28 10 -44 35t-16 53q0 10 2 19t6 17l252 608q10 26 14 46t4 38q0 22 -5 34t-17 17t-34 5q-52 0 -111 -23 t-109 -59t-80 -60t-50 -44l-264 -634q-10 -28 -35 -44t-53 -16q-20 0 -36 8q-18 6 -32 20t-21 32t-7 37z" />
<glyph unicode="n" horiz-adv-x="1160" d="M-74 97q0 19 8 35l358 864q10 28 35 44t53 16q10 0 19 -2t17 -6q34 -14 50 -46q62 32 129 51t137 19q106 0 177 -71t71 -179q0 -74 -34 -154l-252 -608q-10 -28 -35 -44t-53 -16q-20 0 -36 8q-18 6 -32 20t-21 32t-7 37t8 35l252 608q18 46 18 84q0 32 -12 44t-44 12 q-36 0 -76 -11t-76 -30t-69 -39t-62 -43t-46 -37t-29 -26l-264 -634q-10 -28 -35 -44t-53 -16q-20 0 -36 8q-18 6 -32 20t-21 32t-7 37z" />
<glyph unicode="o" horiz-adv-x="1136" d="M-12 316q0 122 54 248q86 212 264 360t362 148q32 0 63 -6t59 -16q48 -20 84 -52t58 -73t33 -87t11 -98q0 -40 -7 -82t-18 -84t-29 -82q-86 -212 -264 -360t-362 -148q-32 0 -63 6t-59 16q-94 40 -140 121t-46 189zM180 322q0 -38 10 -68t24 -46t32 -24q22 -8 50 -8 q68 0 155 49t169 141t126 198q38 96 38 170q0 56 -19 91t-47 47q-10 4 -22 6t-28 2q-108 0 -246 -114t-204 -274q-10 -26 -17 -50t-12 -45t-7 -40t-2 -35z" />
<glyph unicode="p" horiz-adv-x="1176" d="M-232 -288q0 10 2 19t6 17l516 1248q6 18 20 32t32 21t37 7t35 -8q32 -12 50 -44q122 68 242 68q32 0 63 -6t59 -16q64 -26 106 -74t61 -107t19 -129q0 -24 -3 -49t-7 -50t-10 -50t-15 -50t-19 -49q-86 -212 -264 -360t-362 -148q-134 0 -218 90l-166 -398 q-10 -28 -35 -44t-53 -16q-10 0 -19 2t-17 6q-14 4 -25 14t-19 22t-12 25t-4 27zM220 320q-2 -144 116 -144q108 0 246 114t204 274q38 96 38 170q0 56 -19 91t-47 47q-6 2 -13 4t-17 3t-20 1q-74 0 -171 -59t-177 -159z" />
<glyph unicode="q" horiz-adv-x="1176" d="M-12 320q0 116 54 244q86 212 264 360t362 148q70 0 127 -26t99 -72q4 10 10 19t8 13t4 6q28 44 80 44q28 0 50 -14q46 -28 46 -82q0 -12 -3 -25t-11 -25q-38 -62 -88 -180l-438 -1054q-10 -28 -35 -44t-53 -16q-20 0 -36 8q-28 10 -44 35t-16 53q0 20 8 36l116 280 q-74 -32 -196 -44q-142 0 -225 97t-83 239zM180 318q0 -76 29 -109t87 -33q74 0 171 59t175 157l142 342q2 146 -116 146q-108 0 -246 -114t-204 -274q-38 -94 -38 -174z" />
<glyph unicode="r" horiz-adv-x="848" d="M-74 96q0 20 8 36l358 864q10 28 35 44t53 16q10 0 19 -2t17 -6q16 -6 27 -16t19 -22t11 -27t3 -31q36 26 102 52t115 40t57 14l-2 -2q40 0 68 -28t28 -68t-28 -68t-68 -28q-68 0 -202 -110t-258 -266l-178 -428q-10 -28 -35 -44t-53 -16q-20 0 -36 8q-28 10 -44 35 t-16 53z" />
<glyph unicode="s" horiz-adv-x="992" d="M-92 224q0 30 17 55t47 35q4 2 8 3l8 2t8 1h8q64 0 90 -64q2 -4 6 -11t14 -20t24 -23t37 -18t49 -8q70 0 131 26t101 67t60 89q18 44 18 55t-22 21q-4 2 -6 2q-36 14 -96 20q-88 8 -151 44t-93 87t-30 113v12v12q2 22 8 44t16 44q46 114 171 187t265 73q46 0 87 -9 t71 -22t55 -31t41 -34t28 -34t18 -28t8 -18q6 -14 6 -30q0 -20 -7 -38t-21 -32t-34 -22l-16 -4t-16 -2q-14 0 -29 5t-26 12t-21 18t-14 25q-28 52 -130 52q-82 0 -161 -47t-99 -93q-2 -8 -4 -14t-3 -12t-1 -10q0 -2 -2 -7t-2 -9q0 -6 4 -11t14 -11t32 -11t56 -7 q88 -10 148 -34q142 -58 142 -204q0 -34 -8 -66t-20 -62q-54 -128 -180 -213t-288 -85q-194 0 -290 166q-14 24 -20 42q-6 16 -6 32z" />
<glyph unicode="t" horiz-adv-x="688" d="M-18 96q0 20 8 36l304 732h-34q-40 0 -68 28t-28 68t28 68t68 28h112l110 260q6 18 20 32t32 21t37 7t35 -8q28 -10 44 -35t16 -53q0 -6 -1 -10t-1 -9t-2 -9l-4 -8l-78 -188h32q40 0 68 -28t28 -68t-28 -68t-68 -28h-110l-336 -804q-10 -28 -35 -44t-53 -16q-20 0 -36 8 q-28 10 -44 35t-16 53z" />
<glyph unicode="u" horiz-adv-x="1160" d="M6 234q0 74 34 154l252 608q6 18 20 32t32 21t37 7t35 -8q28 -10 44 -35t16 -53q0 -20 -8 -36l-252 -608l-8 -24t-6 -22t-3 -19t-1 -17q0 -34 12 -46t46 -12q66 0 148 41t127 75t81 68l264 636q10 28 35 44t53 16q20 0 36 -8q28 -10 44 -35t16 -53q0 -10 -2 -19t-6 -17 l-358 -864q-10 -28 -35 -44t-53 -16q-20 0 -36 8q-34 12 -50 46q-134 -70 -264 -70q-108 0 -179 71t-71 179z" />
<glyph unicode="v" horiz-adv-x="992" d="M102 106l86 864q4 36 32 61t64 25h10q38 -4 64 -35q23 -27 23 -60q0 -5 -1 -11l-62 -614l496 680q28 40 78 40q32 0 56 -18q40 -28 40 -78q0 -16 -5 -30t-13 -26l-630 -864q-12 -18 -34 -29t-44 -11h-64q-38 0 -69 31q-27 27 -27 65v10z" />
<glyph unicode="w" horiz-adv-x="1392" d="M54 96q0 8 2 14l134 864q4 36 32 59t62 23q8 0 14 -2q14 -2 27 -8t23 -15t17 -20t11 -24t4 -27v-8t-2 -6l-80 -522l364 512q28 40 78 40h32q40 0 68 -30t28 -68v-10l-54 -446l398 592q28 42 80 42q30 0 54 -16q20 -14 31 -35t11 -45q0 -30 -16 -54l-582 -864 q-28 -42 -80 -42h-32q-38 0 -67 28t-29 68v12l56 464l-378 -532q-28 -40 -78 -40h-32q-34 0 -65 28t-31 68z" />
<glyph unicode="x" horiz-adv-x="992" d="M-170 96q0 42 30 70l458 432l-80 340q0 4 -1 7t-1 7v8q0 32 21 59t53 35q4 0 7 1t7 1h8q32 0 59 -21t35 -53l54 -232l298 280q14 12 31 19t35 7q42 0 70 -30q12 -14 19 -31t7 -35q0 -42 -30 -70l-380 -356l98 -416q2 -10 2 -22q0 -22 -9 -41t-26 -33t-39 -20 q-10 -2 -22 -2q-32 0 -59 21t-35 53l-72 306l-376 -354q-28 -26 -66 -26q-42 0 -70 30q-26 28 -26 66z" />
<glyph unicode="y" horiz-adv-x="992" d="M-328 -288q0 10 2 20q4 16 14 30t23 24t30 15t35 5q8 0 18 -2h20q48 0 115 53t125 129q42 58 84 114l50 866q2 18 10 35t21 29t30 19t35 7h6q38 -2 65 -32q25 -28 25 -65v-5l-34 -572q432 584 468 632q26 40 84 40q16 0 32 -6q54 -30 54 -76q0 -34 -26 -85t-95 -147 t-145 -195t-225 -295t-287 -380q-34 -48 -67 -83t-84 -80t-113 -70t-128 -25q-18 0 -33 1t-22 3t-13 2q-34 8 -54 35t-20 59z" />
<glyph unicode="z" horiz-adv-x="1008" d="M-146 96q0 42 30 70l742 698h-302q-40 0 -68 28t-28 68t28 68t68 28h544q10 0 22 -3t23 -9t19 -12q32 -30 32 -72q0 -20 -8 -38t-22 -32l-742 -698h334q40 0 68 -28t28 -68t-28 -68t-68 -28h-576q-40 0 -68 29t-28 67z" />
<glyph unicode="{" horiz-adv-x="864" d="M140 100q0 54 20 108q30 86 75 166t72 127t27 73q0 22 -18 39t-60 33q-22 8 -38 24q-8 10 -14 20t-8 20q-4 14 -4 30q0 4 1 9l2 10t3 9q4 12 10 21t14 17q18 16 40 22q86 24 142 65t80 89t44 107t31 118t41 120t73 115t129 103t208 83q12 4 26 4q32 0 58 -20t34 -50 q4 -12 4 -26q0 -20 -9 -39t-25 -33t-36 -20q-78 -22 -131 -57t-79 -77t-46 -94t-29 -104t-30 -108t-47 -106t-81 -101t-131 -89q34 -54 34 -124q0 -60 -26 -133t-56 -127t-61 -108t-39 -72q-16 -46 -16 -58q0 -18 17 -31t63 -29q30 -10 47 -35t17 -55q0 -18 -6 -32 q-10 -30 -35 -47t-55 -17q-18 0 -32 6q-102 36 -151 104t-49 150z" />
<glyph unicode="|" d="M-140 -64q0 20 8 36l664 1600q10 28 35 44t53 16q20 0 36 -8q14 -4 25 -14t19 -22t12 -25t4 -27q0 -10 -2 -19t-6 -17l-664 -1600q-10 -28 -35 -44t-53 -16q-20 0 -36 8q-28 10 -44 35t-16 53z" />
<glyph unicode="}" horiz-adv-x="864" d="M-268 -64q0 32 20 58t50 34q88 24 144 66t82 94t42 111t33 122t44 123t85 118t144 102q-34 54 -34 124q0 76 39 168t88 173t55 99q0 4 3 11t4 10l3 9t3 8t2 6t1 8v6q0 18 -17 31t-63 29q-30 10 -47 35t-17 55q0 18 6 32q10 30 35 47t55 17q18 0 32 -6q70 -24 116 -66 t65 -88t19 -100q0 -18 -2 -37t-7 -36t-11 -35q-24 -68 -57 -133t-57 -103t-42 -74t-18 -56q0 -8 2 -15t6 -13t10 -12t15 -11t20 -10t25 -11q12 -4 21 -10t17 -14q16 -18 22 -40q4 -14 4 -29t-6 -29q-4 -12 -10 -21t-14 -17q-18 -16 -40 -22q-96 -28 -155 -76t-84 -108 t-40 -127t-39 -137t-66 -134t-134 -122t-230 -96q-12 -4 -26 -4q-32 0 -58 20t-34 50q-2 4 -2 7t-1 6t-1 6v7z" />
<glyph unicode="~" horiz-adv-x="1296" d="M-14 432q0 34 20 60q90 114 175 163t169 49q68 0 148 -30t153 -59t125 -29q98 0 174 98q28 36 76 36q16 0 31 -5t29 -15q36 -28 36 -76q0 -34 -20 -60q-90 -114 -175 -163t-169 -49t-225 59t-201 59q-98 0 -174 -98q-28 -36 -76 -36q-34 0 -60 20q-16 14 -26 34t-10 42z " />
<glyph unicode="&#xa0;" />
<glyph unicode="&#xa1;" d="M-246 -318q0 10 2 19t6 17l332 800q6 18 20 32t32 21t37 7t35 -8q28 -10 44 -35t16 -53q0 -20 -8 -36l-332 -800q-10 -28 -35 -44t-53 -16q-20 0 -36 8q-14 4 -25 14t-19 22t-12 25t-4 27zM208 890q0 22 8 42v1l2 3q24 54 72 88t108 34q56 0 85 -37t29 -85q0 -10 -1 -20 t-5 -20q-2 -2 -2 -4q-24 -54 -71 -88t-107 -34q-36 0 -63 18t-41 45t-14 57z" />
<glyph unicode="&#xa2;" horiz-adv-x="1056" d="M-66 -272q0 26 12 46l888 1600q28 50 84 50q6 0 10 -1t9 -2l10 -2t9 -3l8 -4q24 -12 37 -35t13 -49q0 -8 -1 -16t-4 -16t-7 -14l-888 -1600q-6 -12 -16 -21t-21 -16t-23 -10t-24 -3q-26 0 -46 12q-50 28 -50 84zM-12 312q0 124 54 252q86 210 261 359t357 149 q56 0 105 -18t86 -49t62 -74t37 -93q2 -12 2 -22q0 -22 -9 -41t-27 -33t-38 -20q-12 -2 -22 -2q-16 0 -31 6t-28 15t-22 23t-13 30q-10 46 -33 66t-69 20q-38 0 -86 -19t-99 -54t-98 -82t-89 -108t-70 -125q-40 -98 -40 -174q0 -56 19 -90t45 -44q20 -8 46 -8q38 0 86 18 t101 54t101 86q14 14 32 22t38 8q40 0 66 -26q30 -28 30 -70q0 -12 -3 -24t-9 -23t-14 -19q-210 -218 -428 -218q-64 0 -118 22q-92 38 -137 119t-45 187z" />
<glyph unicode="&#xa3;" horiz-adv-x="1408" d="M-10 96q0 40 26 66q300 310 362 478h-122q-40 0 -68 28t-28 68t28 68t68 28h136q-6 48 -6 78q0 86 42 182q72 174 245 285t371 111q98 0 181 -28t141 -96t58 -168q0 -74 -36 -160q-6 -18 -20 -32t-32 -21t-37 -7t-35 8q-18 6 -32 20t-21 32t-7 36q0 10 2 19t6 17 q10 28 15 50t5 38q0 100 -188 100q-92 0 -182 -38t-158 -101t-100 -137q-4 -12 -7 -24t-4 -23t-1 -25q0 -18 3 -56t3 -60h234q40 0 68 -28t28 -68t-28 -68t-68 -28h-258q-60 -202 -270 -448h582q40 0 68 -28t28 -68t-28 -68t-68 -28h-800q-34 0 -62 22q-34 28 -34 74z" />
<glyph unicode="&#xa4;" horiz-adv-x="1152" d="M-18 384q0 50 40 78l182 128q2 2 4 2q-2 8 -2 16t-1 16t-1 16q0 66 28 132q18 46 47 89t65 79l-58 100q-6 10 -9 22t-3 26q0 16 6 32t16 29t26 23q10 6 22 9t26 3q56 0 84 -48l50 -88q88 40 178 40q62 0 114 -20q26 -12 46 -26l176 124q26 18 56 18q50 0 78 -40 q18 -26 18 -56q0 -22 -11 -43t-29 -35l-182 -128q-2 -2 -4 -2q4 -24 4 -48q0 -34 -7 -67t-21 -65q-36 -92 -112 -168l58 -100q6 -10 9 -22t3 -26q0 -24 -13 -47t-35 -37q-22 -12 -48 -12q-56 0 -84 48l-50 88q-88 -40 -178 -40q-20 0 -39 2t-38 7t-37 11q-26 12 -46 26 l-176 -124q-26 -18 -56 -18q-50 0 -78 40q-18 26 -18 56zM394 636q0 -40 34 -52q8 -4 18 -6t24 -2q48 0 103 27t102 72t69 97q14 38 14 64q0 40 -34 52q-18 8 -42 8q-36 0 -77 -16t-79 -42t-70 -63t-48 -75q-14 -38 -14 -64z" />
<glyph unicode="&#xa5;" horiz-adv-x="1312" d="M28 496q0 40 28 68t68 28h864q40 0 68 -28t28 -68t-28 -68t-68 -28h-864q-40 0 -68 28t-28 68zM228 976q0 40 28 68t68 28h864q40 0 68 -28t28 -68t-28 -68t-68 -28h-864q-40 0 -68 28t-28 68zM294 96q0 10 2 19t6 17l266 640l-200 572q-6 16 -6 32q0 14 5 28t13 26 t20 22t26 14q16 6 32 6q20 0 38 -8t32 -23t20 -33l166 -476l610 518q26 22 62 22q44 0 74 -34q22 -26 22 -62q0 -44 -34 -74l-698 -592l-272 -650q-10 -28 -35 -44t-53 -16q-20 0 -36 8q-28 10 -44 35t-16 53z" />
<glyph unicode="&#xa6;" d="M-140 -64q0 20 8 36l252 608q10 28 35 44t53 16q20 0 36 -8q28 -10 44 -35t16 -53l-8 -36l-252 -608q-10 -28 -35 -44t-53 -16q-20 0 -36 8q-28 10 -44 35t-16 53zM272 928q0 10 2 19t6 17l252 608q10 28 35 44t53 16q20 0 36 -8q28 -10 44 -35t16 -53q0 -10 -2 -19 t-6 -17l-252 -608q-4 -12 -11 -21t-16 -16t-19 -12t-21 -8t-21 -3q-20 0 -36 8q-28 10 -44 35t-16 53z" />
<glyph unicode="&#xa7;" horiz-adv-x="1248" d="M-172 -86q4 36 31 62t65 26h6q38 -2 64 -31t26 -67v-2q-2 -10 -1 -19t9 -27t25 -31t53 -23t88 -10q130 0 235 58t143 148q6 18 10 34v2v14q0 66 -204 100q-44 6 -82 16t-70 24q-184 76 -184 256q2 66 28 130q40 96 124 174t196 128q-74 72 -74 170q0 20 4 40q6 38 22 76 q64 156 219 241t335 85q92 0 162 -26t106 -62t60 -82t30 -77t6 -53v-14q-2 -24 -16 -44t-35 -32t-45 -12h-8q-14 2 -28 7t-25 15t-19 22t-12 26t-4 28v6v8q0 14 -5 28t-20 31t-53 28t-94 11q-86 0 -163 -27t-133 -74t-82 -105q-2 -10 -5 -18t-5 -16v-16q0 -16 11 -31t60 -35 t133 -34q44 -6 82 -16t70 -24q184 -76 184 -256q-2 -66 -28 -130t-74 -121t-110 -103t-136 -78q74 -72 74 -170q0 -20 -4 -40q-6 -38 -22 -76q-64 -156 -219 -241t-335 -85q-92 0 -163 27t-108 63t-60 82t-29 76t-6 54v12zM228 434q0 -40 72 -70q40 -16 100 -26 q148 2 276 79t168 173q18 42 18 64q0 40 -72 70q-18 8 -43 14t-57 12q-148 -2 -276 -79t-168 -173q-6 -14 -10 -24t-6 -20t-2 -20z" />
<glyph unicode="&#xa8;" horiz-adv-x="960" d="M418 1280q0 20 8 36l40 96q6 18 20 32t32 21t37 7t35 -8q28 -10 44 -35t16 -53v-8t-1 -8t-2 -7t-2 -7t-3 -6l-40 -96q-6 -18 -20 -32t-32 -21t-37 -7t-35 8q-28 10 -44 35t-16 53zM802 1280q0 6 1 12t2 13t5 11l40 96q10 28 35 44t53 16q20 0 36 -8q28 -10 44 -35t16 -53 q0 -10 -2 -19t-6 -17l-40 -96q-4 -12 -11 -21t-16 -16t-19 -12t-21 -8t-21 -3t-19 2t-17 6q-28 10 -44 35t-16 53z" />
<glyph unicode="&#xa9;" horiz-adv-x="1472" d="M-52 492q2 140 60 280q120 294 408 497t586 203q128 0 234 -44q94 -38 159 -106t97 -155t32 -187q0 -138 -60 -280q-120 -294 -408 -497t-586 -203q-128 0 -234 44q-94 38 -159 106t-97 155t-32 187zM138 488q0 -98 45 -166t125 -102q70 -28 162 -28q114 0 239 46 t236 124t203 186t140 224q46 114 46 212t-45 166t-125 102q-70 28 -162 28q-152 0 -317 -78t-301 -212t-200 -290q-8 -24 -16 -47t-14 -44t-9 -42t-5 -41t-2 -38zM358 576q0 96 42 196q42 104 115 191t168 142t189 55q62 0 108 -22t67 -51t34 -66t15 -54t2 -29q0 -10 -3 -21 t-8 -20t-12 -16t-16 -13t-18 -11t-19 -7t-20 -2h-4q-38 2 -65 30t-27 68q0 2 1 6t0 6t-4 5t-11 4t-20 1q-62 0 -155 -78t-141 -190q-14 -36 -21 -66t-7 -52q0 -24 6 -41t12 -24t12 -9q8 -4 22 -4q44 0 100 39t76 69q28 52 88 52q6 0 11 -1t12 -2t11 -5q28 -10 44 -35t16 -53 q0 -6 -1 -12t-2 -13t-5 -11q-10 -28 -39 -62t-72 -71t-107 -62t-132 -25q-10 0 -20 1l-20 2t-19 3t-18 5t-19 7q-74 32 -110 96t-36 150z" />
<glyph unicode="&#xaa;" horiz-adv-x="880" d="M312 1054q0 24 4 48t11 47t17 49q32 74 84 137t124 104t148 41q28 0 54 -7t48 -19q4 2 7 4l6 4t7 3t7 2t7 2l8 2t8 1h6q10 0 19 -2t17 -6q28 -10 44 -35t16 -53q0 -10 -2 -19t-6 -17l-180 -432q-10 -28 -35 -44t-53 -16q-10 0 -19 2t-17 6q-8 2 -16 8q-28 -12 -56 -18 t-56 -6q-74 0 -126 42q-76 60 -76 172zM504 1054q0 -16 4 -22h6q22 0 61 23t71 63l64 152q0 12 -4 18h-2h-4q-20 0 -54 -19t-70 -59t-56 -88q-8 -20 -12 -37t-4 -31z" />
<glyph unicode="&#xab;" horiz-adv-x="1536" d="M74 528q0 50 40 78l610 432q24 18 56 18q4 0 9 -1l10 -2l10 -2t10 -3t9 -5l8 -6l8 -6t8 -7t6 -8q18 -24 18 -56q0 -22 -11 -43t-29 -35l-538 -382l206 -356q6 -6 8 -14t4 -17t2 -17q0 -24 -13 -47t-35 -35q-6 -4 -11 -7t-11 -4t-13 -2t-13 -1q-54 2 -82 48l-252 432 q-14 22 -14 48zM634 528q0 10 3 21t8 22t12 20t17 15l610 432q24 18 56 18q22 0 43 -11t35 -29q18 -24 18 -56q0 -50 -40 -78l-538 -382l206 -356q14 -22 14 -48q0 -16 -6 -32t-16 -29t-26 -21q-22 -14 -48 -14q-56 0 -82 48l-252 432q-14 22 -14 48z" />
<glyph unicode="&#xac;" horiz-adv-x="1280" d="M188 920q0 40 28 68t68 28h864q40 0 68 -29t28 -67q0 -20 -8 -36l-152 -368q-10 -28 -35 -44t-53 -16q-10 0 -19 2t-17 6q-28 10 -44 35t-16 53q0 20 8 36l96 236h-720q-40 0 -68 28t-28 68z" />
<glyph unicode="&#xad;" horiz-adv-x="832" d="M-22 528q0 40 28 68t68 28h512q40 0 68 -28t28 -68t-28 -68t-68 -28h-512q-40 0 -68 28t-28 68z" />
<glyph unicode="&#xae;" horiz-adv-x="1472" d="M-52 492q2 140 60 280q120 294 408 497t586 203q128 0 234 -44q94 -38 159 -106t97 -155t32 -187q0 -138 -60 -280q-120 -294 -408 -497t-586 -203q-128 0 -234 44q-94 38 -159 106t-97 155t-32 187zM138 488q0 -98 45 -166t125 -102q70 -28 162 -28q114 0 239 46 t236 124t203 186t140 224q46 114 46 212t-45 166t-125 102q-70 28 -162 28q-152 0 -317 -78t-301 -212t-200 -290q-8 -24 -16 -47t-14 -44t-9 -42t-5 -41t-2 -38zM300 417q0 19 8 35l152 372l112 268q10 28 35 44t53 16h264q66 0 114 -20q52 -20 80 -62q16 -22 24 -47t8 -53 q0 -48 -24 -102q-30 -76 -86 -124t-124 -70l4 -256q0 -40 -28 -69t-66 -29h-2q-38 0 -67 28t-29 66l-4 242h-126l-114 -276q-10 -28 -35 -44t-53 -16q-20 0 -36 8q-18 6 -32 20t-21 32t-7 37zM678 848h120q36 0 64 9t51 29t37 54q2 6 3 10t3 8q-14 2 -32 2h-200z" />
<glyph unicode="&#xaf;" horiz-adv-x="640" d="M298 1376q0 40 28 68t68 28h384q40 0 68 -28t28 -68t-28 -68t-68 -28h-384q-40 0 -68 28t-28 68z" />
<glyph unicode="&#xb0;" horiz-adv-x="960" d="M268 1024q0 66 28 132q54 134 182 225t268 91q62 0 114 -20q74 -30 113 -94t39 -142q0 -34 -7 -67t-21 -65q-54 -134 -182 -225t-268 -91q-30 0 -59 5t-55 15q-74 30 -113 94t-39 142zM458 1020q0 -40 34 -52q18 -8 42 -8q74 0 158 59t116 137q14 38 14 64q0 16 -5 27 t-12 17t-17 8q-8 4 -18 6t-24 2q-48 0 -103 -27t-102 -72t-69 -97q-2 -8 -5 -16t-5 -14t-3 -12t-1 -12v-10z" />
<glyph unicode="&#xb1;" horiz-adv-x="1280" d="M-146 112q0 40 28 68t68 28h864q40 0 68 -28t28 -68t-28 -68t-68 -28h-864q-40 0 -68 28t-28 68zM192 928q0 40 28 68t68 28h366l156 372q10 28 35 44t53 16q20 0 36 -8q28 -10 44 -35t16 -53q0 -6 -1 -12l-2 -12t-5 -12l-124 -300h290q40 0 68 -28t28 -68t-28 -68 t-68 -28h-368l-156 -372q-6 -18 -20 -32t-32 -21t-37 -7t-35 8q-28 10 -44 35t-16 53q0 20 8 36l124 300h-288q-40 0 -68 28t-28 68z" />
<glyph unicode="&#xb2;" horiz-adv-x="1056" d="M264 1056q0 20 8 36q26 64 58 117t61 93t78 80t83 65t102 62t109 57t129 62q20 10 30 14q118 58 158 90t60 80q14 36 14 58q0 20 -10 31t-30 19q-30 12 -72 12q-66 0 -126 -21t-106 -62t-70 -97q-10 -28 -35 -44t-53 -16q-20 0 -36 8q-28 10 -44 35t-16 53q0 20 8 36 q60 146 192 223t286 77q20 0 38 -2t37 -5t36 -8t33 -11q76 -30 116 -93t40 -141q0 -32 -6 -63t-20 -61q-36 -88 -106 -147t-204 -123q-108 -52 -152 -73t-111 -57t-98 -60t-66 -57t-61 -71h454q40 0 68 -28t28 -68t-28 -68t-68 -28h-612q-6 0 -14 1t-16 3q-30 10 -48 36 t-18 56z" />
<glyph unicode="&#xb3;" horiz-adv-x="1056" d="M330 1202v12q0 36 24 64t60 32h12q36 0 64 -24t32 -60q10 -86 130 -86q70 0 146 34t137 90t87 116q6 16 10 32t6 29t2 25q0 44 -24 66t-98 22q-6 0 -16 -1t-21 -3t-24 -5t-25 -6t-25 -7t-23 -8q-14 -4 -30 -4q-22 0 -42 10q-36 18 -48 54q0 2 -2 2q-2 6 -3 14t-1 16 q0 22 10 42q18 36 54 48q112 40 200 96t154 118h-348q-40 0 -68 28t-28 68t28 68t68 28h552q20 0 40 -8q26 -12 41 -36t15 -52q0 -26 -12 -46q-2 -4 -6 -11t-16 -24t-25 -35t-35 -44t-47 -50t-58 -54t-69 -56q124 -78 124 -230q0 -76 -34 -158q-62 -154 -220 -257t-326 -103 q-84 0 -153 31t-114 89t-55 134z" />
<glyph unicode="&#xb4;" d="M304 1470q0 28 16 53t44 35l462 192q16 8 36 8q14 0 27 -4t25 -12t22 -19t14 -25q8 -16 8 -36q0 -28 -16 -53t-44 -35l-462 -192q-16 -8 -36 -8q-28 0 -53 16t-35 44q-8 16 -8 36z" />
<glyph unicode="&#xb5;" horiz-adv-x="1160" d="M-232 -280q0 4 1 7t2 7l2 8t3 6l252 608q4 16 12 32l252 608q6 18 20 32t32 21t37 7t35 -8q28 -10 44 -35t16 -53q0 -20 -8 -36l-6 -18q-2 -8 -6 -14l-248 -602q-6 -16 -8 -30t-2 -26q0 -34 12 -46t46 -12q66 0 148 41t127 75t81 68l264 636q10 28 35 44t53 16 q20 0 36 -8q28 -10 44 -35t16 -53q0 -10 -2 -19t-6 -17l-358 -864q-10 -28 -35 -44t-53 -16q-20 0 -36 8q-34 12 -50 46q-134 -70 -264 -70q-88 0 -154 50l-150 -358q-10 -28 -35 -44t-53 -16q-6 0 -12 1l-12 2t-12 5q-28 10 -44 35t-16 53v8z" />
<glyph unicode="&#xb6;" horiz-adv-x="1312" d="M120 -288q0 20 8 36l356 862q-126 12 -210 86t-84 200q0 42 10 87t30 93q76 190 238 293t342 103h480q6 0 14 -1t16 -3q30 -10 48 -36t18 -56q0 -20 -8 -36l-690 -1664q-6 -18 -20 -32t-32 -21t-36 -7q-6 0 -12 1l-12 2t-12 4l-12 6t-11 7t-9 9l-8 10t-7 10t-5 11l-4 12 t-3 12t-1 12q0 10 2 19t6 17l634 1532h-178q0 -2 -2 -4l-662 -1600q-10 -28 -35 -44t-53 -16q-20 0 -36 8q-14 4 -25 14t-19 22t-12 25t-4 27zM752 1276q2 -2 4 -6l4 6h-8z" />
<glyph unicode="&#xb7;" d="M138 714q0 22 6 40l1 2l1 2q16 34 41 61t61 44t76 17q56 0 85 -37t29 -85v-8t-1 -8t-1 -8t-1 -8t-3 -8l-2 -4q-16 -34 -41 -61t-61 -44t-76 -17q-38 0 -65 19t-38 46t-11 57z" />
<glyph unicode="&#xb8;" horiz-adv-x="640" d="M-374 -400q0 40 28 68t68 28q94 0 145 16t67 40q-38 8 -106 8q-40 0 -68 29t-28 68t28 67l220 224q14 14 31 21t37 7q40 0 68 -28t28 -68q0 -18 -7 -36t-21 -32l-88 -90q72 -30 98 -92q10 -28 10 -58q0 -20 -5 -41t-13 -39q-44 -108 -148 -148t-248 -40q-40 0 -68 28 t-28 68z" />
<glyph unicode="&#xb9;" d="M324 1056q0 20 8 36l398 960q10 28 35 44t53 16q6 0 12 -1l12 -2t12 -5q18 -6 32 -20t21 -32t7 -36q0 -6 -1 -10t-1 -9t-2 -9l-4 -8l-398 -960q-4 -12 -11 -21t-16 -16t-19 -12t-21 -8t-21 -3q-20 0 -36 8q-28 10 -44 35t-16 53z" />
<glyph unicode="&#xba;" horiz-adv-x="864" d="M312 1052q0 70 32 145t84 138t124 104t148 41q44 0 82 -16q24 -10 44 -26t35 -36t24 -42t14 -45t5 -49q0 -34 -8 -71t-24 -73q-48 -116 -147 -199t-211 -83h-11t-10 1t-10 1t-10 1l-10 2t-10 3t-9 3t-10 3q-26 12 -46 28q-40 32 -58 75t-18 95zM504 1054q0 -16 4 -22h6 q12 0 30 7t39 22t42 34t40 46t31 57q6 12 9 25t4 23t1 18q0 16 -2 24h-8q-34 0 -92 -48t-88 -118q-16 -36 -16 -68z" />
<glyph unicode="&#xbb;" horiz-adv-x="1536" d="M-74 96q0 50 40 78l540 382l-208 356q-14 22 -14 48q0 56 48 82q10 8 22 11t26 3q24 0 47 -13t35 -35l254 -432q14 -22 14 -48q0 -22 -11 -43t-29 -35l-612 -432q-26 -18 -56 -18q-50 0 -78 40q-10 12 -14 26t-4 30zM486 96q0 50 40 78l540 382l-208 356q-14 22 -14 48 q0 56 48 82q10 8 22 11t26 3q10 0 19 -2t19 -6t18 -10t15 -13t11 -17l254 -432q8 -10 11 -22t3 -26q0 -50 -40 -78l-612 -432q-26 -18 -56 -18q-50 2 -78 40q-18 26 -18 56z" />
<glyph unicode="&#xbc;" horiz-adv-x="1248" d="M-200 -212q0 6 1 10t1 9t2 9t2 8l38 94q10 24 30 40l680 530q28 20 60 20h92q20 0 37 -8t30 -21t21 -31t8 -36q0 -6 -8 -36l-202 -492h24q40 0 68 -28t28 -68t-28 -68t-68 -28h-104l-116 -276q-10 -28 -35 -44t-53 -16q-20 0 -36 8q-18 6 -32 20t-21 32t-7 36q0 10 2 19 t6 17l84 204h-408q-26 0 -48 13t-35 35t-13 48zM92 -116h292l138 334zM96 736q0 40 28 68t68 28h864q40 0 68 -28t28 -68t-28 -68t-68 -28h-864q-40 0 -68 28t-28 68zM660 1056q0 20 8 36l398 960q10 28 35 44t53 16q6 0 12 -1l12 -2t12 -5q18 -6 32 -20t21 -32t7 -36 q0 -6 -1 -10t-1 -9t-2 -9l-4 -8l-398 -960q-4 -12 -11 -21t-16 -16t-19 -12t-21 -8t-21 -3q-20 0 -36 8q-28 10 -44 35t-16 53z" />
<glyph unicode="&#xbd;" horiz-adv-x="1248" d="M-302 -544q0 20 8 36q90 220 268 346q96 68 382 204l56 28t44 24t34 21t26 19t20 18t15 19t12 20t11 21q14 36 14 58q0 20 -10 31t-30 19q-30 12 -72 12q-102 0 -184 -48t-118 -132q-10 -28 -35 -44t-53 -16q-20 0 -36 8q-18 6 -32 20t-21 32t-7 37t8 35q60 146 192 223 t286 77q80 0 144 -26q26 -10 48 -25t39 -32t30 -38t22 -43t13 -47t4 -49q0 -64 -26 -124q-36 -88 -106 -147t-204 -123q-108 -52 -152 -73t-111 -57t-98 -60t-66 -57t-61 -71h454q40 0 68 -28t28 -68t-28 -68t-68 -28h-612q-6 0 -14 1t-16 3q-20 8 -35 22t-23 32t-8 38z M96 736q0 40 28 68t68 28h864q40 0 68 -28t28 -68t-28 -68t-68 -28h-864q-40 0 -68 28t-28 68zM660 1056q0 20 8 36l398 960q10 28 35 44t53 16q6 0 12 -1l12 -2t12 -5q18 -6 32 -20t21 -32t7 -36q0 -6 -1 -10t-1 -9t-2 -9l-4 -8l-398 -960q-4 -12 -11 -21t-16 -16t-19 -12 t-21 -8t-21 -3q-20 0 -36 8q-28 10 -44 35t-16 53z" />
<glyph unicode="&#xbe;" horiz-adv-x="1248" d="M-200 -212q0 6 1 10t1 9t2 9t2 8l38 94q10 24 30 40l680 530q28 20 60 20h92q20 0 37 -8t30 -21t21 -31t8 -36q0 -6 -8 -36l-202 -492h24q40 0 68 -28t28 -68t-28 -68t-68 -28h-104l-116 -276q-10 -28 -35 -44t-53 -16q-20 0 -36 8q-18 6 -32 20t-21 32t-7 36q0 10 2 19 t6 17l84 204h-408q-26 0 -48 13t-35 35t-13 48zM92 -116h292l138 334zM96 736q0 40 28 68t68 28h864q40 0 68 -28t28 -68t-28 -68t-68 -28h-864q-40 0 -68 28t-28 68zM426 1202v12q0 36 24 64t60 32h12q36 0 64 -24t32 -60q10 -86 130 -86q70 0 146 34t137 90t87 116 q6 16 10 32t6 29t2 25q0 44 -24 66t-98 22q-6 0 -16 -1t-21 -3t-24 -5t-25 -6t-25 -7t-23 -8q-14 -4 -30 -4q-22 0 -42 10q-36 18 -48 54q0 2 -2 2q-2 6 -3 14t-1 16q0 22 10 42q18 36 54 48q112 40 200 96t154 118h-348q-40 0 -68 28t-28 68t28 68t68 28h552q20 0 40 -8 q26 -12 41 -36t15 -52q0 -26 -12 -46q-2 -4 -6 -11t-16 -24t-25 -35t-35 -44t-47 -50t-58 -54t-69 -56q124 -78 124 -230q0 -76 -34 -158q-62 -154 -220 -257t-326 -103q-84 0 -153 31t-114 89t-55 134z" />
<glyph unicode="&#xbf;" horiz-adv-x="1280" d="M-152 -136q0 62 26 124q14 36 33 68t40 58t47 50t51 43t57 38t61 34t65 33q92 42 138 76t81 87t77 153q24 60 88 60q20 0 36 -8q18 -6 32 -20t21 -32t7 -37t-8 -35q-68 -166 -154 -257t-238 -163q-118 -54 -171 -98t-87 -122q-8 -22 -12 -37t-4 -25q0 -14 7 -24t18 -17 t31 -15q54 -22 144 -22q144 0 260 68t168 192q10 28 35 44t53 16q6 0 12 -1l12 -2t12 -5q28 -10 44 -35t16 -53q0 -20 -8 -36q-76 -184 -242 -282t-362 -98q-128 0 -216 36q-40 16 -72 41t-54 56t-33 69t-11 78zM598 904q0 22 8 42l2 4q24 54 72 88t108 34q56 0 85 -37 t29 -85q0 -22 -6 -40q-2 -2 -2 -4q-24 -54 -71 -88t-107 -34q-52 0 -85 36t-33 84z" />
<glyph unicode="&#xc0;" horiz-adv-x="1376" d="M-170 96q0 16 5 31t15 27l972 1280q12 18 34 28t42 10h72h40q42 0 70 -31t26 -71l-92 -1280q-2 -38 -30 -64t-66 -26h-6q-40 4 -66 34t-24 68l14 186h-644l-190 -250q-28 -38 -76 -38q-32 0 -58 20q-38 28 -38 76zM162 1824q0 28 14 52q28 44 82 44q28 0 52 -14l306 -192 q44 -28 44 -82q0 -14 -4 -27t-10 -25q-14 -20 -36 -32t-46 -12q-14 0 -27 4t-25 10l-306 192q-44 28 -44 82zM338 480h512l52 744z" />
<glyph unicode="&#xc1;" horiz-adv-x="1376" d="M-170 96q0 16 5 31t15 27l972 1280q12 18 34 28t42 10h72h40q42 0 70 -31t26 -71l-92 -1280q-2 -38 -30 -64t-66 -26h-6q-40 4 -66 34t-24 68l14 186h-644l-190 -250q-28 -38 -76 -38q-32 0 -58 20q-38 28 -38 76zM84 1632q0 28 16 53t44 35l462 192q16 8 36 8 q14 0 27 -4t25 -12t22 -19t14 -25q8 -16 8 -36q0 -28 -16 -53t-44 -35l-462 -192q-16 -8 -36 -8q-28 0 -53 16t-35 44q-8 16 -8 36zM338 480h512l52 744z" />
<glyph unicode="&#xc2;" horiz-adv-x="1376" d="M-170 96q0 16 5 31t15 27l972 1280q12 18 34 28t42 10h72h40q42 0 70 -31t26 -71l-92 -1280q-2 -38 -30 -64t-66 -26h-6q-40 4 -66 34t-24 68l14 186h-644l-190 -250q-28 -38 -76 -38q-32 0 -58 20q-38 28 -38 76zM64 1664q0 56 50 84l290 160q22 12 46 12q40 0 68 -28 l158 -160q10 -10 16 -21t9 -23t3 -24q0 -10 -2 -19t-5 -18t-9 -17t-12 -14q-28 -28 -68 -28t-68 28l-108 108l-226 -124q-20 -12 -46 -12q-56 0 -84 50q-12 22 -12 46zM338 480h512l52 744z" />
<glyph unicode="&#xc3;" horiz-adv-x="1376" d="M-170 96q0 16 5 31t15 27l972 1280q12 18 34 28t42 10h72h40q42 0 70 -31t26 -71l-92 -1280q-2 -38 -30 -64t-66 -26h-6q-40 4 -66 34t-24 68l14 186h-644l-190 -250q-28 -38 -76 -38q-32 0 -58 20q-38 28 -38 76zM-6 1648q0 10 2 18t5 17t9 17q10 16 25 35t53 55t94 59 t120 23q66 0 114 -30q16 -12 30 -25t23 -25t15 -22t9 -18l3 -8h10q28 0 60 20t49 38t25 30q14 18 35 29t43 11q14 0 28 -4t24 -12q44 -28 44 -80q0 -28 -16 -52q-4 -8 -11 -17t-25 -32t-43 -42t-56 -39t-72 -31t-85 -11q-32 0 -62 8t-54 24q-20 14 -36 31t-23 29t-13 23 t-6 13h-5h-5q-28 0 -59 -20t-49 -38t-26 -30q-28 -40 -80 -40q-28 0 -50 16q-44 28 -44 80zM338 480h512l52 744z" />
<glyph unicode="&#xc4;" horiz-adv-x="1376" d="M-170 96q0 16 5 31t15 27l972 1280q12 18 34 28t42 10h72h40q42 0 70 -31t26 -71l-92 -1280q-2 -38 -30 -64t-66 -26h-6q-40 4 -66 34t-24 68l14 186h-644l-190 -250q-28 -38 -76 -38q-32 0 -58 20q-38 28 -38 76zM338 480h512l52 744zM418 1280q0 20 8 36l40 96 q6 18 20 32t32 21t37 7t35 -8q28 -10 44 -35t16 -53v-8t-1 -8t-2 -7t-2 -7t-3 -6l-40 -96q-6 -18 -20 -32t-32 -21t-37 -7t-35 8q-28 10 -44 35t-16 53zM802 1280q0 6 1 12t2 13t5 11l40 96q10 28 35 44t53 16q20 0 36 -8q28 -10 44 -35t16 -53q0 -10 -2 -19t-6 -17l-40 -96 q-4 -12 -11 -21t-16 -16t-19 -12t-21 -8t-21 -3t-19 2t-17 6q-28 10 -44 35t-16 53z" />
<glyph unicode="&#xc5;" horiz-adv-x="1376" d="M-170 96q0 16 5 31t15 27l972 1280q12 18 34 28t42 10h72h40q42 0 70 -31t26 -71l-92 -1280q-2 -38 -30 -64t-66 -26h-6q-40 4 -66 34t-24 68l14 186h-644l-190 -250q-28 -38 -76 -38q-32 0 -58 20q-38 28 -38 76zM170 1732q0 8 1 18l2 20t4 20l6 20t7 18q38 94 126 157 t188 63q46 0 86 -16q20 -8 39 -22t33 -30q44 -54 44 -128q0 -24 -5 -48t-15 -48q-38 -94 -126 -157t-188 -63q-46 0 -86 16q-20 8 -39 22t-33 30q-44 54 -44 128zM338 480h512l52 744zM362 1730q4 -2 10 -2q20 0 48 14t53 38t37 48q2 10 4 16t0 10q-4 2 -10 2q-32 0 -77 -31 t-61 -69q-2 -10 -4 -16t0 -10z" />
<glyph unicode="&#xc6;" horiz-adv-x="1824" d="M-170 96q0 38 24 64l1164 1280q30 32 72 32h112h624q40 0 68 -28t28 -68t-28 -68t-68 -28h-560l-170 -408h288q40 0 68 -28t28 -68t-28 -68t-68 -28h-368l-202 -488h504q40 0 68 -28t28 -68t-28 -68t-68 -28h-648q-6 0 -14 2q-6 0 -12 2q-2 0 -4 1t-4 1t-2 2 q-28 10 -44 35t-16 53q0 10 2 19t6 17l64 156h-408h-8l-232 -256q-30 -32 -72 -32q-38 0 -64 24q-32 30 -32 72zM404 480h322l270 650z" />
<glyph unicode="&#xc7;" horiz-adv-x="1368" d="M-374 -400q0 40 28 68t68 28q94 0 145 16t67 40q-38 8 -106 8q-40 0 -68 29t-28 68t28 67l220 224q14 14 31 21t37 7q40 0 68 -28t28 -68q0 -18 -7 -36t-21 -32l-88 -90q72 -30 98 -92q10 -28 10 -58q0 -20 -5 -41t-13 -39q-44 -108 -148 -148t-248 -40q-40 0 -68 28 t-28 68zM76 420q0 168 76 352q122 296 366 506t490 210q70 0 128 -18t94 -44t63 -62t40 -68t21 -67t9 -52t1 -29q0 -20 -8 -37t-22 -29t-31 -19t-35 -7h-4q-26 2 -47 15t-33 35t-12 48v2q0 14 -1 26t-9 35t-24 38t-49 28t-81 13q-166 0 -371 -175t-309 -421 q-62 -152 -62 -274q0 -92 33 -153t85 -83q16 -6 36 -10t44 -4q70 0 147 34t136 80t99 87t54 63q8 16 22 29t31 20t37 7q18 0 34 -8q28 -10 44 -35t16 -53q0 -20 -8 -36q-8 -24 -34 -59t-66 -78t-96 -85t-118 -78t-141 -58t-157 -22q-42 0 -80 7t-74 21q-118 48 -176 156 t-58 252z" />
<glyph unicode="&#xc8;" horiz-adv-x="1392" d="M-74 96q0 20 8 36l532 1280q10 26 35 43t53 17h832q40 0 68 -28t28 -68t-28 -68t-68 -28h-768l-170 -408h432q40 0 68 -28t28 -68t-28 -68t-68 -28h-512l-202 -488h720q40 0 68 -28t28 -68t-28 -68t-68 -28h-864q-16 0 -30 4q-30 10 -48 36t-18 56zM162 1824q0 28 14 52 q28 44 82 44q28 0 52 -14l306 -192q44 -28 44 -82q0 -14 -4 -27t-10 -25q-14 -20 -36 -32t-46 -12q-14 0 -27 4t-25 10l-306 192q-44 28 -44 82z" />
<glyph unicode="&#xc9;" horiz-adv-x="1392" d="M-74 96q0 20 8 36l532 1280q10 26 35 43t53 17h832q40 0 68 -28t28 -68t-28 -68t-68 -28h-768l-170 -408h432q40 0 68 -28t28 -68t-28 -68t-68 -28h-512l-202 -488h720q40 0 68 -28t28 -68t-28 -68t-68 -28h-864q-16 0 -30 4q-30 10 -48 36t-18 56zM84 1632q0 28 16 53 t44 35l462 192q16 8 36 8q14 0 27 -4t25 -12t22 -19t14 -25q8 -16 8 -36q0 -28 -16 -53t-44 -35l-462 -192q-16 -8 -36 -8q-28 0 -53 16t-35 44q-8 16 -8 36z" />
<glyph unicode="&#xca;" horiz-adv-x="1392" d="M-74 96q0 20 8 36l532 1280q10 26 35 43t53 17h832q40 0 68 -28t28 -68t-28 -68t-68 -28h-768l-170 -408h432q40 0 68 -28t28 -68t-28 -68t-68 -28h-512l-202 -488h720q40 0 68 -28t28 -68t-28 -68t-68 -28h-864q-16 0 -30 4q-30 10 -48 36t-18 56zM64 1664q0 56 50 84 l290 160q22 12 46 12q40 0 68 -28l158 -160q10 -10 16 -21t9 -23t3 -24q0 -10 -2 -19t-5 -18t-9 -17t-12 -14q-28 -28 -68 -28t-68 28l-108 108l-226 -124q-20 -12 -46 -12q-56 0 -84 50q-12 22 -12 46z" />
<glyph unicode="&#xcb;" horiz-adv-x="1392" d="M-74 96q0 20 8 36l532 1280q10 26 35 43t53 17h832q40 0 68 -28t28 -68t-28 -68t-68 -28h-768l-170 -408h432q40 0 68 -28t28 -68t-28 -68t-68 -28h-512l-202 -488h720q40 0 68 -28t28 -68t-28 -68t-68 -28h-864q-16 0 -30 4q-30 10 -48 36t-18 56zM418 1280q0 20 8 36 l40 96q6 18 20 32t32 21t37 7t35 -8q28 -10 44 -35t16 -53v-8t-1 -8t-2 -7t-2 -7t-3 -6l-40 -96q-6 -18 -20 -32t-32 -21t-37 -7t-35 8q-28 10 -44 35t-16 53zM802 1280q0 6 1 12t2 13t5 11l40 96q10 28 35 44t53 16q20 0 36 -8q28 -10 44 -35t16 -53q0 -10 -2 -19t-6 -17 l-40 -96q-4 -12 -11 -21t-16 -16t-19 -12t-21 -8t-21 -3t-19 2t-17 6q-28 10 -44 35t-16 53z" />
<glyph unicode="&#xcc;" horiz-adv-x="672" d="M-26 96q0 20 8 36l532 1280q6 18 20 32t32 21t37 7t35 -8q10 -4 18 -9t14 -12t12 -15t9 -16t5 -18t2 -19t-2 -18t-6 -17l-532 -1280q-10 -28 -35 -44t-53 -16q-20 0 -36 8q-28 10 -44 35t-16 53zM162 1824q0 28 14 52q28 44 82 44q28 0 52 -14l306 -192q44 -28 44 -82 q0 -14 -4 -27t-10 -25q-14 -20 -36 -32t-46 -12q-14 0 -27 4t-25 10l-306 192q-44 28 -44 82z" />
<glyph unicode="&#xcd;" horiz-adv-x="672" d="M-26 96q0 20 8 36l532 1280q6 18 20 32t32 21t37 7t35 -8q10 -4 18 -9t14 -12t12 -15t9 -16t5 -18t2 -19t-2 -18t-6 -17l-532 -1280q-10 -28 -35 -44t-53 -16q-20 0 -36 8q-28 10 -44 35t-16 53zM84 1632q0 28 16 53t44 35l462 192q16 8 36 8q14 0 27 -4t25 -12t22 -19 t14 -25q8 -16 8 -36q0 -28 -16 -53t-44 -35l-462 -192q-16 -8 -36 -8q-28 0 -53 16t-35 44q-8 16 -8 36z" />
<glyph unicode="&#xce;" horiz-adv-x="672" d="M-26 96q0 20 8 36l532 1280q6 18 20 32t32 21t37 7t35 -8q10 -4 18 -9t14 -12t12 -15t9 -16t5 -18t2 -19t-2 -18t-6 -17l-532 -1280q-10 -28 -35 -44t-53 -16q-20 0 -36 8q-28 10 -44 35t-16 53zM64 1664q0 56 50 84l290 160q22 12 46 12q40 0 68 -28l158 -160 q10 -10 16 -21t9 -23t3 -24q0 -10 -2 -19t-5 -18t-9 -17t-12 -14q-28 -28 -68 -28t-68 28l-108 108l-226 -124q-20 -12 -46 -12q-56 0 -84 50q-12 22 -12 46z" />
<glyph unicode="&#xcf;" horiz-adv-x="672" d="M-26 96q0 20 8 36l532 1280q6 18 20 32t32 21t37 7t35 -8q10 -4 18 -9t14 -12t12 -15t9 -16t5 -18t2 -19t-2 -18t-6 -17l-532 -1280q-10 -28 -35 -44t-53 -16q-20 0 -36 8q-28 10 -44 35t-16 53zM418 1280q0 20 8 36l40 96q6 18 20 32t32 21t37 7t35 -8q28 -10 44 -35 t16 -53v-8t-1 -8t-2 -7t-2 -7t-3 -6l-40 -96q-6 -18 -20 -32t-32 -21t-37 -7t-35 8q-28 10 -44 35t-16 53zM802 1280q0 6 1 12t2 13t5 11l40 96q10 28 35 44t53 16q20 0 36 -8q28 -10 44 -35t16 -53q0 -10 -2 -19t-6 -17l-40 -96q-4 -12 -11 -21t-16 -16t-19 -12t-21 -8 t-21 -3t-19 2t-17 6q-28 10 -44 35t-16 53z" />
<glyph unicode="&#xd0;" horiz-adv-x="1392" d="M-74 96q0 6 8 36l226 548h-48q-40 0 -68 28t-28 68t28 68t68 28h128l226 540q10 28 35 44t53 16h416q66 0 130 -26q100 -42 162 -138t62 -242q0 -80 -20 -171t-64 -195q-64 -156 -153 -282t-176 -201t-180 -126t-164 -71t-129 -20h-416q-40 0 -68 29t-28 67zM166 192h272 q30 0 78 13t121 54t144 102t149 169t134 242q74 182 74 302q0 46 -11 83t-30 58t-35 33t-36 20q-28 12 -56 12h-352l-170 -408h144q40 0 68 -28t28 -68t-28 -68t-68 -28h-224z" />
<glyph unicode="&#xd1;" horiz-adv-x="1440" d="M-74 97q0 19 8 35l532 1280q10 28 35 44t53 16h48h32q18 0 34 -7t29 -18t21 -26t10 -31l156 -1050l446 1072q10 28 35 44t53 16q20 0 36 -8q28 -10 44 -35t16 -53q0 -10 -2 -19t-6 -17l-532 -1280q-10 -26 -35 -43t-53 -17h-40h-24q-34 0 -62 24t-32 58l-160 1078 l-458 -1100q-10 -28 -35 -44t-53 -16q-20 0 -36 8q-18 6 -32 20t-21 32t-7 37zM-6 1648q0 10 2 18t5 17t9 17q10 16 25 35t53 55t94 59t120 23q66 0 114 -30q16 -12 30 -25t23 -25t15 -22t9 -18l3 -8h10q28 0 60 20t49 38t25 30q14 18 35 29t43 11q14 0 28 -4t24 -12 q44 -28 44 -80q0 -28 -16 -52q-4 -8 -11 -17t-25 -32t-43 -42t-56 -39t-72 -31t-85 -11q-32 0 -62 8t-54 24q-20 14 -36 31t-23 29t-13 23t-6 13h-5h-5q-28 0 -59 -20t-49 -38t-26 -30q-28 -40 -80 -40q-28 0 -50 16q-44 28 -44 80z" />
<glyph unicode="&#xd2;" horiz-adv-x="1472" d="M74 418q0 170 78 354q122 296 366 506t490 210q84 0 156 -30q116 -48 175 -154t59 -250q0 -170 -78 -354q-122 -296 -366 -506t-490 -210q-84 0 -156 30q-78 32 -131 93t-78 139t-25 172zM162 1824q0 28 14 52q28 44 82 44q28 0 52 -14l306 -192q44 -28 44 -82 q0 -14 -4 -27t-10 -25q-14 -20 -36 -32t-46 -12q-14 0 -27 4t-25 10l-306 192q-44 28 -44 82zM266 424q0 -92 32 -152t84 -82q36 -14 82 -14q166 0 371 175t309 421q32 78 47 147t15 129q0 92 -32 152t-84 82q-36 14 -82 14q-166 0 -371 -175t-309 -421q-22 -54 -36 -103 t-20 -92t-6 -81z" />
<glyph unicode="&#xd3;" horiz-adv-x="1472" d="M74 418q0 170 78 354q122 296 366 506t490 210q84 0 156 -30q116 -48 175 -154t59 -250q0 -170 -78 -354q-122 -296 -366 -506t-490 -210q-84 0 -156 30q-78 32 -131 93t-78 139t-25 172zM84 1632q0 28 16 53t44 35l462 192q16 8 36 8q14 0 27 -4t25 -12t22 -19t14 -25 q8 -16 8 -36q0 -28 -16 -53t-44 -35l-462 -192q-16 -8 -36 -8q-28 0 -53 16t-35 44q-8 16 -8 36zM266 424q0 -92 32 -152t84 -82q36 -14 82 -14q166 0 371 175t309 421q32 78 47 147t15 129q0 92 -32 152t-84 82q-36 14 -82 14q-166 0 -371 -175t-309 -421q-22 -54 -36 -103 t-20 -92t-6 -81z" />
<glyph unicode="&#xd4;" horiz-adv-x="1472" d="M64 1664q0 56 50 84l290 160q22 12 46 12q40 0 68 -28l158 -160q10 -10 16 -21t9 -23t3 -24q0 -10 -2 -19t-5 -18t-9 -17t-12 -14q-28 -28 -68 -28t-68 28l-108 108l-226 -124q-20 -12 -46 -12q-56 0 -84 50q-12 22 -12 46zM74 418q0 170 78 354q122 296 366 506t490 210 q84 0 156 -30q116 -48 175 -154t59 -250q0 -170 -78 -354q-122 -296 -366 -506t-490 -210q-84 0 -156 30q-78 32 -131 93t-78 139t-25 172zM266 424q0 -92 32 -152t84 -82q36 -14 82 -14q166 0 371 175t309 421q32 78 47 147t15 129q0 92 -32 152t-84 82q-36 14 -82 14 q-166 0 -371 -175t-309 -421q-22 -54 -36 -103t-20 -92t-6 -81z" />
<glyph unicode="&#xd5;" horiz-adv-x="1472" d="M-6 1648q0 10 2 18t5 17t9 17q10 16 25 35t53 55t94 59t120 23q66 0 114 -30q16 -12 30 -25t23 -25t15 -22t9 -18l3 -8h10q28 0 60 20t49 38t25 30q14 18 35 29t43 11q14 0 28 -4t24 -12q44 -28 44 -80q0 -28 -16 -52q-4 -8 -11 -17t-25 -32t-43 -42t-56 -39t-72 -31 t-85 -11q-32 0 -62 8t-54 24q-20 14 -36 31t-23 29t-13 23t-6 13h-5h-5q-28 0 -59 -20t-49 -38t-26 -30q-28 -40 -80 -40q-28 0 -50 16q-44 28 -44 80zM74 418q0 170 78 354q122 296 366 506t490 210q84 0 156 -30q116 -48 175 -154t59 -250q0 -170 -78 -354 q-122 -296 -366 -506t-490 -210q-84 0 -156 30q-78 32 -131 93t-78 139t-25 172zM266 424q0 -92 32 -152t84 -82q36 -14 82 -14q166 0 371 175t309 421q32 78 47 147t15 129q0 92 -32 152t-84 82q-36 14 -82 14q-166 0 -371 -175t-309 -421q-22 -54 -36 -103t-20 -92t-6 -81 z" />
<glyph unicode="&#xd6;" horiz-adv-x="1472" d="M74 418q0 170 78 354q122 296 366 506t490 210q84 0 156 -30q116 -48 175 -154t59 -250q0 -170 -78 -354q-122 -296 -366 -506t-490 -210q-84 0 -156 30q-78 32 -131 93t-78 139t-25 172zM266 424q0 -92 32 -152t84 -82q36 -14 82 -14q166 0 371 175t309 421 q32 78 47 147t15 129q0 92 -32 152t-84 82q-36 14 -82 14q-166 0 -371 -175t-309 -421q-22 -54 -36 -103t-20 -92t-6 -81zM418 1280q0 20 8 36l40 96q6 18 20 32t32 21t37 7t35 -8q28 -10 44 -35t16 -53v-8t-1 -8t-2 -7t-2 -7t-3 -6l-40 -96q-6 -18 -20 -32t-32 -21t-37 -7 t-35 8q-28 10 -44 35t-16 53zM802 1280q0 6 1 12t2 13t5 11l40 96q10 28 35 44t53 16q20 0 36 -8q28 -10 44 -35t16 -53q0 -10 -2 -19t-6 -17l-40 -96q-4 -12 -11 -21t-16 -16t-19 -12t-21 -8t-21 -3t-19 2t-17 6q-28 10 -44 35t-16 53z" />
<glyph unicode="&#xd7;" horiz-adv-x="1280" d="M46 384q0 50 40 78l426 302l-160 276q-8 10 -11 22t-3 26q0 24 13 47t35 35q10 8 22 11t26 3q56 0 82 -48l154 -262l412 292q26 18 56 18q50 0 78 -40q8 -12 13 -26t5 -30q0 -50 -40 -78l-426 -302l160 -276q14 -22 14 -48q0 -10 -2 -19t-6 -19t-10 -18t-13 -15t-17 -11 q-10 -8 -22 -11t-26 -3q-24 0 -47 13t-35 35l-154 262l-412 -292q-8 -6 -18 -10t-19 -6t-19 -2q-50 0 -78 40q-18 26 -18 56z" />
<glyph unicode="&#xd8;" horiz-adv-x="1472" d="M-106 96q0 44 34 72l1492 1280q12 12 28 18t34 6q14 0 27 -4t25 -11t20 -19q24 -26 24 -62q0 -44 -34 -72l-1492 -1280q-26 -24 -62 -24q-44 0 -72 34q-24 26 -24 62zM74 418q0 170 78 354q122 296 366 506t490 210q84 0 156 -30q116 -48 175 -154t59 -250 q0 -170 -78 -354q-122 -296 -366 -506t-490 -210q-84 0 -156 30q-78 32 -131 93t-78 139t-25 172zM266 424q0 -92 32 -152t84 -82q36 -14 82 -14q166 0 371 175t309 421q32 78 47 147t15 129q0 92 -32 152t-84 82q-36 14 -82 14q-166 0 -371 -175t-309 -421 q-22 -54 -36 -103t-20 -92t-6 -81z" />
<glyph unicode="&#xd9;" horiz-adv-x="1424" d="M42 322q0 74 32 146l392 944q10 28 35 44t53 16q20 0 36 -8q8 -2 15 -7t13 -10t11 -12t9 -14t7 -14t4 -15t1 -16q0 -20 -8 -36l-392 -944q-18 -46 -18 -82q0 -80 92 -118q22 -10 52 -15t64 -5q96 0 197 42t177 109t108 141l392 944q6 18 20 32t32 21t37 7t35 -8 q28 -10 44 -35t16 -53q0 -10 -2 -19t-6 -17l-392 -944q-48 -118 -152 -212t-238 -147t-268 -53q-104 0 -190 34q-64 28 -111 74t-72 105t-25 125zM162 1824q0 28 14 52q28 44 82 44q28 0 52 -14l306 -192q44 -28 44 -82q0 -14 -4 -27t-10 -25q-14 -20 -36 -32t-46 -12 q-14 0 -27 4t-25 10l-306 192q-44 28 -44 82z" />
<glyph unicode="&#xda;" horiz-adv-x="1424" d="M42 322q0 74 32 146l392 944q10 28 35 44t53 16q20 0 36 -8q8 -2 15 -7t13 -10t11 -12t9 -14t7 -14t4 -15t1 -16q0 -20 -8 -36l-392 -944q-18 -46 -18 -82q0 -80 92 -118q22 -10 52 -15t64 -5q96 0 197 42t177 109t108 141l392 944q6 18 20 32t32 21t37 7t35 -8 q28 -10 44 -35t16 -53q0 -10 -2 -19t-6 -17l-392 -944q-48 -118 -152 -212t-238 -147t-268 -53q-104 0 -190 34q-64 28 -111 74t-72 105t-25 125zM84 1632q0 28 16 53t44 35l462 192q16 8 36 8q14 0 27 -4t25 -12t22 -19t14 -25q8 -16 8 -36q0 -28 -16 -53t-44 -35 l-462 -192q-16 -8 -36 -8q-28 0 -53 16t-35 44q-8 16 -8 36z" />
<glyph unicode="&#xdb;" horiz-adv-x="1424" d="M42 322q0 74 32 146l392 944q10 28 35 44t53 16q20 0 36 -8q8 -2 15 -7t13 -10t11 -12t9 -14t7 -14t4 -15t1 -16q0 -20 -8 -36l-392 -944q-18 -46 -18 -82q0 -80 92 -118q22 -10 52 -15t64 -5q96 0 197 42t177 109t108 141l392 944q6 18 20 32t32 21t37 7t35 -8 q28 -10 44 -35t16 -53q0 -10 -2 -19t-6 -17l-392 -944q-48 -118 -152 -212t-238 -147t-268 -53q-104 0 -190 34q-64 28 -111 74t-72 105t-25 125zM64 1664q0 56 50 84l290 160q22 12 46 12q40 0 68 -28l158 -160q10 -10 16 -21t9 -23t3 -24q0 -10 -2 -19t-5 -18t-9 -17 t-12 -14q-28 -28 -68 -28t-68 28l-108 108l-226 -124q-20 -12 -46 -12q-56 0 -84 50q-12 22 -12 46z" />
<glyph unicode="&#xdc;" horiz-adv-x="1424" d="M42 322q0 74 32 146l392 944q10 28 35 44t53 16q20 0 36 -8q8 -2 15 -7t13 -10t11 -12t9 -14t7 -14t4 -15t1 -16q0 -20 -8 -36l-392 -944q-18 -46 -18 -82q0 -80 92 -118q22 -10 52 -15t64 -5q96 0 197 42t177 109t108 141l392 944q6 18 20 32t32 21t37 7t35 -8 q28 -10 44 -35t16 -53q0 -10 -2 -19t-6 -17l-392 -944q-48 -118 -152 -212t-238 -147t-268 -53q-104 0 -190 34q-64 28 -111 74t-72 105t-25 125zM418 1280q0 20 8 36l40 96q6 18 20 32t32 21t37 7t35 -8q28 -10 44 -35t16 -53v-8t-1 -8t-2 -7t-2 -7t-3 -6l-40 -96 q-6 -18 -20 -32t-32 -21t-37 -7t-35 8q-28 10 -44 35t-16 53zM802 1280q0 6 1 12t2 13t5 11l40 96q10 28 35 44t53 16q20 0 36 -8q28 -10 44 -35t16 -53q0 -10 -2 -19t-6 -17l-40 -96q-4 -12 -11 -21t-16 -16t-19 -12t-21 -8t-21 -3t-19 2t-17 6q-28 10 -44 35t-16 53z" />
<glyph unicode="&#xdd;" horiz-adv-x="1312" d="M84 1632q0 28 16 53t44 35l462 192q16 8 36 8q14 0 27 -4t25 -12t22 -19t14 -25q8 -16 8 -36q0 -28 -16 -53t-44 -35l-462 -192q-16 -8 -36 -8q-28 0 -53 16t-35 44q-8 16 -8 36zM294 96q0 10 2 19t6 17l266 640l-200 572q-6 16 -6 32q0 14 5 28t13 26t20 22t26 14 q16 6 32 6q20 0 38 -8t32 -23t20 -33l166 -476l610 518q26 22 62 22q44 0 74 -34q22 -26 22 -62q0 -44 -34 -74l-698 -592l-272 -650q-10 -28 -35 -44t-53 -16q-20 0 -36 8q-28 10 -44 35t-16 53z" />
<glyph unicode="&#xde;" horiz-adv-x="1360" d="M-74 96q0 10 2 19t6 17l420 1012q0 2 1 4t1 4l110 260q4 12 11 21t16 16t19 12t21 8t21 3q20 0 36 -8q10 -4 18 -9t14 -12t12 -15t9 -16t5 -18t2 -19t-2 -18t-6 -17l-54 -132h336q94 0 168 -30q82 -34 126 -103t44 -161q0 -84 -38 -174q-76 -190 -237 -293t-341 -103 h-416l-120 -284q-10 -28 -35 -44t-53 -16q-20 0 -36 8q-14 4 -25 14t-19 22t-12 25t-4 27zM308 536h338q80 0 156 30t142 93t104 153q28 70 28 112q0 32 -15 49t-43 27q-16 8 -40 12t-54 4h-416z" />
<glyph unicode="&#xdf;" horiz-adv-x="1264" d="M-74 96q0 20 8 36l398 960q62 154 218 275t330 121h64q78 0 140 -26q86 -34 129 -105t43 -159q0 -38 -8 -76t-24 -74q-34 -86 -102 -162t-154 -126q28 -38 41 -86t13 -100q0 -46 -10 -93t-28 -89q-30 -72 -82 -143t-122 -131t-162 -97t-186 -37h-32q-40 0 -68 28t-28 68 t28 68t68 28h32q108 0 220 91t156 197q12 30 18 57t6 49q0 80 -54 100q-22 10 -58 10h-32q-40 0 -68 28t-28 68t28 68t68 28q70 0 145 36t132 93t83 119q10 24 14 44t4 38q0 22 -7 39t-19 27t-28 16q-28 12 -68 12h-64q-102 0 -216 -88t-156 -188l-398 -960q-10 -28 -35 -44 t-53 -16q-20 0 -36 8q-28 10 -44 35t-16 53z" />
<glyph unicode="&#xe0;" horiz-adv-x="1176" d="M-12 320v2q0 114 54 242q86 212 264 360t362 148q68 0 123 -23t95 -67l6 14q10 28 35 44t53 16q20 0 36 -8q28 -10 44 -35t16 -53q0 -10 -2 -19t-6 -17l-358 -864q-10 -28 -35 -44t-53 -16q-20 0 -36 8q-32 12 -48 44q-124 -68 -242 -68q-142 0 -225 97t-83 239z M162 1824q0 28 14 52q28 44 82 44q28 0 52 -14l306 -192q44 -28 44 -82q0 -14 -4 -27t-10 -25q-14 -20 -36 -32t-46 -12q-14 0 -27 4t-25 10l-306 192q-44 28 -44 82zM180 318q0 -76 29 -109t87 -33q72 0 168 58t176 156l144 348v2q0 74 -29 107t-87 33q-108 0 -246 -114 t-204 -274q-38 -94 -38 -172v-2z" />
<glyph unicode="&#xe1;" horiz-adv-x="1176" d="M-12 320v2q0 114 54 242q86 212 264 360t362 148q68 0 123 -23t95 -67l6 14q10 28 35 44t53 16q20 0 36 -8q28 -10 44 -35t16 -53q0 -10 -2 -19t-6 -17l-358 -864q-10 -28 -35 -44t-53 -16q-20 0 -36 8q-32 12 -48 44q-124 -68 -242 -68q-142 0 -225 97t-83 239zM84 1632 q0 28 16 53t44 35l462 192q16 8 36 8q14 0 27 -4t25 -12t22 -19t14 -25q8 -16 8 -36q0 -28 -16 -53t-44 -35l-462 -192q-16 -8 -36 -8q-28 0 -53 16t-35 44q-8 16 -8 36zM180 318q0 -76 29 -109t87 -33q72 0 168 58t176 156l144 348v2q0 74 -29 107t-87 33q-108 0 -246 -114 t-204 -274q-38 -94 -38 -172v-2z" />
<glyph unicode="&#xe2;" horiz-adv-x="1176" d="M-12 320v2q0 114 54 242q86 212 264 360t362 148q68 0 123 -23t95 -67l6 14q10 28 35 44t53 16q20 0 36 -8q28 -10 44 -35t16 -53q0 -10 -2 -19t-6 -17l-358 -864q-10 -28 -35 -44t-53 -16q-20 0 -36 8q-32 12 -48 44q-124 -68 -242 -68q-142 0 -225 97t-83 239zM64 1664 q0 56 50 84l290 160q22 12 46 12q40 0 68 -28l158 -160q10 -10 16 -21t9 -23t3 -24q0 -10 -2 -19t-5 -18t-9 -17t-12 -14q-28 -28 -68 -28t-68 28l-108 108l-226 -124q-20 -12 -46 -12q-56 0 -84 50q-12 22 -12 46zM180 318q0 -76 29 -109t87 -33q72 0 168 58t176 156 l144 348v2q0 74 -29 107t-87 33q-108 0 -246 -114t-204 -274q-38 -94 -38 -172v-2z" />
<glyph unicode="&#xe3;" horiz-adv-x="1176" d="M-12 320v2q0 114 54 242q86 212 264 360t362 148q68 0 123 -23t95 -67l6 14q10 28 35 44t53 16q20 0 36 -8q28 -10 44 -35t16 -53q0 -10 -2 -19t-6 -17l-358 -864q-10 -28 -35 -44t-53 -16q-20 0 -36 8q-32 12 -48 44q-124 -68 -242 -68q-142 0 -225 97t-83 239zM-6 1648 q0 10 2 18t5 17t9 17q10 16 25 35t53 55t94 59t120 23q66 0 114 -30q16 -12 30 -25t23 -25t15 -22t9 -18l3 -8h10q28 0 60 20t49 38t25 30q14 18 35 29t43 11q14 0 28 -4t24 -12q44 -28 44 -80q0 -28 -16 -52q-4 -8 -11 -17t-25 -32t-43 -42t-56 -39t-72 -31t-85 -11 q-32 0 -62 8t-54 24q-20 14 -36 31t-23 29t-13 23t-6 13h-5h-5q-28 0 -59 -20t-49 -38t-26 -30q-28 -40 -80 -40q-28 0 -50 16q-44 28 -44 80zM180 318q0 -76 29 -109t87 -33q72 0 168 58t176 156l144 348v2q0 74 -29 107t-87 33q-108 0 -246 -114t-204 -274 q-38 -94 -38 -172v-2z" />
<glyph unicode="&#xe4;" horiz-adv-x="1176" d="M-12 320v2q0 114 54 242q86 212 264 360t362 148q68 0 123 -23t95 -67l6 14q10 28 35 44t53 16q20 0 36 -8q28 -10 44 -35t16 -53q0 -10 -2 -19t-6 -17l-358 -864q-10 -28 -35 -44t-53 -16q-20 0 -36 8q-32 12 -48 44q-124 -68 -242 -68q-142 0 -225 97t-83 239zM180 318 q0 -76 29 -109t87 -33q72 0 168 58t176 156l144 348v2q0 74 -29 107t-87 33q-108 0 -246 -114t-204 -274q-38 -94 -38 -172v-2zM418 1280q0 20 8 36l40 96q6 18 20 32t32 21t37 7t35 -8q28 -10 44 -35t16 -53v-8t-1 -8t-2 -7t-2 -7t-3 -6l-40 -96q-6 -18 -20 -32t-32 -21 t-37 -7t-35 8q-28 10 -44 35t-16 53zM802 1280q0 6 1 12t2 13t5 11l40 96q10 28 35 44t53 16q20 0 36 -8q28 -10 44 -35t16 -53q0 -10 -2 -19t-6 -17l-40 -96q-4 -12 -11 -21t-16 -16t-19 -12t-21 -8t-21 -3t-19 2t-17 6q-28 10 -44 35t-16 53z" />
<glyph unicode="&#xe5;" horiz-adv-x="1176" d="M-12 320v2q0 114 54 242q86 212 264 360t362 148q68 0 123 -23t95 -67l6 14q10 28 35 44t53 16q20 0 36 -8q28 -10 44 -35t16 -53q0 -10 -2 -19t-6 -17l-358 -864q-10 -28 -35 -44t-53 -16q-20 0 -36 8q-32 12 -48 44q-124 -68 -242 -68q-142 0 -225 97t-83 239z M170 1732q0 8 1 18l2 20t4 20l6 20t7 18q38 94 126 157t188 63q46 0 86 -16q20 -8 39 -22t33 -30q44 -54 44 -128q0 -24 -5 -48t-15 -48q-38 -94 -126 -157t-188 -63q-46 0 -86 16q-20 8 -39 22t-33 30q-44 54 -44 128zM180 318q0 -76 29 -109t87 -33q72 0 168 58t176 156 l144 348v2q0 74 -29 107t-87 33q-108 0 -246 -114t-204 -274q-38 -94 -38 -172v-2zM362 1730q4 -2 10 -2q20 0 48 14t53 38t37 48q2 10 4 16t0 10q-4 2 -10 2q-32 0 -77 -31t-61 -69q-2 -10 -4 -16t0 -10z" />
<glyph unicode="&#xe6;" horiz-adv-x="1600" d="M-72 228q0 62 28 130q110 258 456 290q216 18 276 164q6 16 6 26q0 18 -32 30q-26 12 -66 12q-46 0 -92 -13t-80 -31t-52 -29t-26 -19q-26 -20 -60 -20q-8 0 -16 2l-16 4t-15 6t-14 10t-13 12q-22 26 -22 60q0 22 9 41t25 33q8 8 16 14t35 25t58 33t72 30t91 25t100 9 q38 0 72 -6t66 -18q18 -8 35 -18t31 -22t26 -26t22 -30q158 120 316 120q108 0 187 -57t101 -169q8 -36 8 -76q0 -100 -54 -230q-4 -14 -14 -25t-22 -19t-25 -12t-27 -4h-592q-38 -98 -38 -170q0 -54 18 -86t42 -40q8 -4 19 -6t25 -2q76 0 159 39t117 66t50 43q14 14 32 21 t36 7q40 0 66 -28q30 -26 30 -68q0 -18 -7 -35t-19 -31q-140 -144 -332 -190q-66 -16 -132 -16q-32 0 -62 6t-56 16t-48 24t-39 31t-31 37q-170 -114 -332 -114q-128 0 -212 67t-84 177zM120 224q0 -14 4 -22t29 -17t71 -9q114 0 274 118q-2 4 -2 10q0 80 24 166 q-14 -2 -29 -5t-31 -5l-32 -4q-76 -6 -131 -23t-86 -43t-47 -49t-32 -59q-12 -30 -12 -58zM836 672h416q18 54 18 94q0 6 -1 12t-1 12t-1 11t-3 11q-8 38 -28 53t-72 15q-44 0 -99 -24t-116 -72t-113 -112z" />
<glyph unicode="&#xe7;" horiz-adv-x="1056" d="M-374 -400q0 40 28 68t68 28q94 0 145 16t67 40q-38 8 -106 8q-40 0 -68 29t-28 68t28 67l220 224q14 14 31 21t37 7q40 0 68 -28t28 -68q0 -18 -7 -36t-21 -32l-88 -90q72 -30 98 -92q10 -28 10 -58q0 -20 -5 -41t-13 -39q-44 -108 -148 -148t-248 -40q-40 0 -68 28 t-28 68zM-12 312q0 124 54 252q86 210 261 359t357 149q56 0 105 -18t86 -49t62 -74t37 -93q2 -12 2 -22q0 -22 -9 -41t-27 -33t-38 -20q-12 -2 -22 -2q-16 0 -31 6t-28 15t-22 23t-13 30q-10 46 -33 66t-69 20q-38 0 -86 -19t-99 -54t-98 -82t-89 -108t-70 -125 q-40 -98 -40 -174q0 -56 19 -90t45 -44q20 -8 46 -8q38 0 86 18t101 54t101 86q14 14 32 22t38 8q40 0 66 -26q30 -28 30 -70q0 -12 -3 -24t-9 -23t-14 -19q-210 -218 -428 -218q-64 0 -118 22q-92 38 -137 119t-45 187z" />
<glyph unicode="&#xe8;" horiz-adv-x="1088" d="M-16 304q0 124 58 260q24 58 56 114q100 172 250 283t304 111q108 0 187 -57t101 -169q4 -12 6 -25t2 -25v-26q0 -100 -54 -230q-10 -28 -35 -44t-53 -16h-592q-38 -98 -38 -170q0 -54 18 -86t42 -40q18 -8 44 -8q76 0 159 39t117 66t50 43q28 28 68 28t66 -28 q30 -26 30 -68q0 -4 -1 -8t-1 -8t-1 -8t-3 -7t-3 -7t-3 -8t-4 -7t-5 -6t-5 -7l-25 -25t-62 -50t-99 -62t-126 -47t-152 -22q-20 0 -41 2t-40 7t-37 13q-178 72 -178 298zM162 1824q0 28 14 52q28 44 82 44q28 0 52 -14l306 -192q44 -28 44 -82q0 -14 -4 -27t-10 -25 q-14 -20 -36 -32t-46 -12q-14 0 -27 4t-25 10l-306 192q-44 28 -44 82zM324 672h416q18 54 18 94q0 24 -6 46q-6 26 -15 40t-29 21t-56 7q-32 0 -73 -14t-84 -40t-87 -66t-84 -88z" />
<glyph unicode="&#xe9;" horiz-adv-x="1088" d="M-16 304q0 124 58 260q24 58 56 114q100 172 250 283t304 111q108 0 187 -57t101 -169q4 -12 6 -25t2 -25v-26q0 -100 -54 -230q-10 -28 -35 -44t-53 -16h-592q-38 -98 -38 -170q0 -54 18 -86t42 -40q18 -8 44 -8q76 0 159 39t117 66t50 43q28 28 68 28t66 -28 q30 -26 30 -68q0 -4 -1 -8t-1 -8t-1 -8t-3 -7t-3 -7t-3 -8t-4 -7t-5 -6t-5 -7l-25 -25t-62 -50t-99 -62t-126 -47t-152 -22q-20 0 -41 2t-40 7t-37 13q-178 72 -178 298zM84 1632q0 28 16 53t44 35l462 192q16 8 36 8q14 0 27 -4t25 -12t22 -19t14 -25q8 -16 8 -36 q0 -28 -16 -53t-44 -35l-462 -192q-16 -8 -36 -8q-28 0 -53 16t-35 44q-8 16 -8 36zM324 672h416q18 54 18 94q0 24 -6 46q-6 26 -15 40t-29 21t-56 7q-32 0 -73 -14t-84 -40t-87 -66t-84 -88z" />
<glyph unicode="&#xea;" horiz-adv-x="1088" d="M-16 304q0 124 58 260q24 58 56 114q100 172 250 283t304 111q108 0 187 -57t101 -169q4 -12 6 -25t2 -25v-26q0 -100 -54 -230q-10 -28 -35 -44t-53 -16h-592q-38 -98 -38 -170q0 -54 18 -86t42 -40q18 -8 44 -8q76 0 159 39t117 66t50 43q28 28 68 28t66 -28 q30 -26 30 -68q0 -4 -1 -8t-1 -8t-1 -8t-3 -7t-3 -7t-3 -8t-4 -7t-5 -6t-5 -7l-25 -25t-62 -50t-99 -62t-126 -47t-152 -22q-20 0 -41 2t-40 7t-37 13q-178 72 -178 298zM64 1664q0 56 50 84l290 160q22 12 46 12q40 0 68 -28l158 -160q10 -10 16 -21t9 -23t3 -24 q0 -10 -2 -19t-5 -18t-9 -17t-12 -14q-28 -28 -68 -28t-68 28l-108 108l-226 -124q-20 -12 -46 -12q-56 0 -84 50q-12 22 -12 46zM324 672h416q18 54 18 94q0 24 -6 46q-6 26 -15 40t-29 21t-56 7q-32 0 -73 -14t-84 -40t-87 -66t-84 -88z" />
<glyph unicode="&#xeb;" horiz-adv-x="1088" d="M-16 304q0 124 58 260q24 58 56 114q100 172 250 283t304 111q108 0 187 -57t101 -169q4 -12 6 -25t2 -25v-26q0 -100 -54 -230q-10 -28 -35 -44t-53 -16h-592q-38 -98 -38 -170q0 -54 18 -86t42 -40q18 -8 44 -8q76 0 159 39t117 66t50 43q28 28 68 28t66 -28 q30 -26 30 -68q0 -4 -1 -8t-1 -8t-1 -8t-3 -7t-3 -7t-3 -8t-4 -7t-5 -6t-5 -7l-25 -25t-62 -50t-99 -62t-126 -47t-152 -22q-20 0 -41 2t-40 7t-37 13q-178 72 -178 298zM324 672h416q18 54 18 94q0 24 -6 46q-6 26 -15 40t-29 21t-56 7q-32 0 -73 -14t-84 -40t-87 -66 t-84 -88zM418 1280q0 20 8 36l40 96q6 18 20 32t32 21t37 7t35 -8q28 -10 44 -35t16 -53v-8t-1 -8t-2 -7t-2 -7t-3 -6l-40 -96q-6 -18 -20 -32t-32 -21t-37 -7t-35 8q-28 10 -44 35t-16 53zM802 1280q0 6 1 12t2 13t5 11l40 96q10 28 35 44t53 16q20 0 36 -8q28 -10 44 -35 t16 -53q0 -10 -2 -19t-6 -17l-40 -96q-4 -12 -11 -21t-16 -16t-19 -12t-21 -8t-21 -3t-19 2t-17 6q-28 10 -44 35t-16 53z" />
<glyph unicode="&#xec;" d="M-74 97q0 19 8 35l358 864q10 28 35 44t53 16q10 0 19 -2t17 -6q28 -10 44 -35t16 -53q0 -20 -8 -36l-358 -864q-10 -28 -35 -44t-53 -16q-20 0 -36 8q-18 6 -32 20t-21 32t-7 37zM162 1824q0 28 14 52q28 44 82 44q28 0 52 -14l306 -192q44 -28 44 -82q0 -14 -4 -27 t-10 -25q-14 -20 -36 -32t-46 -12q-14 0 -27 4t-25 10l-306 192q-44 28 -44 82z" />
<glyph unicode="&#xed;" d="M-74 97q0 19 8 35l358 864q10 28 35 44t53 16q10 0 19 -2t17 -6q28 -10 44 -35t16 -53q0 -20 -8 -36l-358 -864q-10 -28 -35 -44t-53 -16q-20 0 -36 8q-18 6 -32 20t-21 32t-7 37zM84 1632q0 28 16 53t44 35l462 192q16 8 36 8q14 0 27 -4t25 -12t22 -19t14 -25 q8 -16 8 -36q0 -28 -16 -53t-44 -35l-462 -192q-16 -8 -36 -8q-28 0 -53 16t-35 44q-8 16 -8 36z" />
<glyph unicode="&#xee;" d="M-74 97q0 19 8 35l358 864q10 28 35 44t53 16q10 0 19 -2t17 -6q28 -10 44 -35t16 -53q0 -20 -8 -36l-358 -864q-10 -28 -35 -44t-53 -16q-20 0 -36 8q-18 6 -32 20t-21 32t-7 37zM64 1664q0 56 50 84l290 160q22 12 46 12q40 0 68 -28l158 -160q10 -10 16 -21t9 -23 t3 -24q0 -10 -2 -19t-5 -18t-9 -17t-12 -14q-28 -28 -68 -28t-68 28l-108 108l-226 -124q-20 -12 -46 -12q-56 0 -84 50q-12 22 -12 46z" />
<glyph unicode="&#xef;" d="M-74 97q0 19 8 35l358 864q10 28 35 44t53 16q10 0 19 -2t17 -6q28 -10 44 -35t16 -53q0 -20 -8 -36l-358 -864q-10 -28 -35 -44t-53 -16q-20 0 -36 8q-18 6 -32 20t-21 32t-7 37zM418 1280q0 20 8 36l40 96q6 18 20 32t32 21t37 7t35 -8q28 -10 44 -35t16 -53v-8t-1 -8 t-2 -7t-2 -7t-3 -6l-40 -96q-6 -18 -20 -32t-32 -21t-37 -7t-35 8q-28 10 -44 35t-16 53zM802 1280q0 6 1 12t2 13t5 11l40 96q10 28 35 44t53 16q20 0 36 -8q28 -10 44 -35t16 -53q0 -10 -2 -19t-6 -17l-40 -96q-4 -12 -11 -21t-16 -16t-19 -12t-21 -8t-21 -3t-19 2t-17 6 q-28 10 -44 35t-16 53z" />
<glyph unicode="&#xf0;" horiz-adv-x="1136" d="M-12 316q0 122 54 248q86 212 264 360t362 148q32 0 63 -6t59 -16l8 -4q-14 46 -36 98q-68 -26 -131 -41t-125 -15q-40 0 -68 28t-28 68t28 68t68 28q52 0 158 46v2q-14 22 -14 47t13 48t35 35q10 8 22 11t26 3q24 0 47 -13t35 -35q8 -10 14 -20q166 68 288 68 q40 0 68 -28t28 -68t-28 -68t-68 -28q-58 0 -194 -62q74 -174 74 -338q0 -44 -5 -89t-16 -93t-27 -100t-40 -106q-56 -138 -154 -253t-224 -185t-248 -70q-32 0 -63 6t-59 16q-94 40 -140 121t-46 189zM180 322q0 -38 10 -68t24 -46t32 -24q22 -8 50 -8q68 0 155 49t169 141 t126 198q38 96 38 170q0 56 -19 91t-47 47q-10 4 -22 6t-28 2q-108 0 -246 -114t-204 -274q-10 -26 -17 -50t-12 -45t-7 -40t-2 -35z" />
<glyph unicode="&#xf1;" horiz-adv-x="1160" d="M-74 97q0 19 8 35l358 864q10 28 35 44t53 16q10 0 19 -2t17 -6q34 -14 50 -46q62 32 129 51t137 19q106 0 177 -71t71 -179q0 -74 -34 -154l-252 -608q-10 -28 -35 -44t-53 -16q-20 0 -36 8q-18 6 -32 20t-21 32t-7 37t8 35l252 608q18 46 18 84q0 32 -12 44t-44 12 q-36 0 -76 -11t-76 -30t-69 -39t-62 -43t-46 -37t-29 -26l-264 -634q-10 -28 -35 -44t-53 -16q-20 0 -36 8q-18 6 -32 20t-21 32t-7 37zM-6 1648q0 10 2 18t5 17t9 17q10 16 25 35t53 55t94 59t120 23q66 0 114 -30q16 -12 30 -25t23 -25t15 -22t9 -18l3 -8h10q28 0 60 20 t49 38t25 30q14 18 35 29t43 11q14 0 28 -4t24 -12q44 -28 44 -80q0 -28 -16 -52q-4 -8 -11 -17t-25 -32t-43 -42t-56 -39t-72 -31t-85 -11q-32 0 -62 8t-54 24q-20 14 -36 31t-23 29t-13 23t-6 13h-5h-5q-28 0 -59 -20t-49 -38t-26 -30q-28 -40 -80 -40q-28 0 -50 16 q-44 28 -44 80z" />
<glyph unicode="&#xf2;" horiz-adv-x="1136" d="M-12 316q0 122 54 248q86 212 264 360t362 148q32 0 63 -6t59 -16q48 -20 84 -52t58 -73t33 -87t11 -98q0 -40 -7 -82t-18 -84t-29 -82q-86 -212 -264 -360t-362 -148q-32 0 -63 6t-59 16q-94 40 -140 121t-46 189zM162 1824q0 28 14 52q28 44 82 44q28 0 52 -14 l306 -192q44 -28 44 -82q0 -14 -4 -27t-10 -25q-14 -20 -36 -32t-46 -12q-14 0 -27 4t-25 10l-306 192q-44 28 -44 82zM180 322q0 -38 10 -68t24 -46t32 -24q22 -8 50 -8q68 0 155 49t169 141t126 198q38 96 38 170q0 56 -19 91t-47 47q-10 4 -22 6t-28 2q-108 0 -246 -114 t-204 -274q-10 -26 -17 -50t-12 -45t-7 -40t-2 -35z" />
<glyph unicode="&#xf3;" horiz-adv-x="1136" d="M-12 316q0 122 54 248q86 212 264 360t362 148q32 0 63 -6t59 -16q48 -20 84 -52t58 -73t33 -87t11 -98q0 -40 -7 -82t-18 -84t-29 -82q-86 -212 -264 -360t-362 -148q-32 0 -63 6t-59 16q-94 40 -140 121t-46 189zM84 1632q0 28 16 53t44 35l462 192q16 8 36 8 q14 0 27 -4t25 -12t22 -19t14 -25q8 -16 8 -36q0 -28 -16 -53t-44 -35l-462 -192q-16 -8 -36 -8q-28 0 -53 16t-35 44q-8 16 -8 36zM180 322q0 -38 10 -68t24 -46t32 -24q22 -8 50 -8q68 0 155 49t169 141t126 198q38 96 38 170q0 56 -19 91t-47 47q-10 4 -22 6t-28 2 q-108 0 -246 -114t-204 -274q-10 -26 -17 -50t-12 -45t-7 -40t-2 -35z" />
<glyph unicode="&#xf4;" horiz-adv-x="1136" d="M-12 316q0 122 54 248q86 212 264 360t362 148q32 0 63 -6t59 -16q48 -20 84 -52t58 -73t33 -87t11 -98q0 -40 -7 -82t-18 -84t-29 -82q-86 -212 -264 -360t-362 -148q-32 0 -63 6t-59 16q-94 40 -140 121t-46 189zM64 1664q0 56 50 84l290 160q22 12 46 12q40 0 68 -28 l158 -160q10 -10 16 -21t9 -23t3 -24q0 -10 -2 -19t-5 -18t-9 -17t-12 -14q-28 -28 -68 -28t-68 28l-108 108l-226 -124q-20 -12 -46 -12q-56 0 -84 50q-12 22 -12 46zM180 322q0 -38 10 -68t24 -46t32 -24q22 -8 50 -8q68 0 155 49t169 141t126 198q38 96 38 170 q0 56 -19 91t-47 47q-10 4 -22 6t-28 2q-108 0 -246 -114t-204 -274q-10 -26 -17 -50t-12 -45t-7 -40t-2 -35z" />
<glyph unicode="&#xf5;" horiz-adv-x="1136" d="M-12 316q0 122 54 248q86 212 264 360t362 148q32 0 63 -6t59 -16q48 -20 84 -52t58 -73t33 -87t11 -98q0 -40 -7 -82t-18 -84t-29 -82q-86 -212 -264 -360t-362 -148q-32 0 -63 6t-59 16q-94 40 -140 121t-46 189zM180 322q0 -38 10 -68t24 -46t32 -24q22 -8 50 -8 q68 0 155 49t169 141t126 198q38 96 38 170q0 56 -19 91t-47 47q-10 4 -22 6t-28 2q-108 0 -246 -114t-204 -274q-10 -26 -17 -50t-12 -45t-7 -40t-2 -35z" />
<glyph unicode="&#xf6;" horiz-adv-x="1136" d="M-12 316q0 122 54 248q86 212 264 360t362 148q32 0 63 -6t59 -16q48 -20 84 -52t58 -73t33 -87t11 -98q0 -40 -7 -82t-18 -84t-29 -82q-86 -212 -264 -360t-362 -148q-32 0 -63 6t-59 16q-94 40 -140 121t-46 189zM180 322q0 -38 10 -68t24 -46t32 -24q22 -8 50 -8 q68 0 155 49t169 141t126 198q38 96 38 170q0 56 -19 91t-47 47q-10 4 -22 6t-28 2q-108 0 -246 -114t-204 -274q-10 -26 -17 -50t-12 -45t-7 -40t-2 -35zM418 1280q0 20 8 36l40 96q6 18 20 32t32 21t37 7t35 -8q28 -10 44 -35t16 -53v-8t-1 -8t-2 -7t-2 -7t-3 -6l-40 -96 q-6 -18 -20 -32t-32 -21t-37 -7t-35 8q-28 10 -44 35t-16 53zM802 1280q0 6 1 12t2 13t5 11l40 96q10 28 35 44t53 16q20 0 36 -8q28 -10 44 -35t16 -53q0 -10 -2 -19t-6 -17l-40 -96q-4 -12 -11 -21t-16 -16t-19 -12t-21 -8t-21 -3t-19 2t-17 6q-28 10 -44 35t-16 53z" />
<glyph unicode="&#xf7;" horiz-adv-x="1280" d="M112 736q0 40 28 68t68 28h864q40 0 68 -28t28 -68t-28 -68t-68 -28h-864q-40 0 -68 28t-28 68zM308 280q0 12 2 22t6 20l2 4q24 54 71 88t107 34q26 0 49 -10t37 -28t23 -39t9 -43q0 -8 -1 -15t-3 -14t-4 -13q-2 -2 -2 -4q-24 -54 -71 -88t-107 -34q-52 0 -85 36t-33 84 zM666 1144q0 12 2 22t6 20q2 2 2 4q12 26 29 48t40 38t51 26t58 10q52 0 85 -36t33 -84q0 -12 -2 -22t-6 -20q-2 -2 -2 -4q-16 -34 -41 -61t-61 -44t-76 -17q-52 0 -85 36t-33 84z" />
<glyph unicode="&#xf8;" horiz-adv-x="1136" d="M-130 96q0 46 34 74l1030 864q26 22 62 22q14 0 27 -4t25 -12t22 -18l8 -12t6 -12l4 -12t3 -13t1 -13q0 -46 -34 -74l-1030 -864q-26 -22 -62 -22q-46 0 -74 34q-22 26 -22 62zM-12 316q0 122 54 248q86 212 264 360t362 148q32 0 63 -6t59 -16q48 -20 84 -52t58 -73 t33 -87t11 -98q0 -40 -7 -82t-18 -84t-29 -82q-86 -212 -264 -360t-362 -148q-32 0 -63 6t-59 16q-94 40 -140 121t-46 189zM180 322q0 -38 10 -68t24 -46t32 -24q22 -8 50 -8q68 0 155 49t169 141t126 198q38 96 38 170q0 56 -19 91t-47 47q-10 4 -22 6t-28 2 q-108 0 -246 -114t-204 -274q-10 -26 -17 -50t-12 -45t-7 -40t-2 -35z" />
<glyph unicode="&#xf9;" horiz-adv-x="1160" d="M6 234q0 74 34 154l252 608q6 18 20 32t32 21t37 7t35 -8q28 -10 44 -35t16 -53q0 -20 -8 -36l-252 -608l-8 -24t-6 -22t-3 -19t-1 -17q0 -34 12 -46t46 -12q66 0 148 41t127 75t81 68l264 636q10 28 35 44t53 16q20 0 36 -8q28 -10 44 -35t16 -53q0 -10 -2 -19t-6 -17 l-358 -864q-10 -28 -35 -44t-53 -16q-20 0 -36 8q-34 12 -50 46q-134 -70 -264 -70q-108 0 -179 71t-71 179zM162 1824q0 28 14 52q28 44 82 44q28 0 52 -14l306 -192q44 -28 44 -82q0 -14 -4 -27t-10 -25q-14 -20 -36 -32t-46 -12q-14 0 -27 4t-25 10l-306 192 q-44 28 -44 82z" />
<glyph unicode="&#xfa;" horiz-adv-x="1160" d="M6 234q0 74 34 154l252 608q6 18 20 32t32 21t37 7t35 -8q28 -10 44 -35t16 -53q0 -20 -8 -36l-252 -608l-8 -24t-6 -22t-3 -19t-1 -17q0 -34 12 -46t46 -12q66 0 148 41t127 75t81 68l264 636q10 28 35 44t53 16q20 0 36 -8q28 -10 44 -35t16 -53q0 -10 -2 -19t-6 -17 l-358 -864q-10 -28 -35 -44t-53 -16q-20 0 -36 8q-34 12 -50 46q-134 -70 -264 -70q-108 0 -179 71t-71 179zM84 1632q0 28 16 53t44 35l462 192q16 8 36 8q14 0 27 -4t25 -12t22 -19t14 -25q8 -16 8 -36q0 -28 -16 -53t-44 -35l-462 -192q-16 -8 -36 -8q-28 0 -53 16 t-35 44q-8 16 -8 36z" />
<glyph unicode="&#xfb;" horiz-adv-x="1160" d="M6 234q0 74 34 154l252 608q6 18 20 32t32 21t37 7t35 -8q28 -10 44 -35t16 -53q0 -20 -8 -36l-252 -608l-8 -24t-6 -22t-3 -19t-1 -17q0 -34 12 -46t46 -12q66 0 148 41t127 75t81 68l264 636q10 28 35 44t53 16q20 0 36 -8q28 -10 44 -35t16 -53q0 -10 -2 -19t-6 -17 l-358 -864q-10 -28 -35 -44t-53 -16q-20 0 -36 8q-34 12 -50 46q-134 -70 -264 -70q-108 0 -179 71t-71 179zM64 1664q0 56 50 84l290 160q22 12 46 12q40 0 68 -28l158 -160q10 -10 16 -21t9 -23t3 -24q0 -10 -2 -19t-5 -18t-9 -17t-12 -14q-28 -28 -68 -28t-68 28 l-108 108l-226 -124q-20 -12 -46 -12q-56 0 -84 50q-12 22 -12 46z" />
<glyph unicode="&#xfc;" horiz-adv-x="1160" d="M6 234q0 74 34 154l252 608q6 18 20 32t32 21t37 7t35 -8q28 -10 44 -35t16 -53q0 -20 -8 -36l-252 -608l-8 -24t-6 -22t-3 -19t-1 -17q0 -34 12 -46t46 -12q66 0 148 41t127 75t81 68l264 636q10 28 35 44t53 16q20 0 36 -8q28 -10 44 -35t16 -53q0 -10 -2 -19t-6 -17 l-358 -864q-10 -28 -35 -44t-53 -16q-20 0 -36 8q-34 12 -50 46q-134 -70 -264 -70q-108 0 -179 71t-71 179zM418 1280q0 20 8 36l40 96q6 18 20 32t32 21t37 7t35 -8q28 -10 44 -35t16 -53v-8t-1 -8t-2 -7t-2 -7t-3 -6l-40 -96q-6 -18 -20 -32t-32 -21t-37 -7t-35 8 q-28 10 -44 35t-16 53zM802 1280q0 6 1 12t2 13t5 11l40 96q10 28 35 44t53 16q20 0 36 -8q28 -10 44 -35t16 -53q0 -10 -2 -19t-6 -17l-40 -96q-4 -12 -11 -21t-16 -16t-19 -12t-21 -8t-21 -3t-19 2t-17 6q-28 10 -44 35t-16 53z" />
<glyph unicode="&#xfd;" horiz-adv-x="992" d="M-328 -288q0 10 2 20q4 16 14 30t23 24t30 15t35 5q8 0 18 -2h20q48 0 115 53t125 129q42 58 84 114l50 866q2 18 10 35t21 29t30 19t35 7h6q38 -2 65 -32t25 -70l-34 -572q432 584 468 632q26 40 84 40q16 0 32 -6q54 -30 54 -76q0 -34 -26 -85t-95 -147t-145 -195 t-225 -295t-287 -380q-34 -48 -67 -83t-84 -80t-113 -70t-128 -25q-18 0 -33 1t-22 3t-13 2q-34 8 -54 35t-20 59zM84 1632q0 28 16 53t44 35l462 192q16 8 36 8q14 0 27 -4t25 -12t22 -19t14 -25q8 -16 8 -36q0 -28 -16 -53t-44 -35l-462 -192q-16 -8 -36 -8q-28 0 -53 16 t-35 44q-8 16 -8 36z" />
<glyph unicode="&#xfe;" horiz-adv-x="1176" d="M-232 -288q0 20 8 36l690 1664q10 28 35 44t53 16q6 0 10 -1t9 -1t9 -2l8 -4q28 -10 44 -35t16 -53q0 -20 -8 -36l-128 -312q98 44 194 44q32 0 63 -6t59 -16q64 -26 106 -74t61 -107t19 -129q0 -24 -3 -49t-7 -50t-10 -50t-15 -50t-19 -49q-86 -212 -264 -360t-362 -148 q-134 0 -218 90l-166 -398q-10 -28 -35 -44t-53 -16q-20 0 -36 8q-28 10 -44 35t-16 53zM220 318q0 -46 20 -71t52 -41t44 -30q108 0 246 114t204 274q38 96 38 170q0 56 -19 91t-47 47q-6 2 -13 4t-17 3t-20 1q-74 0 -170 -58t-174 -156z" />
<glyph unicode="&#xff;" horiz-adv-x="992" d="M-328 -288q0 10 2 20q4 16 14 30t23 24t30 15t35 5q8 0 18 -2h20q48 0 115 53t125 129q42 58 84 114l50 866q2 18 10 35t21 29t30 19t35 7h6q38 -2 65 -32t25 -70l-34 -572q432 584 468 632q26 40 84 40q16 0 32 -6q54 -30 54 -76q0 -34 -26 -85t-95 -147t-145 -195 t-225 -295t-287 -380q-34 -48 -67 -83t-84 -80t-113 -70t-128 -25q-18 0 -33 1t-22 3t-13 2q-34 8 -54 35t-20 59zM418 1280q0 20 8 36l40 96q6 18 20 32t32 21t37 7t35 -8q28 -10 44 -35t16 -53v-8t-1 -8t-2 -7t-2 -7t-3 -6l-40 -96q-6 -18 -20 -32t-32 -21t-37 -7t-35 8 q-28 10 -44 35t-16 53zM802 1280q0 6 1 12t2 13t5 11l40 96q10 28 35 44t53 16q20 0 36 -8q28 -10 44 -35t16 -53q0 -10 -2 -19t-6 -17l-40 -96q-4 -12 -11 -21t-16 -16t-19 -12t-21 -8t-21 -3t-19 2t-17 6q-28 10 -44 35t-16 53z" />
<glyph unicode="&#x178;" horiz-adv-x="1312" d="M294 96q0 10 2 19t6 17l266 640l-200 572q-6 16 -6 32q0 14 5 28t13 26t20 22t26 14q16 6 32 6q20 0 38 -8t32 -23t20 -33l166 -476l610 518q26 22 62 22q44 0 74 -34q22 -26 22 -62q0 -44 -34 -74l-698 -592l-272 -650q-10 -28 -35 -44t-53 -16q-20 0 -36 8 q-28 10 -44 35t-16 53zM418 1280q0 20 8 36l40 96q6 18 20 32t32 21t37 7t35 -8q28 -10 44 -35t16 -53v-8t-1 -8t-2 -7t-2 -7t-3 -6l-40 -96q-6 -18 -20 -32t-32 -21t-37 -7t-35 8q-28 10 -44 35t-16 53zM802 1280q0 6 1 12t2 13t5 11l40 96q10 28 35 44t53 16q20 0 36 -8 q28 -10 44 -35t16 -53q0 -10 -2 -19t-6 -17l-40 -96q-4 -12 -11 -21t-16 -16t-19 -12t-21 -8t-21 -3t-19 2t-17 6q-28 10 -44 35t-16 53z" />
<glyph unicode="&#x2dc;" horiz-adv-x="0" d="M-6 1648q0 10 2 18t5 17t9 17q10 16 25 35t53 55t94 59t120 23q66 0 114 -30q16 -12 30 -25t23 -25t15 -22t9 -18l3 -8h10q28 0 60 20t49 38t25 30q14 18 35 29t43 11q14 0 28 -4t24 -12q44 -28 44 -80q0 -28 -16 -52q-4 -8 -11 -17t-25 -32t-43 -42t-56 -39t-72 -31 t-85 -11q-32 0 -62 8t-54 24q-20 14 -36 31t-23 29t-13 23t-6 13h-5h-5q-28 0 -59 -20t-49 -38t-26 -30q-28 -40 -80 -40q-28 0 -50 16q-44 28 -44 80z" />
<glyph unicode="&#x2000;" horiz-adv-x="1062" />
<glyph unicode="&#x2001;" horiz-adv-x="2124" />
<glyph unicode="&#x2002;" horiz-adv-x="1062" />
<glyph unicode="&#x2003;" horiz-adv-x="2124" />
<glyph unicode="&#x2004;" horiz-adv-x="708" />
<glyph unicode="&#x2005;" horiz-adv-x="531" />
<glyph unicode="&#x2006;" horiz-adv-x="354" />
<glyph unicode="&#x2007;" horiz-adv-x="354" />
<glyph unicode="&#x2008;" horiz-adv-x="265" />
<glyph unicode="&#x2009;" horiz-adv-x="424" />
<glyph unicode="&#x200a;" horiz-adv-x="118" />
<glyph unicode="&#x2010;" horiz-adv-x="832" d="M-22 528q0 40 28 68t68 28h512q40 0 68 -28t28 -68t-28 -68t-68 -28h-512q-40 0 -68 28t-28 68z" />
<glyph unicode="&#x2011;" horiz-adv-x="832" d="M-22 528q0 40 28 68t68 28h512q40 0 68 -28t28 -68t-28 -68t-68 -28h-512q-40 0 -68 28t-28 68z" />
<glyph unicode="&#x2012;" horiz-adv-x="832" d="M-22 528q0 40 28 68t68 28h512q40 0 68 -28t28 -68t-28 -68t-68 -28h-512q-40 0 -68 28t-28 68z" />
<glyph unicode="&#x2013;" horiz-adv-x="1024" d="M-86 528q0 40 28 68t68 28h832q40 0 68 -28t28 -68t-28 -68t-68 -28h-832q-40 0 -68 28t-28 68z" />
<glyph unicode="&#x2014;" horiz-adv-x="2048" d="M-86 528q0 40 28 68t68 28h1856q40 0 68 -28t28 -68t-28 -68t-68 -28h-1856q-40 0 -68 28t-28 68z" />
<glyph unicode="&#x2018;" horiz-adv-x="592" d="M304 1110q0 6 1 13t2 13l2 12t4 13t5 13q40 92 182 264q28 34 74 34q36 0 62 -22q34 -28 34 -74q0 -36 -22 -62q-4 -4 -10 -11t-24 -29t-34 -44q34 -38 34 -88q0 -10 -1 -20t-5 -20q-2 -2 -2 -4q-24 -54 -71 -88t-107 -34q-24 0 -46 8q-38 16 -58 50t-20 76z" />
<glyph unicode="&#x2019;" horiz-adv-x="592" d="M328 1072q0 34 22 62q30 36 66 84q-8 8 -15 19t-11 22t-6 23t-2 24q0 22 6 40l1 2l1 2q24 54 72 88t108 34q24 0 46 -10q38 -14 57 -48t19 -74q0 -34 -14 -66q-38 -92 -180 -264q-28 -34 -74 -34q-12 0 -22 3t-20 7t-20 12q-34 28 -34 74z" />
<glyph unicode="&#x201a;" horiz-adv-x="592" d="M-164 -112q0 36 22 62q30 36 66 84q-34 34 -34 84q0 24 8 44q2 2 2 4q24 54 71 88t107 34q12 0 23 -2t23 -6q38 -16 58 -50t20 -76q0 -8 -1 -16t-3 -16l-4 -16t-6 -16q-40 -92 -182 -264q-28 -34 -74 -34q-16 0 -32 6t-30 16q-6 6 -10 11t-8 11t-7 12t-5 13t-3 14t-1 13z " />
<glyph unicode="&#x201c;" horiz-adv-x="1024" d="M304 1110q0 6 1 13t2 13l2 12t4 13t5 13q40 92 182 264q28 34 74 34q36 0 62 -22q34 -28 34 -74q0 -36 -22 -62q-4 -4 -10 -11t-24 -29t-34 -44q34 -38 34 -88q0 -10 -1 -20t-5 -20q-2 -2 -2 -4q-24 -54 -71 -88t-107 -34q-24 0 -46 8q-38 16 -58 50t-20 76zM736 1110 q0 34 14 64q42 100 182 264q28 34 74 34q6 0 11 -1t11 -2t11 -3l10 -4t10 -5t9 -7q16 -14 25 -34t9 -40q0 -8 -2 -16l-4 -16t-6 -16t-10 -14l-4 -4t-9 -11t-15 -18t-19 -23t-21 -28q10 -8 16 -19t10 -22t6 -23t2 -24q0 -10 -1 -20t-5 -20q-2 -2 -2 -4q-24 -54 -71 -88 t-107 -34q-24 0 -46 8q-18 8 -33 21t-25 30t-15 36t-5 39z" />
<glyph unicode="&#x201d;" horiz-adv-x="1024" d="M328 1072q0 34 22 62q30 36 66 84q-8 8 -15 19t-11 22t-6 23t-2 24q0 22 6 40l1 2l1 2q24 54 72 88t108 34q24 0 46 -10q38 -14 57 -48t19 -74q0 -34 -14 -66q-38 -92 -180 -264q-28 -34 -74 -34q-12 0 -22 3t-20 7t-20 12q-34 28 -34 74zM760 1072q0 8 2 16l4 16t6 15 t10 15q30 36 66 84q-34 38 -34 88q0 10 1 20t5 20q2 2 2 4q24 54 72 88t108 34q24 0 46 -10q38 -14 57 -48t19 -74q0 -34 -14 -66q-38 -92 -180 -264q-28 -34 -74 -34q-34 0 -62 22q-8 6 -14 15t-11 19t-7 20t-2 20z" />
<glyph unicode="&#x201e;" horiz-adv-x="1024" d="M-164 -112q0 36 22 62q30 36 66 84q-34 34 -34 84q0 24 8 44q2 2 2 4q24 54 71 88t107 34q12 0 23 -2t23 -6q38 -16 58 -50t20 -76q0 -8 -1 -16t-3 -16l-4 -16t-6 -16q-40 -92 -182 -264q-28 -34 -74 -34q-16 0 -32 6t-30 16q-6 6 -10 11t-8 11t-7 12t-5 13t-3 14t-1 13z M268 -112q0 36 22 62q30 36 66 84q-12 12 -19 26t-11 29t-4 29q0 24 8 44l2 4q24 54 71 88t107 34q12 0 23 -2t23 -6q38 -16 58 -50t20 -76q0 -34 -14 -64q-40 -92 -182 -264q-28 -34 -74 -34q-12 0 -22 3t-20 8t-20 11q-34 28 -34 74z" />
<glyph unicode="&#x2022;" horiz-adv-x="704" d="M118 670v16q0 44 18 88q34 80 109 133t161 53q40 0 76 -14q18 -8 33 -18t26 -23t20 -27t14 -30t8 -32t3 -34q0 -44 -18 -84q-22 -52 -63 -94t-95 -67t-112 -25q-40 0 -76 14q-38 16 -66 48q-6 8 -11 15t-9 15t-7 16t-5 16t-4 17t-2 17z" />
<glyph unicode="&#x202f;" horiz-adv-x="424" />
<glyph unicode="&#x205f;" horiz-adv-x="531" />
<glyph unicode="&#x25fc;" horiz-adv-x="1060" d="M0 0v1060h1060v-1060h-1060z" />
</font>
</defs>
</svg>
