<?xml version="1.0" standalone="no"?>
<!DOCTYPE svg PUBLIC "-//W3C//DTD SVG 1.1//EN" "http://www.w3.org/Graphics/SVG/1.1/DTD/svg11.dtd" >
<svg xmlns="http://www.w3.org/2000/svg" xmlns:xlink="http://www.w3.org/1999/xlink" version="1.1">
<metadata></metadata>
<defs>
<font id="routed_gothicregular" horiz-adv-x="576" >
<font-face units-per-em="2048" ascent="1664" descent="-384" />
<missing-glyph horiz-adv-x="500" />
<glyph horiz-adv-x="0" />
<glyph unicode="&#xd;" horiz-adv-x="682" />
<glyph unicode=" " />
<glyph unicode="!" d="M144 128q0 66 47 113t113 47q54 0 91 -37t37 -91q0 -66 -47 -113t-113 -47q-54 0 -91 37t-37 91zM192 576v800q0 40 28 68t68 28t68 -28t28 -68v-800q0 -40 -28 -68t-68 -28t-68 28t-28 68z" />
<glyph unicode="&#x22;" horiz-adv-x="768" d="M128 960v416q0 40 28 68t68 28t68 -28t28 -68v-416q0 -40 -28 -68t-68 -28t-68 28t-28 68zM448 960v416q0 40 28 68t68 28t68 -28t28 -68v-416q0 -40 -28 -68t-68 -28t-68 28t-28 68z" />
<glyph unicode="#" horiz-adv-x="1344" d="M128 576q0 40 28 68t68 28h154l36 128h-190q-40 0 -68 28t-28 68t28 68t68 28h242l114 410q8 30 34 50t58 20q14 0 26 -4q30 -8 50 -34t20 -58q0 -14 -4 -26l-98 -358h152l114 410q8 30 34 50t58 20q14 0 26 -4q30 -8 50 -34t20 -58q0 -14 -4 -26l-98 -358h102 q40 0 68 -28t28 -68t-28 -68t-68 -28h-154l-36 -128h190q40 0 68 -28t28 -68t-28 -68t-68 -28h-242l-114 -410q-8 -30 -34 -50t-58 -20q-6 0 -13 1t-13 3q-30 8 -50 34t-20 58v9t1 9t3 8l98 358h-152l-114 -410q-8 -30 -34 -50t-58 -20q-14 0 -26 4q-30 8 -50 34t-20 58 q0 6 1 13t3 13l98 358h-102q-40 0 -68 28t-28 68zM578 672h152l36 128h-152z" />
<glyph unicode="$" horiz-adv-x="1008" d="M128 432q0 14 4 28t13 26t19 22q26 20 60 20q46 0 74 -34q6 -8 18 -21t41 -34t59 -35v274q-94 22 -158 75t-89 111t-25 120q0 108 78 185t194 101v106q0 40 28 68t68 28t68 -28t28 -68v-106q52 -12 98 -33t75 -46t42 -38t21 -23q20 -26 20 -58q0 -22 -9 -42t-27 -34 q-26 -20 -58 -20q-46 0 -78 38q-28 32 -84 54v-228q140 -34 206 -119t66 -193q0 -166 -136 -264q-60 -42 -136 -60v-108q0 -40 -28 -68t-68 -28t-68 28t-28 68v106q-160 34 -268 172q-20 26 -20 58zM336 984q0 -78 80 -108v196q-38 -16 -59 -42t-21 -46zM608 402 q80 36 80 126q0 24 -1 34t-7 29t-24 31t-48 22v-242z" />
<glyph unicode="%" horiz-adv-x="1728" d="M128 1136q0 142 104 239t248 97t248 -97t104 -239t-104 -239t-248 -97t-248 97t-104 239zM320 1136q0 -58 46 -101t114 -43t114 43t46 101t-46 101t-114 43t-114 -43t-46 -101zM416 96q0 6 1 12l2 12t3 11t6 11l704 1280q28 50 84 50q26 0 46 -12q24 -12 37 -35t13 -49 t-12 -46l-704 -1280q-6 -12 -16 -21t-21 -16t-23 -10t-24 -3q-26 0 -46 12q-50 28 -50 84zM896 336q0 142 104 239t248 97t248 -97t104 -239t-104 -239t-248 -97t-248 97t-104 239zM1088 336q0 -58 46 -101t114 -43t114 43t46 101t-46 101t-114 43t-114 -43t-46 -101z" />
<glyph unicode="&#x26;" horiz-adv-x="1568" d="M120 448q0 228 190 368q-142 102 -142 288q0 156 136 270t376 114q234 0 377 -110t143 -274q0 -42 -10 -82t-28 -76t-45 -69t-61 -61q18 -8 34 -18t31 -21l30 -22t29 -23q56 62 104 94q24 14 52 14q52 0 80 -44q16 -22 16 -50q0 -24 -11 -46t-29 -34q-6 -4 -14 -10 t-29 -26t-39 -42q138 -206 138 -492q0 -40 -28 -68t-68 -28t-68 28t-28 68q0 170 -56 298q-6 -20 -12 -38q-116 -372 -556 -372q-232 0 -372 136t-140 328zM312 448q0 -114 81 -193t239 -79q56 0 99 5t87 20t77 41t62 69t47 101q28 86 68 162q-86 78 -210 118 q-118 40 -258 40q-66 -4 -131 -38t-113 -100t-48 -146zM360 1104q0 -180 240 -180q90 0 176 -14q80 8 134 39t76 71t22 84q0 70 -77 131t-251 61q-176 0 -248 -61t-72 -131z" />
<glyph unicode="'" horiz-adv-x="448" d="M128 960v416q0 40 28 68t68 28t68 -28t28 -68v-416q0 -40 -28 -68t-68 -28t-68 28t-28 68z" />
<glyph unicode="(" horiz-adv-x="688" d="M128 736q0 80 9 160t23 147t34 133t39 117t42 101t40 82t36 62t25 39t10 17q30 38 80 38q30 0 54 -18q12 -10 21 -22t14 -27t5 -29q0 -30 -16 -54q-10 -14 -27 -40t-54 -103t-67 -159t-53 -204t-23 -240q0 -360 188 -688q20 -36 36 -58q16 -24 16 -54q0 -50 -40 -78 q-26 -18 -56 -18q-48 0 -78 38q-12 20 -30 47t-62 116t-78 182t-61 233t-27 280z" />
<glyph unicode=")" horiz-adv-x="688" d="M64 -64q0 30 16 54q10 14 26 40t54 103t67 159t53 203t24 240t-23 241t-53 204t-67 159t-54 103t-27 40q-4 8 -8 17t-6 18t-2 19q0 50 40 78q12 8 26 13t28 5q24 0 45 -10t35 -28q12 -20 30 -48t63 -116t78 -181t60 -233t27 -279t-27 -279t-60 -233t-77 -182t-63 -117 t-31 -46v-2q-30 -38 -78 -38q-16 0 -30 5t-26 13q-18 14 -29 34t-11 44z" />
<glyph unicode="*" horiz-adv-x="1024" d="M128 1120q0 40 28 68t68 28h122l-62 106q-12 22 -12 48q0 12 3 24t9 23t15 20t20 16t23 10t26 3q56 0 84 -48l60 -106l60 106q6 8 13 16t15 14t18 10t19 6t19 2q14 0 26 -3t22 -9q48 -28 48 -84q0 -8 -1 -16t-4 -16t-7 -16l-62 -106h122q40 0 68 -28t28 -68t-28 -68 t-68 -28h-122l62 -106q6 -10 9 -22t3 -26q0 -24 -13 -47t-35 -37q-6 -2 -12 -5t-12 -4l-12 -2t-12 -1q-56 0 -84 48l-60 106l-60 -106q-14 -22 -37 -35t-48 -13t-47 12q-48 28 -48 84q0 26 12 48l62 106h-122q-40 0 -68 28t-28 68z" />
<glyph unicode="+" horiz-adv-x="1280" d="M112 736q0 40 28 68t68 28h336v336q0 40 28 68t68 28t68 -28t28 -68v-336h336q40 0 68 -28t28 -68t-28 -68t-68 -28h-336v-336q0 -40 -28 -68t-68 -28t-68 28t-28 68v336h-336q-40 0 -68 28t-28 68z" />
<glyph unicode="," horiz-adv-x="592" d="M144 128q0 66 47 113t113 47q56 0 100 -45t44 -115q0 -112 -76 -276v-2q-12 -28 -36 -43t-52 -15h-8t-8 1t-7 2t-7 2t-8 3q-18 8 -31 22t-20 31t-7 35q0 20 8 38q2 4 5 11t11 29t16 42q-36 16 -60 46t-24 74z" />
<glyph unicode="-" horiz-adv-x="832" d="M64 528q0 40 28 68t68 28h512q40 0 68 -28t28 -68t-28 -68t-68 -28h-512q-40 0 -68 28t-28 68z" />
<glyph unicode="." d="M144 128q0 66 47 113t113 47q54 0 91 -37t37 -91q0 -66 -47 -113t-113 -47q-54 0 -91 37t-37 91z" />
<glyph unicode="/" horiz-adv-x="1152" d="M128 96q0 12 3 24t9 22l704 1280q8 16 22 27t30 17t32 6q26 0 46 -12q50 -28 50 -84q0 -26 -12 -46l-704 -1280q-28 -50 -84 -50q-26 0 -46 12q-12 6 -21 16t-16 21t-10 23t-3 24z" />
<glyph unicode="0" horiz-adv-x="1344" d="M80 736q0 196 74 368t211 278t307 106t307 -106t211 -278t74 -368t-74 -368t-211 -278t-307 -106t-307 106t-211 278t-74 368zM272 736q0 -240 122 -400t278 -160t278 160t122 400t-122 400t-278 160t-278 -160t-122 -400z" />
<glyph unicode="1" horiz-adv-x="704" d="M256 96v1280q0 40 28 68t68 28t68 -28t28 -68v-1280q0 -40 -28 -68t-68 -28t-68 28t-28 68z" />
<glyph unicode="2" horiz-adv-x="1344" d="M160 1072q0 200 142 308t342 108q202 0 343 -122t141 -310q0 -120 -67 -204t-211 -170l-42 -24q-74 -44 -107 -65t-86 -55t-75 -52t-55 -47t-46 -52t-30 -55t-24 -65t-13 -75h716q40 0 68 -28t28 -68t-28 -68t-68 -28h-816q-34 0 -65 28t-31 68q0 120 28 215t63 158 t120 134t146 111t195 118q14 10 22 14q126 76 156 112t30 98q0 100 -79 170t-213 70q-142 0 -217 -58t-75 -166q0 -40 -28 -68t-68 -28t-68 28t-28 68z" />
<glyph unicode="3" horiz-adv-x="1344" d="M136 1376q0 40 28 68t68 28h736q34 0 65 -28t31 -68v-14q-2 -6 -4 -16t-9 -35t-17 -51t-27 -64t-39 -74t-55 -78t-71 -80q168 -46 267 -180t99 -304q0 -208 -160 -352t-380 -144q-156 0 -286 76t-198 204q-2 6 -5 14t-4 15t-1 15q0 26 14 49t38 37q10 4 21 7t23 3 q26 0 49 -14t37 -38q40 -78 124 -127t188 -49q146 0 247 91t101 213q0 134 -87 223t-241 89q-70 0 -164 -38q-4 0 -8 -1t-7 -2l-6 -2t-7 -1h-8q-18 0 -38 8q-36 16 -50 50q0 2 -1 2h-1q-6 18 -6 36q0 6 1 12t3 13t4 13q16 36 50 50q156 66 248 159t138 189h-604 q-40 0 -68 28t-28 68z" />
<glyph unicode="4" horiz-adv-x="1344" d="M128 540v34v90q0 18 6 34t18 28l612 708q28 34 72 34h82h42q40 0 68 -31t28 -65v-736h128q40 0 68 -28t28 -68t-28 -68t-68 -28h-128v-352q0 -40 -28 -68t-68 -28t-68 28t-28 68v352h-640q-40 0 -68 31t-28 65zM326 636l538 2v620z" />
<glyph unicode="5" horiz-adv-x="1344" d="M160 312q0 16 6 32t17 30t27 22q20 12 46 12q56 0 84 -50q30 -54 76 -95t105 -64t123 -23q144 0 246 103t102 249t-102 249t-246 103q-176 0 -300 -142q-12 -16 -32 -25t-40 -9q-40 0 -68 28q-16 16 -23 38t-5 40l64 576q4 38 33 62t63 24h640q40 0 68 -28t28 -68 t-28 -68t-68 -28h-554l-30 -266q120 58 252 58q224 0 382 -159t158 -385t-158 -385t-382 -159q-150 0 -276 77t-196 205q-4 6 -7 14t-4 16t-1 16z" />
<glyph unicode="6" horiz-adv-x="1344" d="M140 736q0 200 59 353t151 236t185 123t181 40q64 0 122 -12t100 -33t75 -42t56 -45t32 -36l15 -20q16 -24 16 -52q0 -52 -42 -80q-12 -8 -26 -12t-28 -4q-22 0 -44 11t-36 33l-11 11t-28 24t-46 30t-67 24t-88 11q-30 0 -65 -9t-78 -30t-83 -62t-75 -96t-57 -140 t-26 -189q134 134 368 134q214 0 367 -135t153 -325q0 -184 -140 -322t-364 -138q-28 0 -59 4t-64 12t-66 22t-67 32t-66 44t-62 56t-57 69t-49 84t-40 100t-28 117q-10 48 -14 101t-4 111zM394 402q38 -84 100 -138t116 -71t106 -17q148 0 230 81t82 187q0 102 -93 185 t-235 83q-154 0 -230 -72t-76 -232v-6z" />
<glyph unicode="7" horiz-adv-x="1344" d="M112 1376q0 40 28 68t68 28h896q40 0 68 -31t28 -65v-116q0 -26 -14 -49t-34 -35q-12 -6 -31 -19t-71 -56t-99 -95t-103 -139t-96 -185t-68 -235t-28 -287v-64q0 -40 -28 -68t-68 -28t-68 28t-28 68v64q0 184 37 351t90 283t126 219t130 161t117 106h-756q-40 0 -68 28 t-28 68z" />
<glyph unicode="8" horiz-adv-x="1344" d="M136 456q0 204 172 346q-140 118 -140 286q0 176 149 288t355 112q198 0 351 -111t153 -289q0 -94 -45 -170t-113 -140q92 -62 141 -155t49 -191q0 -188 -149 -318t-387 -130q-228 0 -382 142t-154 330zM328 456q0 -102 96 -191t248 -89q170 0 257 77t87 179 q0 66 -41 125t-121 91q-16 6 -34 11t-38 9t-43 6t-47 2q-50 0 -98 6t-92 20q-38 -20 -73 -47t-68 -82t-33 -117zM360 1088q0 -52 31 -97t95 -77q40 -22 93 -34t113 -12q20 0 41 -1t41 -3t40 -6q60 42 115 109t55 121q0 76 -88 142t-224 66q-144 0 -228 -65t-84 -143z" />
<glyph unicode="9" horiz-adv-x="1344" d="M124 1028q0 184 140 322t364 138q50 0 102 -11t109 -36t111 -68t100 -100t82 -141t54 -184q10 -48 14 -101t4 -111q0 -200 -59 -353t-151 -236t-185 -123t-181 -40q-76 0 -144 19t-110 42t-78 54t-48 46t-20 27q-16 24 -16 52q0 16 5 30t14 27t23 23q24 16 54 16 q50 0 80 -44l6 -6t15 -14t23 -20t33 -21t44 -19t54 -14t65 -6q36 0 79 12t97 49t97 92t75 152t36 221q-134 -134 -368 -134q-214 0 -367 135t-153 325zM316 1028q0 -102 93 -185t235 -83q154 0 230 72t76 232v6q-30 64 -72 111t-87 71t-85 34t-78 10q-148 0 -230 -81 t-82 -187z" />
<glyph unicode=":" d="M144 128q0 66 47 113t113 47q54 0 91 -37t37 -91q0 -66 -47 -113t-113 -47q-54 0 -91 37t-37 91zM144 896q0 66 47 113t113 47q54 0 91 -37t37 -91q0 -66 -47 -113t-113 -47q-54 0 -91 37t-37 91z" />
<glyph unicode=";" horiz-adv-x="592" d="M144 128q0 66 47 113t113 47q56 0 100 -45t44 -115q0 -112 -76 -276v-2q-12 -28 -36 -43t-52 -15h-8t-8 1t-7 2t-7 2t-8 3q-18 8 -31 22t-20 31t-7 35q0 20 8 38q2 4 5 11t11 29t16 42q-36 16 -60 46t-24 74zM144 896q0 66 47 113t113 47q54 0 91 -37t37 -91 q0 -66 -47 -113t-113 -47q-54 0 -91 37t-37 91z" />
<glyph unicode="&#x3c;" horiz-adv-x="1280" d="M112 736q0 22 10 42q8 14 19 25t25 19l864 432q18 10 42 10q60 0 86 -54q10 -18 10 -42q0 -60 -54 -86l-692 -346l692 -346q26 -12 40 -36t14 -50q0 -24 -10 -42q-26 -54 -86 -54q-24 0 -42 10l-864 432q-8 4 -14 8t-12 10q-4 4 -7 8l-6 8t-5 10q-10 20 -10 42z" />
<glyph unicode="=" horiz-adv-x="1280" d="M112 496q0 40 28 68t68 28h864q40 0 68 -28t28 -68t-28 -68t-68 -28h-864q-40 0 -68 28t-28 68zM112 976q0 40 28 68t68 28h864q40 0 68 -28t28 -68t-28 -68t-68 -28h-864q-40 0 -68 28t-28 68z" />
<glyph unicode="&#x3e;" horiz-adv-x="1280" d="M112 304q0 60 54 86l692 346l-692 346q-26 12 -40 36t-14 50q0 24 10 42q26 54 86 54q24 0 42 -10l864 -432q8 -4 14 -8t12 -10t10 -12t8 -14q10 -20 10 -42t-10 -42q-4 -8 -8 -14t-10 -12l-26 -18l-864 -432q-2 -2 -6 -3t-7 -2t-7 -2t-7 -2t-7 -1h-8q-60 0 -86 54 q-4 10 -7 20t-3 22z" />
<glyph unicode="?" horiz-adv-x="1280" d="M128 1072q0 200 141 308t339 108t339 -94t141 -274q0 -30 -4 -58t-11 -53t-19 -47t-24 -42t-29 -38t-34 -33t-37 -31t-40 -28t-42 -26q-70 -40 -96 -67t-37 -73t-11 -144q0 -40 -28 -68t-68 -28t-68 28t-28 68q0 170 55 272t185 180q32 18 51 30t37 26t28 27t17 29t9 34 t2 42q0 78 -71 127t-217 49q-140 0 -214 -57t-74 -167q0 -40 -28 -68t-68 -28t-68 28t-28 68zM464 128q0 66 47 113t113 47q54 0 91 -37t37 -91q0 -66 -47 -113t-113 -47q-54 0 -91 37t-37 91z" />
<glyph unicode="@" horiz-adv-x="1760" d="M128 736q0 312 220 532t532 220t532 -220t220 -532q0 -58 -2 -95t-16 -94t-42 -103q-40 -70 -112 -105t-148 -35q-128 0 -218 78q-102 -98 -234 -98q-164 0 -269 136t-105 316t105 316t269 136q94 0 176 -52q30 40 78 40q40 0 68 -28t28 -68v-536q4 -6 11 -14t34 -21 t57 -13q26 0 56 15t40 29q18 32 25 80t7 116q0 232 -164 396t-396 164t-396 -164t-164 -396t164 -396t396 -164q42 0 83 6t79 17t72 27q20 10 42 10q60 0 86 -54q4 -8 6 -14t3 -13t1 -15q0 -26 -15 -50t-39 -36q-146 -70 -318 -70q-312 0 -532 220t-220 532zM678 736 q0 -114 58 -187t124 -73q46 0 89 33t69 93v268q-26 60 -69 93t-89 33q-66 0 -124 -73t-58 -187z" />
<glyph unicode="A" horiz-adv-x="1376" d="M96 96q0 16 6 32l440 1280q10 28 36 46t54 18h56h56q30 0 56 -19t34 -45l440 -1280q6 -16 6 -32q0 -20 -8 -38t-23 -32t-33 -20q-16 -6 -32 -6q-30 0 -55 18t-35 46l-78 224h-656l-78 -224q-10 -28 -35 -46t-55 -18q-18 0 -32 6q-14 4 -26 14t-20 22t-13 26t-5 28z M426 480h524l-262 764z" />
<glyph unicode="B" horiz-adv-x="1392" d="M192 96v682v598q0 34 28 65t68 31h512q178 0 297 -116t119 -280q0 -84 -34 -160t-96 -132q78 -64 120 -157t42 -191q0 -166 -112 -301t-304 -135h-544q-34 0 -65 28t-31 68zM384 192h448q102 0 163 73t61 171t-61 171t-163 73h-10h-22h-416v-488zM384 872h416q26 0 50 4 t44 14q62 24 96 74t34 112q0 84 -61 144t-163 60h-416v-408z" />
<glyph unicode="C" horiz-adv-x="1368" d="M144 736q0 196 74 368t211 278t307 106q94 0 176 -32t128 -71t84 -91t47 -73t15 -37t6 -32q0 -30 -17 -55t-45 -35l-16 -4t-16 -2q-30 0 -55 16t-35 42q-8 18 -20 39t-43 58t-86 61t-123 24q-156 0 -278 -160t-122 -400t123 -400t277 -160q64 0 120 28t92 68t57 75t27 59 q2 24 15 45t34 33t47 12q40 0 68 -28t28 -68q0 -42 -30 -108t-86 -137t-155 -121t-217 -50q-254 0 -423 225t-169 527z" />
<glyph unicode="D" horiz-adv-x="1392" d="M192 96v1280q0 40 31 68t65 28h416q60 0 127 -22t143 -77t136 -135t99 -211t39 -291t-39 -291t-99 -211t-136 -135t-143 -77t-127 -22h-416q-40 0 -68 31t-28 65zM384 192h320q28 0 66 11t90 48t94 93t72 159t30 233t-30 233t-72 159t-94 93t-90 48t-66 11h-320v-1088z " />
<glyph unicode="E" horiz-adv-x="1392" d="M192 96v1280q0 34 28 65t68 31h832q40 0 68 -28t28 -68t-28 -68t-68 -28h-736v-408h480q40 0 68 -28t28 -68t-28 -68t-68 -28h-480v-488h768q40 0 68 -28t28 -68t-28 -68t-68 -28h-864q-34 0 -65 28t-31 68z" />
<glyph unicode="F" horiz-adv-x="1328" d="M192 96v1280q0 40 31 68t65 28h800q40 0 68 -28t28 -68t-28 -68t-68 -28h-704v-408h496q40 0 68 -28t28 -68t-28 -68t-68 -28h-496v-584q0 -40 -28 -68t-68 -28t-68 28t-28 68z" />
<glyph unicode="G" horiz-adv-x="1344" d="M144 736q0 196 74 368t211 278t307 106q94 0 176 -32t128 -71t83 -91t47 -73t16 -37q6 -14 6 -30q0 -30 -17 -56t-45 -36q-6 -2 -11 -3l-10 -2t-11 -1q-30 0 -55 17t-35 41q-8 18 -21 39t-44 58t-85 61t-122 24q-156 0 -278 -160t-122 -400t123 -400t277 -160 q100 0 167 49t105 105v262h-240q-40 0 -68 28t-28 68t28 68t68 28h336q34 0 65 -28t31 -68v-384q0 -10 -3 -22t-7 -22q-8 -12 -18 -31t-51 -67t-88 -83t-127 -65t-170 -30q-254 0 -423 225t-169 527z" />
<glyph unicode="H" horiz-adv-x="1424" d="M192 96v1280q0 40 28 68t68 28t68 -28t28 -68v-504h656v504q0 40 28 68t68 28t68 -28t28 -68v-1280q0 -40 -28 -68t-68 -28t-68 28t-28 68v584h-656v-584q0 -40 -28 -68t-68 -28t-68 28t-28 68z" />
<glyph unicode="I" horiz-adv-x="672" d="M240 96v1280q0 40 28 68t68 28t68 -28t28 -68v-1280q0 -40 -28 -68t-68 -28t-68 28t-28 68z" />
<glyph unicode="J" horiz-adv-x="1088" d="M96 432v128q0 40 28 68t68 28t68 -28t28 -68v-128q0 -110 63 -183t145 -73q76 0 142 85t66 219v896q0 40 28 68t68 28t68 -28t28 -68v-896q0 -196 -112 -346t-288 -150q-170 0 -285 134t-115 314z" />
<glyph unicode="K" horiz-adv-x="1344" d="M192 96v1280q0 40 28 68t68 28t68 -28t28 -68v-588l668 656q14 14 32 21t36 7q10 0 19 -2t18 -5t17 -9t14 -12q14 -14 21 -32t7 -36q0 -40 -28 -68l-460 -450l502 -706q18 -24 18 -56q0 -22 -11 -43t-29 -35q-24 -18 -56 -18q-22 0 -43 11t-35 29l-484 682l-206 -202 v-424q0 -40 -28 -68t-68 -28t-68 28t-28 68z" />
<glyph unicode="L" horiz-adv-x="1312" d="M192 96v1280q0 40 28 68t68 28t68 -28t28 -68v-1184h736q40 0 68 -28t28 -68t-28 -68t-68 -28h-832q-34 0 -65 28t-31 68z" />
<glyph unicode="M" horiz-adv-x="1660" d="M192 96v1280q0 40 31 68t65 28h38h42q30 0 56 -19t34 -45l374 -1030l374 1030q10 30 37 47t53 17h40h40q40 0 68 -31t28 -65v-1280q0 -40 -28 -68t-68 -28t-68 28t-28 68v954l-358 -986q-6 -18 -19 -33t-31 -23t-40 -8q-68 0 -90 64l-358 986v-954q0 -40 -28 -68t-68 -28 t-68 28t-28 68z" />
<glyph unicode="N" horiz-adv-x="1440" d="M192 96v1280q0 40 31 68t65 28h32h48q26 0 49 -14t35 -34l604 -1076v1028q0 40 28 68t68 28t68 -28t28 -68v-1280q0 -34 -28 -65t-68 -31h-28h-36q-56 0 -84 48l-620 1104v-1056q0 -40 -28 -68t-68 -28t-68 28t-28 68z" />
<glyph unicode="O" horiz-adv-x="1472" d="M144 736q0 196 74 368t211 278t307 106t307 -106t211 -278t74 -368t-74 -368t-211 -278t-307 -106t-307 106t-211 278t-74 368zM336 736q0 -240 122 -400t278 -160t278 160t122 400t-122 400t-278 160t-278 -160t-122 -400z" />
<glyph unicode="P" horiz-adv-x="1360" d="M192 96v606v674q0 40 31 68t65 28h480q184 0 316 -115t132 -317t-132 -317t-316 -115h-384v-512q0 -40 -28 -68t-68 -28t-68 28t-28 68zM384 800h384q120 0 188 60t68 180t-68 180t-188 60h-384v-480z" />
<glyph unicode="Q" horiz-adv-x="1472" d="M144 736q0 196 74 368t211 278t307 106t307 -106t211 -278t74 -368q0 -178 -64 -339t-176 -267q10 -12 26 -19t38 -9q24 -4 43 -18t30 -34t11 -44v-12q-4 -24 -18 -43t-34 -30t-44 -11h-6h-6q-124 16 -210 110q-86 -36 -182 -36q-170 0 -307 106t-211 278t-74 368z M336 736q0 -240 122 -400t278 -160q42 0 82 12q-6 18 -11 35t-8 25l-3 8q-24 12 -37 35t-13 49q0 24 12 46q12 24 35 37t49 13q6 0 10 -1t9 -1t9 -2t9 -4t9 -4q40 -22 70 -46t48 -52q62 78 96 183t34 227q0 240 -122 400t-278 160t-278 -160t-122 -400z" />
<glyph unicode="R" horiz-adv-x="1408" d="M192 96v670v610q0 40 31 68t65 28h528q184 0 316 -99t132 -301q0 -102 -38 -181t-97 -124t-139 -69l242 -564l4 -12t3 -12t1 -14q0 -28 -16 -52t-42 -36q-18 -8 -38 -8q-28 0 -52 16t-36 42l-264 614h-408v-576q0 -40 -28 -68t-68 -28t-68 28t-28 68zM384 864h432 q130 0 193 47t63 161t-63 161t-193 47h-432v-416z" />
<glyph unicode="S" horiz-adv-x="1344" d="M144 336q0 62 58 88q18 8 36 8q62 0 88 -54q6 -12 15 -27t38 -49t65 -60t97 -46t131 -20q164 0 250 75t86 181q0 38 -10 68t-40 66t-98 64t-170 44q-264 38 -389 152t-125 262q0 190 147 295t349 105q68 0 129 -12t107 -34t84 -47t66 -54t47 -54t32 -50t19 -37t8 -18 q4 -14 4 -28q0 -10 -2 -20t-6 -19t-10 -17t-13 -15t-16 -13t-19 -10q-6 -2 -14 -3t-14 -1q-32 0 -57 18t-35 46q-4 10 -10 23t-31 43t-56 52t-88 40t-125 18q-144 0 -224 -58t-80 -150q0 -18 3 -34t14 -40t35 -44t61 -40t98 -38t139 -30q128 -18 223 -62t150 -103t82 -125 t27 -140q0 -192 -148 -320t-380 -128q-78 0 -148 17t-120 43t-95 61t-71 64t-48 62t-28 46t-10 21q-8 18 -8 38z" />
<glyph unicode="T" horiz-adv-x="1376" d="M96 1376q0 40 28 68t68 28h992q40 0 68 -28t28 -68t-28 -68t-68 -28h-400v-1184q0 -40 -28 -68t-68 -28t-68 28t-28 68v1184h-400q-40 0 -68 28t-28 68z" />
<glyph unicode="U" horiz-adv-x="1424" d="M192 432v944q0 40 28 68t68 28t68 -28t28 -68v-944q0 -100 93 -178t235 -78t235 78t93 178v944q0 40 28 68t68 28t68 -28t28 -68v-944q0 -192 -155 -320t-365 -128t-365 128t-155 320z" />
<glyph unicode="V" horiz-adv-x="1376" d="M96 1376q0 28 17 54t45 36l16 4t18 2q28 0 54 -17t36 -45l406 -1084l406 1084q8 18 22 32t32 22t36 8h7t7 -1t7 -1t6 -1t7 -3q10 -4 20 -11t18 -16t13 -19t8 -22t3 -22q0 -18 -6 -34l-480 -1280q-10 -28 -35 -45t-55 -17h-32q-30 0 -55 17t-35 45l-480 1280l-4 16t-2 18z " />
<glyph unicode="W" horiz-adv-x="1744" d="M96 1376q0 32 20 58t52 34q12 4 24 4q8 0 15 -1t15 -4t15 -7t13 -8t12 -10t10 -12t7 -14t5 -16l256 -972l230 970q8 32 35 53t59 21h16q34 0 60 -22t34 -52l230 -970l256 972q2 12 9 24t16 20t20 15t23 10t24 3t24 -4q22 -4 38 -18t25 -34t9 -40q0 -12 -4 -24l-336 -1280 q-6 -30 -33 -51t-59 -21h-32q-32 0 -59 21t-35 53l-218 920l-218 -920q-8 -30 -34 -52t-60 -22h-32q-30 0 -57 20t-35 52l-336 1280q-4 12 -4 24z" />
<glyph unicode="X" horiz-adv-x="1264" d="M96 96q0 30 16 54l404 586l-404 586q-16 24 -16 54q0 50 42 80q12 8 26 12t28 4q50 0 80 -42l360 -524l360 524q30 42 80 42q30 0 54 -16q42 -30 42 -80q0 -30 -16 -54l-404 -586l404 -586q16 -24 16 -54q0 -50 -42 -80q-24 -16 -54 -16q-12 0 -23 3t-21 8t-19 13t-17 18 l-360 524l-360 -524q-30 -42 -80 -42q-10 0 -19 2t-18 6t-17 8q-42 30 -42 80z" />
<glyph unicode="Y" horiz-adv-x="1312" d="M96 1376q0 48 38 76q12 10 27 15t31 5q48 0 76 -38l388 -508l388 508q28 38 76 38q16 0 31 -5t27 -15q38 -28 38 -76q0 -10 -2 -20t-7 -20t-11 -18l-444 -582v-640q0 -40 -28 -68t-68 -28t-68 28t-28 68v640l-444 582q-6 6 -9 13l-6 14t-4 15t-1 16z" />
<glyph unicode="Z" horiz-adv-x="1264" d="M96 96q0 30 16 54l764 1130h-668q-40 0 -68 28t-28 68t28 68t68 28h848q40 0 68 -29t28 -67q0 -14 -5 -29t-11 -25l-764 -1130h700q40 0 68 -28t28 -68t-28 -68t-68 -28h-880q-26 0 -48 12q-48 28 -48 84z" />
<glyph unicode="[" horiz-adv-x="624" d="M128 -64v1600q0 34 28 65t68 31h240q40 0 68 -28t28 -68t-28 -68t-68 -28h-144v-1408h144q40 0 68 -28t28 -68t-28 -68t-68 -28h-240q-34 0 -65 28t-31 68z" />
<glyph unicode="\" horiz-adv-x="1152" d="M128 1376q0 26 13 49t37 35q10 6 22 9t24 3q56 0 84 -50l704 -1280q12 -20 12 -46q0 -56 -50 -84q-20 -12 -46 -12q-56 0 -84 50l-704 1280q-12 20 -12 46z" />
<glyph unicode="]" horiz-adv-x="624" d="M64 -64q0 40 28 68t68 28h144v1408h-144q-40 0 -68 28t-28 68t28 68t68 28h240q40 0 68 -31t28 -65v-1600q0 -40 -31 -68t-65 -28h-240q-40 0 -68 28t-28 68z" />
<glyph unicode="^" horiz-adv-x="1024" d="M128 896q0 28 14 50l288 480q28 46 82 46q10 0 20 -2t19 -6t17 -10q16 -12 26 -28l288 -480q8 -12 11 -24t3 -26q0 -54 -46 -82q-12 -8 -24 -11t-26 -3q-10 0 -19 2t-18 6t-17 9t-16 13t-12 16l-206 344l-206 -344q-28 -46 -82 -46q-14 0 -26 3t-24 11q-46 28 -46 82z " />
<glyph unicode="_" horiz-adv-x="1152" d="M0 -192q0 40 28 68t68 28h960q40 0 68 -28t28 -68t-28 -68t-68 -28h-960q-40 0 -68 28t-28 68z" />
<glyph unicode="`" horiz-adv-x="768" d="M128 1376q0 22 10 42t28 34q12 10 27 15t31 5q6 0 14 -1t15 -3t13 -5t12 -8l12 -10t10 -11l320 -416q10 -12 15 -27t5 -31q0 -48 -38 -76q-24 -20 -58 -20q-22 0 -42 10t-34 28l-320 416q-10 12 -15 27t-5 31z" />
<glyph unicode="a" horiz-adv-x="1176" d="M120 528q0 218 127 381t321 163q126 0 230 -76q8 16 21 30t31 22t38 8q40 0 68 -28t28 -68v-864q0 -40 -28 -68t-68 -28q-30 0 -54 17t-36 43q-104 -76 -230 -76q-194 0 -321 163t-127 381zM312 528q0 -154 79 -253t177 -99q44 0 86 21t78 63t60 98v340q-34 86 -95 134 t-129 48q-98 0 -177 -99t-79 -253z" />
<glyph unicode="b" horiz-adv-x="1176" d="M176 96q0 6 1 11t1 9q14 60 14 172v1088q0 40 28 68t68 28t68 -28t28 -68v-376q102 72 224 72q194 0 321 -163t127 -381t-127 -381t-321 -163q-68 0 -129 22t-115 64q-4 -12 -10 -23t-15 -20t-20 -15t-23 -9t-24 -3t-24 2q-32 8 -52 35t-20 59zM384 358q34 -86 95 -134 t129 -48q98 0 177 99t79 253t-79 253t-177 99q-44 0 -86 -21t-78 -63t-60 -98v-340z" />
<glyph unicode="c" horiz-adv-x="1056" d="M120 528q0 218 124 381t316 163q70 0 136 -27t117 -72t91 -105q4 -6 7 -12t5 -13t3 -13t1 -14q0 -12 -3 -23t-8 -22t-14 -20t-19 -15q-22 -16 -52 -16q-52 0 -80 44q-76 116 -184 116q-94 0 -171 -99t-77 -253t77 -253t171 -99q56 0 108 35t88 103q26 50 84 50 q12 0 24 -3t22 -9q50 -26 50 -84q-2 -26 -12 -46q-58 -106 -153 -172t-211 -66q-192 0 -316 163t-124 381z" />
<glyph unicode="d" horiz-adv-x="1184" d="M128 528q0 218 127 381t321 163q18 0 35 -2t34 -5t34 -7t32 -10t31 -14t30 -16t28 -18v376q0 40 28 68t68 28t68 -28t28 -68v-1088q0 -112 14 -172q0 -4 1 -9t1 -11q0 -32 -20 -59t-52 -35q-6 0 -12 -1t-12 -1q-32 0 -58 19t-34 51q-110 -86 -244 -86q-194 0 -321 163 t-127 381zM320 528q0 -154 79 -253t177 -99q68 0 129 48t95 134v340q-34 86 -95 134t-129 48q-98 0 -177 -99t-79 -253z" />
<glyph unicode="e" horiz-adv-x="1088" d="M120 528v17t1 18t1 18t2 17q18 198 136 336t292 138q68 0 129 -21t114 -64t93 -105q44 -70 62 -145t18 -161q0 -40 -31 -68t-65 -28h-558q12 -140 83 -222t155 -82q44 0 84 12t65 28t47 38t30 33t14 21q24 44 82 44q8 0 15 -2t15 -4t14 -6q50 -26 50 -84q0 -24 -12 -44 q-6 -14 -17 -30t-47 -55t-79 -68t-113 -52t-148 -23q-190 0 -311 161t-121 383zM332 672h436q-6 30 -16 55t-28 55q-62 98 -172 98q-26 0 -52 -8t-51 -25t-46 -42t-40 -59t-31 -74z" />
<glyph unicode="f" horiz-adv-x="752" d="M72 960q0 40 28 68t68 28h96v192q0 126 91 191t181 65q44 0 88 -12q16 -4 30 -13t23 -21t14 -27t5 -31q0 -12 -2 -22q-4 -14 -10 -25t-16 -20t-20 -16t-23 -10t-25 -3t-22 2q-4 0 -42 6q-28 0 -54 -20t-26 -44v-192h128q40 0 68 -28t28 -68t-28 -68t-68 -28h-128v-768 q0 -40 -28 -68t-68 -28t-68 28t-28 68v768h-96q-40 0 -68 28t-28 68z" />
<glyph unicode="g" horiz-adv-x="1176" d="M120 528q0 218 127 381t321 163q68 0 129 -22t115 -64q8 30 34 50t58 20q12 0 24 -2q6 -2 13 -5t13 -7t12 -9t10 -10t8 -12t7 -13t5 -13t3 -14t1 -13q0 -10 -2 -18t-3 -17t-4 -30t-5 -54t-2 -71v-768q0 -148 -91 -266t-261 -118q-64 0 -127 19t-84 31t-37 24 q-40 30 -40 78q0 30 18 54q28 42 80 42q14 0 26 -4t22 -10q12 -8 26 -15t48 -17t68 -10q78 0 119 52t41 140v56q-102 -72 -224 -72q-194 0 -321 163t-127 381zM312 528q0 -154 79 -253t177 -99q44 0 86 21t78 63t60 98v340q-34 86 -95 134t-129 48q-98 0 -177 -99t-79 -253z " />
<glyph unicode="h" horiz-adv-x="1168" d="M192 96v1280q0 40 28 68t68 28t68 -28t28 -68v-384q54 38 118 59t138 21q140 0 238 -107t98 -261v-608q0 -40 -28 -68t-68 -28t-68 28t-28 68v608q0 82 -44 129t-100 47q-58 0 -116 -33t-87 -63t-53 -62v-626q0 -40 -28 -68t-68 -28t-68 28t-28 68z" />
<glyph unicode="i" d="M192 96v864q0 40 28 68t68 28t68 -28t28 -68v-864q0 -40 -28 -68t-68 -28t-68 28t-28 68zM192 1312v96q0 40 28 68t68 28t68 -28t28 -68v-96q0 -40 -28 -68t-68 -28t-68 28t-28 68z" />
<glyph unicode="j" d="M0 -284q0 6 1 11t1 11q8 32 35 53t59 21q12 0 22 -2q6 -2 10 -2q38 0 51 15t13 49v1088q0 40 28 68t68 28t68 -28t28 -68v-1088q0 -100 -68 -178t-188 -78q-28 0 -54 6q-2 0 -2 2q-22 6 -38 20t-25 33t-9 39zM192 1312v96q0 40 28 68t68 28t68 -28t28 -68v-96 q0 -40 -28 -68t-68 -28t-68 28t-28 68z" />
<glyph unicode="k" horiz-adv-x="1056" d="M192 96v1280q0 40 28 68t68 28t68 -28t28 -68v-698l318 346q28 32 70 32q38 0 64 -26q6 -4 9 -8t6 -9l6 -10t5 -10t3 -11t2 -11t1 -11q0 -18 -6 -35t-20 -29l-204 -224l286 -530q12 -22 12 -46q0 -58 -50 -84q-22 -12 -46 -12q-58 0 -84 50l-256 472l-116 -128v-298 q0 -40 -28 -68t-68 -28t-68 28t-28 68z" />
<glyph unicode="l" d="M192 288v1088q0 40 28 68t68 28t68 -28t28 -68v-1088q0 -112 14 -172q0 -4 1 -7t1 -6v-7q0 -8 -2 -17t-5 -18t-8 -16t-11 -14t-13 -12t-16 -9t-17 -8q-12 -2 -24 -2q-32 0 -58 19t-34 53q-20 76 -20 216z" />
<glyph unicode="m" horiz-adv-x="1728" d="M192 96v864q0 40 28 68t68 28q30 0 54 -17t36 -43q110 76 246 76q160 0 260 -134q60 60 139 97t177 37q140 0 238 -107t98 -261v-608q0 -40 -28 -68t-68 -28t-68 28t-28 68v608q0 82 -44 129t-100 47q-36 0 -72 -12t-61 -30t-48 -41t-36 -40t-23 -33v-20v-608 q0 -40 -28 -68t-68 -28t-68 28t-28 68v608q0 82 -44 129t-100 47q-58 0 -113 -32t-81 -62t-46 -62v-628q0 -40 -28 -68t-68 -28t-68 28t-28 68z" />
<glyph unicode="n" horiz-adv-x="1160" d="M192 96v864q0 40 28 68t68 28q30 0 55 -18t35 -46q54 38 117 59t137 21q140 0 238 -107t98 -261v-608q0 -40 -28 -68t-68 -28t-68 28t-28 68v608q0 82 -44 129t-100 47q-36 0 -72 -12t-62 -30t-51 -41t-38 -40t-25 -33v-628q0 -40 -28 -68t-68 -28t-68 28t-28 68z" />
<glyph unicode="o" horiz-adv-x="1136" d="M120 528q0 218 127 381t321 163t321 -163t127 -381t-127 -381t-321 -163t-321 163t-127 381zM312 528q0 -154 79 -253t177 -99t177 99t79 253t-79 253t-177 99t-177 -99t-79 -253z" />
<glyph unicode="p" horiz-adv-x="1176" d="M192 -288v1248q0 40 28 68t68 28q30 0 54 -17t36 -43q104 76 230 76q194 0 321 -163t127 -381t-127 -381t-321 -163q-122 0 -224 72v-344q0 -40 -28 -68t-68 -28t-68 28t-28 68zM384 358q34 -86 95 -134t129 -48q98 0 177 99t79 253t-79 253t-177 99q-44 0 -86 -21 t-78 -63t-60 -98v-340z" />
<glyph unicode="q" horiz-adv-x="1176" d="M120 528q0 218 127 381t321 163q134 0 244 -86q6 20 20 37t33 25t39 8q12 0 24 -2q14 -4 28 -14t24 -22t15 -27t5 -31v-7t-1 -6t-1 -7q-2 -10 -5 -23t-6 -56t-3 -93v-1056q0 -40 -28 -68t-68 -28t-68 28t-28 68v344q-102 -72 -224 -72q-194 0 -321 163t-127 381zM312 528 q0 -154 79 -253t177 -99q68 0 129 48t95 134v340q-34 86 -95 134t-129 48q-98 0 -177 -99t-79 -253z" />
<glyph unicode="r" horiz-adv-x="848" d="M192 96v864q0 40 28 68t68 28t68 -28t28 -68v-44q122 140 272 140q40 0 68 -28t28 -68t-28 -68t-68 -28q-22 0 -49 -16t-56 -46t-58 -71t-57 -95t-52 -114v-426q0 -40 -28 -68t-68 -28t-68 28t-28 68z" />
<glyph unicode="s" horiz-adv-x="992" d="M120 216v8q0 46 36 76q14 10 29 15t31 5q20 0 40 -9t34 -25q6 -8 21 -22t43 -36t66 -37t76 -15q96 0 140 41t44 103q0 22 -1 30t-5 27t-16 28t-32 21t-55 19t-83 11q-76 8 -137 31t-100 55t-66 73t-38 81t-11 80q0 130 108 213t252 83q62 0 119 -15t92 -33t67 -43t43 -37 t19 -22q10 -12 15 -27t5 -31q0 -48 -36 -76q-26 -20 -58 -20q-22 0 -43 10t-35 28l-5 5t-12 10t-20 14t-27 16t-34 15t-42 10t-48 4q-78 0 -123 -36t-45 -68q0 -20 4 -35t19 -37t54 -36t99 -20q192 -18 280 -110t88 -218q0 -142 -104 -239t-272 -97q-62 0 -122 20t-98 42 t-74 55t-44 43t-18 22q-4 4 -6 8l-4 8l-4 8t-3 8t-2 9t-1 9z" />
<glyph unicode="t" horiz-adv-x="688" d="M72 960q0 40 28 68t68 28h80v224q0 40 28 68t68 28t68 -28t28 -68v-224h80q40 0 68 -28t28 -68t-28 -68t-68 -28h-80v-768q0 -40 -28 -68t-68 -28t-68 28t-28 68v768h-80q-40 0 -68 28t-28 68z" />
<glyph unicode="u" horiz-adv-x="1160" d="M192 352v608q0 40 28 68t68 28t68 -28t28 -68v-608q0 -82 44 -129t100 -47q58 0 114 32t84 62t50 62v628q0 40 28 68t68 28t68 -28t28 -68v-864q0 -40 -28 -68t-68 -28q-30 0 -55 18t-35 46q-54 -38 -117 -59t-137 -21q-140 0 -238 107t-98 261z" />
<glyph unicode="v" horiz-adv-x="992" d="M96 960q0 20 8 39t24 33t36 20q12 4 28 4q30 0 56 -19t36 -49l212 -674l212 674q6 20 20 36t33 24t39 8q16 0 28 -4q20 -6 36 -20t24 -33t8 -39q0 -16 -4 -28l-272 -864q-10 -30 -35 -49t-57 -19h-32h-32q-30 0 -56 19t-36 49l-272 864q-4 12 -4 28z" />
<glyph unicode="w" horiz-adv-x="1392" d="M96 960q0 32 20 58t52 34q12 4 24 4q32 0 58 -20t34 -52l154 -586l150 510q4 14 14 27t22 22t26 14t30 5h32q16 0 31 -5t27 -15t21 -22t13 -26l150 -510l154 586q2 12 9 24t16 20t20 15t23 10t24 3q6 0 12 -1t12 -3q32 -8 52 -34t20 -58l-4 -24l-224 -864q-6 -28 -33 -50 t-59 -22h-32q-20 0 -39 9t-33 24t-20 35l-156 528l-156 -528q-6 -18 -19 -34t-33 -25t-40 -9h-32q-30 0 -57 20t-35 52l-224 864q-4 12 -4 24z" />
<glyph unicode="x" horiz-adv-x="992" d="M96 96q0 28 16 52l270 418l-222 342q-8 12 -12 25t-4 27q0 52 44 80q24 16 52 16q24 0 46 -12t34 -32l176 -270l176 270q8 14 21 24t28 15t31 5q28 0 52 -16q44 -28 44 -80q0 -28 -16 -52l-222 -342l270 -418q16 -24 16 -52q0 -52 -44 -80q-24 -16 -52 -16q-52 2 -80 44 l-224 344l-224 -344q-28 -44 -80 -44q-28 0 -52 16q-44 28 -44 80z" />
<glyph unicode="y" horiz-adv-x="992" d="M96 -288q0 10 2 18q6 34 33 56t61 22l14 -2h2q6 0 9 -1t9 -1h14q82 0 132 154l36 108l-306 862q-2 4 -3 10t-2 11t-1 11q0 18 8 37t22 33t34 20q4 2 10 3t11 2t11 1q18 0 37 -8t33 -22t20 -34l224 -626l202 624q8 20 22 35t32 23t38 8q16 0 30 -4q12 -4 22 -11t18 -16 t14 -20t9 -22t3 -23q0 -6 -1 -11t-2 -9t-1 -10l-336 -1032q-96 -286 -316 -286h-15t-13 1t-12 1t-10 1l-8 2t-6 1h-4q-22 6 -40 20t-27 33t-9 41z" />
<glyph unicode="z" horiz-adv-x="1008" d="M120 96q0 28 16 52l464 716h-368q-40 0 -68 28t-28 68t28 68t68 28h544h9t10 -1t9 -3t9 -4t9 -4q50 -26 50 -84q0 -28 -16 -52l-464 -716h400q40 0 68 -28t28 -68t-28 -68t-68 -28h-576q-40 0 -68 29t-28 67z" />
<glyph unicode="{" horiz-adv-x="864" d="M192 736v9t1 10t3 9q4 12 10 22t14 18q16 16 40 24q78 24 109 68t31 110q0 28 -6 67t-12 72t-11 75t-5 76q0 110 67 193t243 139q12 4 28 4q20 0 39 -8t33 -24t20 -36q4 -12 4 -28q0 -30 -19 -56t-49 -36q-40 -12 -68 -31t-43 -42t-22 -48t-7 -57q0 -28 6 -67t12 -72 t11 -75t5 -76q0 -150 -118 -240q66 -50 92 -109t26 -131q0 -34 -5 -76t-11 -75t-12 -72t-6 -67q0 -66 31 -110t109 -68q30 -10 49 -36t19 -56q0 -8 -1 -15t-3 -13q-10 -30 -36 -49t-56 -19q-16 0 -28 4q-176 56 -243 139t-67 193q0 52 17 151t17 139q0 66 -31 110t-109 68 q-24 8 -40 24t-24 40q-4 14 -4 28z" />
<glyph unicode="|" d="M192 -64v1600q0 40 28 68t68 28t68 -28t28 -68v-1600q0 -40 -28 -68t-68 -28t-68 28t-28 68z" />
<glyph unicode="}" horiz-adv-x="864" d="M64 -64q0 30 19 56t49 36q78 24 109 68t31 110q0 18 -2 38t-5 40t-7 41t-7 42t-7 42t-5 44t-1 43q0 150 118 240q-118 90 -118 240q0 28 3 60t8 61l10 58t9 58t4 53q0 42 -12 74t-44 60t-84 44q-30 10 -49 36t-19 56q0 16 4 28q10 30 36 49t56 19q16 0 28 -4 q176 -56 243 -139t67 -193q0 -52 -17 -151t-17 -139q0 -66 31 -110t109 -68q24 -8 40 -24q16 -18 24 -40q4 -14 4 -28q0 -8 -1 -15t-3 -13q-8 -24 -24 -40t-40 -24q-78 -24 -109 -68t-31 -110q0 -40 17 -139t17 -151t-13 -95t-45 -88t-96 -82t-156 -67q-4 -2 -9 -2t-9 -1 t-10 -1q-10 0 -20 2t-19 6t-17 10t-15 14t-12 17t-9 19q-4 12 -4 28z" />
<glyph unicode="~" horiz-adv-x="1296" d="M112 432q0 6 1 12t2 11t3 11q86 234 278 234q70 0 163 -31t177 -62t134 -31q82 0 112 82q10 28 35 45t55 17q18 0 34 -6q18 -6 32 -21t22 -33t8 -36t-6 -34q-48 -126 -118 -180t-160 -54q-70 0 -163 31t-177 62t-134 31q-82 0 -112 -82q-10 -28 -35 -45t-55 -17l-34 6 q-28 10 -45 35t-17 55z" />
<glyph unicode="&#xa0;" />
<glyph unicode="&#xa1;" d="M144 898q0 66 47 113t113 47q54 0 91 -37t37 -91q0 -66 -47 -113t-113 -47q-54 0 -91 37t-37 91zM192 -318v800q0 40 28 68t68 28t68 -28t28 -68v-800q0 -40 -28 -68t-68 -28t-68 28t-28 68z" />
<glyph unicode="&#xa2;" horiz-adv-x="1056" d="M120 528q0 218 124 381t316 163q70 0 136 -27t117 -72t91 -105q4 -6 7 -12t5 -13t3 -13t1 -14q0 -12 -3 -23t-8 -22t-14 -20t-19 -15q-22 -16 -52 -16q-52 0 -80 44q-76 116 -184 116q-94 0 -171 -99t-77 -253t77 -253t171 -99q56 0 108 35t88 103q26 50 84 50 q12 0 24 -3t22 -9q50 -26 50 -84q-2 -26 -12 -46q-58 -106 -153 -172t-211 -66q-192 0 -316 163t-124 381zM352 -258l224 1600q4 22 18 41t35 30t43 11h14q34 -6 58 -34t24 -62v-14l-224 -1600q-4 -16 -12 -32t-21 -27t-30 -17t-33 -6h-14q-10 2 -21 7t-20 11t-17 15t-13 19 t-8 21t-3 23v14z" />
<glyph unicode="&#xa3;" horiz-adv-x="1408" d="M160 736q0 40 28 68t68 28h84q-52 106 -52 224q0 188 141 310t343 122q200 0 342 -108t142 -308q0 -40 -28 -68t-68 -28t-68 28t-28 68q0 108 -75 166t-217 58q-134 0 -213 -70t-79 -170q0 -16 5 -35t15 -40l20 -42t24 -51t24 -56h264q40 0 68 -28t28 -68t-28 -68 t-68 -28h-222v-20v-20q0 -86 -24 -188t-78 -220h644q40 0 68 -28t28 -68t-28 -68t-68 -28h-800q-20 0 -40 8q-56 26 -56 88q0 12 3 24t9 22q158 286 158 444q0 28 -4 54h-166q-40 0 -68 28t-28 68z" />
<glyph unicode="&#xa4;" horiz-adv-x="1152" d="M128 384q0 40 28 68l112 112q-22 38 -33 82t-11 90q0 92 44 172l-112 112q-28 28 -28 68q0 18 7 36t21 32q28 28 68 28q18 0 36 -7t32 -21l112 -112q80 44 172 44t172 -44l112 112q6 6 15 12t17 9t17 5t19 2q40 0 68 -28t28 -68q0 -10 -2 -19t-5 -17t-9 -17t-12 -15 l-112 -112q22 -38 33 -82t11 -90q0 -92 -44 -172l112 -112q14 -14 21 -32t7 -36q0 -40 -28 -68t-68 -28q-18 0 -36 7t-32 21l-112 112q-38 -22 -82 -33t-90 -11q-92 0 -172 44l-112 -112q-28 -28 -68 -28q-18 0 -36 7t-32 21t-21 32t-7 36zM416 736q0 -66 47 -113t113 -47 t113 47t47 113t-47 113t-113 47t-113 -47t-47 -113z" />
<glyph unicode="&#xa5;" horiz-adv-x="1312" d="M96 1376q0 48 38 76q12 10 27 15t31 5q48 0 76 -38l388 -508l388 508q28 38 76 38q16 0 31 -5t27 -15q38 -28 38 -76q0 -10 -2 -20t-7 -20t-11 -18l-444 -582v-640q0 -40 -28 -68t-68 -28t-68 28t-28 68v640l-444 582q-6 6 -9 13l-6 14t-4 15t-1 16zM128 496q0 40 28 68 t68 28h864q40 0 68 -28t28 -68t-28 -68t-68 -28h-864q-40 0 -68 28t-28 68zM128 976q0 40 28 68t68 28h864q40 0 68 -28t28 -68t-28 -68t-68 -28h-864q-40 0 -68 28t-28 68z" />
<glyph unicode="&#xa6;" d="M192 -64v608q0 40 28 68t68 28t68 -28t28 -68v-608q0 -40 -28 -68t-68 -28t-68 28t-28 68zM192 928v608q0 40 28 68t68 28t68 -28t28 -68v-608q0 -40 -28 -68t-68 -28t-68 28t-28 68z" />
<glyph unicode="&#xa7;" horiz-adv-x="1248" d="M144 536q0 98 50 181t138 137q-160 104 -160 272q0 172 135 267t317 95q96 0 177 -28t127 -63t81 -81t46 -68t17 -36q4 -14 4 -28q0 -30 -17 -56t-47 -36q-8 -4 -16 -5t-16 -1q-30 0 -55 18t-37 48q-2 4 -4 9t-12 21t-22 29t-34 29t-48 28t-64 20t-80 8q-126 0 -193 -48 t-67 -122q0 -12 1 -22t8 -27t18 -30t34 -29t54 -29t79 -26t108 -23q114 -16 201 -55t137 -92t75 -114t25 -127q0 -98 -50 -181t-138 -137q160 -104 160 -272q0 -172 -135 -267t-317 -95q-54 0 -105 9t-89 24t-72 35t-59 41t-46 45t-34 43t-23 37t-14 27t-6 15q-4 14 -4 28 q0 30 17 56t47 36q16 6 32 6q30 0 55 -18t37 -48q2 -8 7 -18t26 -34t48 -43t76 -34t107 -15q126 0 193 48t67 122q0 16 -2 28t-11 31t-29 35t-52 34t-85 32t-123 26q-222 32 -330 140t-108 248zM336 536q0 -30 8 -54t32 -54t82 -53t144 -37q144 2 227 68t83 146q0 24 -4 42 t-19 44t-43 45t-79 38t-121 29q-98 -2 -171 -36t-106 -81t-33 -97z" />
<glyph unicode="&#xa8;" horiz-adv-x="960" d="M192 1280v96q0 40 28 68t68 28t68 -28t28 -68v-96q0 -40 -28 -68t-68 -28t-68 28t-28 68zM576 1280v96q0 40 28 68t68 28t68 -28t28 -68v-96q0 -40 -28 -68t-68 -28t-68 28t-28 68z" />
<glyph unicode="&#xa9;" horiz-adv-x="1472" d="M0 736q0 306 215 521t521 215t521 -215t215 -521t-215 -521t-521 -215t-521 215t-215 521zM192 736q0 -226 159 -385t385 -159t385 159t159 385t-159 385t-385 159t-385 -159t-159 -385zM392 736q0 168 96 296t248 128q56 0 105 -19t77 -42t50 -55t28 -45t10 -23 q6 -16 6 -32q0 -30 -17 -55t-45 -35q-18 -6 -34 -6q-64 0 -90 62q-24 58 -90 58q-52 0 -102 -64t-50 -168t50 -168t102 -64q18 0 36 8t31 20t21 25t12 25q6 34 33 58t63 24q40 0 68 -28t28 -68q0 -44 -29 -101t-99 -106t-164 -49q-152 0 -248 128t-96 296z" />
<glyph unicode="&#xaa;" horiz-adv-x="880" d="M160 1160q0 126 75 223t197 97q56 0 106 -24q24 16 54 16q40 0 68 -28t28 -68v-432q0 -40 -28 -68t-68 -28q-30 0 -54 16q-50 -24 -106 -24q-122 0 -197 97t-75 223zM352 1160q0 -60 27 -94t53 -34q40 0 64 56v148q-26 52 -64 52q-26 0 -53 -34t-27 -94z" />
<glyph unicode="&#xab;" horiz-adv-x="1536" d="M162 530q0 40 26 66l432 432q6 6 15 12t17 9t17 5t19 2q40 0 68 -28q8 -10 15 -21t10 -23t3 -24q0 -40 -28 -68l-364 -364l364 -364q28 -28 28 -68t-28 -68t-68 -28t-68 28l-432 432q-26 26 -26 70zM722 530q0 40 26 66l432 432q28 28 68 28t68 -28q14 -14 21 -32t7 -36 q0 -40 -28 -68l-364 -364l364 -364q14 -14 21 -32t7 -36q0 -40 -28 -68t-68 -28t-68 28l-432 432q-12 12 -19 31t-7 39z" />
<glyph unicode="&#xac;" horiz-adv-x="1280" d="M112 920q0 40 28 68t68 28h864q40 0 68 -31t28 -65v-368q0 -40 -28 -68t-68 -28t-68 28t-28 68v272h-768q-40 0 -68 28t-28 68z" />
<glyph unicode="&#xad;" horiz-adv-x="832" d="M64 528q0 40 28 68t68 28h512q40 0 68 -28t28 -68t-28 -68t-68 -28h-512q-40 0 -68 28t-28 68z" />
<glyph unicode="&#xae;" horiz-adv-x="1472" d="M0 736q0 306 215 521t521 215t521 -215t215 -521t-215 -521t-521 -215t-521 215t-215 521zM192 736q0 -226 159 -385t385 -159t385 159t159 385t-159 385t-385 159t-385 -159t-159 -385zM432 416v336v304q0 40 31 68t65 28h264q106 0 189 -62t83 -186q0 -76 -33 -129 t-89 -83l102 -238q8 -18 8 -38q0 -28 -16 -52t-42 -36q-10 -4 -19 -6t-19 -2q-18 0 -35 7t-31 20t-22 31l-120 278h-124v-240q0 -40 -28 -68t-68 -28t-68 28t-28 68zM624 848h168q52 0 66 11t14 45t-14 45t-66 11h-168v-112z" />
<glyph unicode="&#xaf;" horiz-adv-x="640" d="M32 1376q0 40 28 68t68 28h384q40 0 68 -28t28 -68t-28 -68t-68 -28h-384q-40 0 -68 28t-28 68z" />
<glyph unicode="&#xb0;" horiz-adv-x="960" d="M128 1120q0 146 103 249t249 103t249 -103t103 -249t-103 -249t-249 -103t-249 103t-103 249zM320 1120q0 -66 47 -113t113 -47t113 47t47 113t-47 113t-113 47t-113 -47t-47 -113z" />
<glyph unicode="&#xb1;" horiz-adv-x="1280" d="M112 112q0 40 28 68t68 28h864q40 0 68 -28t28 -68t-28 -68t-68 -28h-864q-40 0 -68 28t-28 68zM112 928q0 40 28 68t68 28h336v336q0 40 28 68t68 28t68 -28t28 -68v-336h336q40 0 68 -28t28 -68t-28 -68t-68 -28h-336v-336q0 -40 -28 -68t-68 -28t-68 28t-28 68v336 h-336q-40 0 -68 28t-28 68z" />
<glyph unicode="&#xb2;" horiz-adv-x="1056" d="M120 1788q0 162 116 249t272 87q160 0 273 -98t113 -250q0 -96 -55 -166t-165 -136q-80 -48 -111 -67t-80 -51t-66 -49t-40 -44t-32 -52t-13 -59h508q40 0 68 -28t28 -68t-28 -68t-68 -28h-612q-34 0 -65 28t-31 68q0 238 146 378q72 72 286 198h2l2 2l2 2h2l2 2 q66 38 93 61t31 36t4 41q0 66 -51 111t-143 45q-196 0 -196 -144q0 -40 -28 -68t-68 -28t-68 28t-28 68z" />
<glyph unicode="&#xb3;" horiz-adv-x="1056" d="M102 2016q0 40 28 68t68 28h552q34 0 65 -28t31 -68v-7t-2 -7q0 -4 -1 -11t-6 -25t-11 -37t-18 -45t-26 -52t-36 -56t-46 -58q116 -44 185 -146t69 -228q0 -168 -128 -282t-302 -114q-124 0 -225 60t-155 160q-6 10 -9 22t-3 24t4 25t10 24t15 20t21 15q22 12 46 12 q58 0 84 -50q30 -54 86 -87t126 -33q100 0 169 62t69 142q0 92 -58 151t-164 59q-18 0 -53 -8t-63 -20l-16 -4t-18 -2q-20 0 -38 8q-36 16 -50 50q0 2 -1 3l-1 1q-6 16 -6 34q0 20 8 38q16 36 50 50q176 74 258 216h-412q-40 0 -68 28t-28 68z" />
<glyph unicode="&#xb4;" d="M0 1470q0 16 6 33t18 31t30 22l384 192q6 4 13 6t14 3t15 1q60 0 86 -54q10 -18 10 -42q0 -16 -6 -33t-18 -31t-30 -22l-384 -192q-10 -4 -20 -7t-22 -3q-26 0 -50 14t-36 40q-10 18 -10 42z" />
<glyph unicode="&#xb5;" horiz-adv-x="1160" d="M192 -288v640v576v32q0 40 28 68t68 28t68 -28t28 -68v-32v-576q0 -82 44 -129t100 -47q58 0 114 32t84 62t50 62v628q0 40 28 68t68 28t68 -28t28 -68v-864q0 -40 -28 -68t-68 -28q-30 0 -55 18t-35 46q-54 -38 -117 -59t-137 -21q-76 0 -144 34v-306q0 -40 -28 -68 t-68 -28t-68 28t-28 68z" />
<glyph unicode="&#xb6;" horiz-adv-x="1312" d="M96 1040q0 202 132 317t316 115h480q34 0 65 -28t31 -68v-1664q0 -40 -28 -68t-68 -28t-68 28t-28 68v1568h-192v-1568q0 -40 -28 -68t-68 -28t-68 28t-28 68v896q-184 0 -316 115t-132 317z" />
<glyph unicode="&#xb7;" d="M144 720q0 66 47 113t113 47q54 0 91 -37t37 -91q0 -66 -47 -113t-113 -47q-54 0 -91 37t-37 91z" />
<glyph unicode="&#xb8;" horiz-adv-x="640" d="M96 -144q0 26 12 48l128 224q28 48 84 48q26 0 48 -12q48 -28 48 -84q0 -26 -12 -48l-54 -94q122 -26 168 -108q26 -46 26 -102q0 -14 -2 -27t-5 -25t-8 -25t-11 -25q-44 -76 -125 -99t-201 -23q-40 0 -68 28t-28 68t28 68t68 28q16 0 32 1t29 2t25 3t22 4t18 4t14 4 t10 3t6 3t4 2v6v6q-4 4 -20 9t-55 11t-85 6q-40 0 -68 29t-28 67z" />
<glyph unicode="&#xb9;" d="M192 1056v960q0 40 28 68t68 28t68 -28t28 -68v-960q0 -40 -28 -68t-68 -28t-68 28t-28 68z" />
<glyph unicode="&#xba;" horiz-adv-x="864" d="M160 1160q0 126 75 223t197 97t197 -97t75 -223t-75 -223t-197 -97t-197 97t-75 223zM352 1160q0 -60 27 -94t53 -34t53 34t27 94t-27 94t-53 34t-53 -34t-27 -94z" />
<glyph unicode="&#xbb;" horiz-adv-x="1536" d="M192 96q0 40 28 68l364 364l-364 364q-6 6 -12 15t-9 17t-5 17t-2 19q0 40 28 68t68 28t68 -28l432 -432q14 -14 20 -31t6 -35q0 -44 -26 -70l-432 -432q-28 -28 -68 -28q-40 2 -68 28q-8 10 -15 21t-10 23t-3 24zM752 96q0 40 28 68l364 364l-364 364q-14 14 -21 32 t-7 36q0 40 28 68q14 14 32 21t36 7q40 0 68 -28l432 -432q26 -26 26 -66q0 -44 -26 -70l-432 -432q-28 -28 -68 -28q-12 0 -24 3t-23 10t-21 15q-28 28 -28 68z" />
<glyph unicode="&#xbc;" horiz-adv-x="1248" d="M96 736q0 40 28 68t68 28h864q40 0 68 -28t28 -68t-28 -68t-68 -28h-864q-40 0 -68 28t-28 68zM192 -118q0 8 2 17t5 17t7 15t10 13l460 530q28 34 72 34h60h32q40 0 68 -31t28 -65v-528h72q40 0 68 -28t28 -68t-28 -68t-68 -28h-72v-240q0 -40 -28 -68t-68 -28t-68 28 t-28 68v240h-456q-40 0 -68 31t-28 65v26v68zM416 -116h328v376zM528 1056v960q0 40 28 68t68 28t68 -28t28 -68v-960q0 -40 -28 -68t-68 -28t-68 28t-28 68z" />
<glyph unicode="&#xbd;" horiz-adv-x="1248" d="M96 736q0 40 28 68t68 28h864q40 0 68 -28t28 -68t-28 -68t-68 -28h-864q-40 0 -68 28t-28 68zM216 188q0 162 116 249t272 87q160 0 273 -98t113 -250q0 -66 -28 -121t-74 -96t-118 -85q-80 -48 -111 -67t-80 -51t-66 -49t-40 -44t-32 -52t-13 -59h508q40 0 68 -28 t28 -68t-28 -68t-68 -28h-612q-34 0 -65 28t-31 68q0 68 12 125t27 100t50 87t61 72t82 67t91 60t109 65q8 4 10 6q66 38 93 61t31 36t4 41q0 66 -51 111t-143 45q-196 0 -196 -144q0 -40 -28 -68t-68 -28t-68 28t-28 68zM528 1056v960q0 40 28 68t68 28t68 -28t28 -68v-960 q0 -40 -28 -68t-68 -28t-68 28t-28 68z" />
<glyph unicode="&#xbe;" horiz-adv-x="1248" d="M96 736q0 40 28 68t68 28h864q40 0 68 -28t28 -68t-28 -68t-68 -28h-864q-40 0 -68 28t-28 68zM192 -118q0 8 2 17t5 17t7 15t10 13l460 530q28 34 72 34h60h32q40 0 68 -31t28 -65v-528h72q40 0 68 -28t28 -68t-28 -68t-68 -28h-72v-240q0 -40 -28 -68t-68 -28t-68 28 t-28 68v240h-456q-40 0 -68 31t-28 65v26v68zM198 2016q0 40 28 68t68 28h552q34 0 65 -28t31 -68v-7t-2 -7q0 -4 -1 -11t-6 -25t-11 -37t-18 -45t-26 -52t-36 -56t-46 -58q116 -44 185 -146t69 -228q0 -168 -128 -282t-302 -114q-124 0 -225 60t-155 160q-6 10 -9 22t-3 24 t4 25t10 24t15 20t21 15q22 12 46 12q58 0 84 -50q30 -54 86 -87t126 -33q100 0 169 62t69 142q0 92 -58 151t-164 59q-18 0 -53 -8t-63 -20l-16 -4t-18 -2q-20 0 -38 8q-36 16 -50 50q0 2 -1 3l-1 1q-6 16 -6 34q0 20 8 38q16 36 50 50q176 74 258 216h-412q-40 0 -68 28 t-28 68zM416 -116h328v376z" />
<glyph unicode="&#xbf;" horiz-adv-x="1280" d="M192 -48q0 30 4 58t11 53t19 47t24 42t29 38t34 33t37 31t40 28t42 26q70 40 96 67t37 73t11 144q0 40 28 68t68 28t68 -28t28 -68q0 -170 -55 -272t-185 -180q-32 -18 -51 -30t-37 -26t-28 -27t-17 -29t-9 -34t-2 -42q0 -78 71 -127t217 -49q140 0 214 57t74 167 q0 40 28 68t68 28t68 -28t28 -68q0 -200 -141 -308t-339 -108t-339 94t-141 274zM528 912q0 66 47 113t113 47q54 0 91 -37t37 -91q0 -66 -47 -113t-113 -47q-54 0 -91 37t-37 91z" />
<glyph unicode="&#xc0;" horiz-adv-x="1376" d="M96 96q0 16 6 32l440 1280q10 28 36 46t54 18h56h56q30 0 56 -19t34 -45l440 -1280q6 -16 6 -32q0 -20 -8 -38t-23 -32t-33 -20q-16 -6 -32 -6q-30 0 -55 18t-35 46l-78 224h-656l-78 -224q-10 -28 -35 -46t-55 -18q-18 0 -32 6q-14 4 -26 14t-20 22t-13 26t-5 28z M400 1952q0 24 10 42q26 54 86 54q24 0 42 -10l384 -192q54 -26 54 -86q0 -8 -1 -15t-3 -14t-6 -13q-26 -54 -86 -54q-24 0 -42 10l-384 192q-26 12 -40 36t-14 50zM426 480h524l-262 764z" />
<glyph unicode="&#xc1;" horiz-adv-x="1376" d="M96 96q0 16 6 32l440 1280q10 28 36 46t54 18h56h56q30 0 56 -19t34 -45l440 -1280q6 -16 6 -32q0 -20 -8 -38t-23 -32t-33 -20q-16 -6 -32 -6q-30 0 -55 18t-35 46l-78 224h-656l-78 -224q-10 -28 -35 -46t-55 -18q-18 0 -32 6q-14 4 -26 14t-20 22t-13 26t-5 28z M400 1760q0 16 6 33t18 31t30 22l384 192q6 4 13 6t14 3t15 1q60 0 86 -54q10 -18 10 -42q0 -16 -6 -33t-18 -31t-30 -22l-384 -192q-10 -4 -20 -7t-22 -3q-26 0 -50 14t-36 40q-10 18 -10 42zM426 480h524l-262 764z" />
<glyph unicode="&#xc2;" horiz-adv-x="1376" d="M96 96q0 16 6 32l440 1280q10 28 36 46t54 18h56h56q30 0 56 -19t34 -45l440 -1280q6 -16 6 -32q0 -20 -8 -38t-23 -32t-33 -20q-16 -6 -32 -6q-30 0 -55 18t-35 46l-78 224h-656l-78 -224q-10 -28 -35 -46t-55 -18q-18 0 -32 6q-14 4 -26 14t-20 22t-13 26t-5 28z M368 1760q0 22 11 43t29 35l224 160q12 8 26 13t30 5q32 0 56 -18l224 -160q40 -28 40 -78q0 -32 -18 -56q-28 -40 -78 -40q-32 0 -56 18l-168 120l-168 -120q-24 -18 -56 -18q-50 0 -78 40q-18 24 -18 56zM426 480h524l-262 764z" />
<glyph unicode="&#xc3;" horiz-adv-x="1376" d="M96 96q0 16 6 32l440 1280q10 28 36 46t54 18h56h56q30 0 56 -19t34 -45l440 -1280q6 -16 6 -32q0 -20 -8 -38t-23 -32t-33 -20q-16 -6 -32 -6q-30 0 -55 18t-35 46l-78 224h-656l-78 -224q-10 -28 -35 -46t-55 -18q-18 0 -32 6q-14 4 -26 14t-20 22t-13 26t-5 28z M304 1762q0 10 2 20q4 12 8 25t24 48t45 61t72 47t105 21q74 0 125 -20t70 -44t35 -44t26 -20q20 0 36 12t22 23t8 19q10 36 36 55t58 19h8t8 -1t8 -1q32 -10 52 -36t20 -58q0 -12 -2 -22l-4 -12t-11 -29t-20 -41t-32 -41t-46 -40t-62 -28t-79 -11q-74 0 -125 20t-70 44 t-34 44t-27 20t-23 -5t-18 -11t-13 -14t-9 -14t-3 -10q-6 -22 -20 -39t-33 -26t-41 -9q-6 0 -12 1t-12 1q-22 6 -38 21t-25 34t-9 41zM426 480h524l-262 764z" />
<glyph unicode="&#xc4;" horiz-adv-x="1376" d="M96 96q0 16 6 32l440 1280q10 28 36 46t54 18h56h56q30 0 56 -19t34 -45l440 -1280q6 -16 6 -32q0 -20 -8 -38t-23 -32t-33 -20q-16 -6 -32 -6q-30 0 -55 18t-35 46l-78 224h-656l-78 -224q-10 -28 -35 -46t-55 -18q-18 0 -32 6q-14 4 -26 14t-20 22t-13 26t-5 28z M400 1760v96q0 40 28 68t68 28t68 -28t28 -68v-96q0 -40 -28 -68t-68 -28t-68 28t-28 68zM426 480h524l-262 764zM784 1760v96q0 40 28 68t68 28t68 -28t28 -68v-96q0 -40 -28 -68t-68 -28t-68 28t-28 68z" />
<glyph unicode="&#xc5;" horiz-adv-x="1376" d="M96 96q0 16 6 32l440 1280q10 28 36 46t54 18h56h56q30 0 56 -19t34 -45l440 -1280q6 -16 6 -32q0 -20 -8 -38t-23 -32t-33 -20q-16 -6 -32 -6q-30 0 -55 18t-35 46l-78 224h-656l-78 -224q-10 -28 -35 -46t-55 -18q-18 0 -32 6q-14 4 -26 14t-20 22t-13 26t-5 28z M426 480h524l-262 764zM432 1920q0 106 75 181t181 75t181 -75t75 -181t-75 -181t-181 -75t-181 75t-75 181zM624 1920q0 -26 19 -45t45 -19t45 19t19 45t-19 45t-45 19t-45 -19t-19 -45z" />
<glyph unicode="&#xc6;" horiz-adv-x="1824" d="M96 96q0 12 3 22t7 20l632 1280q12 24 36 39t50 15h64h48h624q40 0 68 -28t28 -68t-28 -68t-68 -28h-528v-408h336q40 0 68 -28t28 -68t-28 -68t-68 -28h-336v-488h552q40 0 68 -28t28 -68t-28 -68t-68 -28h-648q-40 0 -68 28t-28 68v192h-446l-116 -234q-26 -54 -86 -54 q-22 0 -42 10q-54 26 -54 86zM488 480h352v712z" />
<glyph unicode="&#xc7;" horiz-adv-x="1368" d="M144 736q0 196 74 368t211 278t307 106q94 0 176 -32t128 -71t84 -91t47 -73t15 -37t6 -32q0 -30 -17 -55t-45 -35l-16 -4t-16 -2q-30 0 -55 16t-35 42q-8 18 -20 39t-43 58t-86 61t-123 24q-156 0 -278 -160t-122 -400t123 -400t277 -160q64 0 120 28t92 68t57 75t27 59 q2 24 15 45t34 33t47 12q40 0 68 -28t28 -68q0 -42 -30 -108t-86 -137t-155 -121t-217 -50q-254 0 -423 225t-169 527zM512 -144q0 26 12 48l128 224q28 48 84 48q26 0 48 -12q48 -28 48 -84q0 -26 -12 -48l-54 -94q122 -26 168 -108q26 -46 26 -102q0 -14 -2 -27t-5 -25 t-8 -25t-11 -25q-44 -76 -125 -99t-201 -23q-40 0 -68 28t-28 68t28 68t68 28q16 0 32 1t29 2t25 3t22 4t18 4t14 4t10 3t6 3t4 2v6v6q-4 4 -20 9t-55 11t-85 6q-40 0 -68 29t-28 67z" />
<glyph unicode="&#xc8;" horiz-adv-x="1392" d="M192 96v1280q0 34 28 65t68 31h832q40 0 68 -28t28 -68t-28 -68t-68 -28h-736v-408h480q40 0 68 -28t28 -68t-28 -68t-68 -28h-480v-488h768q40 0 68 -28t28 -68t-28 -68t-68 -28h-864q-34 0 -65 28t-31 68zM408 1952q0 24 10 42q26 54 86 54q24 0 42 -10l384 -192 q54 -26 54 -86q0 -8 -1 -15t-3 -14t-6 -13q-26 -54 -86 -54q-24 0 -42 10l-384 192q-26 12 -40 36t-14 50z" />
<glyph unicode="&#xc9;" horiz-adv-x="1392" d="M192 96v1280q0 34 28 65t68 31h832q40 0 68 -28t28 -68t-28 -68t-68 -28h-736v-408h480q40 0 68 -28t28 -68t-28 -68t-68 -28h-480v-488h768q40 0 68 -28t28 -68t-28 -68t-68 -28h-864q-34 0 -65 28t-31 68zM408 1760q0 16 6 33t18 31t30 22l384 192q6 4 13 6t14 3t15 1 q60 0 86 -54q10 -18 10 -42q0 -16 -6 -33t-18 -31t-30 -22l-384 -192q-10 -4 -20 -7t-22 -3q-26 0 -50 14t-36 40q-10 18 -10 42z" />
<glyph unicode="&#xca;" horiz-adv-x="1392" d="M192 96v1280q0 34 28 65t68 31h832q40 0 68 -28t28 -68t-28 -68t-68 -28h-736v-408h480q40 0 68 -28t28 -68t-28 -68t-68 -28h-480v-488h768q40 0 68 -28t28 -68t-28 -68t-68 -28h-864q-34 0 -65 28t-31 68zM376 1760q0 22 11 43t29 35l224 160q12 8 26 13t30 5 q32 0 56 -18l224 -160q40 -28 40 -78q0 -32 -18 -56q-28 -40 -78 -40q-32 0 -56 18l-168 120l-168 -120q-24 -18 -56 -18q-50 0 -78 40q-18 24 -18 56z" />
<glyph unicode="&#xcb;" horiz-adv-x="1392" d="M192 96v1280q0 34 28 65t68 31h832q40 0 68 -28t28 -68t-28 -68t-68 -28h-736v-408h480q40 0 68 -28t28 -68t-28 -68t-68 -28h-480v-488h768q40 0 68 -28t28 -68t-28 -68t-68 -28h-864q-34 0 -65 28t-31 68zM408 1760v96q0 40 28 68t68 28t68 -28t28 -68v-96 q0 -40 -28 -68t-68 -28t-68 28t-28 68zM792 1760v96q0 40 28 68t68 28t68 -28t28 -68v-96q0 -40 -28 -68t-68 -28t-68 28t-28 68z" />
<glyph unicode="&#xcc;" horiz-adv-x="672" d="M48 1952q0 24 10 42q26 54 86 54q24 0 42 -10l384 -192q54 -26 54 -86q0 -8 -1 -15t-3 -14t-6 -13q-26 -54 -86 -54q-24 0 -42 10l-384 192q-26 12 -40 36t-14 50zM240 96v1280q0 40 28 68t68 28t68 -28t28 -68v-1280q0 -40 -28 -68t-68 -28t-68 28t-28 68z" />
<glyph unicode="&#xcd;" horiz-adv-x="672" d="M48 1760q0 16 6 33t18 31t30 22l384 192q6 4 13 6t14 3t15 1q60 0 86 -54q10 -18 10 -42q0 -16 -6 -33t-18 -31t-30 -22l-384 -192q-10 -4 -20 -7t-22 -3q-26 0 -50 14t-36 40q-10 18 -10 42zM240 96v1280q0 40 28 68t68 28t68 -28t28 -68v-1280q0 -40 -28 -68t-68 -28 t-68 28t-28 68z" />
<glyph unicode="&#xce;" horiz-adv-x="672" d="M16 1760q0 22 11 43t29 35l224 160q12 8 26 13t30 5q32 0 56 -18l224 -160q40 -28 40 -78q0 -32 -18 -56q-28 -40 -78 -40q-32 0 -56 18l-168 120l-168 -120q-24 -18 -56 -18q-50 0 -78 40q-18 24 -18 56zM240 96v1280q0 40 28 68t68 28t68 -28t28 -68v-1280 q0 -40 -28 -68t-68 -28t-68 28t-28 68z" />
<glyph unicode="&#xcf;" horiz-adv-x="672" d="M48 1760v96q0 40 28 68t68 28t68 -28t28 -68v-96q0 -40 -28 -68t-68 -28t-68 28t-28 68zM240 96v1280q0 40 28 68t68 28t68 -28t28 -68v-1280q0 -40 -28 -68t-68 -28t-68 28t-28 68zM432 1760v96q0 40 28 68t68 28t68 -28t28 -68v-96q0 -40 -28 -68t-68 -28t-68 28 t-28 68z" />
<glyph unicode="&#xd0;" horiz-adv-x="1392" d="M0 776q0 40 28 68t68 28h96v504q0 40 31 68t65 28h416q60 0 127 -22t143 -77t136 -135t99 -211t39 -291t-39 -291t-99 -211t-136 -135t-143 -77t-127 -22h-416q-40 0 -68 31t-28 65v584h-96q-40 0 -68 28t-28 68zM384 192h320q28 0 66 11t90 48t94 93t72 159t30 233 t-30 233t-72 159t-94 93t-90 48t-66 11h-320v-408h192q40 0 68 -28t28 -68t-28 -68t-68 -28h-192v-488z" />
<glyph unicode="&#xd1;" horiz-adv-x="1440" d="M192 96v1280q0 40 31 68t65 28h32h48q26 0 49 -14t35 -34l604 -1076v1028q0 40 28 68t68 28t68 -28t28 -68v-1280q0 -34 -28 -65t-68 -31h-28h-36q-56 0 -84 48l-620 1104v-1056q0 -40 -28 -68t-68 -28t-68 28t-28 68zM336 1762q0 10 2 20q4 12 8 25t24 48t45 61t72 47 t105 21q74 0 125 -20t70 -44t35 -44t26 -20q20 0 36 12t22 23t8 19q10 36 36 55t58 19h8t8 -1t8 -1q32 -10 52 -36t20 -58q0 -12 -2 -22l-4 -12t-11 -29t-20 -41t-32 -41t-46 -40t-62 -28t-79 -11q-74 0 -125 20t-70 44t-34 44t-27 20t-23 -5t-18 -11t-13 -14t-9 -14t-3 -10 q-6 -22 -20 -39t-33 -26t-41 -9q-6 0 -12 1t-12 1q-22 6 -38 21t-25 34t-9 41z" />
<glyph unicode="&#xd2;" horiz-adv-x="1472" d="M144 736q0 196 74 368t211 278t307 106t307 -106t211 -278t74 -368t-74 -368t-211 -278t-307 -106t-307 106t-211 278t-74 368zM336 736q0 -240 122 -400t278 -160t278 160t122 400t-122 400t-278 160t-278 -160t-122 -400zM448 1952q0 24 10 42q26 54 86 54q24 0 42 -10 l384 -192q54 -26 54 -86q0 -8 -1 -15t-3 -14t-6 -13q-26 -54 -86 -54q-24 0 -42 10l-384 192q-26 12 -40 36t-14 50z" />
<glyph unicode="&#xd3;" horiz-adv-x="1472" d="M144 736q0 196 74 368t211 278t307 106t307 -106t211 -278t74 -368t-74 -368t-211 -278t-307 -106t-307 106t-211 278t-74 368zM336 736q0 -240 122 -400t278 -160t278 160t122 400t-122 400t-278 160t-278 -160t-122 -400zM448 1760q0 16 6 33t18 31t30 22l384 192 q6 4 13 6t14 3t15 1q60 0 86 -54q10 -18 10 -42q0 -16 -6 -33t-18 -31t-30 -22l-384 -192q-10 -4 -20 -7t-22 -3q-26 0 -50 14t-36 40q-10 18 -10 42z" />
<glyph unicode="&#xd4;" horiz-adv-x="1472" d="M144 736q0 196 74 368t211 278t307 106t307 -106t211 -278t74 -368t-74 -368t-211 -278t-307 -106t-307 106t-211 278t-74 368zM336 736q0 -240 122 -400t278 -160t278 160t122 400t-122 400t-278 160t-278 -160t-122 -400zM416 1760q0 22 11 43t29 35l224 160 q12 8 26 13t30 5q32 0 56 -18l224 -160q40 -28 40 -78q0 -32 -18 -56q-28 -40 -78 -40q-32 0 -56 18l-168 120l-168 -120q-24 -18 -56 -18q-50 0 -78 40q-18 24 -18 56z" />
<glyph unicode="&#xd5;" horiz-adv-x="1472" d="M144 736q0 196 74 368t211 278t307 106t307 -106t211 -278t74 -368t-74 -368t-211 -278t-307 -106t-307 106t-211 278t-74 368zM336 736q0 -240 122 -400t278 -160t278 160t122 400t-122 400t-278 160t-278 -160t-122 -400zM352 1762q0 10 2 20q4 12 8 25t24 48t45 61 t72 47t105 21q74 0 125 -20t70 -44t35 -44t26 -20q20 0 36 12t22 23t8 19q10 36 36 55t58 19h8t8 -1t8 -1q32 -10 52 -36t20 -58q0 -12 -2 -22l-4 -12t-11 -29t-20 -41t-32 -41t-46 -40t-62 -28t-79 -11q-74 0 -125 20t-70 44t-34 44t-27 20t-23 -5t-18 -11t-13 -14t-9 -14 t-3 -10q-6 -22 -20 -39t-33 -26t-41 -9q-6 0 -12 1t-12 1q-22 6 -38 21t-25 34t-9 41z" />
<glyph unicode="&#xd6;" horiz-adv-x="1472" d="M144 736q0 196 74 368t211 278t307 106t307 -106t211 -278t74 -368t-74 -368t-211 -278t-307 -106t-307 106t-211 278t-74 368zM336 736q0 -240 122 -400t278 -160t278 160t122 400t-122 400t-278 160t-278 -160t-122 -400zM448 1760v96q0 40 28 68t68 28t68 -28t28 -68 v-96q0 -40 -28 -68t-68 -28t-68 28t-28 68zM832 1760v96q0 40 28 68t68 28t68 -28t28 -68v-96q0 -40 -28 -68t-68 -28t-68 28t-28 68z" />
<glyph unicode="&#xd7;" horiz-adv-x="1280" d="M192 384q0 40 28 68l284 284l-284 284q-28 28 -28 68q0 12 3 24t10 23t15 21q28 28 68 28q18 0 36 -7t32 -21l284 -284l284 284q28 28 68 28t68 -28t28 -68t-28 -68l-284 -284l284 -284q14 -14 21 -32t7 -36t-7 -36t-21 -32q-28 -28 -68 -28q-18 0 -36 7t-32 21l-284 284 l-284 -284q-28 -28 -68 -28q-18 0 -36 7t-32 21q-8 10 -15 21t-10 23t-3 24z" />
<glyph unicode="&#xd8;" horiz-adv-x="1472" d="M144 736q0 196 74 368t211 278t307 106t307 -106t211 -278t74 -368t-74 -368t-211 -278t-307 -106t-307 106t-211 278t-74 368zM160 96q0 32 20 58l960 1280q6 8 15 16t19 12t21 7t21 3q32 0 58 -20q18 -12 28 -33t10 -43q0 -32 -20 -58l-960 -1280q-12 -18 -33 -28 t-43 -10q-16 0 -31 5t-27 15q-38 28 -38 76zM336 736q0 -240 122 -400t278 -160t278 160t122 400t-122 400t-278 160t-278 -160t-122 -400z" />
<glyph unicode="&#xd9;" horiz-adv-x="1424" d="M192 432v944q0 40 28 68t68 28t68 -28t28 -68v-944q0 -100 93 -178t235 -78t235 78t93 178v944q0 40 28 68t68 28t68 -28t28 -68v-944q0 -192 -155 -320t-365 -128t-365 128t-155 320zM424 1952q0 24 10 42q26 54 86 54q24 0 42 -10l384 -192q54 -26 54 -86q0 -8 -1 -15 t-3 -14t-6 -13q-26 -54 -86 -54q-24 0 -42 10l-384 192q-26 12 -40 36t-14 50z" />
<glyph unicode="&#xda;" horiz-adv-x="1424" d="M192 432v944q0 40 28 68t68 28t68 -28t28 -68v-944q0 -100 93 -178t235 -78t235 78t93 178v944q0 40 28 68t68 28t68 -28t28 -68v-944q0 -192 -155 -320t-365 -128t-365 128t-155 320zM424 1760q0 16 6 33t18 31t30 22l384 192q6 4 13 6t14 3t15 1q60 0 86 -54 q10 -18 10 -42q0 -16 -6 -33t-18 -31t-30 -22l-384 -192q-10 -4 -20 -7t-22 -3q-26 0 -50 14t-36 40q-10 18 -10 42z" />
<glyph unicode="&#xdb;" horiz-adv-x="1424" d="M192 432v944q0 40 28 68t68 28t68 -28t28 -68v-944q0 -100 93 -178t235 -78t235 78t93 178v944q0 40 28 68t68 28t68 -28t28 -68v-944q0 -192 -155 -320t-365 -128t-365 128t-155 320zM392 1760q0 22 11 43t29 35l224 160q12 8 26 13t30 5q32 0 56 -18l224 -160 q40 -28 40 -78q0 -32 -18 -56q-28 -40 -78 -40q-32 0 -56 18l-168 120l-168 -120q-24 -18 -56 -18q-50 0 -78 40q-18 24 -18 56z" />
<glyph unicode="&#xdc;" horiz-adv-x="1424" d="M192 432v944q0 40 28 68t68 28t68 -28t28 -68v-944q0 -100 93 -178t235 -78t235 78t93 178v944q0 40 28 68t68 28t68 -28t28 -68v-944q0 -192 -155 -320t-365 -128t-365 128t-155 320zM424 1760v96q0 40 28 68t68 28t68 -28t28 -68v-96q0 -40 -28 -68t-68 -28t-68 28 t-28 68zM808 1760v96q0 40 28 68t68 28t68 -28t28 -68v-96q0 -40 -28 -68t-68 -28t-68 28t-28 68z" />
<glyph unicode="&#xdd;" horiz-adv-x="1312" d="M96 1376q0 48 38 76q12 10 27 15t31 5q48 0 76 -38l388 -508l388 508q28 38 76 38q16 0 31 -5t27 -15q38 -28 38 -76q0 -10 -2 -20t-7 -20t-11 -18l-444 -582v-640q0 -40 -28 -68t-68 -28t-68 28t-28 68v640l-444 582q-6 6 -9 13l-6 14t-4 15t-1 16zM368 1760q0 16 6 33 t18 31t30 22l384 192q6 4 13 6t14 3t15 1q60 0 86 -54q10 -18 10 -42q0 -16 -6 -33t-18 -31t-30 -22l-384 -192q-10 -4 -20 -7t-22 -3q-26 0 -50 14t-36 40q-10 18 -10 42z" />
<glyph unicode="&#xde;" horiz-adv-x="1360" d="M192 96v1016v264q0 40 28 68t68 28t68 -28t28 -68v-168h384q184 0 316 -115t132 -317t-132 -317t-316 -115h-384v-248q0 -40 -28 -68t-68 -28t-68 28t-28 68zM384 536h384q120 0 188 60t68 180t-68 180t-188 60h-384v-480z" />
<glyph unicode="&#xdf;" horiz-adv-x="1264" d="M192 96v960q0 164 117 298t299 134h64q180 0 298 -120t118 -284q0 -178 -134 -298q80 -66 123 -163t43 -195q0 -166 -112 -305t-304 -139h-32q-40 0 -68 28t-28 68t28 68t68 28h32q100 0 162 76t62 176t-62 176t-162 76h-32q-40 0 -68 28t-28 68t28 68t68 28 q100 0 162 63t62 149t-62 149t-162 63h-64q-92 0 -158 -75t-66 -165v-960q0 -40 -28 -68t-68 -28t-68 28t-28 68z" />
<glyph unicode="&#xe0;" horiz-adv-x="1176" d="M120 528q0 218 127 381t321 163q126 0 230 -76q8 16 21 30t31 22t38 8q40 0 68 -28t28 -68v-864q0 -40 -28 -68t-68 -28q-30 0 -54 17t-36 43q-104 -76 -230 -76q-194 0 -321 163t-127 381zM300 1536q0 24 10 42q26 54 86 54q24 0 42 -10l384 -192q54 -26 54 -86 q0 -8 -1 -15t-3 -14t-6 -13q-26 -54 -86 -54q-24 0 -42 10l-384 192q-26 12 -40 36t-14 50zM312 528q0 -154 79 -253t177 -99q44 0 86 21t78 63t60 98v340q-34 86 -95 134t-129 48q-98 0 -177 -99t-79 -253z" />
<glyph unicode="&#xe1;" horiz-adv-x="1176" d="M120 528q0 218 127 381t321 163q126 0 230 -76q8 16 21 30t31 22t38 8q40 0 68 -28t28 -68v-864q0 -40 -28 -68t-68 -28q-30 0 -54 17t-36 43q-104 -76 -230 -76q-194 0 -321 163t-127 381zM300 1344q0 16 6 33t18 31t30 22l384 192q6 4 13 6t14 3t15 1q60 0 86 -54 q10 -18 10 -42q0 -16 -6 -33t-18 -31t-30 -22l-384 -192q-10 -4 -20 -7t-22 -3q-26 0 -50 14t-36 40q-10 18 -10 42zM312 528q0 -154 79 -253t177 -99q44 0 86 21t78 63t60 98v340q-34 86 -95 134t-129 48q-98 0 -177 -99t-79 -253z" />
<glyph unicode="&#xe2;" horiz-adv-x="1176" d="M120 528q0 218 127 381t321 163q126 0 230 -76q8 16 21 30t31 22t38 8q40 0 68 -28t28 -68v-864q0 -40 -28 -68t-68 -28q-30 0 -54 17t-36 43q-104 -76 -230 -76q-194 0 -321 163t-127 381zM268 1344q0 22 11 43t29 35l224 160q12 8 26 13t30 5q32 0 56 -18l224 -160 q40 -28 40 -78q0 -32 -18 -56q-28 -40 -78 -40q-32 0 -56 18l-168 120l-168 -120q-24 -18 -56 -18q-50 0 -78 40q-18 24 -18 56zM312 528q0 -154 79 -253t177 -99q44 0 86 21t78 63t60 98v340q-34 86 -95 134t-129 48q-98 0 -177 -99t-79 -253z" />
<glyph unicode="&#xe3;" horiz-adv-x="1176" d="M120 528q0 218 127 381t321 163q126 0 230 -76q8 16 21 30t31 22t38 8q40 0 68 -28t28 -68v-864q0 -40 -28 -68t-68 -28q-30 0 -54 17t-36 43q-104 -76 -230 -76q-194 0 -321 163t-127 381zM204 1346q0 10 2 20q4 12 8 25t24 48t45 61t72 47t105 21q74 0 125 -20t70 -44 t35 -44t26 -20q20 0 36 12t22 23t8 19q10 36 36 55t58 19h8t8 -1t8 -1q32 -10 52 -36t20 -58q0 -12 -2 -22l-4 -12t-11 -29t-20 -41t-32 -41t-46 -40t-62 -28t-79 -11q-74 0 -125 20t-70 44t-34 44t-27 20t-23 -5t-18 -11t-13 -14t-9 -14t-3 -10q-6 -22 -20 -39t-33 -26 t-41 -9q-6 0 -12 1t-12 1q-22 6 -38 21t-25 34t-9 41zM312 528q0 -154 79 -253t177 -99q44 0 86 21t78 63t60 98v340q-34 86 -95 134t-129 48q-98 0 -177 -99t-79 -253z" />
<glyph unicode="&#xe4;" horiz-adv-x="1176" d="M120 528q0 218 127 381t321 163q126 0 230 -76q8 16 21 30t31 22t38 8q40 0 68 -28t28 -68v-864q0 -40 -28 -68t-68 -28q-30 0 -54 17t-36 43q-104 -76 -230 -76q-194 0 -321 163t-127 381zM300 1344v96q0 40 28 68t68 28t68 -28t28 -68v-96q0 -40 -28 -68t-68 -28 t-68 28t-28 68zM312 528q0 -154 79 -253t177 -99q44 0 86 21t78 63t60 98v340q-34 86 -95 134t-129 48q-98 0 -177 -99t-79 -253zM684 1344v96q0 40 28 68t68 28t68 -28t28 -68v-96q0 -40 -28 -68t-68 -28t-68 28t-28 68z" />
<glyph unicode="&#xe5;" horiz-adv-x="1176" d="M120 528q0 218 127 381t321 163q126 0 230 -76q8 16 21 30t31 22t38 8q40 0 68 -28t28 -68v-864q0 -40 -28 -68t-68 -28q-30 0 -54 17t-36 43q-104 -76 -230 -76q-194 0 -321 163t-127 381zM312 528q0 -154 79 -253t177 -99q44 0 86 21t78 63t60 98v340q-34 86 -95 134 t-129 48q-98 0 -177 -99t-79 -253zM332 1504q0 106 75 181t181 75t181 -75t75 -181t-75 -181t-181 -75t-181 75t-75 181zM524 1504q0 -26 19 -45t45 -19t45 19t19 45t-19 45t-45 19t-45 -19t-19 -45z" />
<glyph unicode="&#xe6;" horiz-adv-x="1600" d="M120 320q0 126 88 218t280 110q60 6 99 20t54 36t19 37t4 35q0 32 -45 68t-123 36q-34 0 -66 -8t-52 -18t-38 -22t-23 -18t-9 -8q-14 -18 -35 -28t-43 -10q-32 0 -58 20q-36 28 -36 76q0 32 20 58q6 8 14 17t29 28t49 36t64 33t84 26t100 10q86 0 164 -32t128 -88 q118 120 276 120q102 0 190 -48t146 -142q80 -132 80 -306q0 -40 -31 -68t-65 -28h-558q12 -140 83 -222t155 -82q56 0 102 17t75 43t41 42t22 30q24 44 82 44q24 0 44 -12q16 -8 27 -22t17 -30t6 -32q0 -24 -12 -44q-6 -14 -17 -30t-47 -55t-79 -68t-113 -52t-148 -23 q-54 0 -103 14t-91 40t-78 64q-56 -50 -130 -84t-166 -34q-168 0 -272 97t-104 239zM312 320q0 -62 44 -103t140 -41q54 0 103 28t85 62q-14 34 -25 69t-17 73t-8 76q-8 -2 -15 -5t-15 -5t-15 -4t-15 -3t-17 -3t-17 -3t-17 -2t-19 -3q-70 -6 -112 -19t-58 -35t-19 -36 t-3 -46zM844 672h436q-12 56 -44 110q-62 98 -172 98q-68 0 -129 -54t-91 -154z" />
<glyph unicode="&#xe7;" horiz-adv-x="1056" d="M120 528q0 218 124 381t316 163q70 0 136 -27t117 -72t91 -105q4 -6 7 -12t5 -13t3 -13t1 -14q0 -12 -3 -23t-8 -22t-14 -20t-19 -15q-22 -16 -52 -16q-52 0 -80 44q-76 116 -184 116q-94 0 -171 -99t-77 -253t77 -253t171 -99q56 0 108 35t88 103q26 50 84 50 q12 0 24 -3t22 -9q50 -26 50 -84q-2 -26 -12 -46q-58 -106 -153 -172t-211 -66q-192 0 -316 163t-124 381zM336 -144q0 26 12 48l128 224q28 48 84 48q26 0 48 -12q48 -28 48 -84q0 -26 -12 -48l-54 -94q122 -26 168 -108q26 -46 26 -102q0 -14 -2 -27t-5 -25t-8 -25 t-11 -25q-44 -76 -125 -99t-201 -23q-40 0 -68 28t-28 68t28 68t68 28q16 0 32 1t29 2t25 3t22 4t18 4t14 4t10 3t6 3t4 2v6v6q-4 4 -20 9t-55 11t-85 6q-40 0 -68 29t-28 67z" />
<glyph unicode="&#xe8;" horiz-adv-x="1088" d="M120 528v17t1 18t1 18t2 17q18 198 136 336t292 138q68 0 129 -21t114 -64t93 -105q44 -70 62 -145t18 -161q0 -40 -31 -68t-65 -28h-558q12 -140 83 -222t155 -82q44 0 84 12t65 28t47 38t30 33t14 21q24 44 82 44q8 0 15 -2t15 -4t14 -6q50 -26 50 -84q0 -24 -12 -44 q-6 -14 -17 -30t-47 -55t-79 -68t-113 -52t-148 -23q-190 0 -311 161t-121 383zM256 1536q0 24 10 42q26 54 86 54q24 0 42 -10l384 -192q54 -26 54 -86q0 -8 -1 -15t-3 -14t-6 -13q-26 -54 -86 -54q-24 0 -42 10l-384 192q-26 12 -40 36t-14 50zM332 672h436q-6 30 -16 55 t-28 55q-62 98 -172 98q-26 0 -52 -8t-51 -25t-46 -42t-40 -59t-31 -74z" />
<glyph unicode="&#xe9;" horiz-adv-x="1088" d="M120 528v17t1 18t1 18t2 17q18 198 136 336t292 138q68 0 129 -21t114 -64t93 -105q44 -70 62 -145t18 -161q0 -40 -31 -68t-65 -28h-558q12 -140 83 -222t155 -82q44 0 84 12t65 28t47 38t30 33t14 21q24 44 82 44q8 0 15 -2t15 -4t14 -6q50 -26 50 -84q0 -24 -12 -44 q-6 -14 -17 -30t-47 -55t-79 -68t-113 -52t-148 -23q-190 0 -311 161t-121 383zM256 1344q0 16 6 33t18 31t30 22l384 192q6 4 13 6t14 3t15 1q60 0 86 -54q10 -18 10 -42q0 -16 -6 -33t-18 -31t-30 -22l-384 -192q-10 -4 -20 -7t-22 -3q-26 0 -50 14t-36 40q-10 18 -10 42z M332 672h436q-6 30 -16 55t-28 55q-62 98 -172 98q-26 0 -52 -8t-51 -25t-46 -42t-40 -59t-31 -74z" />
<glyph unicode="&#xea;" horiz-adv-x="1088" d="M120 528v17t1 18t1 18t2 17q18 198 136 336t292 138q68 0 129 -21t114 -64t93 -105q44 -70 62 -145t18 -161q0 -40 -31 -68t-65 -28h-558q12 -140 83 -222t155 -82q44 0 84 12t65 28t47 38t30 33t14 21q24 44 82 44q8 0 15 -2t15 -4t14 -6q50 -26 50 -84q0 -24 -12 -44 q-6 -14 -17 -30t-47 -55t-79 -68t-113 -52t-148 -23q-190 0 -311 161t-121 383zM224 1344q0 22 11 43t29 35l224 160q12 8 26 13t30 5q32 0 56 -18l224 -160q40 -28 40 -78q0 -32 -18 -56q-28 -40 -78 -40q-32 0 -56 18l-168 120l-168 -120q-24 -18 -56 -18q-50 0 -78 40 q-18 24 -18 56zM332 672h436q-6 30 -16 55t-28 55q-62 98 -172 98q-26 0 -52 -8t-51 -25t-46 -42t-40 -59t-31 -74z" />
<glyph unicode="&#xeb;" horiz-adv-x="1088" d="M120 528v17t1 18t1 18t2 17q18 198 136 336t292 138q68 0 129 -21t114 -64t93 -105q44 -70 62 -145t18 -161q0 -40 -31 -68t-65 -28h-558q12 -140 83 -222t155 -82q44 0 84 12t65 28t47 38t30 33t14 21q24 44 82 44q8 0 15 -2t15 -4t14 -6q50 -26 50 -84q0 -24 -12 -44 q-6 -14 -17 -30t-47 -55t-79 -68t-113 -52t-148 -23q-190 0 -311 161t-121 383zM256 1344v96q0 40 28 68t68 28t68 -28t28 -68v-96q0 -40 -28 -68t-68 -28t-68 28t-28 68zM332 672h436q-6 30 -16 55t-28 55q-62 98 -172 98q-26 0 -52 -8t-51 -25t-46 -42t-40 -59t-31 -74z M640 1344v96q0 40 28 68t68 28t68 -28t28 -68v-96q0 -40 -28 -68t-68 -28t-68 28t-28 68z" />
<glyph unicode="&#xec;" d="M0 1536q0 24 10 42q26 54 86 54q24 0 42 -10l384 -192q54 -26 54 -86q0 -8 -1 -15t-3 -14t-6 -13q-26 -54 -86 -54q-24 0 -42 10l-384 192q-26 12 -40 36t-14 50zM192 96v864q0 40 28 68t68 28t68 -28t28 -68v-864q0 -40 -28 -68t-68 -28t-68 28t-28 68z" />
<glyph unicode="&#xed;" d="M0 1344q0 16 6 33t18 31t30 22l384 192q6 4 13 6t14 3t15 1q60 0 86 -54q10 -18 10 -42q0 -16 -6 -33t-18 -31t-30 -22l-384 -192q-10 -4 -20 -7t-22 -3q-26 0 -50 14t-36 40q-10 18 -10 42zM192 96v864q0 40 28 68t68 28t68 -28t28 -68v-864q0 -40 -28 -68t-68 -28 t-68 28t-28 68z" />
<glyph unicode="&#xee;" d="M-32 1344q0 22 11 43t29 35l224 160q12 8 26 13t30 5q32 0 56 -18l224 -160q40 -28 40 -78q0 -32 -18 -56q-28 -40 -78 -40q-32 0 -56 18l-168 120l-168 -120q-24 -18 -56 -18q-50 0 -78 40q-18 24 -18 56zM192 96v864q0 40 28 68t68 28t68 -28t28 -68v-864 q0 -40 -28 -68t-68 -28t-68 28t-28 68z" />
<glyph unicode="&#xef;" d="M0 1344v96q0 40 28 68t68 28t68 -28t28 -68v-96q0 -40 -28 -68t-68 -28t-68 28t-28 68zM192 96v864q0 40 28 68t68 28t68 -28t28 -68v-864q0 -40 -28 -68t-68 -28t-68 28t-28 68zM384 1344v96q0 40 28 68t68 28t68 -28t28 -68v-96q0 -40 -28 -68t-68 -28t-68 28t-28 68z " />
<glyph unicode="&#xf0;" horiz-adv-x="1136" d="M120 528q0 218 127 381t321 163q34 0 66 -6q-16 20 -33 40t-35 42q-128 -60 -246 -60q-40 0 -68 28t-28 68t28 68t68 28t94 26l-2 2q-28 28 -28 68t28 68t68 28t68 -28q12 -12 22 -23t22 -21q144 72 272 72q40 0 68 -28t28 -68t-28 -68t-68 -28q-14 0 -29 -3t-31 -9 t-31 -13t-35 -15q140 -166 209 -332t69 -380q0 -218 -127 -381t-321 -163t-321 163t-127 381zM312 528q0 -154 79 -253t177 -99t177 99t79 253t-79 253t-177 99t-177 -99t-79 -253z" />
<glyph unicode="&#xf1;" horiz-adv-x="1160" d="M192 96v864q0 40 28 68t68 28q30 0 55 -18t35 -46q54 38 117 59t137 21q140 0 238 -107t98 -261v-608q0 -40 -28 -68t-68 -28t-68 28t-28 68v608q0 82 -44 129t-100 47q-36 0 -72 -12t-62 -30t-51 -41t-38 -40t-25 -33v-628q0 -40 -28 -68t-68 -28t-68 28t-28 68z M196 1346q0 10 2 20q4 12 8 25t24 48t45 61t72 47t105 21q74 0 125 -20t70 -44t35 -44t26 -20q20 0 36 12t22 23t8 19q10 36 36 55t58 19h8t8 -1t8 -1q32 -10 52 -36t20 -58q0 -12 -2 -22l-4 -12t-11 -29t-20 -41t-32 -41t-46 -40t-62 -28t-79 -11q-74 0 -125 20t-70 44 t-34 44t-27 20t-23 -5t-18 -11t-13 -14t-9 -14t-3 -10q-6 -22 -20 -39t-33 -26t-41 -9q-6 0 -12 1t-12 1q-22 6 -38 21t-25 34t-9 41z" />
<glyph unicode="&#xf2;" horiz-adv-x="1136" d="M120 528q0 218 127 381t321 163t321 -163t127 -381t-127 -381t-321 -163t-321 163t-127 381zM280 1536q0 24 10 42q26 54 86 54q24 0 42 -10l384 -192q54 -26 54 -86q0 -8 -1 -15t-3 -14t-6 -13q-26 -54 -86 -54q-24 0 -42 10l-384 192q-26 12 -40 36t-14 50zM312 528 q0 -154 79 -253t177 -99t177 99t79 253t-79 253t-177 99t-177 -99t-79 -253z" />
<glyph unicode="&#xf3;" horiz-adv-x="1136" d="M120 528q0 218 127 381t321 163t321 -163t127 -381t-127 -381t-321 -163t-321 163t-127 381zM280 1344q0 16 6 33t18 31t30 22l384 192q6 4 13 6t14 3t15 1q60 0 86 -54q10 -18 10 -42q0 -16 -6 -33t-18 -31t-30 -22l-384 -192q-10 -4 -20 -7t-22 -3q-26 0 -50 14t-36 40 q-10 18 -10 42zM312 528q0 -154 79 -253t177 -99t177 99t79 253t-79 253t-177 99t-177 -99t-79 -253z" />
<glyph unicode="&#xf4;" horiz-adv-x="1136" d="M120 528q0 218 127 381t321 163t321 -163t127 -381t-127 -381t-321 -163t-321 163t-127 381zM248 1344q0 22 11 43t29 35l224 160q12 8 26 13t30 5q32 0 56 -18l224 -160q40 -28 40 -78q0 -32 -18 -56q-28 -40 -78 -40q-32 0 -56 18l-168 120l-168 -120q-24 -18 -56 -18 q-50 0 -78 40q-18 24 -18 56zM312 528q0 -154 79 -253t177 -99t177 99t79 253t-79 253t-177 99t-177 -99t-79 -253z" />
<glyph unicode="&#xf5;" horiz-adv-x="1136" d="M120 528q0 218 127 381t321 163t321 -163t127 -381t-127 -381t-321 -163t-321 163t-127 381zM312 528q0 -154 79 -253t177 -99t177 99t79 253t-79 253t-177 99t-177 -99t-79 -253z" />
<glyph unicode="&#xf6;" horiz-adv-x="1136" d="M120 528q0 218 127 381t321 163t321 -163t127 -381t-127 -381t-321 -163t-321 163t-127 381zM280 1344v96q0 40 28 68t68 28t68 -28t28 -68v-96q0 -40 -28 -68t-68 -28t-68 28t-28 68zM312 528q0 -154 79 -253t177 -99t177 99t79 253t-79 253t-177 99t-177 -99t-79 -253z M664 1344v96q0 40 28 68t68 28t68 -28t28 -68v-96q0 -40 -28 -68t-68 -28t-68 28t-28 68z" />
<glyph unicode="&#xf7;" horiz-adv-x="1280" d="M112 736q0 40 28 68t68 28h864q40 0 68 -28t28 -68t-28 -68t-68 -28h-864q-40 0 -68 28t-28 68zM496 288q0 66 47 113t113 47q54 0 91 -37t37 -91q0 -66 -47 -113t-113 -47q-54 0 -91 37t-37 91zM496 1152q0 66 47 113t113 47q54 0 91 -37t37 -91q0 -66 -47 -113 t-113 -47q-54 0 -91 37t-37 91z" />
<glyph unicode="&#xf8;" horiz-adv-x="1136" d="M120 528q0 218 127 381t321 163t321 -163t127 -381t-127 -381t-321 -163t-321 163t-127 381zM136 96q0 34 20 58l672 864q14 18 34 28t42 10q16 0 31 -5t27 -15q38 -28 38 -76q0 -34 -20 -58l-672 -864q-28 -38 -76 -38q-16 0 -31 5t-27 15q-38 28 -38 76zM312 528 q0 -154 79 -253t177 -99t177 99t79 253t-79 253t-177 99t-177 -99t-79 -253z" />
<glyph unicode="&#xf9;" horiz-adv-x="1160" d="M192 352v608q0 40 28 68t68 28t68 -28t28 -68v-608q0 -82 44 -129t100 -47q58 0 114 32t84 62t50 62v628q0 40 28 68t68 28t68 -28t28 -68v-864q0 -40 -28 -68t-68 -28q-30 0 -55 18t-35 46q-54 -38 -117 -59t-137 -21q-140 0 -238 107t-98 261zM292 1536q0 24 10 42 q26 54 86 54q24 0 42 -10l384 -192q54 -26 54 -86q0 -8 -1 -15t-3 -14t-6 -13q-26 -54 -86 -54q-24 0 -42 10l-384 192q-26 12 -40 36t-14 50z" />
<glyph unicode="&#xfa;" horiz-adv-x="1160" d="M192 352v608q0 40 28 68t68 28t68 -28t28 -68v-608q0 -82 44 -129t100 -47q58 0 114 32t84 62t50 62v628q0 40 28 68t68 28t68 -28t28 -68v-864q0 -40 -28 -68t-68 -28q-30 0 -55 18t-35 46q-54 -38 -117 -59t-137 -21q-140 0 -238 107t-98 261zM292 1344q0 16 6 33 t18 31t30 22l384 192q6 4 13 6t14 3t15 1q60 0 86 -54q10 -18 10 -42q0 -16 -6 -33t-18 -31t-30 -22l-384 -192q-10 -4 -20 -7t-22 -3q-26 0 -50 14t-36 40q-10 18 -10 42z" />
<glyph unicode="&#xfb;" horiz-adv-x="1160" d="M192 352v608q0 40 28 68t68 28t68 -28t28 -68v-608q0 -82 44 -129t100 -47q58 0 114 32t84 62t50 62v628q0 40 28 68t68 28t68 -28t28 -68v-864q0 -40 -28 -68t-68 -28q-30 0 -55 18t-35 46q-54 -38 -117 -59t-137 -21q-140 0 -238 107t-98 261zM260 1344q0 22 11 43 t29 35l224 160q12 8 26 13t30 5q32 0 56 -18l224 -160q40 -28 40 -78q0 -32 -18 -56q-28 -40 -78 -40q-32 0 -56 18l-168 120l-168 -120q-24 -18 -56 -18q-50 0 -78 40q-18 24 -18 56z" />
<glyph unicode="&#xfc;" horiz-adv-x="1160" d="M192 352v608q0 40 28 68t68 28t68 -28t28 -68v-608q0 -82 44 -129t100 -47q58 0 114 32t84 62t50 62v628q0 40 28 68t68 28t68 -28t28 -68v-864q0 -40 -28 -68t-68 -28q-30 0 -55 18t-35 46q-54 -38 -117 -59t-137 -21q-140 0 -238 107t-98 261zM292 1344v96q0 40 28 68 t68 28t68 -28t28 -68v-96q0 -40 -28 -68t-68 -28t-68 28t-28 68zM676 1344v96q0 40 28 68t68 28t68 -28t28 -68v-96q0 -40 -28 -68t-68 -28t-68 28t-28 68z" />
<glyph unicode="&#xfd;" horiz-adv-x="992" d="M96 -288q0 10 2 18q6 34 33 56t61 22l14 -2h2q6 0 9 -1t9 -1h14q82 0 132 154l36 108l-306 862q-2 4 -3 10t-2 11t-1 11q0 18 8 37t22 33t34 20q4 2 10 3t11 2t11 1q18 0 37 -8t33 -22t20 -34l224 -626l202 624q8 20 22 35t32 23t38 8q16 0 30 -4q12 -4 22 -11t18 -16 t14 -20t9 -22t3 -23q0 -6 -1 -11t-2 -9t-1 -10l-336 -1032q-96 -286 -316 -286h-15t-13 1t-12 1t-10 1l-8 2t-6 1h-4q-22 6 -40 20t-27 33t-9 41zM208 1344q0 16 6 33t18 31t30 22l384 192q6 4 13 6t14 3t15 1q60 0 86 -54q10 -18 10 -42q0 -16 -6 -33t-18 -31t-30 -22 l-384 -192q-10 -4 -20 -7t-22 -3q-26 0 -50 14t-36 40q-10 18 -10 42z" />
<glyph unicode="&#xfe;" horiz-adv-x="1176" d="M192 -288v1664q0 40 28 68t68 28t68 -28t28 -68v-376q102 72 224 72q194 0 321 -163t127 -381t-127 -381t-321 -163q-122 0 -224 72v-344q0 -40 -28 -68t-68 -28t-68 28t-28 68zM384 358q34 -86 95 -134t129 -48q98 0 177 99t79 253t-79 253t-177 99q-44 0 -86 -21 t-78 -63t-60 -98v-340z" />
<glyph unicode="&#xff;" horiz-adv-x="992" d="M96 -288q0 10 2 18q6 34 33 56t61 22l14 -2h2q6 0 9 -1t9 -1h14q82 0 132 154l36 108l-306 862q-2 4 -3 10t-2 11t-1 11q0 18 8 37t22 33t34 20q4 2 10 3t11 2t11 1q18 0 37 -8t33 -22t20 -34l224 -626l202 624q8 20 22 35t32 23t38 8q16 0 30 -4q12 -4 22 -11t18 -16 t14 -20t9 -22t3 -23q0 -6 -1 -11t-2 -9t-1 -10l-336 -1032q-96 -286 -316 -286h-15t-13 1t-12 1t-10 1l-8 2t-6 1h-4q-22 6 -40 20t-27 33t-9 41zM208 1344v96q0 40 28 68t68 28t68 -28t28 -68v-96q0 -40 -28 -68t-68 -28t-68 28t-28 68zM592 1344v96q0 40 28 68t68 28 t68 -28t28 -68v-96q0 -40 -28 -68t-68 -28t-68 28t-28 68z" />
<glyph unicode="&#x178;" horiz-adv-x="1312" d="M96 1376q0 48 38 76q12 10 27 15t31 5q48 0 76 -38l388 -508l388 508q28 38 76 38q16 0 31 -5t27 -15q38 -28 38 -76q0 -10 -2 -20t-7 -20t-11 -18l-444 -582v-640q0 -40 -28 -68t-68 -28t-68 28t-28 68v640l-444 582q-6 6 -9 13l-6 14t-4 15t-1 16zM368 1760v96 q0 40 28 68t68 28t68 -28t28 -68v-96q0 -40 -28 -68t-68 -28t-68 28t-28 68zM752 1760v96q0 40 28 68t68 28t68 -28t28 -68v-96q0 -40 -28 -68t-68 -28t-68 28t-28 68z" />
<glyph unicode="&#x2dc;" horiz-adv-x="0" d="M-384 1650q0 10 2 20q4 12 8 25t24 48t45 61t72 47t105 21q74 0 125 -20t70 -44t35 -44t26 -20q20 0 36 12t22 23t8 19q10 36 36 55t58 19h8t8 -1t8 -1q32 -10 52 -36t20 -58q0 -12 -2 -22l-4 -12t-11 -29t-20 -41t-32 -41t-46 -40t-62 -28t-79 -11q-74 0 -125 20t-70 44 t-34 44t-27 20t-23 -5t-18 -11t-13 -14t-9 -14t-3 -10q-6 -22 -20 -39t-33 -26t-41 -9q-6 0 -12 1t-12 1q-22 6 -38 21t-25 34t-9 41z" />
<glyph unicode="&#x2000;" horiz-adv-x="1088" />
<glyph unicode="&#x2001;" horiz-adv-x="2176" />
<glyph unicode="&#x2002;" horiz-adv-x="1088" />
<glyph unicode="&#x2003;" horiz-adv-x="2176" />
<glyph unicode="&#x2004;" horiz-adv-x="725" />
<glyph unicode="&#x2005;" horiz-adv-x="544" />
<glyph unicode="&#x2006;" horiz-adv-x="362" />
<glyph unicode="&#x2007;" horiz-adv-x="362" />
<glyph unicode="&#x2008;" horiz-adv-x="272" />
<glyph unicode="&#x2009;" horiz-adv-x="435" />
<glyph unicode="&#x200a;" horiz-adv-x="120" />
<glyph unicode="&#x2010;" horiz-adv-x="832" d="M64 528q0 40 28 68t68 28h512q40 0 68 -28t28 -68t-28 -68t-68 -28h-512q-40 0 -68 28t-28 68z" />
<glyph unicode="&#x2011;" horiz-adv-x="832" d="M64 528q0 40 28 68t68 28h512q40 0 68 -28t28 -68t-28 -68t-68 -28h-512q-40 0 -68 28t-28 68z" />
<glyph unicode="&#x2012;" horiz-adv-x="832" d="M64 528q0 40 28 68t68 28h512q40 0 68 -28t28 -68t-28 -68t-68 -28h-512q-40 0 -68 28t-28 68z" />
<glyph unicode="&#x2013;" horiz-adv-x="1024" d="M0 528q0 40 28 68t68 28h832q40 0 68 -28t28 -68t-28 -68t-68 -28h-832q-40 0 -68 28t-28 68z" />
<glyph unicode="&#x2014;" horiz-adv-x="2048" d="M0 528q0 40 28 68t68 28h1856q40 0 68 -28t28 -68t-28 -68t-68 -28h-1856q-40 0 -68 28t-28 68z" />
<glyph unicode="&#x2018;" horiz-adv-x="592" d="M144 1136q0 100 76 278q12 28 36 43t52 15q20 0 38 -8t31 -22t20 -31t7 -35q0 -20 -8 -38q-14 -36 -32 -82q36 -16 60 -46t24 -74q0 -66 -47 -113t-113 -47q-56 0 -100 45t-44 115z" />
<glyph unicode="&#x2019;" horiz-adv-x="592" d="M144 1312q0 66 47 113t113 47q56 0 100 -45t44 -115q0 -100 -76 -278q-26 -58 -88 -58h-9t-10 1t-9 3t-10 4q-26 10 -42 35t-16 53q0 20 8 38q14 36 32 82q-24 10 -42 26t-30 40t-12 54z" />
<glyph unicode="&#x201a;" horiz-adv-x="592" d="M144 128q0 66 47 113t113 47q56 0 100 -45t44 -115q0 -112 -76 -276v-2q-12 -28 -36 -43t-52 -15h-8t-8 1t-7 2t-7 2t-8 3q-18 8 -31 22t-20 31t-7 35q0 20 8 38q2 4 5 11t11 29t16 42q-36 16 -60 46t-24 74z" />
<glyph unicode="&#x201c;" horiz-adv-x="1024" d="M144 1136q0 100 76 278q12 28 36 43t52 15q20 0 38 -8t31 -22t20 -31t7 -35q0 -20 -8 -38q-14 -36 -32 -82q36 -16 60 -46t24 -74q0 -66 -47 -113t-113 -47q-56 0 -100 45t-44 115zM576 1136q0 106 76 278q26 58 88 58q20 0 38 -8q26 -10 42 -35t16 -53q0 -20 -8 -38 q-14 -36 -32 -82q24 -10 42 -26t30 -40t12 -54q0 -66 -47 -113t-113 -47q-56 0 -100 45t-44 115z" />
<glyph unicode="&#x201d;" horiz-adv-x="1024" d="M144 1312q0 66 47 113t113 47q56 0 100 -45t44 -115q0 -100 -76 -278q-26 -58 -88 -58h-9t-10 1t-9 3t-10 4q-26 10 -42 35t-16 53q0 20 8 38q14 36 32 82q-24 10 -42 26t-30 40t-12 54zM576 1312q0 66 47 113t113 47q56 0 100 -45t44 -115q0 -100 -76 -278 q-26 -58 -88 -58q-10 0 -19 2t-19 6q-26 10 -42 35t-16 53q0 20 8 38l1 2t2 6t3 9t5 13l6 16t7 17t8 19q-36 16 -60 46t-24 74z" />
<glyph unicode="&#x201e;" horiz-adv-x="1024" d="M144 128q0 66 47 113t113 47q56 0 100 -45t44 -115q0 -112 -76 -276v-2q-12 -28 -36 -43t-52 -15h-8t-8 1t-7 2t-7 2t-8 3q-18 8 -31 22t-20 31t-7 35q0 20 8 38q2 4 5 11t11 29t16 42q-36 16 -60 46t-24 74zM576 128q0 66 47 113t113 47q56 0 100 -45t44 -115 q0 -100 -76 -278q-12 -28 -36 -43t-52 -15q-20 0 -38 8q-12 6 -23 15t-19 21t-12 25t-4 27q0 8 1 14t3 12l4 12q14 36 32 82q-36 16 -60 46t-24 74z" />
<glyph unicode="&#x2022;" horiz-adv-x="704" d="M128 736q0 92 66 158t158 66t158 -66t66 -158t-66 -158t-158 -66t-158 66t-66 158z" />
<glyph unicode="&#x202f;" horiz-adv-x="435" />
<glyph unicode="&#x205f;" horiz-adv-x="544" />
<glyph unicode="&#x25fc;" horiz-adv-x="1060" d="M0 0v1060h1060v-1060h-1060z" />
</font>
</defs>
</svg>
