<?xml version="1.0" standalone="no"?>
<!DOCTYPE svg PUBLIC "-//W3C//DTD SVG 1.1//EN" "http://www.w3.org/Graphics/SVG/1.1/DTD/svg11.dtd" >
<svg xmlns="http://www.w3.org/2000/svg" xmlns:xlink="http://www.w3.org/1999/xlink" version="1.1">
<metadata></metadata>
<defs>
<font id="routed_gothic_narrowitalic" horiz-adv-x="460" >
<font-face units-per-em="2048" ascent="1664" descent="-384" />
<missing-glyph horiz-adv-x="500" />
<glyph horiz-adv-x="0" />
<glyph unicode="&#xd;" horiz-adv-x="682" />
<glyph unicode=" " />
<glyph unicode="!" d="M-156 116v13t1 13t2 11t3 9q2 2 2 4q22 52 64 87t102 35t84 -35t24 -81q0 -14 -2 -26t-4 -20l-2 -4q-22 -52 -64 -87t-102 -35t-84 35t-24 81zM68 576q0 20 8 36l332 800q10 28 35 44t53 16q20 0 36 -8q14 -4 25 -14t19 -22t12 -25t4 -27q0 -10 -2 -19t-6 -17l-332 -800 q-6 -18 -20 -32t-32 -21t-37 -7t-35 8q-28 10 -44 35t-16 53z" />
<glyph unicode="&#x22;" horiz-adv-x="614" d="M176 960q0 10 2 19t6 17l172 416q10 28 35 44t53 16q20 0 36 -8q28 -10 44 -35t16 -53q0 -20 -8 -36l-172 -416q-10 -28 -35 -44t-53 -16q-20 0 -36 8q-14 4 -25 14t-19 22t-12 25t-4 27zM432 960q0 20 8 36l172 416q10 28 35 44t53 16q20 0 36 -8q14 -4 25 -14t19 -22 t12 -25t4 -27q0 -20 -8 -36l-172 -416q-10 -28 -35 -44t-53 -16q-6 0 -12 1l-12 2t-12 5q-28 10 -44 35t-16 53z" />
<glyph unicode="#" horiz-adv-x="1074" d="M-106 96q0 14 4 27t10 25l212 332h-8q-40 0 -68 28t-28 68t28 68t68 28h130l80 128h-76q-40 0 -68 28t-28 68t28 68t68 28h198l276 436q30 44 82 44q28 0 52 -14q44 -30 44 -82q0 -28 -14 -52l-212 -332h54l276 436q6 8 13 15t15 12t17 9t19 6t18 2q28 0 52 -14 q44 -30 44 -82q0 -14 -4 -27t-10 -25l-212 -332h8q40 0 68 -28t28 -68t-28 -68t-68 -28h-130l-80 -128h78q40 0 68 -28t28 -68t-28 -68t-68 -28h-200l-276 -436q-14 -20 -36 -32t-46 -12q-30 2 -52 14q-44 30 -44 82q0 28 14 52l212 332h-54l-276 -436q-30 -44 -82 -44 q-28 0 -52 14q-20 14 -32 36t-12 46zM470 672h54l80 128h-54z" />
<glyph unicode="$" horiz-adv-x="806" d="M-42 432q0 34 21 60t55 34q4 0 7 1t6 1h7q12 0 25 -3t24 -10t20 -16t15 -20t10 -25q2 -10 8 -22t14 -24l120 292q-56 32 -84 85t-28 113v14t2 16q4 24 10 47t16 45q38 96 127 167t195 89l58 136q10 28 35 44t53 16q20 0 36 -8q18 -6 32 -20t21 -32t7 -37t-8 -35l-38 -92 q34 -18 59 -43t38 -50t19 -39t8 -23t2 -19q0 -22 -9 -41t-26 -34t-39 -21q-6 0 -11 -1t-11 -1q-32 0 -58 21t-34 51q-6 14 -12 20l-102 -246q60 -32 87 -81t27 -107q0 -16 -2 -32t-5 -31t-7 -30t-8 -27t-10 -24q-44 -106 -134 -188t-206 -104l-58 -138q-10 -28 -35 -44 t-53 -16q-20 0 -36 8q-12 4 -21 11t-16 16t-12 19t-8 21t-3 21t2 19t6 17l36 90q-100 56 -130 184l-2 8q-2 8 -2 18zM368 888l44 104q-6 -8 -12 -15t-10 -14t-8 -15q-10 -26 -12 -46q0 -4 -2 -10v-4zM414 496q24 32 40 70q22 52 22 68l-2 8z" />
<glyph unicode="%" horiz-adv-x="1382" d="M48 96q0 36 24 62l664 778q-132 -136 -286 -136q-16 0 -31 2t-30 6t-29 8q-134 54 -134 216q0 14 1 28t4 28t6 29t8 28t11 27q32 82 92 150t140 109t162 41q48 0 90 -18q132 -52 132 -212q0 -36 -8 -72t-22 -70q-8 -20 -18 -40t-22 -39t-26 -37l390 454q12 16 32 25t40 9 q12 0 22 -3t21 -8t19 -13q16 -12 25 -32t9 -40q0 -36 -24 -62l-664 -778q132 136 286 136q24 0 47 -4t43 -12q134 -54 134 -216q0 -70 -30 -140q-50 -126 -160 -213t-232 -87q-24 0 -47 4t-43 12q-134 54 -134 216q0 22 4 47t10 48t16 45q4 12 10 24l12 24t13 24t15 23 t16 21l-390 -454q-28 -34 -72 -34q-36 0 -62 24q-12 8 -19 20t-11 25t-4 27zM416 1032q0 -8 2 -15t4 -11t4 -7t3 -3t3 -2q6 -2 18 -2q48 0 117 54t99 126q16 42 16 70q0 12 -3 21t-7 11l-4 4q-6 2 -18 2q-48 0 -118 -54t-100 -126q-6 -14 -9 -27t-5 -23t-2 -18zM700 232 q0 -30 16 -38q2 0 4 -1t6 -1h8q48 0 117 54t99 126q16 40 16 68q0 30 -16 38q-2 0 -7 1t-11 1q-30 0 -72 -23t-83 -66t-61 -91q-16 -40 -16 -68z" />
<glyph unicode="&#x26;" horiz-adv-x="1254" d="M-78 280q0 100 44 204q94 230 310 358q-10 14 -16 30t-11 33t-7 35t-2 36q0 80 36 164q26 64 72 123t113 111t159 83t196 31q24 0 47 -2t45 -6t42 -9t38 -13q166 -68 166 -250q0 -72 -30 -140q-72 -174 -240 -276q6 -6 12 -13t12 -15l12 -16q60 52 104 78q22 14 48 14 q24 0 46 -12t36 -34t14 -48q0 -16 -6 -32t-15 -29t-23 -21q-56 -36 -130 -108q6 -40 6 -84q0 -90 -24 -194t-72 -218q-10 -28 -35 -44t-53 -16q-20 0 -36 8q-28 10 -44 35t-16 53q0 20 8 36q34 84 54 158q-66 -88 -137 -151t-143 -95t-136 -46t-132 -14q-80 0 -144 26 q-168 70 -168 270zM112 282q0 -74 50 -94q30 -12 72 -12q20 0 38 1t38 4t39 8t40 12t42 18t42 26t43 34t44 42t45 52t45 65q62 92 132 172q-28 56 -90 86q-66 36 -170 36q-84 -8 -203 -96t-177 -224q-10 -28 -17 -51t-10 -43t-3 -36zM428 972q0 -12 5 -21t9 -12t12 -5 q24 -10 64 -10q72 0 136 -14q94 14 176 80t118 150q18 44 18 72q0 18 -6 31t-17 22t-27 15q-18 8 -43 12t-57 4q-136 0 -231 -70t-133 -158q-4 -14 -9 -26t-8 -22t-4 -19t-2 -16t-1 -13z" />
<glyph unicode="'" horiz-adv-x="358" d="M176 960q0 10 2 19t6 17l172 416q10 28 35 44t53 16q20 0 36 -8q28 -10 44 -35t16 -53q0 -20 -8 -36l-172 -416q-10 -28 -35 -44t-53 -16q-20 0 -36 8q-14 4 -25 14t-19 22t-12 25t-4 27z" />
<glyph unicode="(" horiz-adv-x="550" d="M-62 52q0 348 154 720q40 100 92 199t100 176t103 153t93 125t79 96t53 60t22 23q14 14 32 21t36 7q12 0 24 -3t23 -9t21 -16q14 -14 21 -31t7 -37q0 -12 -3 -24t-9 -23t-14 -19q-14 -14 -38 -40t-88 -106t-124 -165t-131 -211t-123 -248q-138 -338 -138 -648 q0 -64 6 -104v-12q0 -36 -23 -63t-59 -31q-6 -2 -14 -2q-34 0 -61 22t-33 58q-8 52 -8 132z" />
<glyph unicode=")" horiz-adv-x="550" d="M-300 -64q0 12 3 23t9 22t14 21q14 14 38 40t89 106t124 165t131 211t124 248q138 338 138 648v25v22t-1 19t-2 16t-1 11v7t-2 4v5v5q0 22 10 43t29 36t43 17l14 2q34 0 61 -23t33 -57q8 -52 8 -132q0 -144 -33 -327t-121 -393q-56 -136 -134 -273t-141 -227t-134 -177 t-95 -113t-40 -42q-30 -28 -68 -28q-40 0 -68 28t-28 68z" />
<glyph unicode="*" horiz-adv-x="818" d="M242 1120q0 40 28 68t68 28h130l-8 150q-2 38 25 68t67 32h4q38 0 66 -27t30 -65v-12l64 72q28 32 72 32q8 0 17 -2t17 -5t15 -7t15 -10q16 -14 24 -33t8 -39q0 -18 -6 -34t-18 -30l-80 -90h20q40 0 68 -28t28 -68t-28 -68t-68 -28h-132l8 -150q2 -38 -25 -68t-67 -32h-4 q-12 0 -24 3t-22 9t-19 15t-16 19t-11 21t-4 25v10l-62 -70q-14 -16 -33 -24t-39 -8q-36 0 -64 24q-32 28 -32 72q0 18 6 34t18 30l80 90h-20q-40 0 -68 28t-28 68z" />
<glyph unicode="+" horiz-adv-x="1024" d="M70 736q0 40 28 68t68 28h282l154 372q10 28 35 44t53 16q10 0 19 -2t17 -6q28 -10 44 -35t16 -53q0 -20 -8 -36l-122 -300h202q40 0 68 -28t28 -68t-28 -68t-68 -28h-282l-154 -372q-10 -28 -35 -44t-53 -16q-20 0 -36 8q-28 10 -44 35t-16 53q0 10 2 19t6 17l122 300 h-202q-40 0 -68 28t-28 68z" />
<glyph unicode="," horiz-adv-x="472" d="M-220 -112q0 10 2 20t6 20t12 18q32 42 66 94q-8 14 -13 27t-8 26t-3 25t2 23t6 21q2 2 2 4q22 52 64 87t102 35q40 0 66 -20t37 -48t11 -62q0 -18 -4 -35t-10 -33q-38 -90 -166 -260q-28 -38 -76 -38q-32 0 -58 20q-38 28 -38 76z" />
<glyph unicode="-" horiz-adv-x="664" d="M-54 528q0 40 28 68t68 28h410q40 0 68 -28t28 -68t-28 -68t-68 -28h-410q-40 0 -68 28t-28 68z" />
<glyph unicode="." d="M-156 116v13t1 13t2 11t3 9q2 2 2 4q22 52 64 87t102 35t84 -35t24 -81q0 -14 -2 -26t-4 -20l-2 -4q-22 -52 -64 -87t-102 -35t-84 35t-24 81z" />
<glyph unicode="/" horiz-adv-x="920" d="M-182 96q0 36 24 62l1094 1280q8 12 20 19t25 11t27 4q36 0 62 -24q8 -6 15 -15t11 -18t6 -19t2 -20q0 -36 -24 -62l-1094 -1280q-28 -34 -72 -34q-36 0 -62 24q-34 28 -34 72z" />
<glyph unicode="0" horiz-adv-x="1074" d="M-42 358q0 190 94 414q78 192 198 353t270 262t290 101q20 0 39 -2t38 -7t37 -13q192 -80 192 -350q0 -190 -94 -416q-78 -192 -198 -352t-269 -262t-289 -102q-62 0 -114 22q-194 80 -194 352zM154 374q0 -78 21 -128t51 -62q16 -8 40 -8q120 0 298 174t282 422 q40 96 58 178t18 150q0 52 -11 94t-27 65t-34 29q-8 4 -18 6t-22 2q-120 0 -299 -174t-283 -422q-74 -182 -74 -326z" />
<glyph unicode="1" horiz-adv-x="562" d="M-80 96q0 6 1 12l2 12t5 12l530 1280q10 28 35 44t53 16q20 0 36 -8q18 -6 32 -20t21 -32t7 -37t-8 -35l-530 -1280q-10 -28 -35 -44t-53 -16q-20 0 -36 8q-18 6 -32 20t-21 32t-7 36z" />
<glyph unicode="2" horiz-adv-x="1074" d="M-144 96q0 20 8 36q28 72 59 131t69 112t69 92t83 82t87 70t104 70t111 67t130 74q18 12 28 18q136 76 185 122t81 124q14 32 20 59t6 49q0 34 -14 55t-36 29q-24 10 -60 10q-106 0 -203 -66t-151 -194q-10 -28 -35 -44t-53 -16q-10 0 -19 2t-17 6q-28 10 -44 35t-16 53 q0 20 8 36q74 180 219 280t311 100q74 0 132 -24q56 -24 94 -65t55 -91t17 -108q0 -90 -38 -182q-22 -54 -52 -98t-73 -85t-95 -77t-126 -78q-14 -8 -40 -22q-84 -48 -123 -70t-100 -60t-90 -60t-71 -56t-67 -65t-53 -70t-52 -85h502q40 0 68 -28t28 -68t-28 -68t-68 -28 h-654q-16 0 -30 4q-30 10 -48 36t-18 56z" />
<glyph unicode="3" horiz-adv-x="1074" d="M-56 308q0 40 28 68t68 28t68 -28t28 -68q0 -132 126 -132q42 0 92 17t99 49t96 73t85 94t62 109q36 86 36 156q0 64 -25 91t-93 27q-52 0 -142 -36q-16 -8 -36 -8q-18 0 -36 8q-36 14 -52 50v2q-4 8 -6 17t-2 19q0 18 8 36q14 36 50 52q266 116 458 348h-406 q-40 0 -68 28t-28 68t28 68t68 28h590q20 0 38 -8t31 -22t20 -31t7 -35q0 -12 -3 -23t-8 -22t-14 -26t-40 -60t-67 -89t-96 -104t-124 -112q66 -40 103 -110t37 -156q0 -54 -13 -112t-39 -120q-52 -124 -148 -228t-219 -167t-243 -63q-142 0 -230 93t-88 231z" />
<glyph unicode="4" horiz-adv-x="1074" d="M2 540q0 6 8 38l52 124q8 18 24 34l782 708q8 8 19 13t22 8t23 3h100q40 0 68 -29t28 -67q0 -8 -1 -14t-2 -11t-5 -11l-288 -700h34q40 0 68 -28t28 -68t-28 -68t-68 -28h-114l-162 -388q-10 -28 -35 -44t-53 -16q-20 0 -36 8q-28 10 -44 35t-16 53q0 20 8 36l130 316 h-446q-40 0 -68 29t-28 67zM262 636h362l216 524z" />
<glyph unicode="5" horiz-adv-x="1074" d="M-68 312q0 38 27 66t67 30h2q12 0 24 -3t23 -9t20 -15t15 -19t10 -22t4 -26q2 -72 32 -105t88 -33q108 0 247 114t205 274q18 48 28 91t10 81q0 76 -30 110t-90 34q-30 0 -66 -9t-74 -28t-81 -48t-85 -67q-26 -24 -64 -24q-48 0 -76 38q-18 24 -18 58q0 12 2 23t6 21 l290 576q26 52 86 52h512q40 0 68 -28t28 -68t-28 -68t-68 -28h-452l-116 -230q34 12 68 17t68 5q58 0 108 -18t87 -49t63 -73t40 -92t14 -106q0 -22 -2 -46t-7 -48t-11 -49t-14 -50t-20 -49q-86 -212 -264 -360t-364 -148q-138 0 -225 95t-87 233z" />
<glyph unicode="6" horiz-adv-x="1074" d="M-6 338q0 126 52 294q22 66 54 140q62 154 144 280t161 205t161 133t151 76t127 22q72 0 128 -23t85 -54t49 -68t25 -59t5 -34q0 -24 -11 -45t-30 -35t-45 -18h-5h-5q-24 0 -45 11t-34 30t-17 43v2q-8 58 -100 58q-30 0 -80 -20t-120 -66t-151 -142t-149 -226 q116 62 246 62q142 0 229 -91t87 -223q0 -30 -5 -61t-13 -61t-22 -60q-68 -170 -223 -297t-341 -127q-54 0 -107 20t-99 61t-74 112t-28 161zM186 338q0 -54 10 -89t30 -49t37 -19t39 -5q74 0 153 44t141 113t94 147q24 58 24 110q0 40 -13 67t-40 41t-71 14 q-116 0 -221 -82t-179 -258q-2 -4 -4 -12v-22z" />
<glyph unicode="7" horiz-adv-x="1074" d="M86 96q0 20 8 38l28 64q74 176 169 337t182 274t184 212t164 156t133 103h-522q-40 0 -68 28t-28 68t28 68t68 28h716q40 0 68 -29t28 -67q0 -8 -1 -14t-2 -11t-5 -11l-48 -116q-12 -32 -42 -48q-22 -12 -61 -37t-147 -116t-208 -201t-222 -298t-210 -402l-28 -64 q-26 -58 -88 -58q-22 2 -38 8q-58 26 -58 88z" />
<glyph unicode="8" horiz-adv-x="1074" d="M-56 306q0 94 38 186q84 206 288 338q-34 62 -34 138t34 156q64 156 216 260t324 104q134 0 227 -81t93 -211q0 -70 -32 -144q-26 -64 -75 -126t-91 -100t-94 -78q54 -74 54 -174q0 -44 -11 -90t-29 -90q-70 -170 -230 -290t-356 -120q-76 0 -138 26q-94 38 -139 117 t-45 179zM134 306q0 -92 66 -118q28 -12 66 -12q86 0 170 42t146 108t94 142q12 30 18 56t6 46q0 22 -6 39t-14 29t-20 18q-6 4 -14 8q-14 4 -33 8t-45 4q-78 0 -142 22q-42 -20 -84 -50t-98 -93t-86 -135q-8 -22 -14 -42t-8 -37t-2 -35zM428 968q0 -26 7 -42t21 -28 q36 -30 112 -30q48 0 92 -8q70 44 151 119t111 145q2 8 5 17t5 16t3 14t2 13t1 12q0 30 -12 51t-41 35t-75 14q-72 0 -146 -34t-132 -90t-86 -120q-8 -24 -13 -45t-5 -39z" />
<glyph unicode="9" horiz-adv-x="1074" d="M-62 222q0 36 24 65t62 33h10q24 0 45 -11t34 -30t17 -43v-2q8 -58 100 -58q30 0 79 20t119 66t152 142t150 224q-58 -30 -119 -45t-125 -15q-94 0 -167 43t-112 115t-39 158q0 88 40 180q68 170 224 297t342 127q54 0 106 -20t98 -61t75 -111t29 -160q0 -130 -56 -302 q-12 -32 -24 -66t-28 -68q-62 -154 -144 -280t-161 -205t-161 -133t-151 -76t-127 -22q-72 0 -128 23t-85 54t-49 68t-25 59t-5 34zM360 884q0 -124 126 -124q76 0 145 32t137 111t118 197q0 2 1 4t1 4q2 14 2 28q0 36 -5 63t-15 44t-20 28t-25 16t-26 7t-25 2 q-74 0 -154 -44t-142 -113t-94 -147q-6 -16 -10 -30t-7 -28t-5 -26t-2 -24z" />
<glyph unicode=":" d="M-156 116v13t1 13t2 11t3 9q2 2 2 4q22 52 64 87t102 35t84 -35t24 -81q0 -14 -2 -26t-4 -20l-2 -4q-22 -52 -64 -87t-102 -35t-84 35t-24 81zM162 884q0 28 6 46l1 2l1 2q22 52 64 87t102 35q32 0 54 -11t33 -29t16 -37t5 -39q0 -28 -6 -46v-1l-2 -3q-22 -52 -64 -87 t-102 -35t-84 35t-24 81z" />
<glyph unicode=";" horiz-adv-x="472" d="M-220 -112q0 10 2 20t6 20t12 18q32 42 66 94q-8 14 -13 27t-8 26t-3 25t2 23t6 21q2 2 2 4q22 52 64 87t102 35q40 0 66 -20t37 -48t11 -62q0 -18 -4 -35t-10 -33q-38 -90 -166 -260q-28 -38 -76 -38q-32 0 -58 20q-38 28 -38 76zM162 884q0 28 6 46l1 2l1 2 q22 52 64 87t102 35q32 0 54 -11t33 -29t16 -37t5 -39q0 -28 -6 -46v-1l-2 -3q-22 -52 -64 -87t-102 -35t-84 35t-24 81z" />
<glyph unicode="&#x3c;" horiz-adv-x="1024" d="M72 748q0 6 2 13t4 13t6 12l8 12q6 8 14 14t18 10l870 432l8 4t8 3l8 2t8 1h10q60 0 86 -54q4 -10 7 -20t3 -22q0 -60 -54 -86l-738 -366l400 -338q34 -30 34 -74q0 -6 -1 -11t-2 -11t-3 -11l-4 -10t-5 -10t-7 -9q-14 -16 -34 -25t-40 -9q-18 0 -33 6t-29 16l-512 432 l-14 14q-2 4 -5 8t-5 10q-12 24 -8 54z" />
<glyph unicode="=" horiz-adv-x="1024" d="M-30 496q0 40 28 68t68 28h692q40 0 68 -28t28 -68t-28 -68t-68 -28h-692q-40 0 -68 28t-28 68zM170 976q0 40 28 68t68 28h692q40 0 68 -28t28 -68t-28 -68t-68 -28h-692q-40 0 -68 28t-28 68z" />
<glyph unicode="&#x3e;" horiz-adv-x="1024" d="M-108 304q0 60 54 86l738 366l-400 338q-10 10 -18 22t-12 25t-4 27q0 12 3 22t8 21t11 19q30 34 74 34q18 0 33 -6t29 -16l512 -432q8 -6 14 -14q2 -4 5 -8t5 -10q12 -24 8 -54q0 -14 -6 -27t-14 -23l-7 -7t-7 -6l-8 -6t-10 -5l-870 -432q-20 -10 -42 -10q-60 0 -86 54 q-10 20 -10 42z" />
<glyph unicode="?" horiz-adv-x="1024" d="M100 116q0 28 6 46q2 2 2 4q22 52 64 87t102 35t84 -35t24 -81q0 -10 -1 -19t-2 -15t-3 -12l-2 -4q-22 -52 -64 -87t-102 -35q-40 0 -66 20t-34 44t-8 52zM222 1073q0 19 8 35q74 180 219 280t309 100q92 0 160 -28q50 -20 85 -56t51 -80t16 -96q0 -70 -30 -144 q-32 -78 -82 -140t-101 -101t-125 -79q-108 -62 -155 -118t-109 -202q-10 -28 -35 -44t-53 -16q-10 0 -19 2t-17 6q-18 6 -32 20t-21 32t-7 37t8 35q44 110 92 184t108 128t148 104q50 28 80 48t58 46t48 57t38 73q20 52 20 80q0 20 -9 29t-29 17q-34 14 -88 14 q-40 0 -80 -10t-79 -30t-74 -50t-66 -74t-53 -96q-10 -28 -35 -44t-53 -16q-10 0 -19 2t-17 6q-18 6 -32 20t-21 32t-7 37z" />
<glyph unicode="@" horiz-adv-x="1408" d="M18 432q0 164 74 340q122 298 375 507t509 209q92 0 168 -32q122 -50 184 -160t62 -256q0 -80 -19 -167t-55 -173q-76 -184 -154 -272q-24 -28 -55 -52t-63 -39t-67 -24t-67 -9q-14 0 -29 2t-29 6l-28 8q-38 16 -68 48q-50 -40 -104 -62t-110 -22q-106 0 -162 78t-56 180 q0 108 52 232q70 170 196 292t264 122q74 0 128 -44q28 32 70 32q20 0 36 -8q28 -10 44 -35t16 -53q0 -20 -8 -36l-222 -538q0 -2 -1 -4t-1 -4q4 -2 12 -2q10 0 28 7t41 21t39 32q58 64 122 216q30 76 45 142t15 122q0 94 -36 157t-92 85q-42 18 -96 18q-178 0 -392 -175 t-316 -421q-60 -146 -60 -264q0 -94 36 -157t92 -85q20 -10 44 -14t52 -4q32 0 65 5t68 17t71 28q10 6 20 8t22 2q60 0 86 -54q2 -6 4 -11t3 -10l2 -10t1 -11q0 -60 -54 -86q-146 -70 -288 -70q-92 0 -168 32q-82 34 -138 97t-82 143t-26 176zM516 542q0 -66 22 -66h2h2 q30 0 90 42t112 116l116 276v11v11q0 64 -20 64h-2h-2q-22 0 -57 -21t-76 -58t-82 -95t-69 -124q-36 -86 -36 -156z" />
<glyph unicode="A" horiz-adv-x="1100" d="M-208 96q0 30 16 54l882 1280q30 42 80 42h60h30q20 0 38 -8t31 -22t20 -31t7 -35v-14l-178 -1280q-6 -34 -33 -58t-63 -24h-14q-34 6 -58 33t-24 63v14l26 178h-476l-168 -246q-30 -42 -80 -42q-30 2 -54 16q-42 30 -42 80zM270 480h368l94 672z" />
<glyph unicode="B" horiz-adv-x="1112" d="M-130 96q0 6 1 12l2 12t5 12l296 718l234 562q10 26 35 43t53 17h410q116 0 186 -76t70 -184q0 -82 -38 -172q-22 -56 -57 -108t-79 -97t-96 -77q40 -68 40 -156q0 -96 -46 -202q-28 -70 -75 -138t-108 -128t-141 -97t-162 -37h-434q-16 0 -30 4q-30 10 -48 36t-18 56z M110 192h290q76 0 170 87t140 193q14 36 21 70t7 62q0 48 -11 62t-45 14h-4h-6h-8h-8h-344zM392 872h264q32 0 66 12q68 24 131 88t95 140q22 56 22 102q0 40 -12 53t-52 13h-346z" />
<glyph unicode="C" horiz-adv-x="1094" d="M10 360q2 190 94 412q78 192 198 352t269 262t289 102q20 0 40 -2q46 -6 84 -21t63 -35t44 -46t29 -51t17 -54t9 -51t2 -44q0 -12 -1 -23t-1 -17v-4q-2 -16 -9 -29t-16 -23t-20 -17t-24 -11t-27 -4h-10q-16 2 -29 8t-23 15t-18 20t-12 25t-4 28q0 6 1 16t1 18q0 28 -6 50 t-29 41t-61 19q-120 0 -298 -174t-282 -422q-74 -182 -74 -324q0 -80 22 -131t50 -63q18 -6 40 -6q92 0 209 101t149 161q4 10 11 19t16 16t19 12t21 8t23 3q18 0 34 -8q28 -10 44 -35t16 -53q0 -10 -2 -19t-6 -17q-10 -26 -39 -69t-80 -98t-111 -101t-141 -79t-163 -33 q-60 0 -112 22q-100 40 -148 133t-48 221z" />
<glyph unicode="D" horiz-adv-x="1112" d="M-130 96q0 8 1 14t2 11t5 11l530 1280q6 18 21 32t32 21t35 7h332q46 0 94 -18q86 -36 136 -121t50 -217q0 -86 -23 -191t-75 -225q-62 -154 -143 -278t-157 -201t-156 -128t-142 -72t-114 -21h-332q-40 0 -68 29t-28 67zM110 192h188q18 0 53 12t96 52t123 100t134 169 t130 247q46 112 66 197t20 147q0 54 -16 92t-29 50t-27 18q-10 4 -20 4h-268z" />
<glyph unicode="E" horiz-adv-x="1112" d="M-130 96q0 6 1 12l2 12t5 12l530 1280q10 26 35 43t53 17h666q40 0 68 -28t28 -68t-28 -68t-68 -28h-602l-168 -408h316q40 0 68 -28t28 -68t-28 -68t-68 -28h-396l-202 -488h546q40 0 68 -28t28 -68t-28 -68t-68 -28h-690q-16 0 -30 4q-30 10 -48 36t-18 56z" />
<glyph unicode="F" horiz-adv-x="1062" d="M-130 96q0 10 2 19t6 17l530 1280q6 18 21 32t32 21t35 7h640q40 0 68 -28t28 -68t-28 -68t-68 -28h-576l-168 -408h328q40 0 68 -28t28 -68t-28 -68t-68 -28h-408l-258 -620q-10 -28 -35 -44t-53 -16q-20 0 -36 8q-28 10 -44 35t-16 53z" />
<glyph unicode="G" horiz-adv-x="1074" d="M12 368q0 186 92 404q58 142 143 271t183 228t211 158t219 59q74 0 129 -27t84 -63t47 -83t23 -79t5 -58q0 -14 -1 -22t-1 -16q-6 -36 -33 -60t-63 -24h-10q-26 4 -45 18t-30 35t-11 43q0 6 1 14t1 14q0 24 -3 42t-12 36t-29 28t-52 10q-120 0 -298 -174t-282 -422 q-76 -184 -76 -332q0 -72 17 -117t40 -60t57 -15q78 0 166 62t138 118l98 236h-126q-40 0 -68 28t-28 68t28 68t68 28h270q6 0 14 -1t16 -3q20 -8 35 -22t23 -32t8 -38q0 -6 -1 -12t-2 -13t-5 -11l-160 -384q-4 -14 -14 -24q-8 -12 -22 -29t-62 -62t-99 -79t-127 -62 t-150 -28q-148 0 -227 112t-79 272z" />
<glyph unicode="H" horiz-adv-x="1138" d="M-130 96q0 10 2 19t6 17l530 1280q10 28 35 44t53 16q20 0 36 -8q28 -10 44 -35t16 -53q0 -10 -2 -19t-6 -17l-192 -468h470l224 540q10 28 35 44t53 16q20 0 36 -8q12 -4 21 -11t16 -16t12 -19t8 -21t3 -21q0 -20 -8 -36l-530 -1280q-10 -28 -35 -44t-53 -16 q-20 0 -36 8q-28 10 -44 35t-16 53q0 20 8 36l226 548h-470l-258 -620q-10 -28 -35 -44t-53 -16q-20 0 -36 8q-28 10 -44 35t-16 53z" />
<glyph unicode="I" horiz-adv-x="536" d="M-92 96q0 6 1 12l2 12t5 12l530 1280q10 28 35 44t53 16q20 0 36 -8q18 -6 32 -20t21 -32t7 -37t-8 -35l-530 -1280q-10 -28 -35 -44t-53 -16q-20 0 -36 8q-28 10 -44 35t-16 53z" />
<glyph unicode="J" horiz-adv-x="870" d="M-108 252q0 102 48 216l52 128q10 28 35 44t53 16q20 0 36 -8q28 -10 44 -35t16 -53q0 -20 -8 -36l-52 -128q-16 -42 -24 -78t-8 -66q0 -34 7 -52t14 -21t21 -3q54 0 157 99t163 241l372 896q4 12 11 21t16 16t19 12t21 8t21 3q20 0 36 -8q28 -10 44 -35t16 -53 q0 -6 -1 -12t-2 -13t-5 -11l-372 -896q-78 -190 -214 -325t-282 -135q-110 0 -172 80t-62 188z" />
<glyph unicode="K" horiz-adv-x="1074" d="M-130 96q0 6 1 12l2 12t5 12l530 1280q10 28 35 44t53 16q20 0 36 -8q28 -10 44 -35t16 -53q0 -20 -8 -36l-192 -466l710 576q26 22 60 22q22 0 41 -9t33 -27q22 -26 22 -60q0 -22 -9 -41t-27 -33l-580 -472l108 -720q2 -4 2 -7v-7q0 -34 -23 -62t-59 -32q-4 -2 -7 -2h-7 q-22 0 -43 10t-35 29t-16 43l-94 608l-230 -188l-184 -442q-10 -28 -35 -44t-53 -16q-20 0 -36 8q-28 10 -44 35t-16 53z" />
<glyph unicode="L" horiz-adv-x="1048" d="M-130 96q0 6 1 12l2 12t5 12l530 1280q10 28 35 44t53 16q20 0 36 -8q28 -10 44 -35t16 -53q0 -20 -8 -36l-474 -1148h520q40 0 68 -28t28 -68t-28 -68t-68 -28h-664q-16 0 -30 4q-30 10 -48 36t-18 56z" />
<glyph unicode="M" horiz-adv-x="1328" d="M-130 96q0 10 2 19t6 17l530 1280q6 18 21 32t32 21t35 7h36h28q40 0 68 -30t28 -68v-10l-114 -898l682 966q12 18 34 29t44 11h64q40 0 68 -29t28 -67q0 -8 -1 -14t-2 -11t-5 -11l-530 -1280q-10 -28 -35 -44t-53 -16q-20 0 -36 8q-28 10 -44 35t-16 53q0 20 8 36 l290 702l-560 -794q-6 -8 -15 -16t-19 -13t-21 -8t-23 -3h-4q-38 2 -65 30t-27 66v12l100 796l-350 -844q-10 -28 -35 -44t-53 -16q-20 0 -36 8q-28 10 -44 35t-16 53z" />
<glyph unicode="N" horiz-adv-x="1152" d="M-130 96q0 10 2 19t6 17l530 1280q6 18 21 32t32 21t35 7h64q38 0 66 -28t30 -64l34 -950l408 982q10 28 35 44t53 16q20 0 36 -8q28 -10 44 -35t16 -53q0 -20 -8 -36l-530 -1280q-10 -26 -35 -43t-53 -17h-50q-18 0 -35 7t-30 19t-22 30t-9 36l-36 982l-420 -1014 q-10 -28 -35 -44t-53 -16q-20 0 -36 8q-28 10 -44 35t-16 53z" />
<glyph unicode="O" horiz-adv-x="1176" d="M10 358q0 190 94 414q78 192 198 352t269 262t289 102q20 0 39 -2t38 -7t37 -13q194 -80 194 -352q0 -190 -94 -414q-78 -192 -198 -352t-269 -262t-289 -102q-30 0 -59 5t-55 17q-194 80 -194 352zM206 374q0 -78 21 -128t51 -62q16 -8 40 -8q120 0 298 174t282 422 q74 182 74 326q0 78 -21 128t-51 62q-16 8 -40 8q-120 0 -298 -174t-282 -422q-74 -182 -74 -326z" />
<glyph unicode="P" horiz-adv-x="1088" d="M-130 96q0 10 2 19t6 17l266 644l264 636q6 18 21 32t32 21t35 7h384q68 0 124 -22q76 -32 113 -95t37 -149q0 -18 -1 -38t-5 -40t-9 -41t-12 -42t-17 -41q-76 -186 -215 -291t-293 -105h-320l-228 -548q-10 -28 -35 -44t-53 -16q-20 0 -36 8q-28 10 -44 35t-16 53z M362 800h240q90 0 182 70t150 206q34 84 34 133t-36 63q-20 8 -52 8h-320z" />
<glyph unicode="Q" horiz-adv-x="1176" d="M10 358q0 190 94 414q78 192 198 352t269 262t289 102q20 0 39 -2t38 -7t37 -13q194 -80 194 -352q0 -190 -94 -414q-76 -184 -193 -343t-251 -257q32 -6 54 -33t22 -61l-2 -16q-4 -34 -32 -57t-62 -23q-8 0 -16 2q-12 2 -24 5t-24 8t-22 11t-20 14t-18 16q-18 20 -32 42 q-62 -22 -136 -24q-30 0 -59 5t-55 17q-194 80 -194 352zM206 374q0 -78 21 -128t51 -62q16 -8 40 -8q46 0 108 32q2 10 4 22t3 20t2 15t1 11q0 6 -3 15t-7 16t-8 16t-4 17q0 18 7 35t19 31q14 14 32 22t38 8q6 0 12 -1l12 -2t11 -3t11 -5t11 -7t9 -8q20 -20 34 -46 q2 -6 6 -14q180 180 282 422q74 182 74 326q0 78 -21 128t-51 62q-16 8 -40 8q-120 0 -298 -174t-282 -422q-74 -182 -74 -326z" />
<glyph unicode="R" horiz-adv-x="1126" d="M-130 96q0 10 2 19t6 17l292 710l238 570q6 18 21 32t32 21t35 7h422q82 0 144 -24q46 -20 79 -54t48 -77t15 -95q0 -88 -42 -186q-58 -146 -156 -233t-218 -115l-42 -598q-2 -38 -30 -64t-66 -26h-6q-40 4 -66 34q-24 28 -24 63v5l42 570h-288l-254 -612 q-10 -28 -35 -44t-53 -16q-20 0 -36 8q-28 10 -44 35t-16 53zM388 864h278q218 0 320 244q32 78 32 118q-2 32 -30 44q-26 10 -70 10h-358z" />
<glyph unicode="S" horiz-adv-x="1074" d="M-70 332v12q4 38 32 63t64 25h6q18 -2 35 -10t29 -21t19 -30t7 -35v-6v-10q0 -22 4 -42t17 -45t45 -41t78 -16q126 0 239 84t165 208q6 16 11 29t8 26t5 24t2 21q0 14 -5 27t-14 24t-23 20t-34 17q-14 4 -29 9t-33 9q-80 16 -141 47t-99 72t-56 89t-18 100q0 30 6 60 q8 40 26 82q70 168 218 266t316 98q78 0 138 -25t93 -60t54 -80t27 -79t6 -62q0 -26 -4 -46q-6 -34 -33 -57t-61 -23h-7t-7 2q-36 4 -59 33t-23 61q0 10 1 19t1 17q0 22 -3 37t-14 33t-38 28t-71 10q-110 0 -210 -66t-148 -178q-2 -10 -5 -17t-5 -15l-4 -16q-6 -24 -6 -36 q0 -34 35 -61t127 -45q28 -6 52 -13t46 -15q100 -42 145 -113t45 -159q0 -42 -10 -85t-26 -81q-72 -176 -230 -294t-350 -118q-58 0 -105 12t-80 33t-60 48t-42 57t-26 60t-15 57t-6 47t-2 34z" />
<glyph unicode="T" horiz-adv-x="1100" d="M190 96q0 20 8 36l474 1148h-254q-40 0 -68 28t-28 68t28 68t68 28h794q40 0 68 -28t28 -68t-28 -68t-68 -28h-332l-506 -1220q-4 -14 -14 -25t-22 -19t-25 -12t-27 -4q-20 0 -36 8q-28 10 -44 35t-16 53z" />
<glyph unicode="U" horiz-adv-x="1138" d="M-20 296q0 86 36 172l392 944q10 28 35 44t53 16q20 0 36 -8q28 -10 44 -35t16 -53q0 -20 -8 -36l-392 -944q-12 -30 -18 -56t-6 -48q0 -78 66 -104q12 -6 28 -9t36 -3q106 0 226 87t170 205l392 944q6 18 20 32t32 21t37 7t35 -8q28 -10 44 -35t16 -53q0 -10 -2 -19 t-6 -17l-392 -944q-70 -174 -234 -293t-338 -119q-74 0 -138 26q-88 36 -134 112t-46 174z" />
<glyph unicode="V" horiz-adv-x="1100" d="M176 96v10l146 1280q4 36 32 61t64 25h10q18 -2 34 -11t27 -22t18 -29t7 -34v-10l-110 -956l730 1022q28 40 78 40q16 0 30 -5t26 -13q18 -14 29 -35t11 -43q0 -16 -5 -30t-13 -26l-914 -1280q-28 -40 -78 -40h-26q-24 0 -46 12t-36 35t-14 49z" />
<glyph unicode="W" horiz-adv-x="1394" d="M62 96q0 10 2 20l260 1280q4 22 18 39t34 27t42 10q10 0 20 -2q32 -6 54 -33t22 -61q0 -10 -2 -20l-162 -796l524 866q12 22 35 34t47 12h14q40 0 68 -29t28 -69q0 -10 -2 -20l-178 -792l538 864q28 46 82 46q14 0 27 -4t23 -10q46 -28 46 -82q0 -28 -14 -50l-798 -1280 q-28 -46 -82 -46h-26q-16 0 -33 7t-31 20t-23 31t-9 38q0 6 1 11t1 11l168 740l-492 -812q-28 -46 -82 -46h-24q-32 0 -64 28t-32 68z" />
<glyph unicode="X" horiz-adv-x="1010" d="M-208 96q0 40 26 66l586 608l-82 594v12q0 36 24 63t60 33h12q36 0 63 -24t33 -60l60 -442l478 496q28 30 70 30q40 0 66 -26q30 -28 30 -70q0 -40 -26 -66l-586 -608l82 -594v-12q0 -36 -24 -63t-60 -33h-12q-36 0 -63 24t-33 60l-60 442l-478 -496q-28 -30 -70 -30 q-40 0 -66 26q-30 28 -30 70z" />
<glyph unicode="Y" horiz-adv-x="1048" d="M164 96q0 10 2 19t6 17l266 646l-114 580q-2 8 -2 18q0 22 10 42t28 34t40 18q8 2 18 2q34 0 61 -22t33 -56l86 -434l498 484q26 28 66 28t68 -30q28 -26 28 -66q0 -12 -3 -24t-10 -24t-17 -20l-608 -594l-272 -654q-6 -18 -20 -32t-32 -21t-37 -7t-35 8q-28 10 -44 35 t-16 53z" />
<glyph unicode="Z" horiz-adv-x="1010" d="M-208 96q0 38 26 66l1068 1118h-454q-40 0 -68 28t-28 68t28 68t68 28h678q40 0 68 -29t28 -67q0 -20 -8 -37t-18 -29l-1068 -1118h480q40 0 68 -28t28 -68t-28 -68t-68 -28h-704q-34 0 -60 22q-36 28 -36 74z" />
<glyph unicode="[" horiz-adv-x="498" d="M-248 -64q0 20 8 36l662 1600q10 26 35 43t53 17h192q40 0 68 -28t28 -68t-28 -68t-68 -28h-128l-582 -1408h48q40 0 68 -28t28 -68t-28 -68t-68 -28h-192q-6 0 -14 1t-16 3q-12 4 -22 11t-18 16t-14 20t-9 22t-3 23z" />
<glyph unicode="\" horiz-adv-x="920" d="M348 1374q-2 38 26 67t68 31h2q38 0 66 -27t30 -67l34 -1280q0 -26 -12 -48t-34 -36t-48 -14h-2q-38 0 -66 27t-30 67z" />
<glyph unicode="]" horiz-adv-x="498" d="M-300 -64q0 40 28 68t68 28h128l584 1408h-48q-40 0 -68 28t-28 68t28 68t68 28h192q26 0 48 -13t35 -35t13 -48q0 -12 -8 -36l-664 -1600q-10 -28 -35 -44t-53 -16h-192q-40 0 -68 28t-28 68z" />
<glyph unicode="^" horiz-adv-x="818" d="M150 896q0 38 24 64l428 480q14 16 33 24t39 8q42 0 70 -30q10 -12 17 -28t9 -32l32 -480q2 -38 -24 -69t-66 -33h-6q-38 0 -66 26t-30 64l-16 252l-276 -310q-28 -32 -72 -32q-18 0 -34 6t-30 18q-16 14 -24 33t-8 39z" />
<glyph unicode="_" horiz-adv-x="920" d="M-404 -192q0 40 28 68t68 28h768q40 0 68 -28t28 -68t-28 -68t-68 -28h-768q-40 0 -68 28t-28 68z" />
<glyph unicode="`" horiz-adv-x="614" d="M348 1376q0 34 22 61t54 33q6 2 10 2h10q8 0 16 -1t16 -4t15 -7t13 -9t12 -12t10 -13t7 -14t5 -16l84 -416q2 -10 2 -20q0 -22 -10 -42t-27 -34t-39 -18q-6 -2 -10 -2h-10q-34 0 -61 22t-33 54l-84 416q-2 10 -2 20z" />
<glyph unicode="a" horiz-adv-x="940" d="M-66 282q0 130 64 282q86 210 240 359t316 149q100 0 166 -68q26 52 84 52q20 0 36 -8q14 -4 25 -14t19 -22t12 -25t4 -27q0 -20 -8 -36l-358 -864q-10 -28 -35 -44t-53 -16q-6 0 -10 1t-9 1t-9 2l-8 4q-12 4 -22 12t-18 18q-96 -54 -188 -54q-120 0 -184 89t-64 209z M126 280q0 -32 8 -53t16 -27t18 -12t14 -12q48 0 130 58t152 158l2 2l142 342q2 20 2 38v2q0 44 -10 69t-20 30t-26 5q-26 0 -63 -18t-80 -52t-86 -80t-83 -109t-68 -129q-24 -60 -36 -114t-12 -96v-2z" />
<glyph unicode="b" horiz-adv-x="940" d="M-144 96q0 26 12 48q38 62 88 182l452 1086q6 18 20 32t32 21t37 7t35 -8q28 -10 44 -35t16 -53q0 -20 -8 -36l-120 -292q62 24 122 24q12 0 24 -1t23 -3t23 -6t22 -8q156 -62 156 -272q0 -28 -3 -57t-8 -58t-13 -59t-18 -59t-22 -57q-86 -210 -240 -359t-316 -149 q-16 0 -30 2q-88 10 -144 72q-4 -6 -6 -12q-30 -46 -82 -46q-26 0 -48 14q-48 28 -48 82zM158 274q0 -92 48 -98h4h4q74 0 193 113t187 275q46 116 46 204q0 32 -7 58t-14 37t-13 13q-8 4 -20 4q-30 0 -75 -23t-102 -74t-105 -119l-144 -346v-9t-1 -9t-1 -9v-9v-8z" />
<glyph unicode="c" horiz-adv-x="844" d="M-68 270q0 136 66 294q86 210 238 359t312 149q104 0 172 -77t68 -179q0 -8 -2 -17t-5 -17t-8 -16t-10 -14t-12 -12t-15 -10t-17 -6t-17 -4h-10q-24 0 -45 11t-35 31t-16 44q-4 48 -16 61t-32 13t-49 -13t-62 -36t-70 -58t-71 -77t-66 -95t-56 -109q-48 -116 -48 -206 q0 -24 4 -45t10 -34t10 -20t8 -9q8 -2 18 -2q38 0 103 41t125 113q14 16 34 25t40 9q18 0 33 -6t29 -16q34 -30 34 -74q0 -36 -22 -62q-188 -222 -376 -222q-48 0 -90 18q-154 62 -154 268z" />
<glyph unicode="d" horiz-adv-x="946" d="M-58 282q0 130 64 282q86 210 239 359t315 149q100 0 164 -66l170 406q10 28 35 44t53 16q10 0 19 -2t17 -6q28 -10 44 -35t16 -53q0 -20 -8 -36l-450 -1090q-48 -116 -62 -176q-4 -18 -14 -31t-22 -23t-27 -15t-31 -5q-10 0 -20 2q-20 4 -35 15t-25 25q-98 -58 -194 -58 q-120 0 -184 89t-64 209zM134 280q0 -64 15 -84t41 -20q22 0 54 14t69 40t79 67t78 93l144 346v10t1 11t1 9v10q0 44 -10 69t-20 30t-26 5q-72 0 -191 -113t-187 -275q-48 -118 -48 -212z" />
<glyph unicode="e" horiz-adv-x="870" d="M-70 264q0 138 68 300q6 20 15 38t18 35t17 35q96 174 227 287t267 113q98 0 164 -65t74 -167q2 -20 2 -38q0 -118 -62 -262q-10 -28 -35 -44t-53 -16h-462q-24 -62 -35 -112t-11 -88q0 -32 7 -57t13 -34t10 -11q6 -2 16 -2q52 0 116 36t95 64t45 43t33 24t41 9 q34 0 60 -22l7 -7t5 -6t5 -7t5 -7t3 -7t3 -8t3 -8t1 -8t1 -8t1 -8q0 -34 -22 -60q-154 -184 -350 -208q-28 -4 -52 -4q-48 0 -90 16q-150 62 -150 264zM274 672h292l8 28t7 27t5 25t3 24t1 24q0 6 -1 12t-1 12q0 12 -2 20t-3 15t-3 10t-5 6t-7 4t-8 1h-10h-4h-4 q-28 0 -70 -22t-96 -71t-102 -115z" />
<glyph unicode="f" horiz-adv-x="600" d="M-74 96q0 20 8 36l302 732h-8q-40 0 -68 28t-28 68t28 68t68 28h88l96 228q42 106 129 163t167 57q42 0 82 -14q28 -12 45 -36t17 -54q0 -16 -6 -32q-10 -28 -34 -46t-54 -18q-10 0 -19 2t-17 4l-14 2q-20 -2 -60 -29t-60 -71l-64 -156h36q40 0 68 -28t28 -68t-28 -68 t-68 -28h-116l-334 -804q-10 -28 -35 -44t-53 -16q-20 0 -36 8q-28 10 -44 35t-16 53z" />
<glyph unicode="g" horiz-adv-x="940" d="M-144 -232q0 50 40 78q8 6 17 10t19 6t20 2q48 0 76 -38q18 -18 54 -18q52 0 116 57t106 143q-54 -20 -122 -24q-120 0 -184 89t-64 209q0 130 64 282q86 210 240 359t316 149q36 0 69 -9t58 -26t45 -41q4 8 8 14q30 46 84 46q24 0 46 -14q24 -12 36 -35t12 -48t-12 -47 q-38 -62 -88 -182l-318 -766q-26 -64 -63 -122t-88 -111t-119 -84t-142 -31q-60 0 -111 24t-69 41t-28 31t-14 28t-4 28zM126 280q0 -64 15 -84t41 -20q48 0 130 58t152 158v2l144 344q2 20 2 38q0 44 -10 69t-20 30t-26 5q-26 0 -63 -18t-80 -52t-86 -80t-83 -109t-68 -129 q-12 -30 -21 -60t-15 -56t-9 -50t-3 -46z" />
<glyph unicode="h" horiz-adv-x="934" d="M-130 96q0 6 1 12l2 12t5 12l530 1280q10 28 35 44t53 16q20 0 36 -8q28 -10 44 -35t16 -53q0 -20 -8 -36l-122 -298q36 14 74 22t76 8q66 0 118 -36q44 -32 66 -83t22 -109q0 -82 -40 -176l-252 -608q-10 -28 -35 -44t-53 -16q-20 0 -36 8q-28 10 -44 35t-16 53 q0 10 2 19t6 17l252 608q12 32 17 57t5 45q0 30 -6 38h-6q-46 0 -114 -41t-108 -76t-70 -65l-266 -638q-10 -28 -35 -44t-53 -16q-20 0 -36 8q-28 10 -44 35t-16 53z" />
<glyph unicode="i" d="M-130 97q0 19 8 35l358 864q10 28 35 44t53 16q10 0 19 -2t17 -6q28 -10 44 -35t16 -53q0 -20 -8 -36l-358 -864q-10 -28 -35 -44t-53 -16q-20 0 -36 8q-18 6 -32 20t-21 32t-7 37zM372 1312q0 20 8 36l40 96q10 28 35 44t53 16q20 0 36 -8q28 -10 44 -35t16 -53 q0 -10 -2 -19t-6 -17l-40 -96q-10 -28 -35 -44t-53 -16q-20 0 -36 8q-28 10 -44 35t-16 53z" />
<glyph unicode="j" d="M-442 -284q0 14 4 30q2 6 6 13t8 13t10 12t12 10t13 7l14 6t14 4t15 1t14 -1t14 -3q14 0 32 12t37 36t33 54l452 1086q10 28 35 44t53 16h8t7 -1t7 -2l8 -2t6 -3q18 -6 32 -20t21 -32t7 -36v-8t-1 -7t-2 -7l-2 -8t-3 -6l-452 -1090q-36 -88 -108 -153t-174 -65 q-26 0 -54 10q-10 2 -19 8t-16 13t-13 15t-10 17t-6 18t-2 19zM372 1312q0 20 8 36l40 96q10 28 35 44t53 16q20 0 36 -8q28 -10 44 -35t16 -53q0 -10 -2 -19t-6 -17l-40 -96q-10 -28 -35 -44t-53 -16q-20 0 -36 8q-28 10 -44 35t-16 53z" />
<glyph unicode="k" horiz-adv-x="844" d="M-130 96q0 10 2 19t6 17l530 1280q10 28 35 44t53 16q20 0 36 -8q28 -10 44 -35t16 -53q0 -10 -2 -19t-6 -17l-234 -566l296 258q28 24 64 24q14 0 27 -4t25 -11t20 -17q24 -28 24 -64q0 -20 -9 -39t-23 -33l-282 -244l10 -546q0 -40 -28 -69t-66 -29h-2q-38 0 -67 28 t-29 66l-6 384l-118 -102l-132 -316q-10 -28 -35 -44t-53 -16q-20 0 -36 8q-28 10 -44 35t-16 53z" />
<glyph unicode="l" d="M-118 96l2 16q14 76 72 214l452 1086q6 18 20 32t32 21t37 7t35 -8q28 -10 44 -35t16 -53q0 -20 -8 -36l-452 -1090q-22 -50 -37 -94t-18 -57t-5 -23q-8 -34 -35 -55t-59 -21q-10 0 -18 2q-34 6 -56 33t-22 61z" />
<glyph unicode="m" horiz-adv-x="1382" d="M-130 97q0 19 8 35l358 864q10 28 35 44t53 16q10 0 19 -2t17 -6q6 -2 12 -5t11 -7t9 -8t8 -10q100 54 198 54q32 0 62 -9t54 -27q40 -26 64 -72q142 108 282 108q66 0 118 -36q14 -10 28 -24t23 -29t16 -32t12 -35t7 -36t2 -36q0 -82 -40 -176l-252 -608 q-10 -28 -35 -44t-53 -16q-20 0 -36 8q-18 6 -32 20t-21 32t-7 37t8 35l252 608q22 58 22 102q0 12 -1 21t-2 12t-3 5h-6q-36 0 -82 -23t-88 -57t-68 -59t-44 -43q-4 -16 -12 -30l-252 -608q-6 -18 -20 -32t-32 -21t-36 -7q-20 0 -36 8q-28 10 -44 35t-16 53q0 10 2 19t6 17 l252 608q22 58 22 100v15t-1 11t-3 7t-2 5v2h-8q-46 0 -111 -41t-102 -75t-65 -64l-266 -640q-10 -28 -35 -44t-53 -16q-20 0 -36 8q-18 6 -32 20t-21 32t-7 37z" />
<glyph unicode="n" horiz-adv-x="928" d="M-130 97q0 19 8 35l358 864q10 28 35 44t53 16q10 0 19 -2t17 -6q14 -4 24 -13t18 -19q104 56 204 56q66 0 118 -36q44 -32 66 -83t22 -109q0 -82 -40 -176l-252 -608q-10 -28 -35 -44t-53 -16q-20 0 -36 8q-28 10 -44 35t-16 53q0 10 2 19t6 17l252 608q8 22 14 42t7 34 t1 26t-1 21t-2 12t-3 5h-6q-46 0 -112 -41t-105 -75t-69 -66l-266 -638q-10 -28 -35 -44t-53 -16q-20 0 -36 8q-18 6 -32 20t-21 32t-7 37z" />
<glyph unicode="o" horiz-adv-x="908" d="M-66 274q0 136 64 290q86 210 240 359t316 149q12 0 24 -1t23 -3t23 -6t22 -8q156 -62 156 -272q0 -46 -8 -96t-22 -98t-34 -96q-86 -210 -240 -359t-316 -149q-50 0 -92 18q-156 62 -156 272zM128 288q0 -12 1 -24t3 -22t4 -18t5 -15t6 -12t6 -9t5 -6t4 -2q4 -2 9 -3 t11 -1q74 0 193 113t187 275q46 116 46 204q0 32 -7 58t-14 37t-13 13q-8 4 -20 4q-18 0 -43 -9t-53 -27t-59 -43t-62 -59t-60 -72t-56 -84t-47 -94q-46 -116 -46 -204z" />
<glyph unicode="p" horiz-adv-x="940" d="M-290 -288q0 20 8 36l518 1248q10 28 35 44t53 16q20 0 36 -8q12 -4 22 -12t18 -18q10 6 23 12t28 10t30 9t30 8t28 6t23 5t17 3t9 1h-2q12 0 24 -1t23 -3t23 -6t22 -8q156 -62 156 -272q0 -28 -3 -57t-8 -58t-13 -59t-18 -59t-22 -57q-86 -210 -240 -359t-316 -149 q-16 0 -30 2q-82 10 -134 62l-156 -372q-10 -28 -35 -44t-53 -16q-20 0 -36 8q-28 10 -44 35t-16 53zM158 274q0 -92 48 -98h4h4q74 0 193 113t187 275q46 116 46 204q0 32 -7 58t-14 37t-13 13q-8 4 -20 4q-48 0 -129 -57t-151 -155l-146 -352q-2 -22 -2 -42z" />
<glyph unicode="q" horiz-adv-x="940" d="M-66 282q0 130 64 282q86 210 240 359t316 149q54 0 97 -20t75 -56q4 8 8 14q14 22 36 34t46 12q26 0 48 -14q48 -28 48 -82q0 -26 -12 -48q-38 -62 -88 -182l-438 -1054q-10 -28 -35 -44t-53 -16q-20 0 -36 8q-28 10 -44 35t-16 53q0 10 2 19t6 17l106 260 q-54 -20 -122 -24q-120 0 -184 89t-64 209zM126 280q0 -64 15 -84t41 -20q48 0 130 58t152 158l144 346q2 20 2 38q0 44 -10 69t-20 30t-26 5q-26 0 -63 -18t-80 -52t-86 -80t-83 -109t-68 -129q-12 -30 -21 -60t-15 -56t-9 -50t-3 -46z" />
<glyph unicode="r" horiz-adv-x="678" d="M-130 96q0 20 8 36l358 864q10 28 35 44t53 16q10 0 19 -2t17 -6q46 -18 58 -66q26 18 75 37t85 29t42 10l-2 -2q40 0 68 -28t28 -68t-28 -68t-68 -28t-158 -110t-224 -258l-182 -436q-10 -28 -35 -44t-53 -16q-20 0 -36 8q-28 10 -44 35t-16 53z" />
<glyph unicode="s" horiz-adv-x="792" d="M-136 224q0 34 21 60t53 34q12 2 22 2q32 0 58 -20t36 -52q2 -14 9 -28t24 -29t39 -15q70 0 135 51t99 131q12 26 17 43t5 25q-4 12 -20 18q-10 4 -23 7t-31 5q-108 14 -165 81t-57 151v7v7v7t2 7q2 18 6 35t8 31t12 30q22 54 61 101t89 83t111 56t121 20q42 0 79 -10 t62 -24t46 -34t34 -38t22 -37t12 -28t5 -17l2 -18q0 -22 -9 -41t-26 -34t-39 -21q-6 0 -11 -1t-11 -1q-32 0 -58 21t-34 51q-14 40 -74 40q-56 0 -120 -44t-86 -96q-10 -26 -12 -48q0 -4 -1 -8t-2 -7t-1 -7q0 -16 58 -22q14 -2 28 -5t27 -6t25 -7l24 -8q132 -56 132 -196 q0 -38 -9 -75t-23 -69q-52 -124 -161 -211t-249 -87q-44 0 -83 12t-64 32t-46 43t-33 47t-20 43t-11 31l-3 12q0 6 -1 10t-1 10z" />
<glyph unicode="t" horiz-adv-x="550" d="M-86 96q0 20 8 36l302 732q-24 2 -46 15t-34 34t-12 47q0 40 28 68t68 28h76l108 260q10 28 35 44t53 16q6 0 10 -1t9 -1t9 -2l8 -4q28 -10 44 -35t16 -53q0 -20 -8 -36l-76 -188q38 -2 65 -30t27 -66q0 -40 -28 -68t-68 -28h-76l-334 -804q-10 -28 -35 -44t-53 -16 q-20 0 -36 8q-28 10 -44 35t-16 53z" />
<glyph unicode="u" horiz-adv-x="928" d="M-56 212q0 82 40 176l252 608q6 18 20 32t32 21t36 7q10 0 19 -2t17 -6q28 -10 44 -35t16 -53q0 -20 -8 -36l-252 -608q-6 -16 -11 -32t-7 -28t-3 -23t-1 -19v-14t1 -10t2 -7t1 -4t2 -3h6q36 0 81 22t88 56t70 58t47 46l266 638q10 28 35 44t53 16q20 0 36 -8 q14 -4 25 -14t19 -22t12 -25t4 -27q0 -20 -8 -36l-358 -864q-10 -28 -35 -44t-53 -16q-20 0 -36 8q-14 4 -24 13t-18 19q-104 -56 -204 -56q-66 0 -118 36q-88 62 -88 192z" />
<glyph unicode="v" horiz-adv-x="792" d="M10 96q0 8 2 16l140 864q2 16 11 31t22 26t29 17t32 6q8 0 16 -2q16 -2 31 -11t26 -22t17 -29t6 -32q0 -8 -2 -16l-84 -528l396 598q10 12 23 22t27 15t30 5q14 0 28 -4t26 -12q42 -28 42 -80q0 -30 -16 -54l-574 -864q-28 -42 -80 -42h-52q-34 0 -65 28t-31 68z" />
<glyph unicode="w" horiz-adv-x="1112" d="M-28 96q0 10 2 20l178 864q4 22 18 39t34 27t42 10q10 0 20 -2q22 -4 39 -18t27 -34t10 -42q0 -10 -2 -20l-88 -424l272 416q28 44 80 44h26q28 0 50 -15t34 -37t12 -46q0 -8 -2 -14l-62 -350l308 496q28 46 82 46q28 0 50 -14q46 -28 46 -82q0 -28 -14 -50l-536 -864 q-14 -22 -36 -34t-46 -12h-26q-36 0 -66 28t-30 68q0 8 2 16l66 374l-288 -442q-28 -44 -80 -44h-26q-20 0 -42 12t-38 35t-16 49z" />
<glyph unicode="x" horiz-adv-x="792" d="M-208 96q0 12 3 23t9 22t14 21l408 436l-38 352q-1 5 -1 11q0 34 23 60q26 31 64 35h10q36 0 64 -25t32 -61l18 -186l226 242q28 30 70 30q38 0 66 -26q14 -14 22 -32t8 -38q0 -18 -7 -35t-19 -31l-338 -362l44 -426q1 -5 1 -11q0 -34 -23 -60q-26 -31 -64 -35h-10 q-36 0 -64 25t-32 61l-26 258l-294 -314q-28 -30 -70 -30q-38 0 -66 26q-30 28 -30 70z" />
<glyph unicode="y" horiz-adv-x="792" d="M-366 -288q0 12 3 25t10 24t16 19t19 15t23 10t25 3h7t6 -1t6 -1t5 -2h12q26 0 85 53t105 125l84 122l110 868q6 36 33 60t63 24h12q36 -6 60 -33t24 -63v-12l-64 -488l374 554q28 42 80 42q14 0 28 -4t26 -12q42 -28 42 -80q0 -14 -4 -28t-12 -26l-696 -1032 q-34 -50 -60 -83t-72 -81t-102 -73t-116 -25q-16 0 -30 2t-20 3t-12 3q-22 6 -38 20t-24 33t-8 39z" />
<glyph unicode="z" horiz-adv-x="806" d="M-188 96q0 38 26 66l656 702h-216q-40 0 -68 28t-28 68t28 68t68 28h436q34 0 60 -20q36 -30 36 -76q0 -10 -2 -18t-5 -17t-8 -16t-11 -15l-656 -702h240q40 0 68 -28t28 -68t-28 -68t-68 -28h-460q-40 0 -68 29t-28 67z" />
<glyph unicode="{" horiz-adv-x="690" d="M40 74q0 90 50 196q28 60 70 142t57 119t15 61q0 8 -1 14t-4 12t-9 12t-13 10t-15 8q-18 10 -31 24t-19 34q-6 16 -6 36q0 8 3 17t5 17q6 10 11 17t13 15q14 12 34 18q76 26 125 74t72 107t41 127t43 138t65 134t120 123t198 97q14 6 30 6q30 0 56 -18t34 -48q4 -6 5 -14 t1 -16q0 -30 -18 -56t-48 -34q-80 -28 -131 -81t-71 -114t-43 -136t-46 -144t-82 -141t-149 -122q24 -48 24 -108q0 -52 -21 -118t-45 -113t-56 -104t-40 -75q-40 -84 -40 -114t48 -52q56 -26 56 -88q0 -22 -8 -40q-26 -56 -88 -56q-22 0 -40 8q-152 72 -152 226z" />
<glyph unicode="|" d="M-196 -64q0 20 8 36l662 1600q6 18 20 32t32 21t37 7t35 -8q8 -2 15 -7t13 -10t11 -12t9 -14t7 -14t4 -15t1 -16q0 -10 -2 -19t-6 -17l-662 -1600q-10 -28 -35 -44t-53 -16q-20 0 -36 8q-28 10 -44 35t-16 53z" />
<glyph unicode="}" horiz-adv-x="690" d="M-300 -64q0 30 18 56t48 34q142 48 200 192q8 18 60 194q60 194 176 294q40 32 86 58q-12 24 -18 51t-6 55q0 70 29 149t80 168t55 97q20 44 30 70t10 42q0 30 -48 52q-56 26 -56 88q0 22 8 40q6 14 16 24t21 17t25 11t26 4q22 0 40 -8q152 -72 152 -226q0 -90 -50 -194 q-28 -62 -70 -143t-58 -119t-16 -62q0 -36 42 -56q10 -6 18 -11t14 -13t11 -16t7 -18q6 -16 5 -35t-7 -35q-10 -18 -24 -31t-34 -19q-76 -26 -125 -74t-72 -107t-41 -127t-43 -138t-65 -134t-120 -123t-198 -97q-14 -6 -30 -6q-30 0 -56 18t-34 48q-6 14 -6 30z" />
<glyph unicode="~" horiz-adv-x="1036" d="M-56 432q0 32 18 56q152 216 298 216q68 0 176 -60t154 -60q38 0 73 22t71 74q14 18 35 29t43 11q16 0 30 -5t26 -13t21 -21t14 -28t5 -29q0 -16 -5 -30t-13 -26q-152 -216 -298 -216q-68 0 -176 60t-154 60q-76 0 -144 -96q-28 -40 -78 -40q-32 0 -56 18q-12 8 -21 21 t-14 28t-5 29z" />
<glyph unicode="&#xa0;" />
<glyph unicode="&#xa1;" d="M-304 -318q0 10 2 19t6 17l332 800q6 18 20 32t32 21t37 7t35 -8q28 -10 44 -35t16 -53q0 -20 -8 -36l-332 -800q-10 -28 -35 -44t-53 -16q-20 0 -36 8q-14 4 -25 14t-19 22t-12 25t-4 27zM162 886q0 14 2 26t4 20l2 4q22 52 64 87t102 35t84 -35t24 -81v-13t-1 -13 t-2 -11t-3 -9q-2 -2 -2 -4q-22 -52 -64 -87t-102 -35t-84 35t-24 81z" />
<glyph unicode="&#xa2;" horiz-adv-x="844" d="M-156 -272q0 8 1 16t4 15t7 13l842 1600q8 16 21 28t30 18t33 6q12 0 23 -3t21 -9q52 -26 52 -84q0 -24 -12 -44l-842 -1600q-26 -52 -84 -52q-24 0 -44 12q-24 12 -38 35t-14 49zM-68 270q0 136 66 294q86 210 238 359t312 149q104 0 172 -77t68 -179q0 -8 -2 -17 t-5 -17t-8 -16t-10 -14t-12 -12t-15 -10t-17 -6t-17 -4h-10q-24 0 -45 11t-35 31t-16 44q-4 48 -16 61t-32 13t-49 -13t-62 -36t-70 -58t-71 -77t-66 -95t-56 -109q-48 -116 -48 -206q0 -24 4 -45t10 -34t10 -20t8 -9q8 -2 18 -2q38 0 103 41t125 113q14 16 34 25t40 9 q18 0 33 -6t29 -16q34 -30 34 -74q0 -36 -22 -62q-188 -222 -376 -222q-48 0 -90 18q-154 62 -154 268z" />
<glyph unicode="&#xa3;" horiz-adv-x="1126" d="M-80 96q0 8 2 17t4 16t7 15t9 14q264 308 330 482h-68q-40 0 -68 28t-28 68t28 68t68 28h100q0 52 1 76t12 77t35 107q70 170 220 283t318 113q48 0 92 -10t83 -33t69 -54t47 -76t17 -97q0 -30 -5 -60t-14 -60t-23 -62q-6 -18 -20 -32t-32 -21t-37 -7t-35 8 q-28 10 -44 35t-16 53q0 20 8 36q14 34 20 61t6 49q0 28 -8 44t-34 25t-74 9q-100 0 -206 -79t-156 -197q-8 -20 -13 -45t-6 -40t-2 -53t-3 -50h162q40 0 68 -28t28 -68t-28 -68t-68 -28h-194q-62 -198 -254 -448h438q40 0 68 -28t28 -68t-28 -68t-68 -28h-640q-32 0 -56 18 q-40 28 -40 78z" />
<glyph unicode="&#xa4;" horiz-adv-x="920" d="M-62 384q0 46 34 74l154 128q4 4 10 6q-2 12 -2 24q0 78 34 156q38 96 110 172l-42 110l-4 16t-2 18q0 28 17 54t45 36q16 6 34 6q14 0 28 -4t26 -12t21 -20t15 -26l22 -60q54 22 128 26q46 0 86 -16q4 -2 8 -3t7 -3l6 -4t7 -3t7 -3t5 -4l136 110q12 10 28 16t32 6 q8 0 16 -2l16 -4t16 -7t14 -10t12 -13q22 -26 22 -60q0 -46 -36 -74l-156 -128q0 -2 -2 -3t-4 -3v-26q0 -38 -8 -78t-24 -76q-38 -96 -110 -172l42 -110q6 -16 6 -34q0 -28 -17 -54t-45 -36q-16 -6 -34 -6t-36 8t-32 22t-22 32l-22 62q-66 -28 -130 -28q-46 0 -88 16 q-6 4 -13 7t-13 6t-12 7l-132 -110q-10 -8 -20 -12t-20 -7t-22 -3q-46 0 -74 34q-22 26 -22 62zM324 616q0 -12 4 -22t8 -12l2 -4q2 0 6 -1t10 -1q48 0 119 58t105 138q18 48 18 80q0 16 -3 26t-7 12l-4 4q-2 0 -6 1t-10 1q-48 0 -118 -57t-104 -139q-20 -50 -20 -84z" />
<glyph unicode="&#xa5;" horiz-adv-x="1048" d="M-18 496q0 40 28 68t68 28h692q40 0 68 -28t28 -68t-28 -68t-68 -28h-692q-40 0 -68 28t-28 68zM164 96q0 10 2 19t6 17l266 646l-114 580q-2 8 -2 18q0 22 10 42t28 34t40 18q8 2 18 2q34 0 61 -22t33 -56l86 -434l498 484q26 28 66 28t68 -30q28 -26 28 -66 q0 -12 -3 -24t-10 -24t-17 -20l-608 -594l-272 -654q-6 -18 -20 -32t-32 -21t-37 -7t-35 8q-28 10 -44 35t-16 53zM182 976q0 40 28 68t68 28h692q40 0 68 -28t28 -68t-28 -68t-68 -28h-692q-40 0 -68 28t-28 68z" />
<glyph unicode="&#xa6;" d="M-196 -64q0 20 8 36l250 608q10 28 35 44t53 16h8t7 -1t7 -2l8 -2t6 -3q18 -6 32 -20t21 -32t7 -36q0 -6 -1 -10t-1 -9t-2 -9l-4 -8l-250 -608q-6 -18 -20 -32t-32 -21t-37 -7t-35 8q-28 10 -44 35t-16 53zM214 928q0 10 2 19t6 17l252 608q6 18 20 32t32 21t37 7t35 -8 q18 -6 32 -20t21 -32t7 -36q0 -10 -2 -19t-6 -17l-252 -608q-4 -12 -11 -21t-16 -16t-19 -12t-21 -8t-21 -3q-20 0 -36 8q-28 10 -44 35t-16 53z" />
<glyph unicode="&#xa7;" horiz-adv-x="998" d="M-226 -120q0 22 4 42q6 34 33 57t61 23q8 0 14 -2q36 -4 59 -32t23 -64v-5v-5q-2 -8 -2 -22q0 -18 3 -29t12 -24t31 -20t56 -7q94 0 181 56t127 150q8 22 12 40q4 20 4 28q0 54 -138 82q-18 4 -34 8t-31 9t-29 11q-170 72 -170 248q0 74 32 150q40 94 116 175t176 131 q-56 68 -56 154q0 14 2 27t4 27q8 36 24 74q62 152 196 239t286 87q60 0 110 -16t80 -42t53 -56t33 -64t15 -59t5 -45q0 -22 -4 -38q-2 -18 -11 -33t-21 -26t-28 -17t-34 -6h-14q-36 6 -59 34t-23 64v9t1 10t1 11q0 18 -3 29t-12 25t-31 21t-58 7q-62 0 -121 -24t-108 -72 t-77 -110q-4 -10 -7 -20t-5 -20q-4 -20 -4 -28q0 -54 138 -82q26 -6 50 -13t44 -15q170 -72 170 -248q0 -38 -9 -77t-23 -73q-26 -62 -69 -120t-100 -105t-123 -81q56 -68 56 -154q0 -28 -6 -54q-8 -36 -24 -74q-62 -152 -197 -239t-287 -87q-72 0 -127 22t-85 55t-50 74 t-26 72t-6 57zM176 418q0 -40 58 -66q10 -4 22 -7t26 -7q108 4 213 78t147 174q22 52 22 80q0 40 -58 66q-20 8 -48 14q-108 -4 -213 -78t-147 -174q-22 -52 -22 -80z" />
<glyph unicode="&#xa8;" horiz-adv-x="768" d="M360 1280q0 20 8 36l40 96q6 18 20 32t32 21t37 7t35 -8q28 -10 44 -35t16 -53q0 -10 -2 -19t-6 -17l-40 -96q-10 -28 -35 -44t-53 -16q-20 0 -36 8q-28 10 -44 35t-16 53zM666 1280q0 6 1 12t2 13t5 11l40 96q10 28 35 44t53 16q20 0 36 -8q28 -10 44 -35t16 -53 q0 -6 -1 -10t-1 -9t-2 -9l-4 -8l-40 -96q-4 -12 -11 -21t-16 -16t-19 -12t-21 -8t-21 -3t-19 2t-17 6q-28 10 -44 35t-16 53z" />
<glyph unicode="&#xa9;" horiz-adv-x="1176" d="M-84 442q0 160 72 330q118 290 367 495t499 205q90 0 164 -30q120 -50 181 -158t61 -252q0 -160 -72 -332q-118 -290 -366 -495t-498 -205q-90 0 -164 30q-206 84 -238 332q-6 40 -6 80zM108 444q0 -90 34 -152t90 -84q40 -16 92 -16q174 0 381 170t307 410 q58 142 58 256q0 46 -10 86t-27 69t-39 49t-48 32q-20 8 -43 12t-49 4q-174 0 -382 -170t-308 -410q-20 -48 -33 -94t-18 -85t-5 -77zM250 544q0 106 52 228q66 162 180 275t242 113q76 0 128 -46q20 -18 33 -39t19 -41t9 -36t3 -32q0 -10 -2 -34q-6 -38 -33 -61t-63 -23 h-10q-26 4 -46 18t-31 38t-9 52v12q-40 -2 -119 -80t-125 -188q-32 -82 -32 -150q0 -34 6 -46q12 0 32 12t41 29t39 35t26 30q26 54 88 54q18 0 34 -8q28 -10 44 -35t16 -53q0 -6 -1 -12t-2 -13t-5 -11q-10 -24 -34 -57t-63 -72t-96 -65t-119 -26q-20 0 -39 4t-37 10 q-126 54 -126 218z" />
<glyph unicode="&#xaa;" horiz-adv-x="704" d="M256 1036v2q0 76 36 160q48 116 134 199t188 83q38 0 70 -14q4 -2 10 -6q2 2 6 4t8 3l8 2t7 2t7 1h8q20 0 36 -8q12 -4 21 -11t16 -16t12 -19t8 -21t3 -21q0 -20 -8 -36l-178 -432q-10 -28 -35 -44t-53 -16q-20 0 -36 8q-2 0 -4 1t-4 1q-44 -18 -88 -18q-48 0 -88 24 q-84 52 -84 172zM448 1040q40 22 78 76l68 160v4q-32 -18 -68 -62t-58 -96q-10 -24 -15 -45t-5 -37z" />
<glyph unicode="&#xab;" horiz-adv-x="1228" d="M22 526q0 48 36 76l526 432q26 22 60 22q46 0 74 -36q22 -26 22 -60q0 -46 -36 -74l-472 -388l144 -368l4 -16t2 -18q0 -28 -17 -53t-45 -37q-16 -6 -34 -6q-28 0 -53 17t-37 45l-168 432q-6 14 -6 32zM470 526q0 22 9 42t27 34l526 432q26 22 60 22q14 0 27 -4t25 -12 t22 -20t16 -28t6 -32q0 -46 -36 -74l-472 -388l144 -368l6 -34q0 -28 -17 -53t-45 -37q-16 -6 -34 -6q-66 0 -90 62l-168 432q-2 6 -4 15t-2 17z" />
<glyph unicode="&#xac;" horiz-adv-x="1024" d="M146 920q0 40 28 68t68 28h692q40 0 68 -29t28 -67q0 -20 -8 -36l-152 -368q-4 -14 -14 -25t-22 -19t-25 -12t-27 -4h-8t-7 1t-7 2l-8 2t-6 3q-28 10 -44 35t-16 53q0 20 8 36l96 236h-548q-40 0 -68 28t-28 68z" />
<glyph unicode="&#xad;" horiz-adv-x="664" d="M-54 528q0 40 28 68t68 28h410q40 0 68 -28t28 -68t-28 -68t-68 -28h-410q-40 0 -68 28t-28 68z" />
<glyph unicode="&#xae;" horiz-adv-x="1176" d="M-84 442q0 160 72 330q118 290 367 495t499 205q90 0 164 -30q120 -50 181 -158t61 -252q0 -160 -72 -332q-118 -290 -366 -495t-498 -205q-90 0 -164 30q-206 84 -238 332q-6 40 -6 80zM108 444q0 -90 34 -152t90 -84q40 -16 92 -16q150 0 330 130q-8 -2 -15 -2h-13 q-26 2 -47 17t-33 38t-10 47l16 234h-60l-114 -276q-10 -28 -35 -44t-53 -16q-20 0 -36 8q-10 2 -18 8t-14 13t-12 15t-9 16t-5 18t-2 18q0 20 8 36l152 372l112 268q2 6 5 12t7 10q-214 -174 -314 -414q-20 -48 -33 -94t-18 -85t-5 -77zM514 1144q20 8 40 8h212 q48 0 88 -16q36 -14 62 -42q22 -24 32 -53t10 -61q0 -52 -26 -112q-14 -38 -35 -69t-45 -54t-50 -40t-56 -29l-18 -266q0 -8 -2 -14l-4 -12t-4 -10q198 170 294 398q58 142 58 256q0 46 -10 86t-27 69t-39 49t-48 32q-20 8 -43 12t-49 4q-154 0 -340 -136zM572 848h68 q10 0 20 1t20 5t20 11t20 17t19 25t17 33q2 6 3 10t3 10h-144z" />
<glyph unicode="&#xaf;" horiz-adv-x="512" d="M272 1376q0 40 28 68t68 28h306q40 0 68 -28t28 -68t-28 -68t-68 -28h-306q-40 0 -68 28t-28 68z" />
<glyph unicode="&#xb0;" horiz-adv-x="768" d="M218 1002q0 38 8 78t24 76q52 132 164 224t236 92q46 0 88 -16q132 -54 132 -216q0 -78 -34 -156q-52 -132 -163 -224t-235 -92q-16 0 -30 2t-29 5t-27 9q-70 28 -102 85t-32 133zM408 1004q0 -32 14 -42q2 0 6 -1t10 -1q48 0 118 57t104 139q20 50 20 84q0 30 -14 38 q-6 2 -16 2q-30 0 -72 -24t-85 -71t-67 -101q-10 -26 -14 -46t-4 -34z" />
<glyph unicode="&#xb1;" horiz-adv-x="1024" d="M-188 112q0 40 28 68t68 28h692q40 0 68 -28t28 -68t-28 -68t-68 -28h-692q-40 0 -68 28t-28 68zM150 928q0 40 28 68t68 28h280l156 372q10 28 35 44t53 16q20 0 36 -8q28 -10 44 -35t16 -53q0 -6 -1 -12l-2 -12t-5 -12l-124 -300h204q40 0 68 -28t28 -68t-28 -68 t-68 -28h-282l-156 -372q-10 -28 -35 -44t-53 -16q-20 0 -36 8q-28 10 -44 35t-16 53q0 20 8 36l124 300h-202q-40 0 -68 28t-28 68z" />
<glyph unicode="&#xb2;" horiz-adv-x="844" d="M218 1056q0 20 8 36q26 64 56 116t57 92t70 80t73 66t88 63t94 58t112 63l6 3t5 3t5 4q52 30 83 50t52 40t32 37t23 45q6 16 10 30t6 24t2 18q0 32 -24 42q-14 6 -36 6t-45 -5t-46 -14t-45 -24t-41 -35t-36 -46t-31 -56q-10 -28 -35 -44t-53 -16q-20 0 -36 8 q-28 10 -44 35t-16 53q0 20 8 36q58 142 173 221t247 79q60 0 108 -20q72 -30 106 -89t34 -133q0 -72 -30 -142q-10 -26 -22 -48t-27 -42t-32 -39t-37 -36t-44 -34t-50 -34t-58 -35q-8 -4 -22 -12q-102 -58 -147 -84t-101 -66t-88 -75t-62 -83h336q40 0 68 -28t28 -68 t-28 -68t-68 -28h-490q-4 0 -9 1t-11 2t-10 1q-14 6 -27 15t-21 21t-13 27t-5 29z" />
<glyph unicode="&#xb3;" horiz-adv-x="844" d="M284 1214q0 40 28 68t68 28t68 -28t28 -68t16 -57t56 -17q74 0 168 71t134 169q8 22 14 42t8 37t2 31q0 28 -5 40t-18 18t-41 6q-30 0 -98 -28q-18 -6 -36 -6q-6 0 -12 1t-12 3l-12 4q-36 14 -52 50v1t-2 1q-2 8 -4 17t-2 19q0 18 8 36q6 18 19 31t31 21q92 40 168 97 t134 119h-252q-40 0 -68 28t-28 68t28 68t68 28h442q20 0 38 -8q26 -12 42 -36t16 -52q0 -12 -3 -23t-9 -23l-5 -10t-14 -24t-24 -36t-34 -45t-43 -52t-53 -55t-65 -58q90 -74 90 -202q0 -84 -40 -180q-60 -152 -196 -256t-282 -104q-116 0 -190 77t-74 189z" />
<glyph unicode="&#xb4;" d="M284 1470q0 10 2 20t7 20t11 18t15 16t19 12l386 192q18 10 42 10q60 0 86 -54q2 -4 4 -9t3 -11t2 -11t1 -11q0 -60 -54 -86l-386 -192q-6 -4 -13 -6t-14 -3t-15 -1q-60 0 -86 54q-4 6 -6 13t-3 14t-1 15z" />
<glyph unicode="&#xb5;" horiz-adv-x="928" d="M-290 -288q0 6 1 12l2 12t5 12l504 1216q2 6 4 10l10 22q6 18 20 32t32 21t36 7q10 0 19 -2t17 -6q28 -10 44 -35t16 -53q0 -20 -8 -36l-252 -608q-6 -16 -11 -32t-7 -28t-3 -23t-1 -19v-14t1 -10t2 -7t1 -4t2 -3h6q36 0 81 22t88 56t70 58t47 46l266 638q10 28 35 44 t53 16q20 0 36 -8q14 -4 25 -14t19 -22t12 -25t4 -27q0 -20 -8 -36l-358 -864q-10 -28 -35 -44t-53 -16q-20 0 -36 8q-14 4 -24 13t-18 19q-104 -56 -204 -56q-64 0 -114 34l-142 -342q-10 -28 -35 -44t-53 -16q-20 0 -36 8q-28 10 -44 35t-16 53z" />
<glyph unicode="&#xb6;" horiz-adv-x="1048" d="M-8 -288q0 20 8 36l358 866q-94 20 -154 88t-60 170q0 92 48 204q76 186 215 291t293 105h384h7t7 -1l8 -2t8 -1q20 -8 35 -22t23 -32t8 -38q0 -6 -1 -12l-2 -12t-5 -12l-688 -1664q-6 -18 -20 -32t-32 -21t-37 -7t-35 8q-28 10 -44 35t-16 53q0 6 1 12l2 12t5 12 l632 1532h-100q0 -2 -2 -4l-662 -1600q-10 -28 -35 -44t-53 -16q-10 0 -19 2t-17 6q-28 10 -44 35t-16 53z" />
<glyph unicode="&#xb7;" d="M90 708q0 28 6 46l1 2l1 2q22 52 64 87t102 35q32 0 54 -11t33 -29t16 -37t5 -39q0 -28 -6 -46v-1l-2 -3q-22 -52 -64 -87t-102 -35t-84 35t-24 81z" />
<glyph unicode="&#xb8;" horiz-adv-x="512" d="M-412 -400q0 40 28 68t68 28q78 0 113 15t51 45q-12 2 -26 3t-32 1q-26 0 -48 13t-35 35t-13 48q0 16 8 35t16 27l194 224q28 34 72 34q12 0 23 -3t21 -8t18 -13q34 -28 34 -72q0 -36 -24 -62l-88 -102q40 -24 60 -60t20 -77t-20 -87q-78 -188 -344 -188q-40 0 -68 28 t-28 68z" />
<glyph unicode="&#xb9;" d="M266 1056q0 20 8 36l398 960q10 28 35 44t53 16h8t7 -1t7 -2l8 -2t6 -3q28 -10 44 -35t16 -53q0 -6 -1 -10t-1 -9t-2 -9l-4 -8l-398 -960q-6 -18 -20 -32t-32 -21t-37 -7t-35 8q-28 10 -44 35t-16 53z" />
<glyph unicode="&#xba;" horiz-adv-x="690" d="M254 1030q0 80 38 168q48 116 134 199t188 83q16 0 32 -3t32 -9q58 -24 84 -70t26 -108q0 -40 -11 -84t-27 -84q-48 -116 -134 -199t-188 -83q-34 0 -64 12q-110 44 -110 178zM448 1040q30 16 67 60t59 98q20 46 20 82q-14 -8 -31 -23t-34 -35t-33 -46t-28 -54 q-10 -24 -15 -45t-5 -37z" />
<glyph unicode="&#xbb;" horiz-adv-x="1228" d="M-130 96q0 46 34 74l472 388l-142 368q-2 4 -3 8l-2 8t-1 8v10q0 28 17 53t45 37q16 6 34 6q28 0 53 -17t37 -45l166 -432q2 -4 3 -8t1 -8t1 -8t1 -8q0 -22 -10 -43t-24 -33l-524 -432q-28 -22 -62 -22q-46 0 -74 34q-22 28 -22 62zM318 96q0 22 9 41t25 33l472 388 l-142 368q-6 16 -6 34q0 28 17 53t45 37q16 6 34 6q28 0 53 -17t37 -45l166 -432q2 -4 3 -8t1 -8t1 -8t1 -8q0 -14 -5 -29t-12 -27t-17 -20l-524 -432q-28 -22 -62 -22q-46 0 -74 34q-22 28 -22 62z" />
<glyph unicode="&#xbc;" horiz-adv-x="998" d="M-258 -212q0 6 1 10t1 9t2 9t2 8l38 94q10 20 26 36l588 530q12 12 29 18t35 6h74q20 0 37 -8t30 -21t21 -31t8 -36q0 -6 -8 -36l-204 -492q24 -2 44 -16t32 -35t12 -45q0 -40 -28 -68t-68 -28h-70l-116 -276q-10 -28 -35 -44t-53 -16q-20 0 -36 8q-28 10 -44 35t-16 53 q0 20 8 36l84 204h-298q-26 0 -48 13t-35 35t-13 48zM22 -116h194l114 278zM58 736q0 40 28 68t68 28h690q40 0 68 -28t28 -68t-28 -68t-68 -28h-690q-40 0 -68 28t-28 68zM534 1056q0 20 8 36l398 960q10 28 35 44t53 16h8t7 -1t7 -2l8 -2t6 -3q28 -10 44 -35t16 -53 q0 -6 -1 -10t-1 -9t-2 -9l-4 -8l-398 -960q-6 -18 -20 -32t-32 -21t-37 -7t-35 8q-28 10 -44 35t-16 53z" />
<glyph unicode="&#xbd;" horiz-adv-x="998" d="M-368 -544q0 20 8 36q26 64 57 118t57 93t72 81t74 66t91 64t97 59t116 67q100 56 134 88t56 84q18 46 18 74q0 30 -22 40q-6 2 -15 4t-21 2q-72 0 -139 -46t-105 -134q-10 -28 -35 -44t-53 -16q-6 0 -10 1t-9 1t-9 2l-8 4q-28 10 -44 35t-16 53q0 20 8 36 q58 142 173 221t247 79q12 0 23 -1l22 -2t22 -4t21 -6t20 -7q70 -30 104 -88t34 -132q0 -36 -7 -73t-23 -71q-34 -84 -96 -144t-174 -124q-96 -54 -130 -73t-92 -56t-83 -60t-56 -57t-57 -74h336q40 0 68 -28t28 -68t-28 -68t-68 -28h-490q-6 0 -14 1t-16 3q-20 8 -35 22 t-23 32t-8 38zM58 736q0 40 28 68t68 28h690q40 0 68 -28t28 -68t-28 -68t-68 -28h-690q-40 0 -68 28t-28 68zM534 1056q0 20 8 36l398 960q10 28 35 44t53 16h8t7 -1t7 -2l8 -2t6 -3q28 -10 44 -35t16 -53q0 -6 -1 -10t-1 -9t-2 -9l-4 -8l-398 -960q-6 -18 -20 -32t-32 -21 t-37 -7t-35 8q-28 10 -44 35t-16 53z" />
<glyph unicode="&#xbe;" horiz-adv-x="998" d="M-258 -212q0 6 1 10t1 9t2 9t2 8l38 94q10 20 26 36l588 530q12 12 29 18t35 6h74q20 0 37 -8t30 -21t21 -31t8 -36q0 -6 -8 -36l-204 -492q24 -2 44 -16t32 -35t12 -45q0 -40 -28 -68t-68 -28h-70l-116 -276q-10 -28 -35 -44t-53 -16q-20 0 -36 8q-28 10 -44 35t-16 53 q0 20 8 36l84 204h-298q-26 0 -48 13t-35 35t-13 48zM22 -116h194l114 278zM58 736q0 40 28 68t68 28h690q40 0 68 -28t28 -68t-28 -68t-68 -28h-690q-40 0 -68 28t-28 68zM360 1214q0 40 28 68t68 28t68 -28t28 -68t16 -57t56 -17q74 0 168 71t134 169q8 22 14 42t8 37 t2 31q0 28 -5 40t-18 18t-41 6q-30 0 -98 -28q-18 -6 -36 -6q-6 0 -12 1t-12 3l-12 4q-36 14 -52 50v1t-2 1q-2 8 -4 17t-2 19q0 18 8 36q6 18 19 31t31 21q92 40 168 97t134 119h-252q-40 0 -68 28t-28 68t28 68t68 28h442q20 0 38 -8q26 -12 42 -36t16 -52q0 -12 -3 -23 t-9 -23l-5 -10t-14 -24t-24 -36t-34 -45t-43 -52t-53 -55t-65 -58q90 -74 90 -202q0 -84 -40 -180q-60 -152 -196 -256t-282 -104q-116 0 -190 77t-74 189z" />
<glyph unicode="&#xbf;" horiz-adv-x="1024" d="M-212 -156q0 70 30 144q32 78 82 140t101 101t125 79q108 62 155 118t109 202q10 28 35 44t53 16q10 0 19 -2t17 -6q18 -6 32 -20t21 -32t7 -37t-8 -35q-44 -110 -92 -184t-108 -128t-148 -104q-50 -28 -80 -48t-58 -46t-48 -57t-38 -73q-20 -52 -20 -80q0 -20 9 -29 t29 -17q34 -14 88 -14q40 0 80 10t79 30t74 50t66 74t53 96q10 28 35 44t53 16q10 0 19 -2t17 -6q18 -6 32 -20t21 -32t7 -37t-8 -35q-74 -180 -219 -280t-309 -100q-92 0 -160 28q-50 20 -85 56t-51 80t-16 96zM476 900q0 10 1 19t2 15t3 12l2 4q22 52 64 87t102 35 q40 0 66 -20t34 -44t8 -52t-6 -46q-2 -2 -2 -4q-22 -52 -64 -87t-102 -35t-84 35t-24 81z" />
<glyph unicode="&#xc0;" horiz-adv-x="1100" d="M-208 96q0 30 16 54l882 1280q30 42 80 42h60h30q20 0 38 -8t31 -22t20 -31t7 -35v-14l-178 -1280q-6 -34 -33 -58t-63 -24h-14q-34 6 -58 33t-24 63v14l26 178h-476l-168 -246q-30 -42 -80 -42q-30 2 -54 16q-42 30 -42 80zM202 1824q0 6 1 13t3 13t5 13t6 12t7 11 q10 12 22 19t25 11t27 4q18 0 34 -6t28 -16l226 -192q16 -14 25 -34t9 -40q0 -8 -2 -16l-4 -16t-7 -16t-9 -14q-30 -34 -74 -34q-36 0 -62 22l-226 192q-16 14 -25 34t-9 40zM270 480h368l94 672z" />
<glyph unicode="&#xc1;" horiz-adv-x="1100" d="M-208 96q0 30 16 54l882 1280q30 42 80 42h60h30q20 0 38 -8t31 -22t20 -31t7 -35v-14l-178 -1280q-6 -34 -33 -58t-63 -24h-14q-34 6 -58 33t-24 63v14l26 178h-476l-168 -246q-30 -42 -80 -42q-30 2 -54 16q-42 30 -42 80zM122 1632q0 10 2 20t7 20t11 18t15 16t19 12 l386 192q18 10 42 10q60 0 86 -54q2 -4 4 -9t3 -11t2 -11t1 -11q0 -60 -54 -86l-386 -192q-6 -4 -13 -6t-14 -3t-15 -1q-60 0 -86 54q-4 6 -6 13t-3 14t-1 15zM270 480h368l94 672z" />
<glyph unicode="&#xc2;" horiz-adv-x="1100" d="M-208 96q0 30 16 54l882 1280q30 42 80 42h60h30q20 0 38 -8t31 -22t20 -31t7 -35v-14l-178 -1280q-6 -34 -33 -58t-63 -24h-14q-34 6 -58 33t-24 63v14l26 178h-476l-168 -246q-30 -42 -80 -42q-30 2 -54 16q-42 30 -42 80zM110 1664q0 24 11 45t33 35l244 160 q22 16 50 16q52 0 80 -40l114 -160q6 -8 10 -17t6 -19t2 -20q0 -22 -11 -43t-29 -35q-24 -18 -56 -18q-50 0 -78 40l-60 86l-168 -110q-12 -8 -25 -12t-27 -4q-16 0 -31 5t-28 15t-21 24q-16 22 -16 52zM270 480h368l94 672z" />
<glyph unicode="&#xc3;" horiz-adv-x="1100" d="M-208 96q0 30 16 54l882 1280q30 42 80 42h60h30q20 0 38 -8t31 -22t20 -31t7 -35v-14l-178 -1280q-6 -34 -33 -58t-63 -24h-14q-34 6 -58 33t-24 63v14l26 178h-476l-168 -246q-30 -42 -80 -42q-30 2 -54 16q-42 30 -42 80zM52 1648q2 28 14 48v2q4 8 12 21t33 42t53 52 t72 41t92 18q16 0 31 -2t30 -7t27 -13q10 -6 18 -12t14 -13t11 -13t10 -13t8 -13t6 -13t5 -11t3 -9t3 -7q16 6 37 26t34 35t17 23q6 10 16 18t20 13t21 8t23 3h9t9 -1l8 -2t9 -3t9 -4l8 -4q44 -28 44 -82q0 -26 -14 -50q-4 -6 -11 -18t-32 -42t-53 -53t-73 -42t-95 -19 q-52 0 -92 26q-10 6 -18 13t-14 13t-12 14t-9 14l-7 14l-6 12t-5 11t-3 9q-20 -8 -48 -38t-38 -44q-28 -44 -82 -44q-26 0 -48 14q-6 4 -11 8t-9 8t-8 9t-6 11t-5 11t-4 11l-2 12t-1 12zM270 480h368l94 672z" />
<glyph unicode="&#xc4;" horiz-adv-x="1100" d="M-208 96q0 30 16 54l882 1280q30 42 80 42h60h30q20 0 38 -8t31 -22t20 -31t7 -35v-14l-178 -1280q-6 -34 -33 -58t-63 -24h-14q-34 6 -58 33t-24 63v14l26 178h-476l-168 -246q-30 -42 -80 -42q-30 2 -54 16q-42 30 -42 80zM270 480h368l94 672zM360 1280q0 20 8 36 l40 96q6 18 20 32t32 21t37 7t35 -8q28 -10 44 -35t16 -53q0 -10 -2 -19t-6 -17l-40 -96q-10 -28 -35 -44t-53 -16q-20 0 -36 8q-28 10 -44 35t-16 53zM666 1280q0 6 1 12t2 13t5 11l40 96q10 28 35 44t53 16q20 0 36 -8q28 -10 44 -35t16 -53q0 -6 -1 -10t-1 -9t-2 -9 l-4 -8l-40 -96q-4 -12 -11 -21t-16 -16t-19 -12t-21 -8t-21 -3t-19 2t-17 6q-28 10 -44 35t-16 53z" />
<glyph unicode="&#xc5;" horiz-adv-x="1100" d="M-208 96q0 30 16 54l882 1280q30 42 80 42h60h30q20 0 38 -8t31 -22t20 -31t7 -35v-14l-178 -1280q-6 -34 -33 -58t-63 -24h-14q-34 6 -58 33t-24 63v14l26 178h-476l-168 -246q-30 -42 -80 -42q-30 2 -54 16q-42 30 -42 80zM200 1718q0 18 2 38t7 38t13 34 q36 92 113 156t169 64h11t11 -1t11 -2t11 -2t11 -3t11 -4q106 -42 106 -170q0 -28 -5 -57t-17 -53q-36 -92 -113 -156t-169 -64q-36 0 -66 12q-106 42 -106 170zM270 480h368l94 672zM392 1734q22 12 48 39t38 55l6 22q-22 -12 -48 -39t-38 -55q-2 -6 -3 -11t-3 -11z" />
<glyph unicode="&#xc6;" horiz-adv-x="1458" d="M-208 96q0 16 5 32t17 28l1036 1280q12 18 32 27t42 9h90h500q40 0 68 -28t28 -68t-28 -68t-68 -28h-436l-168 -408h200q40 0 68 -28t28 -68t-28 -68t-68 -28h-280l-202 -488h374q40 0 68 -28t28 -68t-28 -68t-68 -28h-518h-12q-8 2 -14 4h-4q-2 2 -4 2t-2 2 q-14 4 -25 14t-19 22t-12 25t-4 27q0 20 8 36l64 156h-294l-204 -252q-28 -36 -74 -36q-34 0 -60 22q-36 28 -36 74zM322 480h218l226 548z" />
<glyph unicode="&#xc7;" horiz-adv-x="1094" d="M-412 -400q0 40 28 68t68 28q78 0 113 15t51 45q-12 2 -26 3t-32 1q-26 0 -48 13t-35 35t-13 48q0 16 8 35t16 27l194 224q28 34 72 34q12 0 23 -3t21 -8t18 -13q34 -28 34 -72q0 -36 -24 -62l-88 -102q40 -24 60 -60t20 -77t-20 -87q-78 -188 -344 -188q-40 0 -68 28 t-28 68zM10 360q2 190 94 412q78 192 198 352t269 262t289 102q20 0 40 -2q46 -6 84 -21t63 -35t44 -46t29 -51t17 -54t9 -51t2 -44q0 -12 -1 -23t-1 -17v-4q-2 -16 -9 -29t-16 -23t-20 -17t-24 -11t-27 -4h-10q-16 2 -29 8t-23 15t-18 20t-12 25t-4 28q0 6 1 16t1 18 q0 28 -6 50t-29 41t-61 19q-120 0 -298 -174t-282 -422q-74 -182 -74 -324q0 -80 22 -131t50 -63q18 -6 40 -6q92 0 209 101t149 161q4 10 11 19t16 16t19 12t21 8t23 3q18 0 34 -8q28 -10 44 -35t16 -53q0 -10 -2 -19t-6 -17q-10 -26 -39 -69t-80 -98t-111 -101t-141 -79 t-163 -33q-60 0 -112 22q-100 40 -148 133t-48 221z" />
<glyph unicode="&#xc8;" horiz-adv-x="1112" d="M-130 96q0 6 1 12l2 12t5 12l530 1280q10 26 35 43t53 17h666q40 0 68 -28t28 -68t-28 -68t-68 -28h-602l-168 -408h316q40 0 68 -28t28 -68t-28 -68t-68 -28h-396l-202 -488h546q40 0 68 -28t28 -68t-28 -68t-68 -28h-690q-16 0 -30 4q-30 10 -48 36t-18 56zM202 1824 q0 6 1 13t3 13t5 13t6 12t7 11q10 12 22 19t25 11t27 4q18 0 34 -6t28 -16l226 -192q16 -14 25 -34t9 -40q0 -8 -2 -16l-4 -16t-7 -16t-9 -14q-30 -34 -74 -34q-36 0 -62 22l-226 192q-16 14 -25 34t-9 40z" />
<glyph unicode="&#xc9;" horiz-adv-x="1112" d="M-130 96q0 6 1 12l2 12t5 12l530 1280q10 26 35 43t53 17h666q40 0 68 -28t28 -68t-28 -68t-68 -28h-602l-168 -408h316q40 0 68 -28t28 -68t-28 -68t-68 -28h-396l-202 -488h546q40 0 68 -28t28 -68t-28 -68t-68 -28h-690q-16 0 -30 4q-30 10 -48 36t-18 56zM122 1632 q0 10 2 20t7 20t11 18t15 16t19 12l386 192q18 10 42 10q60 0 86 -54q2 -4 4 -9t3 -11t2 -11t1 -11q0 -60 -54 -86l-386 -192q-6 -4 -13 -6t-14 -3t-15 -1q-60 0 -86 54q-4 6 -6 13t-3 14t-1 15z" />
<glyph unicode="&#xca;" horiz-adv-x="1112" d="M-130 96q0 6 1 12l2 12t5 12l530 1280q10 26 35 43t53 17h666q40 0 68 -28t28 -68t-28 -68t-68 -28h-602l-168 -408h316q40 0 68 -28t28 -68t-28 -68t-68 -28h-396l-202 -488h546q40 0 68 -28t28 -68t-28 -68t-68 -28h-690q-16 0 -30 4q-30 10 -48 36t-18 56zM110 1664 q0 24 11 45t33 35l244 160q22 16 50 16q52 0 80 -40l114 -160q6 -8 10 -17t6 -19t2 -20q0 -22 -11 -43t-29 -35q-24 -18 -56 -18q-50 0 -78 40l-60 86l-168 -110q-12 -8 -25 -12t-27 -4q-16 0 -31 5t-28 15t-21 24q-16 22 -16 52z" />
<glyph unicode="&#xcb;" horiz-adv-x="1112" d="M-130 96q0 6 1 12l2 12t5 12l530 1280q10 26 35 43t53 17h666q40 0 68 -28t28 -68t-28 -68t-68 -28h-602l-168 -408h316q40 0 68 -28t28 -68t-28 -68t-68 -28h-396l-202 -488h546q40 0 68 -28t28 -68t-28 -68t-68 -28h-690q-16 0 -30 4q-30 10 -48 36t-18 56zM360 1280 q0 20 8 36l40 96q6 18 20 32t32 21t37 7t35 -8q28 -10 44 -35t16 -53q0 -10 -2 -19t-6 -17l-40 -96q-10 -28 -35 -44t-53 -16q-20 0 -36 8q-28 10 -44 35t-16 53zM666 1280q0 6 1 12t2 13t5 11l40 96q10 28 35 44t53 16q20 0 36 -8q28 -10 44 -35t16 -53q0 -6 -1 -10t-1 -9 t-2 -9l-4 -8l-40 -96q-4 -12 -11 -21t-16 -16t-19 -12t-21 -8t-21 -3t-19 2t-17 6q-28 10 -44 35t-16 53z" />
<glyph unicode="&#xcc;" horiz-adv-x="536" d="M-92 96q0 6 1 12l2 12t5 12l530 1280q10 28 35 44t53 16q20 0 36 -8q18 -6 32 -20t21 -32t7 -37t-8 -35l-530 -1280q-10 -28 -35 -44t-53 -16q-20 0 -36 8q-28 10 -44 35t-16 53zM202 1824q0 6 1 13t3 13t5 13t6 12t7 11q10 12 22 19t25 11t27 4q18 0 34 -6t28 -16 l226 -192q16 -14 25 -34t9 -40q0 -8 -2 -16l-4 -16t-7 -16t-9 -14q-30 -34 -74 -34q-36 0 -62 22l-226 192q-16 14 -25 34t-9 40z" />
<glyph unicode="&#xcd;" horiz-adv-x="536" d="M-92 96q0 6 1 12l2 12t5 12l530 1280q10 28 35 44t53 16q20 0 36 -8q18 -6 32 -20t21 -32t7 -37t-8 -35l-530 -1280q-10 -28 -35 -44t-53 -16q-20 0 -36 8q-28 10 -44 35t-16 53zM122 1632q0 10 2 20t7 20t11 18t15 16t19 12l386 192q18 10 42 10q60 0 86 -54q2 -4 4 -9 t3 -11t2 -11t1 -11q0 -60 -54 -86l-386 -192q-6 -4 -13 -6t-14 -3t-15 -1q-60 0 -86 54q-4 6 -6 13t-3 14t-1 15z" />
<glyph unicode="&#xce;" horiz-adv-x="536" d="M-92 96q0 6 1 12l2 12t5 12l530 1280q10 28 35 44t53 16q20 0 36 -8q18 -6 32 -20t21 -32t7 -37t-8 -35l-530 -1280q-10 -28 -35 -44t-53 -16q-20 0 -36 8q-28 10 -44 35t-16 53zM110 1664q0 24 11 45t33 35l244 160q22 16 50 16q52 0 80 -40l114 -160q6 -8 10 -17t6 -19 t2 -20q0 -22 -11 -43t-29 -35q-24 -18 -56 -18q-50 0 -78 40l-60 86l-168 -110q-12 -8 -25 -12t-27 -4q-16 0 -31 5t-28 15t-21 24q-16 22 -16 52z" />
<glyph unicode="&#xcf;" horiz-adv-x="536" d="M-92 96q0 6 1 12l2 12t5 12l530 1280q10 28 35 44t53 16q20 0 36 -8q18 -6 32 -20t21 -32t7 -37t-8 -35l-530 -1280q-10 -28 -35 -44t-53 -16q-20 0 -36 8q-28 10 -44 35t-16 53zM360 1280q0 20 8 36l40 96q6 18 20 32t32 21t37 7t35 -8q28 -10 44 -35t16 -53 q0 -10 -2 -19t-6 -17l-40 -96q-10 -28 -35 -44t-53 -16q-20 0 -36 8q-28 10 -44 35t-16 53zM666 1280q0 6 1 12t2 13t5 11l40 96q10 28 35 44t53 16q20 0 36 -8q28 -10 44 -35t16 -53q0 -6 -1 -10t-1 -9t-2 -9l-4 -8l-40 -96q-4 -12 -11 -21t-16 -16t-19 -12t-21 -8t-21 -3 t-19 2t-17 6q-28 10 -44 35t-16 53z" />
<glyph unicode="&#xd0;" horiz-adv-x="1112" d="M-130 96q0 8 1 14t2 11t5 11l226 548h-10q-40 0 -68 28t-28 68t28 68t68 28h90l224 540q6 18 21 32t32 21t35 7h332q46 0 94 -18q86 -36 136 -121t50 -217q0 -86 -23 -191t-75 -225q-62 -154 -143 -278t-157 -201t-156 -128t-142 -72t-114 -21h-332q-40 0 -68 29t-28 67z M110 192h188q18 0 53 12t96 52t123 100t134 169t130 247q46 112 66 197t20 147q0 54 -16 92t-29 50t-27 18q-10 4 -20 4h-268l-168 -408h86q40 0 68 -28t28 -68t-28 -68t-68 -28h-166z" />
<glyph unicode="&#xd1;" horiz-adv-x="1152" d="M-130 96q0 10 2 19t6 17l530 1280q6 18 21 32t32 21t35 7h64q38 0 66 -28t30 -64l34 -950l408 982q10 28 35 44t53 16q20 0 36 -8q28 -10 44 -35t16 -53q0 -20 -8 -36l-530 -1280q-10 -26 -35 -43t-53 -17h-50q-18 0 -35 7t-30 19t-22 30t-9 36l-36 982l-420 -1014 q-10 -28 -35 -44t-53 -16q-20 0 -36 8q-28 10 -44 35t-16 53zM52 1648q2 28 14 48v2q4 8 12 21t33 42t53 52t72 41t92 18q16 0 31 -2t30 -7t27 -13q10 -6 18 -12t14 -13t11 -13t10 -13t8 -13t6 -13t5 -11t3 -9t3 -7q16 6 37 26t34 35t17 23q6 10 16 18t20 13t21 8t23 3h9 t9 -1l8 -2t9 -3t9 -4l8 -4q44 -28 44 -82q0 -26 -14 -50q-4 -6 -11 -18t-32 -42t-53 -53t-73 -42t-95 -19q-52 0 -92 26q-10 6 -18 13t-14 13t-12 14t-9 14l-7 14l-6 12t-5 11t-3 9q-20 -8 -48 -38t-38 -44q-28 -44 -82 -44q-26 0 -48 14q-6 4 -11 8t-9 8t-8 9t-6 11t-5 11 t-4 11l-2 12t-1 12z" />
<glyph unicode="&#xd2;" horiz-adv-x="1176" d="M10 358q0 190 94 414q78 192 198 352t269 262t289 102q20 0 39 -2t38 -7t37 -13q194 -80 194 -352q0 -190 -94 -414q-78 -192 -198 -352t-269 -262t-289 -102q-30 0 -59 5t-55 17q-194 80 -194 352zM202 1824q0 6 1 13t3 13t5 13t6 12t7 11q10 12 22 19t25 11t27 4 q18 0 34 -6t28 -16l226 -192q16 -14 25 -34t9 -40q0 -8 -2 -16l-4 -16t-7 -16t-9 -14q-30 -34 -74 -34q-36 0 -62 22l-226 192q-16 14 -25 34t-9 40zM206 374q0 -78 21 -128t51 -62q16 -8 40 -8q120 0 298 174t282 422q74 182 74 326q0 78 -21 128t-51 62q-16 8 -40 8 q-120 0 -298 -174t-282 -422q-74 -182 -74 -326z" />
<glyph unicode="&#xd3;" horiz-adv-x="1176" d="M10 358q0 190 94 414q78 192 198 352t269 262t289 102q20 0 39 -2t38 -7t37 -13q194 -80 194 -352q0 -190 -94 -414q-78 -192 -198 -352t-269 -262t-289 -102q-30 0 -59 5t-55 17q-194 80 -194 352zM122 1632q0 10 2 20t7 20t11 18t15 16t19 12l386 192q18 10 42 10 q60 0 86 -54q2 -4 4 -9t3 -11t2 -11t1 -11q0 -60 -54 -86l-386 -192q-6 -4 -13 -6t-14 -3t-15 -1q-60 0 -86 54q-4 6 -6 13t-3 14t-1 15zM206 374q0 -78 21 -128t51 -62q16 -8 40 -8q120 0 298 174t282 422q74 182 74 326q0 78 -21 128t-51 62q-16 8 -40 8q-120 0 -298 -174 t-282 -422q-74 -182 -74 -326z" />
<glyph unicode="&#xd4;" horiz-adv-x="1176" d="M10 358q0 190 94 414q78 192 198 352t269 262t289 102q20 0 39 -2t38 -7t37 -13q194 -80 194 -352q0 -190 -94 -414q-78 -192 -198 -352t-269 -262t-289 -102q-30 0 -59 5t-55 17q-194 80 -194 352zM110 1664q0 24 11 45t33 35l244 160q22 16 50 16q52 0 80 -40l114 -160 q6 -8 10 -17t6 -19t2 -20q0 -22 -11 -43t-29 -35q-24 -18 -56 -18q-50 0 -78 40l-60 86l-168 -110q-12 -8 -25 -12t-27 -4q-16 0 -31 5t-28 15t-21 24q-16 22 -16 52zM206 374q0 -78 21 -128t51 -62q16 -8 40 -8q120 0 298 174t282 422q74 182 74 326q0 78 -21 128t-51 62 q-16 8 -40 8q-120 0 -298 -174t-282 -422q-74 -182 -74 -326z" />
<glyph unicode="&#xd5;" horiz-adv-x="1176" d="M10 358q0 190 94 414q78 192 198 352t269 262t289 102q20 0 39 -2t38 -7t37 -13q194 -80 194 -352q0 -190 -94 -414q-78 -192 -198 -352t-269 -262t-289 -102q-30 0 -59 5t-55 17q-194 80 -194 352zM52 1648q2 28 14 48v2q4 8 12 21t33 42t53 52t72 41t92 18q16 0 31 -2 t30 -7t27 -13q10 -6 18 -12t14 -13t11 -13t10 -13t8 -13t6 -13t5 -11t3 -9t3 -7q16 6 37 26t34 35t17 23q6 10 16 18t20 13t21 8t23 3h9t9 -1l8 -2t9 -3t9 -4l8 -4q44 -28 44 -82q0 -26 -14 -50q-4 -6 -11 -18t-32 -42t-53 -53t-73 -42t-95 -19q-52 0 -92 26q-10 6 -18 13 t-14 13t-12 14t-9 14l-7 14l-6 12t-5 11t-3 9q-20 -8 -48 -38t-38 -44q-28 -44 -82 -44q-26 0 -48 14q-6 4 -11 8t-9 8t-8 9t-6 11t-5 11t-4 11l-2 12t-1 12zM206 374q0 -78 21 -128t51 -62q16 -8 40 -8q120 0 298 174t282 422q74 182 74 326q0 78 -21 128t-51 62 q-16 8 -40 8q-120 0 -298 -174t-282 -422q-74 -182 -74 -326z" />
<glyph unicode="&#xd6;" horiz-adv-x="1176" d="M10 358q0 190 94 414q78 192 198 352t269 262t289 102q20 0 39 -2t38 -7t37 -13q194 -80 194 -352q0 -190 -94 -414q-78 -192 -198 -352t-269 -262t-289 -102q-30 0 -59 5t-55 17q-194 80 -194 352zM206 374q0 -78 21 -128t51 -62q16 -8 40 -8q120 0 298 174t282 422 q74 182 74 326q0 78 -21 128t-51 62q-16 8 -40 8q-120 0 -298 -174t-282 -422q-74 -182 -74 -326zM360 1280q0 20 8 36l40 96q6 18 20 32t32 21t37 7t35 -8q28 -10 44 -35t16 -53q0 -10 -2 -19t-6 -17l-40 -96q-10 -28 -35 -44t-53 -16q-20 0 -36 8q-28 10 -44 35t-16 53z M666 1280q0 6 1 12t2 13t5 11l40 96q10 28 35 44t53 16q20 0 36 -8q28 -10 44 -35t16 -53q0 -6 -1 -10t-1 -9t-2 -9l-4 -8l-40 -96q-4 -12 -11 -21t-16 -16t-19 -12t-21 -8t-21 -3t-19 2t-17 6q-28 10 -44 35t-16 53z" />
<glyph unicode="&#xd7;" horiz-adv-x="1024" d="M-12 384q0 46 36 74l374 308l-112 288q-6 16 -6 34q0 14 4 28t12 26t20 21t26 15q2 0 6 1t7 2t7 2t7 1h7q28 0 53 -17t37 -45l88 -228l326 268q26 22 60 22q46 0 74 -36q22 -26 22 -60q0 -46 -36 -74l-374 -308l112 -288q6 -16 6 -34q0 -28 -17 -53t-45 -37 q-16 -6 -34 -6t-36 7t-32 21t-22 34l-88 228l-326 -268q-8 -8 -18 -12t-20 -7t-22 -3q-46 0 -74 36q-10 12 -16 28t-6 32z" />
<glyph unicode="&#xd8;" horiz-adv-x="1176" d="M-156 96q0 40 28 68l1298 1280q28 28 68 28q20 0 37 -7t31 -21t21 -32t7 -36q0 -40 -28 -68l-1298 -1280q-28 -28 -68 -28t-68 28t-28 68zM10 358q0 190 94 414q78 192 198 352t269 262t289 102q20 0 39 -2t38 -7t37 -13q194 -80 194 -352q0 -190 -94 -414 q-78 -192 -198 -352t-269 -262t-289 -102q-30 0 -59 5t-55 17q-194 80 -194 352zM206 374q0 -78 21 -128t51 -62q16 -8 40 -8q120 0 298 174t282 422q74 182 74 326q0 78 -21 128t-51 62q-16 8 -40 8q-120 0 -298 -174t-282 -422q-74 -182 -74 -326z" />
<glyph unicode="&#xd9;" horiz-adv-x="1138" d="M-20 296q0 86 36 172l392 944q10 28 35 44t53 16q20 0 36 -8q28 -10 44 -35t16 -53q0 -20 -8 -36l-392 -944q-12 -30 -18 -56t-6 -48q0 -78 66 -104q12 -6 28 -9t36 -3q106 0 226 87t170 205l392 944q6 18 20 32t32 21t37 7t35 -8q28 -10 44 -35t16 -53q0 -10 -2 -19 t-6 -17l-392 -944q-70 -174 -234 -293t-338 -119q-74 0 -138 26q-88 36 -134 112t-46 174zM202 1824q0 6 1 13t3 13t5 13t6 12t7 11q10 12 22 19t25 11t27 4q18 0 34 -6t28 -16l226 -192q16 -14 25 -34t9 -40q0 -8 -2 -16l-4 -16t-7 -16t-9 -14q-30 -34 -74 -34 q-36 0 -62 22l-226 192q-16 14 -25 34t-9 40z" />
<glyph unicode="&#xda;" horiz-adv-x="1138" d="M-20 296q0 86 36 172l392 944q10 28 35 44t53 16q20 0 36 -8q28 -10 44 -35t16 -53q0 -20 -8 -36l-392 -944q-12 -30 -18 -56t-6 -48q0 -78 66 -104q12 -6 28 -9t36 -3q106 0 226 87t170 205l392 944q6 18 20 32t32 21t37 7t35 -8q28 -10 44 -35t16 -53q0 -10 -2 -19 t-6 -17l-392 -944q-70 -174 -234 -293t-338 -119q-74 0 -138 26q-88 36 -134 112t-46 174zM122 1632q0 10 2 20t7 20t11 18t15 16t19 12l386 192q18 10 42 10q60 0 86 -54q2 -4 4 -9t3 -11t2 -11t1 -11q0 -60 -54 -86l-386 -192q-6 -4 -13 -6t-14 -3t-15 -1q-60 0 -86 54 q-4 6 -6 13t-3 14t-1 15z" />
<glyph unicode="&#xdb;" horiz-adv-x="1138" d="M-20 296q0 86 36 172l392 944q10 28 35 44t53 16q20 0 36 -8q28 -10 44 -35t16 -53q0 -20 -8 -36l-392 -944q-12 -30 -18 -56t-6 -48q0 -78 66 -104q12 -6 28 -9t36 -3q106 0 226 87t170 205l392 944q6 18 20 32t32 21t37 7t35 -8q28 -10 44 -35t16 -53q0 -10 -2 -19 t-6 -17l-392 -944q-70 -174 -234 -293t-338 -119q-74 0 -138 26q-88 36 -134 112t-46 174zM110 1664q0 24 11 45t33 35l244 160q22 16 50 16q52 0 80 -40l114 -160q6 -8 10 -17t6 -19t2 -20q0 -22 -11 -43t-29 -35q-24 -18 -56 -18q-50 0 -78 40l-60 86l-168 -110 q-12 -8 -25 -12t-27 -4q-16 0 -31 5t-28 15t-21 24q-16 22 -16 52z" />
<glyph unicode="&#xdc;" horiz-adv-x="1138" d="M-20 296q0 86 36 172l392 944q10 28 35 44t53 16q20 0 36 -8q28 -10 44 -35t16 -53q0 -20 -8 -36l-392 -944q-12 -30 -18 -56t-6 -48q0 -78 66 -104q12 -6 28 -9t36 -3q106 0 226 87t170 205l392 944q6 18 20 32t32 21t37 7t35 -8q28 -10 44 -35t16 -53q0 -10 -2 -19 t-6 -17l-392 -944q-70 -174 -234 -293t-338 -119q-74 0 -138 26q-88 36 -134 112t-46 174zM360 1280q0 20 8 36l40 96q6 18 20 32t32 21t37 7t35 -8q28 -10 44 -35t16 -53q0 -10 -2 -19t-6 -17l-40 -96q-10 -28 -35 -44t-53 -16q-20 0 -36 8q-28 10 -44 35t-16 53zM666 1280 q0 6 1 12t2 13t5 11l40 96q10 28 35 44t53 16q20 0 36 -8q28 -10 44 -35t16 -53q0 -6 -1 -10t-1 -9t-2 -9l-4 -8l-40 -96q-4 -12 -11 -21t-16 -16t-19 -12t-21 -8t-21 -3t-19 2t-17 6q-28 10 -44 35t-16 53z" />
<glyph unicode="&#xdd;" horiz-adv-x="1048" d="M122 1632q0 10 2 20t7 20t11 18t15 16t19 12l386 192q18 10 42 10q60 0 86 -54q2 -4 4 -9t3 -11t2 -11t1 -11q0 -60 -54 -86l-386 -192q-6 -4 -13 -6t-14 -3t-15 -1q-60 0 -86 54q-4 6 -6 13t-3 14t-1 15zM164 96q0 10 2 19t6 17l266 646l-114 580q-2 8 -2 18q0 22 10 42 t28 34t40 18q8 2 18 2q34 0 61 -22t33 -56l86 -434l498 484q26 28 66 28t68 -30q28 -26 28 -66q0 -12 -3 -24t-10 -24t-17 -20l-608 -594l-272 -654q-6 -18 -20 -32t-32 -21t-37 -7t-35 8q-28 10 -44 35t-16 53z" />
<glyph unicode="&#xde;" horiz-adv-x="1088" d="M-130 96q0 6 1 12l2 12t5 12l416 1008q2 8 8 16l106 256q10 28 35 44t53 16q20 0 36 -8q28 -10 44 -35t16 -53q0 -20 -8 -36l-54 -132h240q68 0 124 -22q150 -62 150 -244q0 -32 -5 -65t-14 -68t-25 -69q-38 -94 -94 -169t-123 -124t-141 -76t-150 -27h-320l-118 -284 q-10 -28 -35 -44t-53 -16q-20 0 -36 8q-28 10 -44 35t-16 53zM252 536h240q56 0 115 27t118 92t99 157q18 44 26 77t8 55q0 50 -36 64q-20 8 -52 8h-320z" />
<glyph unicode="&#xdf;" horiz-adv-x="1010" d="M-130 96q0 6 1 12l2 12t5 12l396 960q62 152 197 274t287 122h52q58 0 106 -20q148 -60 148 -242q0 -88 -38 -178q-74 -184 -234 -290q12 -22 20 -47t11 -50t3 -53q0 -106 -46 -216q-28 -70 -74 -139t-108 -131t-142 -100t-164 -38h-26q-40 0 -68 28t-28 68t28 68t68 28 h26q48 0 110 42t117 109t84 138t29 129q0 24 -5 43t-10 28t-11 11q-10 4 -26 4h-26q-40 0 -68 28t-28 68t28 68t68 28q74 0 164 74t132 174q8 22 13 41t8 33t3 28q0 56 -30 68q-14 6 -34 6h-52q-68 0 -166 -87t-142 -189l-396 -960q-10 -28 -35 -44t-53 -16q-20 0 -36 8 q-28 10 -44 35t-16 53z" />
<glyph unicode="&#xe0;" horiz-adv-x="940" d="M-66 282q0 130 64 282q86 210 240 359t316 149q100 0 166 -68q26 52 84 52q20 0 36 -8q14 -4 25 -14t19 -22t12 -25t4 -27q0 -20 -8 -36l-358 -864q-10 -28 -35 -44t-53 -16q-6 0 -10 1t-9 1t-9 2l-8 4q-12 4 -22 12t-18 18q-96 -54 -188 -54q-120 0 -184 89t-64 209z M126 280q0 -32 8 -53t16 -27t18 -12t14 -12q48 0 130 58t152 158l2 2l142 342q2 20 2 38v2q0 44 -10 69t-20 30t-26 5q-26 0 -63 -18t-80 -52t-86 -80t-83 -109t-68 -129q-24 -60 -36 -114t-12 -96v-2zM202 1824q0 6 1 13t3 13t5 13t6 12t7 11q10 12 22 19t25 11t27 4 q18 0 34 -6t28 -16l226 -192q16 -14 25 -34t9 -40q0 -8 -2 -16l-4 -16t-7 -16t-9 -14q-30 -34 -74 -34q-36 0 -62 22l-226 192q-16 14 -25 34t-9 40z" />
<glyph unicode="&#xe1;" horiz-adv-x="940" d="M-66 282q0 130 64 282q86 210 240 359t316 149q100 0 166 -68q26 52 84 52q20 0 36 -8q14 -4 25 -14t19 -22t12 -25t4 -27q0 -20 -8 -36l-358 -864q-10 -28 -35 -44t-53 -16q-6 0 -10 1t-9 1t-9 2l-8 4q-12 4 -22 12t-18 18q-96 -54 -188 -54q-120 0 -184 89t-64 209z M122 1632q0 10 2 20t7 20t11 18t15 16t19 12l386 192q18 10 42 10q60 0 86 -54q2 -4 4 -9t3 -11t2 -11t1 -11q0 -60 -54 -86l-386 -192q-6 -4 -13 -6t-14 -3t-15 -1q-60 0 -86 54q-4 6 -6 13t-3 14t-1 15zM126 280q0 -32 8 -53t16 -27t18 -12t14 -12q48 0 130 58t152 158 l2 2l142 342q2 20 2 38v2q0 44 -10 69t-20 30t-26 5q-26 0 -63 -18t-80 -52t-86 -80t-83 -109t-68 -129q-24 -60 -36 -114t-12 -96v-2z" />
<glyph unicode="&#xe2;" horiz-adv-x="940" d="M-66 282q0 130 64 282q86 210 240 359t316 149q100 0 166 -68q26 52 84 52q20 0 36 -8q14 -4 25 -14t19 -22t12 -25t4 -27q0 -20 -8 -36l-358 -864q-10 -28 -35 -44t-53 -16q-6 0 -10 1t-9 1t-9 2l-8 4q-12 4 -22 12t-18 18q-96 -54 -188 -54q-120 0 -184 89t-64 209z M110 1664q0 24 11 45t33 35l244 160q22 16 50 16q52 0 80 -40l114 -160q6 -8 10 -17t6 -19t2 -20q0 -22 -11 -43t-29 -35q-24 -18 -56 -18q-50 0 -78 40l-60 86l-168 -110q-12 -8 -25 -12t-27 -4q-16 0 -31 5t-28 15t-21 24q-16 22 -16 52zM126 280q0 -32 8 -53t16 -27 t18 -12t14 -12q48 0 130 58t152 158l2 2l142 342q2 20 2 38v2q0 44 -10 69t-20 30t-26 5q-26 0 -63 -18t-80 -52t-86 -80t-83 -109t-68 -129q-24 -60 -36 -114t-12 -96v-2z" />
<glyph unicode="&#xe3;" horiz-adv-x="940" d="M-66 282q0 130 64 282q86 210 240 359t316 149q100 0 166 -68q26 52 84 52q20 0 36 -8q14 -4 25 -14t19 -22t12 -25t4 -27q0 -20 -8 -36l-358 -864q-10 -28 -35 -44t-53 -16q-6 0 -10 1t-9 1t-9 2l-8 4q-12 4 -22 12t-18 18q-96 -54 -188 -54q-120 0 -184 89t-64 209z M52 1648q2 28 14 48v2q4 8 12 21t33 42t53 52t72 41t92 18q16 0 31 -2t30 -7t27 -13q10 -6 18 -12t14 -13t11 -13t10 -13t8 -13t6 -13t5 -11t3 -9t3 -7q16 6 37 26t34 35t17 23q6 10 16 18t20 13t21 8t23 3h9t9 -1l8 -2t9 -3t9 -4l8 -4q44 -28 44 -82q0 -26 -14 -50 q-4 -6 -11 -18t-32 -42t-53 -53t-73 -42t-95 -19q-52 0 -92 26q-10 6 -18 13t-14 13t-12 14t-9 14l-7 14l-6 12t-5 11t-3 9q-20 -8 -48 -38t-38 -44q-28 -44 -82 -44q-26 0 -48 14q-6 4 -11 8t-9 8t-8 9t-6 11t-5 11t-4 11l-2 12t-1 12zM126 280q0 -32 8 -53t16 -27t18 -12 t14 -12q48 0 130 58t152 158l2 2l142 342q2 20 2 38v2q0 44 -10 69t-20 30t-26 5q-26 0 -63 -18t-80 -52t-86 -80t-83 -109t-68 -129q-24 -60 -36 -114t-12 -96v-2z" />
<glyph unicode="&#xe4;" horiz-adv-x="940" d="M-66 282q0 130 64 282q86 210 240 359t316 149q100 0 166 -68q26 52 84 52q20 0 36 -8q14 -4 25 -14t19 -22t12 -25t4 -27q0 -20 -8 -36l-358 -864q-10 -28 -35 -44t-53 -16q-6 0 -10 1t-9 1t-9 2l-8 4q-12 4 -22 12t-18 18q-96 -54 -188 -54q-120 0 -184 89t-64 209z M126 280q0 -32 8 -53t16 -27t18 -12t14 -12q48 0 130 58t152 158l2 2l142 342q2 20 2 38v2q0 44 -10 69t-20 30t-26 5q-26 0 -63 -18t-80 -52t-86 -80t-83 -109t-68 -129q-24 -60 -36 -114t-12 -96v-2zM360 1280q0 20 8 36l40 96q6 18 20 32t32 21t37 7t35 -8q28 -10 44 -35 t16 -53q0 -10 -2 -19t-6 -17l-40 -96q-10 -28 -35 -44t-53 -16q-20 0 -36 8q-28 10 -44 35t-16 53zM666 1280q0 6 1 12t2 13t5 11l40 96q10 28 35 44t53 16q20 0 36 -8q28 -10 44 -35t16 -53q0 -6 -1 -10t-1 -9t-2 -9l-4 -8l-40 -96q-4 -12 -11 -21t-16 -16t-19 -12t-21 -8 t-21 -3t-19 2t-17 6q-28 10 -44 35t-16 53z" />
<glyph unicode="&#xe5;" horiz-adv-x="940" d="M-66 282q0 130 64 282q86 210 240 359t316 149q100 0 166 -68q26 52 84 52q20 0 36 -8q14 -4 25 -14t19 -22t12 -25t4 -27q0 -20 -8 -36l-358 -864q-10 -28 -35 -44t-53 -16q-6 0 -10 1t-9 1t-9 2l-8 4q-12 4 -22 12t-18 18q-96 -54 -188 -54q-120 0 -184 89t-64 209z M126 280q0 -32 8 -53t16 -27t18 -12t14 -12q48 0 130 58t152 158l2 2l142 342q2 20 2 38v2q0 44 -10 69t-20 30t-26 5q-26 0 -63 -18t-80 -52t-86 -80t-83 -109t-68 -129q-24 -60 -36 -114t-12 -96v-2zM200 1718q0 18 2 38t7 38t13 34q36 92 113 156t169 64h11t11 -1t11 -2 t11 -2t11 -3t11 -4q106 -42 106 -170q0 -28 -5 -57t-17 -53q-36 -92 -113 -156t-169 -64q-36 0 -66 12q-106 42 -106 170zM392 1734q22 12 48 39t38 55l6 22q-22 -12 -48 -39t-38 -55q-2 -6 -3 -11t-3 -11z" />
<glyph unicode="&#xe6;" horiz-adv-x="1280" d="M-120 214q0 68 32 144q108 258 398 290q92 10 147 58t79 106q4 12 6 22t2 16q0 18 -16 24q-12 6 -32 6q-30 0 -65 -12t-62 -29t-43 -29l-24 -18q-12 -10 -29 -17t-35 -7q-14 0 -26 4t-23 10t-21 16q-26 28 -26 66q0 40 28 68q148 140 326 140q28 0 53 -5t49 -13 q64 -26 100 -82q32 24 93 50t107 39t54 13l-2 -2q64 0 117 -29t85 -82t38 -121q0 -10 1 -19t1 -17q0 -34 -5 -67t-13 -66t-19 -65t-27 -66q-4 -12 -11 -21t-16 -16t-19 -12t-21 -8t-21 -3h-460q-8 -18 -14 -36t-10 -34t-8 -31t-7 -29t-4 -26t-2 -23t-1 -21q0 -20 3 -37 t6 -28t8 -20t8 -12l5 -5q6 -2 16 -2q52 0 116 36t95 64t45 43t33 24t41 9q16 0 31 -6t29 -16q34 -28 34 -74q0 -34 -22 -60q-14 -18 -22 -27t-52 -49t-86 -65t-109 -48t-133 -23q-48 0 -90 16q-64 28 -102 80q-134 -96 -262 -96q-108 0 -177 66t-69 164zM72 202q0 -14 9 -20 t45 -6q32 0 83 27t82 50t49 39q4 80 32 170q-20 -4 -42 -6q-58 -6 -99 -21t-68 -41t-43 -50t-32 -62t-16 -68v-6v-6zM684 672h290q26 74 26 130q0 12 -2 22q-4 40 -11 48t-33 8h-4q-44 0 -121 -55t-145 -153z" />
<glyph unicode="&#xe7;" horiz-adv-x="844" d="M-412 -400q0 40 28 68t68 28q78 0 113 15t51 45q-12 2 -26 3t-32 1q-26 0 -48 13t-35 35t-13 48q0 16 8 35t16 27l194 224q28 34 72 34q12 0 23 -3t21 -8t18 -13q34 -28 34 -72q0 -36 -24 -62l-88 -102q40 -24 60 -60t20 -77t-20 -87q-78 -188 -344 -188q-40 0 -68 28 t-28 68zM-68 270q0 136 66 294q86 210 238 359t312 149q104 0 172 -77t68 -179q0 -8 -2 -17t-5 -17t-8 -16t-10 -14t-12 -12t-15 -10t-17 -6t-17 -4h-10q-24 0 -45 11t-35 31t-16 44q-4 48 -16 61t-32 13t-49 -13t-62 -36t-70 -58t-71 -77t-66 -95t-56 -109 q-48 -116 -48 -206q0 -24 4 -45t10 -34t10 -20t8 -9q8 -2 18 -2q38 0 103 41t125 113q14 16 34 25t40 9q18 0 33 -6t29 -16q34 -30 34 -74q0 -36 -22 -62q-188 -222 -376 -222q-48 0 -90 18q-154 62 -154 268z" />
<glyph unicode="&#xe8;" horiz-adv-x="870" d="M-70 264q0 138 68 300q6 20 15 38t18 35t17 35q96 174 227 287t267 113q98 0 164 -65t74 -167q2 -20 2 -38q0 -118 -62 -262q-10 -28 -35 -44t-53 -16h-462q-24 -62 -35 -112t-11 -88q0 -32 7 -57t13 -34t10 -11q6 -2 16 -2q52 0 116 36t95 64t45 43t33 24t41 9 q34 0 60 -22l7 -7t5 -6t5 -7t5 -7t3 -7t3 -8t3 -8t1 -8t1 -8t1 -8q0 -34 -22 -60q-154 -184 -350 -208q-28 -4 -52 -4q-48 0 -90 16q-150 62 -150 264zM202 1824q0 6 1 13t3 13t5 13t6 12t7 11q10 12 22 19t25 11t27 4q18 0 34 -6t28 -16l226 -192q16 -14 25 -34t9 -40 q0 -8 -2 -16l-4 -16t-7 -16t-9 -14q-30 -34 -74 -34q-36 0 -62 22l-226 192q-16 14 -25 34t-9 40zM274 672h292l8 28t7 27t5 25t3 24t1 24q0 6 -1 12t-1 12q0 12 -2 20t-3 15t-3 10t-5 6t-7 4t-8 1h-10h-4h-4q-28 0 -70 -22t-96 -71t-102 -115z" />
<glyph unicode="&#xe9;" horiz-adv-x="870" d="M-70 264q0 138 68 300q6 20 15 38t18 35t17 35q96 174 227 287t267 113q98 0 164 -65t74 -167q2 -20 2 -38q0 -118 -62 -262q-10 -28 -35 -44t-53 -16h-462q-24 -62 -35 -112t-11 -88q0 -32 7 -57t13 -34t10 -11q6 -2 16 -2q52 0 116 36t95 64t45 43t33 24t41 9 q34 0 60 -22l7 -7t5 -6t5 -7t5 -7t3 -7t3 -8t3 -8t1 -8t1 -8t1 -8q0 -34 -22 -60q-154 -184 -350 -208q-28 -4 -52 -4q-48 0 -90 16q-150 62 -150 264zM122 1632q0 10 2 20t7 20t11 18t15 16t19 12l386 192q18 10 42 10q60 0 86 -54q2 -4 4 -9t3 -11t2 -11t1 -11 q0 -60 -54 -86l-386 -192q-6 -4 -13 -6t-14 -3t-15 -1q-60 0 -86 54q-4 6 -6 13t-3 14t-1 15zM274 672h292l8 28t7 27t5 25t3 24t1 24q0 6 -1 12t-1 12q0 12 -2 20t-3 15t-3 10t-5 6t-7 4t-8 1h-10h-4h-4q-28 0 -70 -22t-96 -71t-102 -115z" />
<glyph unicode="&#xea;" horiz-adv-x="870" d="M-70 264q0 138 68 300q6 20 15 38t18 35t17 35q96 174 227 287t267 113q98 0 164 -65t74 -167q2 -20 2 -38q0 -118 -62 -262q-10 -28 -35 -44t-53 -16h-462q-24 -62 -35 -112t-11 -88q0 -32 7 -57t13 -34t10 -11q6 -2 16 -2q52 0 116 36t95 64t45 43t33 24t41 9 q34 0 60 -22l7 -7t5 -6t5 -7t5 -7t3 -7t3 -8t3 -8t1 -8t1 -8t1 -8q0 -34 -22 -60q-154 -184 -350 -208q-28 -4 -52 -4q-48 0 -90 16q-150 62 -150 264zM110 1664q0 24 11 45t33 35l244 160q22 16 50 16q52 0 80 -40l114 -160q6 -8 10 -17t6 -19t2 -20q0 -22 -11 -43t-29 -35 q-24 -18 -56 -18q-50 0 -78 40l-60 86l-168 -110q-12 -8 -25 -12t-27 -4q-16 0 -31 5t-28 15t-21 24q-16 22 -16 52zM274 672h292l8 28t7 27t5 25t3 24t1 24q0 6 -1 12t-1 12q0 12 -2 20t-3 15t-3 10t-5 6t-7 4t-8 1h-10h-4h-4q-28 0 -70 -22t-96 -71t-102 -115z" />
<glyph unicode="&#xeb;" horiz-adv-x="870" d="M-70 264q0 138 68 300q6 20 15 38t18 35t17 35q96 174 227 287t267 113q98 0 164 -65t74 -167q2 -20 2 -38q0 -118 -62 -262q-10 -28 -35 -44t-53 -16h-462q-24 -62 -35 -112t-11 -88q0 -32 7 -57t13 -34t10 -11q6 -2 16 -2q52 0 116 36t95 64t45 43t33 24t41 9 q34 0 60 -22l7 -7t5 -6t5 -7t5 -7t3 -7t3 -8t3 -8t1 -8t1 -8t1 -8q0 -34 -22 -60q-154 -184 -350 -208q-28 -4 -52 -4q-48 0 -90 16q-150 62 -150 264zM274 672h292l8 28t7 27t5 25t3 24t1 24q0 6 -1 12t-1 12q0 12 -2 20t-3 15t-3 10t-5 6t-7 4t-8 1h-10h-4h-4 q-28 0 -70 -22t-96 -71t-102 -115zM360 1280q0 20 8 36l40 96q6 18 20 32t32 21t37 7t35 -8q28 -10 44 -35t16 -53q0 -10 -2 -19t-6 -17l-40 -96q-10 -28 -35 -44t-53 -16q-20 0 -36 8q-28 10 -44 35t-16 53zM666 1280q0 6 1 12t2 13t5 11l40 96q10 28 35 44t53 16 q20 0 36 -8q28 -10 44 -35t16 -53q0 -6 -1 -10t-1 -9t-2 -9l-4 -8l-40 -96q-4 -12 -11 -21t-16 -16t-19 -12t-21 -8t-21 -3t-19 2t-17 6q-28 10 -44 35t-16 53z" />
<glyph unicode="&#xec;" d="M-130 97q0 19 8 35l358 864q10 28 35 44t53 16q10 0 19 -2t17 -6q28 -10 44 -35t16 -53q0 -20 -8 -36l-358 -864q-10 -28 -35 -44t-53 -16q-20 0 -36 8q-18 6 -32 20t-21 32t-7 37zM202 1824q0 6 1 13t3 13t5 13t6 12t7 11q10 12 22 19t25 11t27 4q18 0 34 -6t28 -16 l226 -192q16 -14 25 -34t9 -40q0 -8 -2 -16l-4 -16t-7 -16t-9 -14q-30 -34 -74 -34q-36 0 -62 22l-226 192q-16 14 -25 34t-9 40z" />
<glyph unicode="&#xed;" d="M-130 97q0 19 8 35l358 864q10 28 35 44t53 16q10 0 19 -2t17 -6q28 -10 44 -35t16 -53q0 -20 -8 -36l-358 -864q-10 -28 -35 -44t-53 -16q-20 0 -36 8q-18 6 -32 20t-21 32t-7 37zM122 1632q0 10 2 20t7 20t11 18t15 16t19 12l386 192q18 10 42 10q60 0 86 -54 q2 -4 4 -9t3 -11t2 -11t1 -11q0 -60 -54 -86l-386 -192q-6 -4 -13 -6t-14 -3t-15 -1q-60 0 -86 54q-4 6 -6 13t-3 14t-1 15z" />
<glyph unicode="&#xee;" d="M-130 97q0 19 8 35l358 864q10 28 35 44t53 16q10 0 19 -2t17 -6q28 -10 44 -35t16 -53q0 -20 -8 -36l-358 -864q-10 -28 -35 -44t-53 -16q-20 0 -36 8q-18 6 -32 20t-21 32t-7 37zM110 1664q0 24 11 45t33 35l244 160q22 16 50 16q52 0 80 -40l114 -160q6 -8 10 -17 t6 -19t2 -20q0 -22 -11 -43t-29 -35q-24 -18 -56 -18q-50 0 -78 40l-60 86l-168 -110q-12 -8 -25 -12t-27 -4q-16 0 -31 5t-28 15t-21 24q-16 22 -16 52z" />
<glyph unicode="&#xef;" d="M-130 97q0 19 8 35l358 864q10 28 35 44t53 16q10 0 19 -2t17 -6q28 -10 44 -35t16 -53q0 -20 -8 -36l-358 -864q-10 -28 -35 -44t-53 -16q-20 0 -36 8q-18 6 -32 20t-21 32t-7 37zM360 1280q0 20 8 36l40 96q6 18 20 32t32 21t37 7t35 -8q28 -10 44 -35t16 -53 q0 -10 -2 -19t-6 -17l-40 -96q-10 -28 -35 -44t-53 -16q-20 0 -36 8q-28 10 -44 35t-16 53zM666 1280q0 6 1 12t2 13t5 11l40 96q10 28 35 44t53 16q20 0 36 -8q28 -10 44 -35t16 -53q0 -6 -1 -10t-1 -9t-2 -9l-4 -8l-40 -96q-4 -12 -11 -21t-16 -16t-19 -12t-21 -8t-21 -3 t-19 2t-17 6q-28 10 -44 35t-16 53z" />
<glyph unicode="&#xf0;" horiz-adv-x="908" d="M-66 274q0 136 64 290q86 210 240 359t316 149q12 0 24 -1t23 -3t23 -6t22 -8h2q-6 36 -16 76q-104 -42 -190 -42q-40 0 -68 28t-28 68t28 68t68 28q34 0 124 48q-4 6 -6 14q-6 16 -6 34q0 28 17 53t45 37q16 6 34 6q6 0 14 -1t15 -4l14 -6t13 -8l12 -10t10 -12t8 -13 q58 26 112 40t108 14q40 0 68 -28t28 -68t-28 -68t-68 -28q-12 0 -28 -4t-38 -15t-38 -20t-46 -25q36 -138 36 -266q0 -104 -25 -216t-79 -242q-86 -210 -240 -359t-316 -149q-50 0 -92 18q-156 62 -156 272zM128 288q0 -12 1 -24t3 -22t4 -18t5 -15t6 -12t6 -9t5 -6t4 -2 q4 -2 9 -3t11 -1q74 0 193 113t187 275q46 116 46 204q0 32 -7 58t-14 37t-13 13q-8 4 -20 4q-18 0 -43 -9t-53 -27t-59 -43t-62 -59t-60 -72t-56 -84t-47 -94q-46 -116 -46 -204z" />
<glyph unicode="&#xf1;" horiz-adv-x="928" d="M-130 97q0 19 8 35l358 864q10 28 35 44t53 16q10 0 19 -2t17 -6q14 -4 24 -13t18 -19q104 56 204 56q66 0 118 -36q44 -32 66 -83t22 -109q0 -82 -40 -176l-252 -608q-10 -28 -35 -44t-53 -16q-20 0 -36 8q-28 10 -44 35t-16 53q0 10 2 19t6 17l252 608q8 22 14 42t7 34 t1 26t-1 21t-2 12t-3 5h-6q-46 0 -112 -41t-105 -75t-69 -66l-266 -638q-10 -28 -35 -44t-53 -16q-20 0 -36 8q-18 6 -32 20t-21 32t-7 37zM52 1648q2 28 14 48v2q4 8 12 21t33 42t53 52t72 41t92 18q16 0 31 -2t30 -7t27 -13q10 -6 18 -12t14 -13t11 -13t10 -13t8 -13 t6 -13t5 -11t3 -9t3 -7q16 6 37 26t34 35t17 23q6 10 16 18t20 13t21 8t23 3h9t9 -1l8 -2t9 -3t9 -4l8 -4q44 -28 44 -82q0 -26 -14 -50q-4 -6 -11 -18t-32 -42t-53 -53t-73 -42t-95 -19q-52 0 -92 26q-10 6 -18 13t-14 13t-12 14t-9 14l-7 14l-6 12t-5 11t-3 9 q-20 -8 -48 -38t-38 -44q-28 -44 -82 -44q-26 0 -48 14q-6 4 -11 8t-9 8t-8 9t-6 11t-5 11t-4 11l-2 12t-1 12z" />
<glyph unicode="&#xf2;" horiz-adv-x="908" d="M-66 274q0 136 64 290q86 210 240 359t316 149q12 0 24 -1t23 -3t23 -6t22 -8q156 -62 156 -272q0 -46 -8 -96t-22 -98t-34 -96q-86 -210 -240 -359t-316 -149q-50 0 -92 18q-156 62 -156 272zM128 288q0 -12 1 -24t3 -22t4 -18t5 -15t6 -12t6 -9t5 -6t4 -2q4 -2 9 -3 t11 -1q74 0 193 113t187 275q46 116 46 204q0 32 -7 58t-14 37t-13 13q-8 4 -20 4q-18 0 -43 -9t-53 -27t-59 -43t-62 -59t-60 -72t-56 -84t-47 -94q-46 -116 -46 -204zM202 1824q0 6 1 13t3 13t5 13t6 12t7 11q10 12 22 19t25 11t27 4q18 0 34 -6t28 -16l226 -192 q16 -14 25 -34t9 -40q0 -8 -2 -16l-4 -16t-7 -16t-9 -14q-30 -34 -74 -34q-36 0 -62 22l-226 192q-16 14 -25 34t-9 40z" />
<glyph unicode="&#xf3;" horiz-adv-x="908" d="M-66 274q0 136 64 290q86 210 240 359t316 149q12 0 24 -1t23 -3t23 -6t22 -8q156 -62 156 -272q0 -46 -8 -96t-22 -98t-34 -96q-86 -210 -240 -359t-316 -149q-50 0 -92 18q-156 62 -156 272zM122 1632q0 10 2 20t7 20t11 18t15 16t19 12l386 192q18 10 42 10 q60 0 86 -54q2 -4 4 -9t3 -11t2 -11t1 -11q0 -60 -54 -86l-386 -192q-6 -4 -13 -6t-14 -3t-15 -1q-60 0 -86 54q-4 6 -6 13t-3 14t-1 15zM128 288q0 -12 1 -24t3 -22t4 -18t5 -15t6 -12t6 -9t5 -6t4 -2q4 -2 9 -3t11 -1q74 0 193 113t187 275q46 116 46 204q0 32 -7 58 t-14 37t-13 13q-8 4 -20 4q-18 0 -43 -9t-53 -27t-59 -43t-62 -59t-60 -72t-56 -84t-47 -94q-46 -116 -46 -204z" />
<glyph unicode="&#xf4;" horiz-adv-x="908" d="M-66 274q0 136 64 290q86 210 240 359t316 149q12 0 24 -1t23 -3t23 -6t22 -8q156 -62 156 -272q0 -46 -8 -96t-22 -98t-34 -96q-86 -210 -240 -359t-316 -149q-50 0 -92 18q-156 62 -156 272zM110 1664q0 24 11 45t33 35l244 160q22 16 50 16q52 0 80 -40l114 -160 q6 -8 10 -17t6 -19t2 -20q0 -22 -11 -43t-29 -35q-24 -18 -56 -18q-50 0 -78 40l-60 86l-168 -110q-12 -8 -25 -12t-27 -4q-16 0 -31 5t-28 15t-21 24q-16 22 -16 52zM128 288q0 -12 1 -24t3 -22t4 -18t5 -15t6 -12t6 -9t5 -6t4 -2q4 -2 9 -3t11 -1q74 0 193 113t187 275 q46 116 46 204q0 32 -7 58t-14 37t-13 13q-8 4 -20 4q-18 0 -43 -9t-53 -27t-59 -43t-62 -59t-60 -72t-56 -84t-47 -94q-46 -116 -46 -204z" />
<glyph unicode="&#xf5;" horiz-adv-x="908" d="M-66 274q0 136 64 290q86 210 240 359t316 149q12 0 24 -1t23 -3t23 -6t22 -8q156 -62 156 -272q0 -46 -8 -96t-22 -98t-34 -96q-86 -210 -240 -359t-316 -149q-50 0 -92 18q-156 62 -156 272zM128 288q0 -12 1 -24t3 -22t4 -18t5 -15t6 -12t6 -9t5 -6t4 -2q4 -2 9 -3 t11 -1q74 0 193 113t187 275q46 116 46 204q0 32 -7 58t-14 37t-13 13q-8 4 -20 4q-18 0 -43 -9t-53 -27t-59 -43t-62 -59t-60 -72t-56 -84t-47 -94q-46 -116 -46 -204z" />
<glyph unicode="&#xf6;" horiz-adv-x="908" d="M-66 274q0 136 64 290q86 210 240 359t316 149q12 0 24 -1t23 -3t23 -6t22 -8q156 -62 156 -272q0 -46 -8 -96t-22 -98t-34 -96q-86 -210 -240 -359t-316 -149q-50 0 -92 18q-156 62 -156 272zM128 288q0 -12 1 -24t3 -22t4 -18t5 -15t6 -12t6 -9t5 -6t4 -2q4 -2 9 -3 t11 -1q74 0 193 113t187 275q46 116 46 204q0 32 -7 58t-14 37t-13 13q-8 4 -20 4q-18 0 -43 -9t-53 -27t-59 -43t-62 -59t-60 -72t-56 -84t-47 -94q-46 -116 -46 -204zM360 1280q0 20 8 36l40 96q6 18 20 32t32 21t37 7t35 -8q28 -10 44 -35t16 -53q0 -10 -2 -19t-6 -17 l-40 -96q-10 -28 -35 -44t-53 -16q-20 0 -36 8q-28 10 -44 35t-16 53zM666 1280q0 6 1 12t2 13t5 11l40 96q10 28 35 44t53 16q20 0 36 -8q28 -10 44 -35t16 -53q0 -6 -1 -10t-1 -9t-2 -9l-4 -8l-40 -96q-4 -12 -11 -21t-16 -16t-19 -12t-21 -8t-21 -3t-19 2t-17 6 q-28 10 -44 35t-16 53z" />
<glyph unicode="&#xf7;" horiz-adv-x="1024" d="M70 736q0 40 28 68t68 28h692q40 0 68 -28t28 -68t-28 -68t-68 -28h-692q-40 0 -68 28t-28 68zM192 276q0 14 2 26t4 20q2 2 2 4q22 52 64 87t102 35t84 -35t24 -81q0 -14 -2 -26t-4 -20v-1l-2 -3q-22 -52 -64 -87t-102 -35q-40 0 -66 20t-34 44t-8 52zM550 1140 q0 10 1 19t2 15t3 12q2 2 2 4q22 52 64 87t102 35t84 -35t24 -81q0 -10 -1 -19t-2 -15t-3 -12q-2 -2 -2 -4q-22 -52 -64 -87t-102 -35q-16 0 -30 3t-24 8t-19 12t-15 16t-10 18t-6 20t-3 20t-1 19z" />
<glyph unicode="&#xf8;" horiz-adv-x="908" d="M-176 96q0 42 30 70l896 864q6 6 14 11t17 8t17 5t18 2q20 0 38 -8t32 -22q26 -26 26 -66q0 -42 -30 -70l-896 -864q-26 -26 -66 -26q-42 0 -70 30q-26 26 -26 66zM-66 274q0 136 64 290q86 210 240 359t316 149q12 0 24 -1t23 -3t23 -6t22 -8q156 -62 156 -272 q0 -46 -8 -96t-22 -98t-34 -96q-86 -210 -240 -359t-316 -149q-50 0 -92 18q-156 62 -156 272zM128 288q0 -12 1 -24t3 -22t4 -18t5 -15t6 -12t6 -9t5 -6t4 -2q4 -2 9 -3t11 -1q74 0 193 113t187 275q46 116 46 204q0 32 -7 58t-14 37t-13 13q-8 4 -20 4q-18 0 -43 -9 t-53 -27t-59 -43t-62 -59t-60 -72t-56 -84t-47 -94q-46 -116 -46 -204z" />
<glyph unicode="&#xf9;" horiz-adv-x="928" d="M-56 212q0 82 40 176l252 608q6 18 20 32t32 21t36 7q10 0 19 -2t17 -6q28 -10 44 -35t16 -53q0 -20 -8 -36l-252 -608q-6 -16 -11 -32t-7 -28t-3 -23t-1 -19v-14t1 -10t2 -7t1 -4t2 -3h6q36 0 81 22t88 56t70 58t47 46l266 638q10 28 35 44t53 16q20 0 36 -8 q14 -4 25 -14t19 -22t12 -25t4 -27q0 -20 -8 -36l-358 -864q-10 -28 -35 -44t-53 -16q-20 0 -36 8q-14 4 -24 13t-18 19q-104 -56 -204 -56q-66 0 -118 36q-88 62 -88 192zM202 1824q0 6 1 13t3 13t5 13t6 12t7 11q10 12 22 19t25 11t27 4q18 0 34 -6t28 -16l226 -192 q16 -14 25 -34t9 -40q0 -8 -2 -16l-4 -16t-7 -16t-9 -14q-30 -34 -74 -34q-36 0 -62 22l-226 192q-16 14 -25 34t-9 40z" />
<glyph unicode="&#xfa;" horiz-adv-x="928" d="M-56 212q0 82 40 176l252 608q6 18 20 32t32 21t36 7q10 0 19 -2t17 -6q28 -10 44 -35t16 -53q0 -20 -8 -36l-252 -608q-6 -16 -11 -32t-7 -28t-3 -23t-1 -19v-14t1 -10t2 -7t1 -4t2 -3h6q36 0 81 22t88 56t70 58t47 46l266 638q10 28 35 44t53 16q20 0 36 -8 q14 -4 25 -14t19 -22t12 -25t4 -27q0 -20 -8 -36l-358 -864q-10 -28 -35 -44t-53 -16q-20 0 -36 8q-14 4 -24 13t-18 19q-104 -56 -204 -56q-66 0 -118 36q-88 62 -88 192zM122 1632q0 10 2 20t7 20t11 18t15 16t19 12l386 192q18 10 42 10q60 0 86 -54q2 -4 4 -9t3 -11 t2 -11t1 -11q0 -60 -54 -86l-386 -192q-6 -4 -13 -6t-14 -3t-15 -1q-60 0 -86 54q-4 6 -6 13t-3 14t-1 15z" />
<glyph unicode="&#xfb;" horiz-adv-x="928" d="M-56 212q0 82 40 176l252 608q6 18 20 32t32 21t36 7q10 0 19 -2t17 -6q28 -10 44 -35t16 -53q0 -20 -8 -36l-252 -608q-6 -16 -11 -32t-7 -28t-3 -23t-1 -19v-14t1 -10t2 -7t1 -4t2 -3h6q36 0 81 22t88 56t70 58t47 46l266 638q10 28 35 44t53 16q20 0 36 -8 q14 -4 25 -14t19 -22t12 -25t4 -27q0 -20 -8 -36l-358 -864q-10 -28 -35 -44t-53 -16q-20 0 -36 8q-14 4 -24 13t-18 19q-104 -56 -204 -56q-66 0 -118 36q-88 62 -88 192zM110 1664q0 24 11 45t33 35l244 160q22 16 50 16q52 0 80 -40l114 -160q6 -8 10 -17t6 -19t2 -20 q0 -22 -11 -43t-29 -35q-24 -18 -56 -18q-50 0 -78 40l-60 86l-168 -110q-12 -8 -25 -12t-27 -4q-16 0 -31 5t-28 15t-21 24q-16 22 -16 52z" />
<glyph unicode="&#xfc;" horiz-adv-x="928" d="M-56 212q0 82 40 176l252 608q6 18 20 32t32 21t36 7q10 0 19 -2t17 -6q28 -10 44 -35t16 -53q0 -20 -8 -36l-252 -608q-6 -16 -11 -32t-7 -28t-3 -23t-1 -19v-14t1 -10t2 -7t1 -4t2 -3h6q36 0 81 22t88 56t70 58t47 46l266 638q10 28 35 44t53 16q20 0 36 -8 q14 -4 25 -14t19 -22t12 -25t4 -27q0 -20 -8 -36l-358 -864q-10 -28 -35 -44t-53 -16q-20 0 -36 8q-14 4 -24 13t-18 19q-104 -56 -204 -56q-66 0 -118 36q-88 62 -88 192zM360 1280q0 20 8 36l40 96q6 18 20 32t32 21t37 7t35 -8q28 -10 44 -35t16 -53q0 -10 -2 -19t-6 -17 l-40 -96q-10 -28 -35 -44t-53 -16q-20 0 -36 8q-28 10 -44 35t-16 53zM666 1280q0 6 1 12t2 13t5 11l40 96q10 28 35 44t53 16q20 0 36 -8q28 -10 44 -35t16 -53q0 -6 -1 -10t-1 -9t-2 -9l-4 -8l-40 -96q-4 -12 -11 -21t-16 -16t-19 -12t-21 -8t-21 -3t-19 2t-17 6 q-28 10 -44 35t-16 53z" />
<glyph unicode="&#xfd;" horiz-adv-x="792" d="M-366 -288q0 12 3 25t10 24t16 19t19 15t23 10t25 3h7t6 -1t6 -1t5 -2h12q26 0 85 53t105 125l84 122l110 868q6 36 33 60t63 24h12q36 -6 60 -33t24 -63v-12l-64 -488l374 554q28 42 80 42q14 0 28 -4t26 -12q42 -28 42 -80q0 -14 -4 -28t-12 -26l-696 -1032 q-34 -50 -60 -83t-72 -81t-102 -73t-116 -25q-16 0 -30 2t-20 3t-12 3q-22 6 -38 20t-24 33t-8 39zM122 1632q0 10 2 20t7 20t11 18t15 16t19 12l386 192q18 10 42 10q60 0 86 -54q2 -4 4 -9t3 -11t2 -11t1 -11q0 -60 -54 -86l-386 -192q-6 -4 -13 -6t-14 -3t-15 -1 q-60 0 -86 54q-4 6 -6 13t-3 14t-1 15z" />
<glyph unicode="&#xfe;" horiz-adv-x="940" d="M-290 -288q0 10 2 19t6 17l690 1664q6 18 20 32t32 21t37 7t35 -8q28 -10 44 -35t16 -53q0 -20 -8 -36l-120 -292q30 12 61 18t61 6q12 0 24 -1t23 -3t23 -6t22 -8q156 -62 156 -272q0 -28 -3 -57t-8 -58t-13 -59t-18 -59t-22 -57q-86 -210 -240 -359t-316 -149 q-16 0 -30 2q-82 10 -134 62l-156 -372q-10 -28 -35 -44t-53 -16q-20 0 -36 8q-14 4 -25 14t-19 22t-12 25t-4 27zM158 274q0 -38 9 -61t19 -29t20 -8h4h4q74 0 193 113t187 275q46 116 46 204q0 32 -7 58t-14 37t-13 13q-8 4 -20 4q-48 0 -129 -58t-151 -156l-146 -350 q-2 -22 -2 -42z" />
<glyph unicode="&#xff;" horiz-adv-x="792" d="M-366 -288q0 12 3 25t10 24t16 19t19 15t23 10t25 3h7t6 -1t6 -1t5 -2h12q26 0 85 53t105 125l84 122l110 868q6 36 33 60t63 24h12q36 -6 60 -33t24 -63v-12l-64 -488l374 554q28 42 80 42q14 0 28 -4t26 -12q42 -28 42 -80q0 -14 -4 -28t-12 -26l-696 -1032 q-34 -50 -60 -83t-72 -81t-102 -73t-116 -25q-16 0 -30 2t-20 3t-12 3q-22 6 -38 20t-24 33t-8 39zM360 1280q0 20 8 36l40 96q6 18 20 32t32 21t37 7t35 -8q28 -10 44 -35t16 -53q0 -10 -2 -19t-6 -17l-40 -96q-10 -28 -35 -44t-53 -16q-20 0 -36 8q-28 10 -44 35t-16 53z M666 1280q0 6 1 12t2 13t5 11l40 96q10 28 35 44t53 16q20 0 36 -8q28 -10 44 -35t16 -53q0 -6 -1 -10t-1 -9t-2 -9l-4 -8l-40 -96q-4 -12 -11 -21t-16 -16t-19 -12t-21 -8t-21 -3t-19 2t-17 6q-28 10 -44 35t-16 53z" />
<glyph unicode="&#x178;" horiz-adv-x="1048" d="M164 96q0 10 2 19t6 17l266 646l-114 580q-2 8 -2 18q0 22 10 42t28 34t40 18q8 2 18 2q34 0 61 -22t33 -56l86 -434l498 484q26 28 66 28t68 -30q28 -26 28 -66q0 -12 -3 -24t-10 -24t-17 -20l-608 -594l-272 -654q-6 -18 -20 -32t-32 -21t-37 -7t-35 8q-28 10 -44 35 t-16 53zM360 1280q0 20 8 36l40 96q6 18 20 32t32 21t37 7t35 -8q28 -10 44 -35t16 -53q0 -10 -2 -19t-6 -17l-40 -96q-10 -28 -35 -44t-53 -16q-20 0 -36 8q-28 10 -44 35t-16 53zM666 1280q0 6 1 12t2 13t5 11l40 96q10 28 35 44t53 16q20 0 36 -8q28 -10 44 -35t16 -53 q0 -6 -1 -10t-1 -9t-2 -9l-4 -8l-40 -96q-4 -12 -11 -21t-16 -16t-19 -12t-21 -8t-21 -3t-19 2t-17 6q-28 10 -44 35t-16 53z" />
<glyph unicode="&#x2dc;" horiz-adv-x="0" d="M52 1648q2 28 14 48v2q4 8 12 21t33 42t53 52t72 41t92 18q16 0 31 -2t30 -7t27 -13q10 -6 18 -12t14 -13t11 -13t10 -13t8 -13t6 -13t5 -11t3 -9t3 -7q16 6 37 26t34 35t17 23q6 10 16 18t20 13t21 8t23 3h9t9 -1l8 -2t9 -3t9 -4l8 -4q44 -28 44 -82q0 -26 -14 -50 q-4 -6 -11 -18t-32 -42t-53 -53t-73 -42t-95 -19q-52 0 -92 26q-10 6 -18 13t-14 13t-12 14t-9 14l-7 14l-6 12t-5 11t-3 9q-20 -8 -48 -38t-38 -44q-28 -44 -82 -44q-26 0 -48 14q-6 4 -11 8t-9 8t-8 9t-6 11t-5 11t-4 11l-2 12t-1 12z" />
<glyph unicode="&#x2000;" horiz-adv-x="1062" />
<glyph unicode="&#x2001;" horiz-adv-x="2124" />
<glyph unicode="&#x2002;" horiz-adv-x="1062" />
<glyph unicode="&#x2003;" horiz-adv-x="2124" />
<glyph unicode="&#x2004;" horiz-adv-x="708" />
<glyph unicode="&#x2005;" horiz-adv-x="531" />
<glyph unicode="&#x2006;" horiz-adv-x="354" />
<glyph unicode="&#x2007;" horiz-adv-x="354" />
<glyph unicode="&#x2008;" horiz-adv-x="265" />
<glyph unicode="&#x2009;" horiz-adv-x="424" />
<glyph unicode="&#x200a;" horiz-adv-x="118" />
<glyph unicode="&#x2010;" horiz-adv-x="664" d="M-54 528q0 40 28 68t68 28h410q40 0 68 -28t28 -68t-28 -68t-68 -28h-410q-40 0 -68 28t-28 68z" />
<glyph unicode="&#x2011;" horiz-adv-x="664" d="M-54 528q0 40 28 68t68 28h410q40 0 68 -28t28 -68t-28 -68t-68 -28h-410q-40 0 -68 28t-28 68z" />
<glyph unicode="&#x2012;" horiz-adv-x="664" d="M-54 528q0 40 28 68t68 28h410q40 0 68 -28t28 -68t-28 -68t-68 -28h-410q-40 0 -68 28t-28 68z" />
<glyph unicode="&#x2013;" horiz-adv-x="818" d="M-106 528q0 40 28 68t68 28h666q40 0 68 -28t28 -68t-28 -68t-68 -28h-666q-40 0 -68 28t-28 68z" />
<glyph unicode="&#x2014;" horiz-adv-x="1638" d="M-106 528q0 40 28 68t68 28h1486q40 0 68 -28t28 -68t-28 -68t-68 -28h-1486q-40 0 -68 28t-28 68z" />
<glyph unicode="&#x2018;" horiz-adv-x="472" d="M256 1106q0 12 2 24t5 23t7 21q38 90 166 260q28 38 76 38q16 0 31 -5t27 -15q38 -28 38 -76q0 -10 -2 -20t-6 -20t-12 -18q-2 -4 -9 -13t-25 -34t-34 -49q26 -34 26 -74q0 -24 -8 -46q-2 -2 -2 -4q-14 -32 -34 -58t-55 -45t-77 -19q-58 0 -86 38t-28 92z" />
<glyph unicode="&#x2019;" horiz-adv-x="472" d="M270 1072q0 32 20 58q32 42 66 94q-2 6 -5 11t-5 10t-4 9t-4 9t-3 10t-1 10t-1 10t-1 9q0 24 8 44l2 4q14 32 34 58t55 45t77 19q30 0 52 -11t35 -30t20 -41t7 -48q0 -36 -14 -68q-38 -90 -166 -260q-28 -38 -76 -38q-16 0 -31 5t-27 15q-38 28 -38 76z" />
<glyph unicode="&#x201a;" horiz-adv-x="472" d="M-220 -112q0 10 2 20t6 20t12 18q32 42 66 94q-8 14 -13 27t-8 26t-3 25t2 23t6 21q2 2 2 4q22 52 64 87t102 35q40 0 66 -20t37 -48t11 -62q0 -18 -4 -35t-10 -33q-38 -90 -166 -260q-28 -38 -76 -38q-32 0 -58 20q-38 28 -38 76z" />
<glyph unicode="&#x201c;" horiz-adv-x="818" d="M256 1106q0 12 2 24t5 23t7 21q38 90 166 260q28 38 76 38q16 0 31 -5t27 -15q38 -28 38 -76q0 -10 -2 -20t-6 -20t-12 -18q-2 -4 -9 -13t-25 -34t-34 -49q26 -34 26 -74q0 -24 -8 -46q-2 -2 -2 -4q-14 -32 -34 -58t-55 -45t-77 -19q-58 0 -86 38t-28 92zM602 1106 q0 36 14 68q38 90 166 260q28 38 76 38q16 0 31 -5t27 -15q38 -28 38 -76q0 -10 -2 -20t-6 -20t-12 -18q-2 -4 -9 -13t-25 -34t-34 -49q12 -18 18 -37t6 -39q0 -6 -1 -12t-2 -11l-2 -10t-3 -11q-2 -2 -2 -4q-54 -122 -164 -122q-58 0 -86 38t-28 92z" />
<glyph unicode="&#x201d;" horiz-adv-x="818" d="M270 1072q0 32 20 58q32 42 66 94q-2 6 -5 11t-5 10t-4 9t-4 9t-3 10t-1 10t-1 10t-1 9q0 24 8 44l2 4q14 32 34 58t55 45t77 19q30 0 52 -11t35 -30t20 -41t7 -48q0 -36 -14 -68q-38 -90 -166 -260q-28 -38 -76 -38q-16 0 -31 5t-27 15q-38 28 -38 76zM616 1072 q0 32 20 58l1 1t3 4t5 7t7 10l8 12t9 13t11 14t12 16t10 17q-12 20 -18 39t-6 39q0 12 2 23t6 21q2 2 2 4q22 52 64 87t102 35q58 0 86 -38t28 -92q0 -36 -14 -68q-42 -100 -164 -258l-2 -2q-12 -18 -33 -28t-43 -10q-16 0 -31 5t-27 15q-18 12 -28 33t-10 43z" />
<glyph unicode="&#x201e;" horiz-adv-x="818" d="M-220 -112q0 10 2 20t6 20t12 18q32 42 66 94q-8 14 -13 27t-8 26t-3 25t2 23t6 21q2 2 2 4q22 52 64 87t102 35q40 0 66 -20t37 -48t11 -62q0 -18 -4 -35t-10 -33q-38 -90 -166 -260q-28 -38 -76 -38q-32 0 -58 20q-38 28 -38 76zM126 -112q0 10 2 20t6 20t12 18 q32 42 66 94q-24 36 -24 78q0 24 8 44q2 2 2 4q22 52 64 87t102 35q40 0 66 -20t37 -48t11 -62q0 -36 -14 -68q-38 -90 -166 -260q-12 -18 -33 -28t-43 -10q-32 0 -58 20q-38 28 -38 76z" />
<glyph unicode="&#x2022;" horiz-adv-x="562" d="M72 674q0 26 5 52t15 48q32 76 97 131t145 55q34 0 64 -12q94 -40 94 -152q0 -52 -20 -98q-20 -50 -55 -90t-85 -68t-104 -28q-34 0 -64 12q-32 14 -54 39t-30 52t-8 59z" />
<glyph unicode="&#x202f;" horiz-adv-x="424" />
<glyph unicode="&#x205f;" horiz-adv-x="531" />
<glyph unicode="&#x25fc;" horiz-adv-x="1060" d="M0 0v1060h1060v-1060h-1060z" />
</font>
</defs>
</svg>
