<?xml version="1.0" standalone="no"?>
<!DOCTYPE svg PUBLIC "-//W3C//DTD SVG 1.1//EN" "http://www.w3.org/Graphics/SVG/1.1/DTD/svg11.dtd" >
<svg xmlns="http://www.w3.org/2000/svg" xmlns:xlink="http://www.w3.org/1999/xlink" version="1.1">
<metadata></metadata>
<defs>
<font id="routed_gothic_wideitalic" horiz-adv-x="720" >
<font-face units-per-em="2048" ascent="1664" descent="-384" />
<missing-glyph horiz-adv-x="500" />
<glyph horiz-adv-x="0" />
<glyph unicode="&#xd;" horiz-adv-x="682" />
<glyph unicode=" " />
<glyph unicode="!" d="M-50 120q0 20 8 42q2 2 2 4q24 58 78 90t116 32q44 0 85 -34t41 -84q0 -6 -1 -13t-3 -15l-4 -16l-2 -4q-16 -40 -48 -68t-70 -41t-78 -13q-48 0 -86 35t-38 85zM198 576q0 10 2 19t6 17l332 800q10 28 35 44t53 16q20 0 36 -8q14 -4 25 -14t19 -22t12 -25t4 -27 q0 -10 -2 -19t-6 -17l-332 -800q-4 -14 -14 -25t-22 -19t-25 -12t-27 -4q-6 0 -12 1t-13 2t-11 5q-18 6 -32 20t-21 32t-7 36z" />
<glyph unicode="&#x22;" horiz-adv-x="960" d="M276 960q0 10 2 19t6 19l174 416q6 16 20 30t32 21t37 7t37 -8q12 -6 23 -15t19 -21t12 -25t4 -27q0 -20 -8 -38l-174 -416q-10 -26 -35 -42t-53 -16q-20 0 -38 8q-26 10 -42 35t-16 53zM676 960q0 10 2 19t6 19l174 416q10 26 35 42t53 16q20 0 38 -8q12 -6 23 -15 t19 -21t12 -25t4 -27q0 -20 -8 -38l-174 -416q-10 -26 -35 -42t-53 -16q-20 0 -38 8q-26 10 -42 35t-16 53z" />
<glyph unicode="#" horiz-adv-x="1680" d="M38 96q0 32 20 58l248 326h-92q-40 0 -68 28t-28 68t28 68t68 28h236l98 128h-202q-40 0 -68 28t-28 68t28 68t68 28h348l336 442q28 38 76 38q32 0 58 -20q18 -14 28 -34t10 -42q0 -32 -20 -58l-248 -326h200l336 442q28 38 76 38q32 0 58 -20q18 -14 28 -34t10 -42 q0 -32 -20 -58l-248 -326h92q40 0 68 -28t28 -68t-28 -68t-68 -28h-236l-98 -128h202q40 0 68 -28t28 -68t-28 -68t-68 -28h-348l-336 -442q-28 -38 -76 -38q-32 0 -58 20q-38 28 -38 76q0 32 20 58l248 326h-200l-336 -442q-28 -38 -76 -38q-32 0 -58 20q-38 28 -38 76z M692 672h198l98 128h-198z" />
<glyph unicode="$" horiz-adv-x="1260" d="M58 432q0 56 50 84q22 12 46 12q54 0 84 -50q6 -8 16 -21t50 -37t88 -32l122 296q-106 28 -164 90t-58 144v7v6v5q2 22 7 43t15 41q44 110 170 178t278 80l56 134q10 28 35 44t53 16q20 0 36 -8q10 -4 18 -9t14 -12t12 -15t9 -16t5 -18t2 -19t-2 -18t-6 -17l-32 -78 q52 -12 95 -34t69 -45t39 -38t19 -27q2 -2 3 -6t3 -8t3 -8t1 -8t1 -8t1 -8q0 -56 -48 -84q-22 -12 -47 -12t-47 13t-36 33q-34 46 -130 60l-102 -246q40 -10 72 -24q148 -62 148 -210q0 -6 -1 -13t-1 -14t-1 -13l-2 -12t-3 -13t-4 -13t-4 -11t-4 -11l-4 -12 q-70 -166 -272 -248q-88 -36 -190 -46l-58 -136q-10 -28 -35 -44t-53 -16q-20 0 -36 8q-28 10 -44 35t-16 53q0 20 8 36l30 76q-46 12 -89 35t-69 44t-48 45t-29 35t-11 19q-6 12 -9 23t-3 23zM482 914q0 -36 106 -52l84 204q-68 -22 -119 -57t-63 -61q-2 -8 -4 -15t-2 -11 v-2zM608 410q76 24 127 67t71 89l6 12l10 32q0 6 -7 10t-31 14q-6 4 -14 6t-17 5t-20 5t-23 4z" />
<glyph unicode="%" horiz-adv-x="2160" d="M278 96q0 42 32 72l1412 1280q26 24 64 24q42 0 72 -32q12 -12 18 -29t6 -35q0 -20 -8 -39t-24 -33l-1412 -1280q-26 -24 -64 -24q-14 0 -26 4t-24 11t-22 17q-24 26 -24 64zM336 1070q0 50 22 102q54 134 201 217t307 83q88 0 160 -28q50 -22 89 -58t60 -83t21 -101 q0 -50 -22 -102q-54 -134 -201 -217t-307 -83q-88 0 -160 28q-78 32 -124 97t-46 145zM526 1062q0 -34 52 -56q38 -14 88 -14q104 0 204 58t128 122q4 12 6 21t2 17q0 34 -52 56q-38 14 -88 14q-70 0 -142 -28t-122 -70t-68 -82q-2 -6 -3 -11l-2 -10t-2 -9t-1 -8zM964 270 q0 50 22 102q36 88 117 158t184 106t207 36q88 0 160 -28q78 -32 124 -97t46 -145q0 -50 -22 -102q-54 -134 -201 -217t-307 -83q-88 0 -160 28q-78 32 -124 97t-46 145zM1154 262q0 -18 12 -31t40 -25q38 -14 88 -14q104 0 204 58t128 122q8 22 8 38q0 18 -12 31t-40 25 q-38 14 -88 14q-104 0 -204 -58t-128 -122q-8 -22 -8 -38z" />
<glyph unicode="&#x26;" horiz-adv-x="1960" d="M30 336q0 76 32 148q94 226 378 354q-72 72 -72 178q0 62 26 124q60 146 251 247t477 101q196 0 322 -52q94 -38 146 -109t52 -155q0 -18 -2 -35t-7 -35t-13 -34q-70 -170 -282 -268q30 -18 55 -38t49 -44q48 34 98 63t67 38t31 13q8 4 17 6t17 2q30 0 54 -16t36 -42 q8 -18 8 -36q0 -28 -16 -53t-40 -37q-74 -32 -168 -100q12 -28 19 -59t11 -63t4 -66q0 -146 -68 -308q-10 -28 -35 -44t-53 -16q-10 0 -19 2t-17 6q-12 4 -21 11t-16 16t-12 19t-8 21t-3 21t2 19t6 17q54 132 54 238q0 28 -4 52q-46 -48 -88 -98q-272 -340 -780 -340 q-160 0 -272 46q-106 44 -161 126t-55 180zM218 328q4 -78 100 -120q36 -14 86 -23t114 -9q192 0 349 57t283 211q34 42 70 81t72 73q-32 28 -74 50t-94 38q-68 22 -152 34t-182 12q-92 -6 -203 -46t-212 -114t-137 -160q-20 -48 -20 -84zM554 1006q0 -14 7 -24t19 -17 t32 -15q30 -12 75 -19t101 -7q38 0 74 -2t71 -5t67 -7q170 12 290 81t154 149q2 8 4 14t4 13t2 13q0 10 -4 20t-14 20t-26 19t-40 19q-90 38 -248 38q-102 0 -190 -16t-148 -41t-107 -57t-71 -61t-36 -53q-16 -42 -16 -62z" />
<glyph unicode="'" horiz-adv-x="560" d="M276 960q0 10 2 19t6 19l174 416q6 16 20 30t32 21t37 7t37 -8q12 -6 23 -15t19 -21t12 -25t4 -27q0 -20 -8 -38l-174 -416q-10 -26 -35 -42t-53 -16q-20 0 -38 8q-26 10 -42 35t-16 53z" />
<glyph unicode="(" horiz-adv-x="860" d="M90 280q0 246 102 492q56 140 147 278t169 229t170 178t123 113t53 44q26 18 58 18q48 0 76 -38q4 -4 6 -9t5 -9t4 -9l2 -10l2 -10t1 -9q0 -22 -10 -43t-26 -35q-144 -110 -304 -294q-204 -236 -300 -466q-32 -78 -52 -156t-27 -141t-7 -125q0 -184 54 -304q8 -18 8 -38 q0 -60 -54 -86q-10 -6 -21 -8t-21 -2q-26 0 -50 14t-36 40q-10 20 -22 53t-31 131t-19 202z" />
<glyph unicode=")" horiz-adv-x="860" d="M-228 -64q0 46 36 76q16 12 48 39t114 106t155 163t155 208t132 244q86 212 86 422q0 184 -54 304q-8 16 -8 36q0 64 54 88q20 10 40 10q60 0 88 -54q10 -20 22 -54t31 -131t19 -201q0 -112 -23 -236t-79 -256q-56 -140 -148 -279t-170 -229t-169 -178t-122 -113t-53 -43 q-14 -8 -29 -13t-29 -5q-48 0 -76 38q-6 8 -11 18t-7 20t-2 20z" />
<glyph unicode="*" horiz-adv-x="1280" d="M344 1120q0 40 28 68t68 28h228l-38 126q-2 6 -3 13t-1 15q0 30 19 56t49 36q6 2 13 3t15 1q30 0 56 -19t36 -49l32 -108l172 152q28 24 64 24q44 0 72 -32q12 -14 18 -30t6 -34q0 -44 -32 -72l-94 -82h108q40 0 68 -28t28 -68t-28 -68t-68 -28h-230l38 -126q4 -14 4 -28 q0 -30 -19 -56t-49 -36q-14 -4 -28 -4q-30 0 -56 19t-36 49l-32 108l-172 -152q-8 -6 -15 -10t-15 -7t-17 -5t-17 -2q-20 0 -39 8t-33 24q-12 14 -18 30t-6 34q0 44 32 72l94 82h-106q-40 0 -68 28t-28 68z" />
<glyph unicode="+" horiz-adv-x="1600" d="M164 736q0 40 28 68t68 28h476l154 372q10 28 35 44t53 16q10 0 19 -2t17 -6q28 -10 44 -35t16 -53q0 -20 -8 -36l-122 -300h396q40 0 68 -28t28 -68t-28 -68t-68 -28h-476l-154 -372q-4 -14 -14 -25t-22 -19t-25 -12t-27 -4q-20 0 -36 8q-28 10 -44 35t-16 53q0 20 8 36 l122 300h-396q-40 0 -68 28t-28 68z" />
<glyph unicode="," horiz-adv-x="740" d="M-92 -112q0 38 26 66q28 30 64 72q-46 38 -46 98q0 10 1 19t5 19q2 2 2 4q24 58 78 90t116 32q26 0 52 -10q36 -14 59 -50t23 -80q0 -14 -3 -29t-9 -29q-40 -94 -204 -268q-28 -30 -68 -30q-38 0 -66 26q-30 28 -30 70z" />
<glyph unicode="-" horiz-adv-x="1040" d="M18 528q0 40 28 68t68 28h640q40 0 68 -28t28 -68t-28 -68t-68 -28h-640q-40 0 -68 28t-28 68z" />
<glyph unicode="." d="M-50 120q0 20 8 42q2 2 2 4q24 58 78 90t116 32q44 0 85 -34t41 -84q0 -6 -1 -13t-3 -15l-4 -16l-2 -4q-16 -40 -48 -68t-70 -41t-78 -13q-48 0 -86 35t-38 85z" />
<glyph unicode="/" horiz-adv-x="1440" d="M-82 96q0 20 8 39t24 33l1412 1280q26 24 64 24q42 0 72 -32q12 -12 18 -29t6 -35q0 -6 -1 -11t-2 -11t-3 -11t-5 -10l-6 -10t-7 -10t-8 -9l-1412 -1280q-26 -24 -64 -24q-42 0 -72 32q-12 12 -18 29t-6 35z" />
<glyph unicode="0" horiz-adv-x="1680" d="M68 474q2 148 64 298q124 300 406 508t574 208q120 0 218 -40q138 -56 210 -176t72 -274q0 -146 -64 -298q-124 -300 -406 -508t-574 -208q-30 0 -58 3t-56 8t-54 12t-50 17q-138 56 -210 176t-72 274zM258 472q0 -50 12 -94t34 -77t52 -58t68 -41q62 -26 144 -26 q144 0 305 80t296 218t203 298q16 42 28 83t17 76t5 69q0 66 -21 121t-57 92t-88 57q-30 12 -66 19t-78 7q-144 0 -305 -80t-296 -218t-203 -298q-26 -64 -38 -121t-12 -107z" />
<glyph unicode="1" horiz-adv-x="880" d="M78 96q0 20 8 36l532 1280q6 18 20 32t32 21t37 7t35 -8q10 -4 18 -9t14 -12t12 -15t9 -16t5 -18t2 -19t-2 -18t-6 -17l-532 -1280q-10 -28 -35 -44t-53 -16q-20 0 -36 8q-28 10 -44 35t-16 53z" />
<glyph unicode="2" horiz-adv-x="1680" d="M-22 96q0 20 8 36q40 98 86 173t117 139t128 106t171 96t188 86t234 94q6 2 8 3t7 3t7 3t7 3t8 3t7 3t8 3t7 3t7 4q192 76 260 123t98 117q8 18 12 35t4 31q0 24 -11 43t-31 34t-54 29q-32 14 -78 22t-100 8q-190 0 -334 -71t-194 -189q-10 -28 -35 -44t-53 -16 q-20 0 -36 8q-28 10 -44 35t-16 53q0 20 8 36q52 128 167 216t250 126t287 38q144 0 252 -44q64 -28 112 -71t73 -100t25 -121q0 -66 -28 -134q-32 -78 -93 -137t-144 -104t-225 -103q-8 -2 -26 -10q-110 -44 -162 -65t-135 -56t-122 -54t-98 -50t-90 -55t-69 -55t-65 -64 t-51 -73h864q40 0 68 -28t28 -68t-28 -68t-68 -28h-1020q-16 0 -30 4q-30 10 -48 36t-18 56z" />
<glyph unicode="3" horiz-adv-x="1680" d="M66 308q0 20 9 40t26 34t39 20q10 2 22 2q20 0 40 -9t34 -26t20 -39q14 -60 93 -107t215 -47q200 0 388 105t244 237q10 26 16 51t6 47q0 74 -68 125t-228 51q-98 0 -242 -40q-6 -2 -12 -3t-14 -1q-24 0 -46 12q-34 20 -46 56v2q-2 4 -2 7t-1 6t-1 6v7q0 24 12 46 q20 34 56 46q218 64 376 156t262 188h-708q-40 0 -68 28t-28 68t28 68t68 28h920q6 0 14 -1t15 -3t13 -6q54 -26 54 -86q0 -14 -4 -26t-10 -24q-6 -10 -17 -26t-47 -59t-80 -85t-117 -99t-155 -105q82 -28 142 -75t93 -114t33 -147q0 -84 -38 -174q-54 -130 -183 -236 t-294 -164t-331 -58q-186 0 -324 79t-172 223q-2 10 -2 22z" />
<glyph unicode="4" horiz-adv-x="1680" d="M102 540q0 10 8 36v2l52 124q2 8 8 16t13 15t13 11l1058 708q12 8 27 12t27 4h132h24q40 0 68 -29t28 -67q0 -8 -1 -14t-2 -11t-5 -11l-288 -700h134q40 0 68 -28t28 -68t-28 -68t-68 -28h-214l-162 -388q-10 -28 -35 -44t-53 -16q-20 0 -36 8q-28 10 -44 35t-16 53 q0 20 8 36l130 316h-778q-12 0 -25 4t-23 10t-19 15t-16 19t-10 23t-3 25zM380 636h676l258 624z" />
<glyph unicode="5" horiz-adv-x="1680" d="M48 312q0 32 20 58t50 34l26 4q20 0 39 -9t33 -25t20 -36q20 -70 95 -116t203 -46q200 0 394 117t258 271q22 56 22 106q0 90 -76 150t-228 60q-248 0 -484 -160q-24 -16 -54 -16q-56 0 -84 48q-10 20 -10 46q0 14 3 27t7 21l320 576q6 12 16 21t21 16t23 10t24 3h800 q40 0 68 -28t28 -68t-28 -68t-68 -28h-744l-144 -260q156 52 306 52q82 0 157 -18t137 -53t107 -83t70 -112t25 -136q0 -30 -4 -60t-12 -59t-22 -59q-88 -218 -328 -363t-500 -145q-118 0 -218 35t-169 104t-95 163q-4 12 -4 26z" />
<glyph unicode="6" horiz-adv-x="1680" d="M128 428q0 70 16 148q6 30 16 62t21 66t27 68q64 160 164 288t204 206t218 130t205 72t167 20q58 0 109 -7t90 -20t73 -29t58 -34t42 -35t30 -34t19 -27t9 -18q8 -16 8 -34q0 -66 -58 -90q-8 -4 -17 -6t-19 -2q-28 0 -53 15t-35 39q-4 4 -5 7t-11 13t-21 18t-32 18 t-46 17t-62 12t-79 5t-96 -11t-121 -33t-139 -64t-141 -97t-135 -137t-116 -182q204 132 486 132q210 0 353 -99t143 -263q0 -68 -28 -134q-72 -178 -279 -301t-469 -123q-50 0 -101 9t-109 28t-108 53t-90 81t-64 118t-24 155zM324 370q18 -100 103 -147t197 -47 q86 0 167 19t146 50t118 71t88 82t53 82q6 18 9 32t3 28q0 66 -75 119t-229 53q-210 0 -360 -86t-220 -256z" />
<glyph unicode="7" horiz-adv-x="1680" d="M338 96q0 20 8 38l28 64q62 148 147 285t180 243t190 195t195 159t175 116t151 84h-886q-40 0 -68 28t-28 68t28 68t68 28h1120q40 0 68 -29t28 -67q0 -10 -2 -19t-6 -17l-48 -116q-4 -12 -13 -23t-20 -19t-21 -12q-16 -6 -47 -19t-116 -58t-169 -99t-195 -144t-206 -191 t-190 -242t-159 -295l-28 -64q-26 -56 -88 -58q-22 2 -38 8q-58 26 -58 88z" />
<glyph unicode="8" horiz-adv-x="1680" d="M58 362q0 66 28 130q82 202 350 332q-36 40 -54 87t-18 99q0 58 24 114q46 110 158 194t259 127t307 43q128 0 237 -33t184 -110t75 -185q0 -54 -24 -108q-38 -94 -120 -164t-192 -132q54 -44 81 -104t27 -126t-28 -132q-74 -178 -289 -294t-495 -116q-152 0 -266 48 q-114 46 -179 135t-65 195zM250 356q0 -96 124 -148q80 -32 194 -32q230 0 395 91t213 201q14 36 14 64q0 70 -96 110q-82 34 -214 34q-126 0 -230 28q-26 -8 -60 -22t-86 -40t-96 -57t-85 -75t-61 -90q-12 -34 -12 -64zM556 1008q0 -52 68 -88q92 -52 256 -52q86 0 160 -12 q88 38 214 120t154 148q8 20 8 36q0 14 -10 31t-33 36t-56 34t-87 25t-118 10q-194 0 -352 -77t-196 -167q-4 -14 -6 -24t-2 -20z" />
<glyph unicode="9" horiz-adv-x="1680" d="M76 222q0 66 58 90q18 8 36 8q28 0 53 -15t35 -39l8 -12t24 -22t45 -27t73 -20t106 -9q52 0 118 14t153 52t170 95t166 151t141 212q-102 -66 -226 -99t-260 -33q-210 0 -353 99t-143 263q0 68 28 134q46 114 152 210t264 155t332 59q60 0 122 -12t131 -43t122 -79 t87 -129t34 -181q0 -70 -16 -148q-6 -24 -12 -47t-14 -48t-17 -50t-21 -51q-64 -160 -164 -288t-204 -206t-218 -130t-205 -72t-167 -20q-90 0 -165 19t-120 43t-79 56t-47 51t-19 35q-8 16 -8 34zM472 932q0 -66 75 -119t229 -53q210 0 360 86t220 256q-18 100 -103 147 t-197 47q-206 0 -365 -96t-207 -208q-6 -18 -9 -32t-3 -28z" />
<glyph unicode=":" d="M-50 120q0 20 8 42q2 2 2 4q24 58 78 90t116 32q44 0 85 -34t41 -84q0 -6 -1 -13t-3 -15l-4 -16l-2 -4q-16 -40 -48 -68t-70 -41t-78 -13q-48 0 -86 35t-38 85zM268 886q0 22 8 44l1 2l1 2q24 58 78 90t116 32q12 0 24 -3t25 -8t24 -13t21 -18t17 -21t11 -25t4 -30 q0 -10 -2 -21t-6 -23l-2 -4q-16 -38 -47 -66t-69 -42t-78 -14q-16 0 -34 5t-34 16t-29 25t-21 33t-8 39z" />
<glyph unicode=";" horiz-adv-x="740" d="M-92 -112q0 38 26 66q28 30 64 72q-46 38 -46 98q0 10 1 19t5 19q2 2 2 4q24 58 78 90t116 32q26 0 52 -10q36 -14 59 -50t23 -80q0 -14 -3 -29t-9 -29q-40 -94 -204 -268q-28 -30 -68 -30q-38 0 -66 26q-30 28 -30 70zM268 886q0 22 8 44l1 2l1 2q24 58 78 90t116 32 q12 0 24 -3t25 -8t24 -13t21 -18t17 -21t11 -25t4 -30q0 -10 -2 -21t-6 -23l-2 -4q-16 -38 -47 -66t-69 -42t-78 -14q-16 0 -34 5t-34 16t-29 25t-21 33t-8 39z" />
<glyph unicode="&#x3c;" horiz-adv-x="1600" d="M164 742q0 6 1 12t3 12t6 12q4 8 10 16t12 14q14 12 32 18l1258 432q8 4 16 5t16 1q30 0 55 -18t35 -46q6 -16 6 -32q0 -14 -5 -28t-13 -26t-20 -22t-26 -14l-1038 -356l692 -332q24 -12 39 -36t15 -50q0 -12 -2 -22t-8 -20q-26 -54 -86 -54q-12 0 -22 2t-20 8l-902 432 q-16 8 -29 22t-19 32t-6 38z" />
<glyph unicode="=" horiz-adv-x="1600" d="M64 496q0 40 28 68t68 28h1080q40 0 68 -28t28 -68t-28 -68t-68 -28h-1080q-40 0 -68 28t-28 68zM264 976q0 40 28 68t68 28h1080q40 0 68 -28t28 -68t-28 -68t-68 -28h-1080q-40 0 -68 28t-28 68z" />
<glyph unicode="&#x3e;" horiz-adv-x="1600" d="M-14 304q0 20 8 38t23 32t33 20l1038 356l-692 332q-24 12 -39 36t-15 50q0 22 10 42q26 54 86 54q22 0 42 -10l902 -432q16 -8 29 -22t19 -32q4 -10 5 -19t1 -18t-3 -18t-7 -19q-8 -16 -22 -29t-32 -19l-1258 -432q-16 -6 -32 -6q-30 0 -55 18t-35 46q-6 16 -6 32z" />
<glyph unicode="?" horiz-adv-x="1600" d="M324 1072q0 20 8 36q52 128 166 216t248 126t286 38q180 0 296 -48q84 -34 134 -99t50 -147q0 -54 -24 -110q-50 -122 -148 -193t-260 -133q-160 -62 -219 -118t-119 -196q-10 -28 -35 -44t-53 -16q-20 0 -36 8q-14 4 -25 14t-19 22t-12 25t-4 27q0 20 8 36 q46 114 105 191t139 130t202 101q140 54 204 99t96 119q12 30 12 46q0 20 -15 33t-53 27q-82 34 -224 34q-190 0 -332 -70t-192 -190q-10 -28 -35 -44t-53 -16q-10 0 -19 2t-17 6q-28 10 -44 35t-16 53zM350 120q0 20 8 42l2 4q24 58 78 90t116 32q44 0 85 -34t41 -84 q0 -22 -8 -44l-2 -4q-26 -58 -80 -90t-116 -32q-48 0 -86 35t-38 85z" />
<glyph unicode="@" horiz-adv-x="2200" d="M142 534q0 118 50 238q82 200 269 365t429 258t482 93q192 0 344 -62q64 -26 118 -64t95 -84t70 -100t44 -115t15 -125q0 -38 -5 -77t-16 -80t-29 -81q-76 -186 -184 -280q-66 -56 -154 -86t-170 -30q-84 0 -152 28q-26 12 -49 27t-41 35q-40 -28 -121 -55t-141 -42 t-70 -15l2 2q-142 0 -235 89t-93 225q0 22 2 44t7 43t12 43t17 46q72 174 240 294t346 120q132 0 222 -76l2 4q2 8 6 14t8 11t10 10t12 9t12 7t13 5t14 3t13 1q10 0 19 -2t17 -6q28 -10 44 -35t16 -53q0 -20 -8 -36l-216 -526q32 -22 92 -22q22 0 49 6t55 15t53 21t39 26 q24 20 44 44t36 52t28 53t28 59q38 92 38 174q0 102 -59 179t-169 123q-116 48 -270 48q-310 0 -607 -179t-397 -417q-38 -92 -38 -174q0 -68 27 -126t78 -102t123 -74q116 -48 270 -48q86 0 172 14t170 42q14 4 30 4q30 0 56 -18t36 -48q0 -4 1 -9l2 -10t1 -11 q0 -30 -18 -56t-48 -36q-198 -64 -402 -64q-192 0 -344 62q-106 44 -184 117t-118 168t-40 203zM792 598q0 -122 136 -122q76 0 165 45t157 121l106 256q-12 98 -132 98q-42 0 -91 -15t-96 -43t-90 -64t-78 -82t-55 -94q-22 -52 -22 -100z" />
<glyph unicode="A" horiz-adv-x="1720" d="M-122 96q0 36 22 62l1082 1280q30 34 74 34h104h36q40 0 68 -29t28 -65l18 -1280q0 -40 -28 -69t-66 -29h-2q-20 0 -37 8t-30 20t-21 30t-8 36l-2 194h-854l-214 -254q-30 -34 -74 -34q-36 0 -62 22q-34 30 -34 74zM424 480h688l-10 800z" />
<glyph unicode="B" horiz-adv-x="1740" d="M-2 96q0 20 8 36l298 720l234 560q10 26 35 43t53 17h640q168 0 279 -82t111 -220q0 -34 -7 -66t-21 -64q-70 -172 -274 -278q42 -44 62 -98t20 -114q0 -76 -32 -150q-66 -160 -240 -280t-390 -120h-680q-4 0 -9 1t-11 2t-10 1q-30 10 -48 36t-18 56zM238 192h536 q102 0 201 45t162 108t91 127l8 28t6 26t2 24q0 58 -40 94t-148 36h-10h-30h-576zM520 872h496q72 0 142 19t132 56t103 80t59 85q2 8 5 16t4 15l2 14t1 13q0 44 -44 77t-154 33h-576z" />
<glyph unicode="C" horiz-adv-x="1710" d="M148 476q2 146 64 296q124 300 406 508t574 208q60 0 112 -9t91 -24t73 -35t58 -43t43 -47t30 -49t19 -45t12 -39t6 -29t2 -14q0 -26 -12 -48t-33 -35t-47 -15h-4q-24 0 -45 11t-35 32t-16 49q0 6 -1 12t-6 22t-15 29t-29 30t-44 28t-67 19t-92 8q-230 0 -474 -184 q-232 -176 -330 -412q-50 -124 -50 -228q0 -202 166 -270q20 -8 42 -14t48 -9t54 -3q94 0 191 34t167 81t116 87t62 64q12 24 36 39t52 15q18 0 34 -8q18 -6 32 -20t21 -32t7 -37t-8 -35q-12 -32 -51 -77t-106 -99t-147 -99t-188 -75t-218 -30q-40 0 -77 5t-72 14t-69 21 q-136 58 -209 177t-73 275z" />
<glyph unicode="D" horiz-adv-x="1740" d="M-2 96q0 6 8 36l532 1280q10 28 35 44t53 16h520q94 0 188 -38q116 -48 191 -154t75 -262q0 -22 -2 -46t-5 -50t-9 -52t-14 -54t-18 -57t-24 -59q-64 -158 -164 -285t-201 -202t-210 -125t-191 -69t-148 -19h-520q-40 0 -68 29t-28 67zM238 192h376q36 0 86 11t117 35 t140 69t144 106t137 154t114 205q32 78 47 142t15 116q0 164 -154 226q-58 24 -114 24h-456z" />
<glyph unicode="E" horiz-adv-x="1740" d="M-2 96q0 20 8 36l532 1280q10 26 35 43t53 17h1040q40 0 68 -28t28 -68t-28 -68t-68 -28h-976l-170 -408h576q40 0 68 -28t28 -68t-28 -68t-68 -28h-656l-202 -488h936q40 0 68 -28t28 -68t-28 -68t-68 -28h-1080q-4 0 -9 1t-11 2t-10 1q-30 10 -48 36t-18 56z" />
<glyph unicode="F" horiz-adv-x="1660" d="M-2 96q0 20 8 36l532 1280q10 28 35 44t53 16h1000q40 0 68 -28t28 -68t-28 -68t-68 -28h-936l-170 -408h596q40 0 68 -28t28 -68t-28 -68t-68 -28h-676l-258 -620q-10 -28 -35 -44t-53 -16q-20 0 -36 8q-28 10 -44 35t-16 53z" />
<glyph unicode="G" horiz-adv-x="1680" d="M148 474q0 144 64 298q80 196 237 360t354 260t389 96q114 0 202 -33t132 -77t71 -97t34 -83t7 -44q0 -18 -7 -36t-19 -31t-29 -22t-37 -9h-4q-38 0 -65 27t-31 65q0 6 -1 12t-7 22t-15 29t-28 30t-45 28t-67 19t-91 8q-230 0 -474 -184q-232 -176 -330 -412 q-48 -120 -48 -226q0 -92 34 -158t104 -103t170 -37q80 0 161 22t145 55t102 59t66 50l94 230h-276q-40 0 -68 28t-28 68t28 68t68 28h420q16 0 30 -4q30 -10 48 -36t18 -56q0 -6 -1 -10t-1 -9t-2 -9l-4 -8l-158 -384q-2 -6 -5 -12t-7 -11t-10 -11q-14 -12 -32 -28t-83 -60 t-132 -76t-169 -59t-204 -27q-224 0 -362 138t-138 352z" />
<glyph unicode="H" horiz-adv-x="1780" d="M-2 96q0 20 8 36l532 1280q6 18 20 32t32 21t37 7t35 -8q28 -10 44 -35t16 -53q0 -20 -8 -36l-194 -468h852l226 540q10 28 35 44t53 16q10 0 19 -2t17 -6q28 -10 44 -35t16 -53q0 -20 -8 -36l-532 -1280q-6 -18 -20 -32t-32 -21t-37 -7t-35 8q-28 10 -44 35t-16 53 q0 20 8 36l226 548h-852l-258 -620q-10 -28 -35 -44t-53 -16q-20 0 -36 8q-28 10 -44 35t-16 53z" />
<glyph unicode="I" horiz-adv-x="840" d="M58 97q0 19 8 35l532 1280q10 28 35 44t53 16q20 0 36 -8q10 -4 18 -9t14 -12t12 -15t9 -16t5 -18t2 -19t-2 -18t-6 -17l-532 -1280q-10 -28 -35 -44t-53 -16q-6 0 -10 1t-9 1t-9 2l-8 4q-18 6 -32 20t-21 32t-7 37z" />
<glyph unicode="J" horiz-adv-x="1360" d="M-8 306q0 80 34 162l54 130q6 12 15 23t21 19t25 12t27 4q10 0 19 -2t19 -6q18 -8 31 -21t20 -31t7 -36q0 -10 -2 -19t-6 -19l-54 -126q-10 -26 -14 -48t-4 -42q0 -130 164 -130q122 0 261 101t197 239l372 896q6 18 20 32t32 21t36 7h8t7 -1t7 -2l8 -2t6 -3 q18 -6 32 -20t21 -32t7 -36q0 -10 -2 -19t-6 -17l-372 -896q-80 -194 -261 -327t-373 -133q-154 0 -255 90t-101 232z" />
<glyph unicode="K" horiz-adv-x="1680" d="M-2 96q0 20 8 36l532 1280q10 28 35 44t53 16q20 0 36 -8q10 -4 18 -9t14 -12t12 -15t9 -16t5 -18t2 -19t-2 -18t-6 -17l-228 -550l1132 668q4 4 10 6l12 4t13 3t13 1q54 0 82 -48q14 -22 14 -48q0 -54 -48 -82l-780 -464l326 -694q10 -18 10 -40q0 -60 -56 -86 q-18 -10 -40 -10q-26 0 -50 15t-36 41l-320 676l-404 -238l-182 -434q-10 -28 -35 -44t-53 -16q-20 0 -36 8q-28 10 -44 35t-16 53z" />
<glyph unicode="L" horiz-adv-x="1640" d="M-2 96q0 20 8 36l532 1280q10 28 35 44t53 16q20 0 36 -8q10 -4 18 -9t14 -12t12 -15t9 -16t5 -18t2 -19t-2 -18t-6 -17l-476 -1148h896q40 0 68 -28t28 -68t-28 -68t-68 -28h-1040q-4 0 -9 1t-11 2t-10 1q-30 10 -48 36t-18 56z" />
<glyph unicode="M" horiz-adv-x="2074" d="M-2 96q0 20 8 36l532 1280q10 28 35 44t53 16h64h36q38 0 66 -28t30 -64l38 -1038l954 1096q28 34 72 34h100q40 0 68 -29t28 -67q0 -12 -8 -36l-532 -1280q-6 -18 -20 -32t-32 -21t-37 -7t-35 8q-18 6 -32 20t-21 32t-7 37t8 35l396 954l-916 -1052q-6 -10 -16 -16 t-22 -11t-22 -7h-12q-18 0 -36 7t-31 20t-21 30t-8 35l-40 1064l-456 -1096q-10 -28 -35 -44t-53 -16q-20 0 -36 8q-28 10 -44 35t-16 53z" />
<glyph unicode="N" horiz-adv-x="1800" d="M-2 96q0 20 8 36l532 1280q10 28 35 44t53 16h52h48q20 0 40 -9t33 -25t19 -36l326 -1130l474 1140q10 28 35 44t53 16q20 0 36 -8q28 -10 44 -35t16 -53q0 -10 -2 -19t-6 -17l-532 -1280q-10 -26 -35 -43t-53 -17h-44h-36q-32 0 -58 19t-34 51l-334 1158l-486 -1168 q-10 -28 -35 -44t-53 -16q-20 0 -36 8q-28 10 -44 35t-16 53z" />
<glyph unicode="O" horiz-adv-x="1840" d="M148 474q2 148 64 298q124 300 406 508t574 208q120 0 218 -40q138 -56 210 -176t72 -274q0 -146 -64 -298q-124 -300 -406 -508t-574 -208q-30 0 -58 3t-56 8t-54 12t-50 17q-138 56 -210 176t-72 274zM338 472q0 -50 12 -94t34 -77t52 -58t68 -41q62 -26 144 -26 q144 0 305 80t296 218t203 298q16 42 28 83t17 76t5 69q0 66 -21 121t-57 92t-88 57q-30 12 -66 19t-78 7q-230 0 -474 -184q-232 -176 -330 -412q-26 -64 -38 -121t-12 -107z" />
<glyph unicode="P" horiz-adv-x="1700" d="M-2 96q0 20 8 36l268 646l264 634q10 28 35 44t53 16h600q64 0 122 -10t108 -30q90 -36 140 -109t50 -167q0 -18 -1 -37t-5 -38t-11 -38t-15 -39q-52 -132 -163 -223t-239 -132t-266 -41h-536l-228 -548q-10 -28 -35 -44t-53 -16q-20 0 -36 8q-28 10 -44 35t-16 53z M490 800h456q166 0 302 74t190 202q22 56 22 90q0 14 -4 26t-10 20t-16 16t-21 14t-25 12q-20 8 -44 14t-53 9t-61 3h-536z" />
<glyph unicode="Q" horiz-adv-x="1840" d="M148 474q2 148 64 298q124 300 406 508t574 208q120 0 218 -40q138 -56 210 -176t72 -274q0 -146 -64 -298q-38 -92 -94 -179t-125 -162t-150 -139t-169 -112q16 -4 42 -6q36 -4 61 -32t25 -64q0 -28 -14 -50t-36 -34t-46 -12h-5h-5q-144 16 -212 114q-98 -30 -252 -40 q-30 0 -58 3t-56 8t-54 12t-50 17q-138 56 -210 176t-72 274zM338 472q0 -50 12 -94t34 -77t52 -58t68 -41q62 -26 144 -26q92 0 194 34q0 42 2 44l-2 2q-50 26 -50 84q0 12 3 23t9 23q26 50 84 50q24 0 46 -12q24 -12 44 -32q24 -22 40 -43t28 -41q64 42 125 93t113 110 t95 126t73 135q16 42 28 83t17 76t5 69q0 66 -21 121t-57 92t-88 57q-30 12 -66 19t-78 7q-230 0 -474 -184q-232 -176 -330 -412q-26 -64 -38 -121t-12 -107z" />
<glyph unicode="R" horiz-adv-x="1760" d="M-2 96q0 20 8 36l294 708l238 572q10 28 35 44t53 16h660q158 0 260 -42q54 -22 93 -59t60 -86t21 -107q0 -34 -8 -70t-24 -72q-64 -156 -196 -242t-304 -110l72 -576v-12q0 -36 -24 -63t-60 -33h-12q-36 0 -63 24t-33 60l-72 588h-558l-256 -612q-10 -28 -35 -44 t-53 -16q-20 0 -36 8q-28 10 -44 35t-16 53zM518 864h516q176 0 301 60t177 184q22 54 22 82q0 24 -15 37t-47 25q-66 28 -186 28h-596z" />
<glyph unicode="S" horiz-adv-x="1680" d="M38 324v12q0 24 11 45t30 34t43 17h12q18 0 33 -6t28 -16t22 -26t13 -34q2 -12 4 -20t23 -41t53 -54t100 -40t158 -19q222 0 386 88t212 204q8 22 12 36t4 28q0 26 -23 49t-79 45q-76 32 -198 46q-250 32 -380 119t-130 217q0 6 1 12t1 12t2 12q4 40 22 80 q50 120 165 204t255 122t294 38q128 0 226 -32t147 -75t79 -96t37 -84t7 -51q-2 -38 -29 -66t-67 -28t-67 28t-29 66v8t-5 21t-15 29t-33 31t-54 29t-82 20t-115 8q-128 0 -242 -33t-191 -89t-105 -122q-4 -10 -6 -18t-2 -14v-8q0 -12 4 -24t24 -30t55 -34t101 -33t156 -27 q148 -20 248 -60q38 -16 69 -36t55 -42t41 -47t28 -51t16 -53t5 -55q0 -64 -26 -124q-76 -184 -289 -298t-485 -114q-128 0 -230 34t-154 77t-88 98t-45 84t-13 47z" />
<glyph unicode="T" horiz-adv-x="1720" d="M410 1376q0 40 28 68t68 28h1240q40 0 68 -28t28 -68t-28 -68t-68 -28h-556l-508 -1220q-10 -28 -35 -44t-53 -16q-10 0 -19 2t-17 6q-28 10 -44 35t-16 53q0 20 8 36l476 1148h-476q-40 0 -68 28t-28 68z" />
<glyph unicode="U" horiz-adv-x="1780" d="M120 342q0 64 26 126l392 944q4 14 14 25t22 19t25 12t27 4h8t7 -1t7 -2l8 -2t6 -3q28 -10 44 -35t16 -53q0 -20 -8 -36l-392 -944q-12 -32 -12 -60q0 -80 114 -126q82 -34 194 -34q128 0 256 44t215 111t117 137l392 944q6 18 20 32t32 21t37 7t35 -8q28 -10 44 -35 t16 -53q0 -10 -2 -19t-6 -17l-392 -944q-50 -122 -172 -217t-277 -145t-315 -50q-150 0 -266 48q-106 44 -169 126t-63 184z" />
<glyph unicode="V" horiz-adv-x="1720" d="M410 1370q-2 26 10 49t34 37t46 16h6q14 0 28 -5t26 -13t21 -19t15 -25t6 -28l58 -1090l1014 1148q28 32 72 32q36 0 64 -24q10 -10 17 -21t11 -24t4 -27q0 -6 -1 -12t-2 -11t-3 -11t-5 -11l-6 -10t-7 -9l-1132 -1280q-12 -14 -32 -23t-40 -9h-40q-36 0 -65 26t-31 64z " />
<glyph unicode="W" horiz-adv-x="2180" d="M298 104l112 1280q4 38 32 63t64 25h8q26 -2 47 -17t32 -38t9 -49l-88 -994l754 1058q14 18 35 29t43 11h20q44 0 72 -34q24 -30 24 -64v-10l-118 -986l784 1056q30 38 78 38q16 0 30 -5t28 -13q38 -30 38 -78q0 -16 -5 -30t-13 -28l-952 -1280q-14 -16 -35 -27t-43 -11 h-40q-36 0 -66 28t-30 68v12l112 940l-718 -1008q-28 -40 -78 -40h-40q-36 0 -68 31q-28 28 -28 64v9z" />
<glyph unicode="X" horiz-adv-x="1580" d="M-122 96q0 46 36 76l758 594l-254 572q-8 18 -8 38q0 14 4 27t11 25t18 21t25 15q8 4 18 6t20 2q28 0 52 -15t36 -43l234 -526l718 564q26 20 60 20q14 0 28 -4t26 -13t22 -19q20 -26 20 -60q0 -22 -10 -42t-26 -34l-758 -594l254 -572q4 -8 6 -18t2 -20q0 -28 -15 -52 t-43 -36q-18 -8 -38 -8q-62 0 -88 58l-234 526l-718 -564q-26 -20 -60 -20q-46 0 -76 36q-4 8 -8 15t-7 14t-4 15t-1 16z" />
<glyph unicode="Y" horiz-adv-x="1640" d="M410 1376q0 58 50 84l8 4t7 3t7 2l8 2t8 1h8q58 0 84 -50l276 -512l744 544q12 8 26 13t30 5q50 0 78 -40q8 -12 13 -26t5 -30q0 -50 -40 -78l-810 -592l-270 -646q-10 -28 -35 -44t-53 -16q-10 0 -19 2t-17 6q-18 6 -32 20t-21 32t-7 37t8 35l262 630l-306 568 q-12 22 -12 46z" />
<glyph unicode="Z" horiz-adv-x="1580" d="M-122 96q0 46 36 76l1396 1108h-784q-40 0 -68 28t-28 68t28 68t68 28h1060q40 0 68 -29t28 -67q0 -22 -11 -43t-25 -33l-1396 -1108h824q40 0 68 -28t28 -68t-28 -68t-68 -28h-1100q-42 0 -70 30q-26 28 -26 66z" />
<glyph unicode="[" horiz-adv-x="780" d="M-148 -64q0 10 2 19t6 17l664 1600q10 26 35 43t53 17h300q40 0 68 -28t28 -68t-28 -68t-68 -28h-236l-584 -1408h156q40 0 68 -28t28 -68t-28 -68t-68 -28h-300q-6 0 -14 1t-16 3q-30 10 -48 36t-18 56z" />
<glyph unicode="\" horiz-adv-x="1440" d="M450 1376q0 16 5 31t14 27t23 21t28 13q12 4 26 4q16 0 31 -5t27 -14t21 -23t13 -28l348 -1280q4 -12 4 -26q0 -32 -20 -58t-50 -34q-12 -4 -26 -4q-32 0 -58 20t-34 50l-348 1280q-4 12 -4 26z" />
<glyph unicode="]" horiz-adv-x="780" d="M-228 -64q0 40 28 68t68 28h236l584 1408h-156q-40 0 -68 28t-28 68t28 68t68 28h300q26 0 48 -13t35 -35t13 -48q0 -12 -8 -36l-664 -1600q-6 -18 -21 -32t-32 -21t-35 -7h-300q-40 0 -68 28t-28 68z" />
<glyph unicode="^" horiz-adv-x="1280" d="M250 896q0 44 34 72l560 480q26 24 62 24q22 0 43 -10t35 -30q8 -12 14 -26l160 -480q2 -6 3 -14t1 -16q0 -30 -18 -56t-48 -36q-14 -4 -30 -4q-30 0 -56 18t-36 48l-114 344l-452 -386q-12 -12 -28 -18t-34 -6q-44 0 -72 34q-12 12 -18 28t-6 34z" />
<glyph unicode="_" horiz-adv-x="1440" d="M-360 -192q0 40 28 68t68 28h1200q40 0 68 -28t28 -68t-28 -68t-68 -28h-1200q-40 0 -68 28t-28 68z" />
<glyph unicode="`" horiz-adv-x="960" d="M450 1376q0 16 6 32t17 30t27 22q22 12 46 12q58 0 84 -50l226 -416q12 -22 12 -46q0 -58 -50 -84q-22 -12 -46 -12q-12 0 -25 4t-24 10t-20 15t-15 21l-226 416q-12 22 -12 46z" />
<glyph unicode="a" horiz-adv-x="1470" d="M50 354q0 102 46 210q88 214 293 361t421 147q178 0 288 -112l16 36q6 18 20 32t32 21t36 7q10 0 19 -2t17 -6q28 -10 44 -35t16 -53q0 -10 -2 -19t-6 -17l-358 -864q-10 -28 -35 -44t-53 -16q-20 0 -36 8q-42 16 -56 58q-158 -82 -314 -82q-170 0 -279 104t-109 266z M242 354q0 -178 196 -178q170 0 342 138q46 36 82 76l142 344q-18 146 -194 146q-150 0 -311 -115t-227 -273q-8 -20 -13 -38t-9 -36t-6 -34t-2 -30z" />
<glyph unicode="b" horiz-adv-x="1470" d="M-22 96q0 30 16 54q4 4 7 9t13 21t20 35t24 48t28 63l452 1086q6 18 20 32t32 21t37 7t35 -8q28 -10 44 -35t16 -53q0 -20 -8 -36l-138 -336q144 68 284 68q94 0 170 -32q106 -42 161 -133t55 -207q0 -24 -3 -50t-8 -53t-13 -53t-20 -52q-88 -214 -293 -361t-421 -147 q-186 0 -296 120q-22 -40 -40 -66q-30 -38 -78 -38q-30 0 -56 18q-40 28 -40 78zM294 324q16 -148 194 -148q150 0 311 115t227 273q32 78 32 140q0 40 -14 73t-35 53t-51 32q-42 18 -98 18q-52 0 -108 -15t-112 -44t-109 -69t-97 -90z" />
<glyph unicode="c" horiz-adv-x="1320" d="M50 352q2 106 46 212q86 214 289 361t415 147q82 0 152 -26t121 -76t79 -120l4 -16t2 -18q0 -28 -17 -53t-45 -37q-4 -2 -8 -3l-8 -2t-8 -1h-10t-12 1t-12 3l-12 4t-12 5t-11 7t-9 9l-8 10t-8 11t-6 12q-38 98 -172 98q-164 0 -336 -140q-134 -112 -192 -248 q-32 -80 -32 -144q0 -116 96 -156q40 -16 92 -16q56 0 119 19t126 56t119 89q26 24 64 24q42 0 72 -32q24 -26 24 -64q0 -42 -32 -72q-108 -98 -236 -155t-256 -57q-90 0 -164 30q-104 42 -159 132t-55 206z" />
<glyph unicode="d" horiz-adv-x="1480" d="M60 354q0 102 46 210q88 214 293 361t421 147q178 0 288 -114l190 454q10 28 35 44t53 16q20 0 36 -8q18 -6 32 -20t21 -32t7 -37t-8 -35l-452 -1090q-46 -108 -52 -166q-6 -36 -33 -60t-63 -24h-4h-6q-20 2 -38 12t-30 27t-16 37q-32 -18 -89 -36t-109 -30t-90 -19 t-46 -7h2q-170 0 -279 104t-109 266zM252 354q0 -178 196 -178q104 0 220 59t206 157l140 340q-18 148 -194 148q-172 0 -348 -142q-132 -112 -190 -246q-30 -74 -30 -138z" />
<glyph unicode="e" horiz-adv-x="1360" d="M48 344q2 110 48 220q24 60 60 118q108 172 281 281t353 109q58 0 110 -12t99 -36t83 -65t56 -93q8 -22 13 -42t7 -40t2 -42q0 -90 -48 -202q-4 -12 -11 -21t-16 -16t-19 -12t-21 -8t-21 -3h-756q-30 -78 -30 -140q0 -114 94 -150q38 -14 86 -14q66 0 132 16t111 35 t87 45t57 38t25 18q26 24 62 24q20 0 39 -8t33 -24q24 -26 24 -62q0 -44 -30 -72q-8 -8 -17 -15t-39 -29t-61 -40t-80 -41t-99 -39t-114 -27t-130 -11q-90 0 -162 30q-102 42 -155 129t-53 201zM388 672h568q4 8 5 16t3 15t3 14t1 13v12q0 28 -10 58q-30 80 -168 80 q-96 0 -206 -56t-196 -152z" />
<glyph unicode="f" horiz-adv-x="940" d="M88 96q0 20 8 36l302 732h-96q-40 0 -68 28t-28 68t28 68t68 28h176l96 228q24 62 72 107t104 68t106 34t92 11q50 0 100 -10q32 -8 53 -35t21 -59v-7t-1 -6t-1 -7q-4 -22 -18 -39t-34 -27t-42 -10q-6 0 -10 1t-10 1q-30 6 -58 6q-48 0 -115 -32t-83 -68l-64 -156h136 q40 0 68 -28t28 -68t-28 -68t-68 -28h-216l-334 -804q-10 -28 -35 -44t-53 -16q-20 0 -36 8q-28 10 -44 35t-16 53z" />
<glyph unicode="g" horiz-adv-x="1470" d="M50 354q0 102 46 210q88 214 293 361t421 147q184 0 296 -120q20 38 38 64q30 40 80 40q28 0 52 -16q42 -28 42 -80q0 -30 -16 -52q-6 -10 -14 -23t-31 -58t-45 -97l-318 -766q-60 -144 -201 -246t-327 -102q-170 0 -274 76q-18 14 -28 34t-10 42q0 32 18 56q30 40 78 40 q30 0 56 -18q58 -38 160 -38q84 0 158 35t121 85t73 108l6 16q-144 -68 -286 -68q-170 0 -279 104t-109 266zM242 354q0 -178 196 -178q104 0 221 60t207 158l138 338q-16 148 -194 148q-172 0 -348 -142q-132 -112 -190 -246q-30 -74 -30 -138z" />
<glyph unicode="h" horiz-adv-x="1460" d="M-2 96q0 20 8 36l532 1280q10 28 35 44t53 16q20 0 36 -8q10 -4 18 -9t14 -12t12 -15t9 -16t5 -18t2 -19t-2 -18t-6 -17l-142 -344q168 76 328 76q60 0 115 -19t97 -52t67 -85t25 -112q0 -66 -30 -136l-252 -608q-6 -18 -20 -32t-32 -21t-36 -7q-20 0 -36 8q-18 6 -32 20 t-21 32t-7 37t8 35l252 608q14 36 14 64q0 34 -25 55t-87 21q-90 0 -196 -42t-160 -77t-98 -69l-264 -632q-10 -28 -35 -44t-53 -16q-20 0 -36 8q-28 10 -44 35t-16 53z" />
<glyph unicode="i" d="M-2 96q0 20 8 36l358 864q10 28 35 44t53 16q10 0 19 -2t17 -6q18 -6 32 -20t21 -32t7 -37t-8 -35l-358 -864q-10 -28 -35 -44t-53 -16q-20 0 -36 8q-28 10 -44 35t-16 53zM502 1312q0 20 8 36l40 96q10 28 35 44t53 16q20 0 36 -8q28 -10 44 -35t16 -53q0 -10 -2 -19 t-6 -17l-40 -96q-4 -12 -11 -21t-16 -16t-19 -12t-21 -8t-21 -3t-19 2t-17 6q-28 10 -44 35t-16 53z" />
<glyph unicode="j" d="M-398 -284q0 10 2 20q8 34 35 55t59 21q10 0 20 -2q2 0 4 -1t7 -1h7q36 0 67 9t53 25t36 33t22 35l450 1086q10 28 35 44t53 16l36 -8q14 -4 25 -14t19 -22t12 -25t4 -27q0 -6 -1 -12l-2 -12t-5 -12l-450 -1090q-40 -92 -133 -155t-221 -63q-30 0 -60 6q-22 6 -39 20 t-26 33t-9 41zM502 1312q0 20 8 36l40 96q10 28 35 44t53 16q20 0 36 -8q28 -10 44 -35t16 -53q0 -10 -2 -19t-6 -17l-40 -96q-4 -12 -11 -21t-16 -16t-19 -12t-21 -8t-21 -3t-19 2t-17 6q-28 10 -44 35t-16 53z" />
<glyph unicode="k" horiz-adv-x="1320" d="M-2 96q0 20 8 36l532 1280q6 18 20 32t32 21t37 7t35 -8q28 -10 44 -35t16 -53q0 -20 -8 -36l-274 -662l566 362q24 16 52 16q24 0 46 -12t34 -32q16 -24 16 -52q0 -52 -44 -80l-370 -238l136 -522q4 -12 4 -24q0 -32 -20 -58t-52 -34q-12 -4 -24 -4q-32 0 -58 20t-34 52 l-122 462l-260 -168l-128 -306q-10 -28 -35 -44t-53 -16q-20 0 -36 8q-28 10 -44 35t-16 53z" />
<glyph unicode="l" d="M18 98q0 68 68 228l452 1086q6 18 20 32t32 21t37 7t35 -8q28 -10 44 -35t16 -53q0 -20 -8 -36l-452 -1090q-46 -108 -52 -166q-2 -12 -7 -23t-11 -20t-15 -17t-19 -13t-21 -8t-23 -3h-10q-36 4 -61 32t-25 66z" />
<glyph unicode="m" horiz-adv-x="2160" d="M-2 96q0 20 8 36l358 864q10 28 35 44t53 16q10 0 19 -2t17 -6q42 -16 56 -60q168 84 336 84q88 0 162 -39t112 -107q220 146 446 146q126 0 215 -73t89 -195q0 -66 -30 -136l-252 -608q-10 -28 -35 -44t-53 -16q-20 0 -36 8q-28 10 -44 35t-16 53q0 20 8 36l252 608 q4 10 6 19t4 17t3 14t1 14q0 76 -112 76q-72 0 -146 -23t-135 -59t-95 -60t-60 -46q-4 -12 -10 -24l-252 -608q-4 -14 -14 -25t-22 -19t-25 -12t-27 -4q-20 0 -36 8q-18 6 -32 20t-21 32t-7 37t8 35l252 608q6 20 10 35t4 29q0 34 -25 55t-87 21q-70 0 -144 -23t-135 -58 t-96 -60t-61 -47l-262 -632q-10 -28 -35 -44t-53 -16q-20 0 -36 8q-28 10 -44 35t-16 53z" />
<glyph unicode="n" horiz-adv-x="1450" d="M-2 96q0 20 8 36l358 864q10 28 35 44t53 16q10 0 19 -2t17 -6q42 -16 56 -62q80 40 167 63t179 23q60 0 115 -19t97 -52t67 -85t25 -112q0 -66 -30 -136l-252 -608q-10 -28 -35 -44t-53 -16q-20 0 -36 8q-28 10 -44 35t-16 53q0 20 8 36l252 608q6 20 10 35t4 29 q0 34 -25 55t-87 21q-58 0 -120 -16t-110 -38t-96 -52t-73 -48t-47 -34l-262 -632q-10 -28 -35 -44t-53 -16q-20 0 -36 8q-28 10 -44 35t-16 53z" />
<glyph unicode="o" horiz-adv-x="1420" d="M52 356q0 104 44 208q88 214 293 361t421 147q94 0 170 -32q106 -42 161 -133t55 -207q0 -50 -11 -103t-33 -105q-88 -214 -293 -361t-421 -147q-46 0 -89 8t-81 24q-106 42 -161 133t-55 207zM240 352q0 -118 100 -158q20 -10 45 -14t53 -4q150 0 311 115t227 273 q32 78 32 140q0 40 -14 73t-35 53t-51 32q-42 18 -98 18q-42 0 -87 -10t-90 -30t-89 -46t-85 -60t-76 -72t-63 -82t-48 -88q-32 -78 -32 -140z" />
<glyph unicode="p" horiz-adv-x="1470" d="M-160 -288q0 20 8 36l516 1248q6 18 20 32t32 21t37 7t35 -8q42 -16 56 -60q158 84 316 84q94 0 170 -32q106 -42 161 -133t55 -207q0 -24 -3 -50t-8 -53t-13 -53t-20 -52q-88 -214 -293 -361t-421 -147q-178 0 -288 114l-176 -422q-10 -28 -35 -44t-53 -16q-20 0 -36 8 q-28 10 -44 35t-16 53zM294 324q16 -148 194 -148q150 0 311 115t227 273q32 78 32 140q0 40 -14 73t-35 53t-51 32q-42 18 -98 18q-104 0 -221 -60t-207 -158z" />
<glyph unicode="q" horiz-adv-x="1470" d="M50 354q0 102 46 210q88 214 293 361t421 147q184 0 296 -120q20 40 38 64q6 10 16 17t20 12t21 8t21 3q14 0 28 -4t26 -12q20 -14 31 -35t11 -45q0 -28 -16 -52q-40 -62 -90 -178l-438 -1054q-10 -28 -35 -44t-53 -16q-20 0 -36 8q-18 6 -32 20t-21 32t-7 37t8 35 l124 304q-36 -18 -106 -35t-120 -25t-60 -8h2q-170 0 -279 104t-109 266zM242 354q0 -178 196 -178q104 0 221 59t205 159l140 338q-16 148 -194 148q-172 0 -348 -142q-132 -112 -190 -246q-30 -74 -30 -138z" />
<glyph unicode="r" horiz-adv-x="1060" d="M-2 96q0 20 8 36l358 864q10 28 35 44t53 16q10 0 19 -2t17 -6q28 -10 44 -35t16 -53q0 -20 -8 -36l-4 -12q202 144 376 144q40 0 68 -28t28 -68t-28 -68t-68 -28q-102 0 -256 -108t-296 -268l-178 -428q-10 -28 -35 -44t-53 -16q-6 0 -12 1l-12 2t-12 5q-18 6 -32 20 t-21 32t-7 36z" />
<glyph unicode="s" horiz-adv-x="1240" d="M-38 224q0 56 50 84q10 6 22 9t24 3q54 0 84 -50q4 -4 8 -11t22 -23t40 -28t58 -22t78 -10q72 0 135 17t108 44t75 58t44 63q2 4 5 12t5 11t3 7t2 7t1 7q0 10 -38 24q-52 22 -152 30q-80 6 -144 28t-107 55t-66 77t-23 94v18q4 42 22 84q32 80 112 140t182 90t208 30 q46 0 88 -6t75 -16t62 -22t50 -27t37 -28t28 -26t18 -22l10 -15q12 -20 12 -46q0 -56 -48 -84q-6 -2 -11 -4t-11 -4t-12 -3t-12 -1q-56 0 -84 46q-50 66 -202 66q-76 0 -151 -26t-119 -57t-56 -57q-4 -14 -6 -26v-2l-2 -6q0 -46 166 -58q130 -10 210 -44q148 -62 148 -210 q0 -8 -1 -17t-2 -17l-2 -16t-3 -16t-5 -16t-5 -15t-6 -15q-36 -86 -113 -154t-188 -106t-237 -38q-224 0 -350 160q-16 20 -24 34q-12 22 -12 46z" />
<glyph unicode="t" horiz-adv-x="860" d="M68 96q0 20 8 36l304 732h-78q-40 0 -68 28t-28 68t28 68t68 28h156l110 260q10 28 35 44t53 16q20 0 36 -8q28 -10 44 -35t16 -53q0 -6 -1 -10t-1 -9t-2 -9l-4 -8l-78 -188h76q40 0 68 -28t28 -68t-28 -68t-68 -28h-154l-336 -804q-10 -28 -35 -44t-53 -16q-20 0 -36 8 q-28 10 -44 35t-16 53z" />
<glyph unicode="u" horiz-adv-x="1450" d="M82 254q0 10 1 19t2 19t3 20t4 19t5 19t7 19t8 19l252 608q6 18 20 32t32 21t37 7t35 -8q28 -10 44 -35t16 -53q0 -20 -8 -36l-252 -608q-6 -18 -10 -34t-4 -28q0 -78 114 -78q90 0 192 41t155 76t95 69l264 634q6 18 20 32t32 21t36 7q6 0 10 -1t9 -1t9 -2l8 -4 q28 -10 44 -35t16 -53q0 -10 -2 -19t-6 -17l-358 -864q-10 -28 -35 -44t-53 -16q-20 0 -36 8q-42 16 -56 60q-174 -84 -344 -84q-126 0 -216 74t-90 196z" />
<glyph unicode="v" horiz-adv-x="1240" d="M218 98l18 864q0 38 29 66t67 28h2q40 0 67 -29t27 -69l-14 -684l604 746q14 18 33 27t41 9q16 0 32 -5t28 -17q36 -28 36 -74q0 -34 -22 -60l-698 -864q-28 -36 -74 -36h-52h-28q-36 0 -66 28t-30 70z" />
<glyph unicode="w" horiz-adv-x="1740" d="M158 104l78 864q2 10 4 19t6 16t10 14t12 13t14 11t16 8t17 5t17 2h8q40 -4 66 -35q23 -27 23 -59q0 -5 -1 -10l-54 -600l460 588q14 16 36 26t40 10h40q42 0 70 -31q26 -29 26 -64v-5l-24 -526l492 668q14 18 35 28t43 10q32 0 58 -18q38 -30 38 -78q0 -32 -18 -58 l-638 -864q-30 -38 -78 -38h-40q-38 0 -68 30t-28 70l24 540l-472 -604q-30 -36 -76 -36h-40q-38 0 -69 31q-27 27 -27 64v9z" />
<glyph unicode="x" horiz-adv-x="1240" d="M-122 96q0 46 36 74l520 424l-132 330q-2 10 -4 18t-2 18q0 14 4 28t12 25t19 21t25 16q18 6 36 6q28 0 53 -17t37 -43l108 -274l382 312q26 22 60 22q14 0 27 -4t26 -12t21 -20q22 -26 22 -60q0 -14 -4 -27t-12 -26t-20 -21l-428 -350l160 -404q6 -18 6 -36 q0 -28 -17 -53t-43 -37q-18 -6 -36 -6q-28 0 -53 17t-37 43l-136 348l-474 -386q-26 -22 -60 -22q-46 0 -74 36q-10 12 -16 28t-6 32z" />
<glyph unicode="y" horiz-adv-x="1240" d="M-280 -288q0 8 2 16q6 34 33 57t61 23h7h5q22 -4 46 -4q76 0 156 54t142 130q46 58 92 112l-28 856q0 26 12 49t34 37t46 14h4q8 0 15 -1t14 -4l14 -6t13 -7t11 -9t9 -11l8 -12t6 -13t4 -15t2 -14l20 -638q530 644 570 696q26 32 78 32q16 0 34 -6q52 -30 52 -72 q0 -36 -27 -87t-105 -148t-161 -195t-251 -297t-318 -381q-208 -256 -446 -256q-44 0 -76 6q-24 4 -41 18t-27 34t-10 42z" />
<glyph unicode="z" horiz-adv-x="1260" d="M-92 96q0 46 36 74l848 694h-410q-40 0 -68 28t-28 68t28 68t68 28h680q42 0 70 -30q26 -28 26 -66q0 -22 -9 -41t-27 -33l-848 -694h450q40 0 68 -28t28 -68t-28 -68t-68 -28h-720q-26 0 -48 13t-35 35t-13 48z" />
<glyph unicode="{" horiz-adv-x="1080" d="M262 112q0 36 10 72q20 72 55 139t63 106t50 75t22 56q0 12 -7 23t-22 21t-39 20t-60 20l-12 4t-12 6t-10 8t-10 8q-18 20 -24 44q0 6 -1 12t-1 12t1 12t3 12q6 26 26 44t44 24q96 22 161 57t97 77t50 92t28 103t24 106t45 106t81 99t143 88t223 72q10 2 22 2 q32 0 59 -21t35 -53q2 -10 2 -22q0 -32 -21 -59t-53 -35q-110 -24 -179 -67t-98 -94t-44 -110t-29 -122t-40 -122t-88 -117t-162 -102q46 -58 46 -140q0 -80 -41 -174t-89 -170t-52 -92q-8 -28 -8 -32q0 -36 124 -72q30 -8 50 -34t20 -58q0 -14 -4 -26q-6 -20 -20 -36 t-33 -25t-39 -9q-14 0 -26 4q-126 34 -193 106t-67 162z" />
<glyph unicode="|" d="M-68 -64q0 20 8 36l664 1600q10 28 35 44t53 16q20 0 36 -8q14 -4 25 -14t19 -22t12 -25t4 -27q0 -6 -1 -12t-2 -13t-5 -11l-664 -1600q-10 -28 -35 -44t-53 -16q-6 0 -10 1t-9 1t-9 2l-8 4q-14 4 -25 14t-19 22t-12 25t-4 27z" />
<glyph unicode="}" horiz-adv-x="1080" d="M-228 -64q0 32 21 59t53 35q110 24 179 67t98 94t44 110t29 122t40 122t88 117t162 102q-24 30 -35 66t-11 74q0 80 41 174t89 170t52 92q8 28 8 32q0 18 -26 35t-98 37q-30 8 -50 34t-20 58q0 14 4 26q2 10 7 19t12 17t16 14t18 11t19 7t20 2h9t9 -1t8 -3 q126 -34 193 -106t67 -162q0 -18 -3 -36t-7 -36q-20 -72 -55 -139t-63 -106t-50 -75t-22 -56q0 -26 29 -45t99 -39q26 -6 44 -26t24 -44q2 -12 2 -24t-4 -24t-10 -23t-16 -21q-20 -18 -44 -24q-96 -22 -161 -57t-97 -77t-50 -92t-28 -103t-24 -106t-45 -106t-81 -99 t-143 -88t-223 -72q-10 -2 -22 -2q-32 0 -59 21t-35 53q0 6 -1 11t-1 11z" />
<glyph unicode="~" horiz-adv-x="1620" d="M38 432q0 36 24 64q66 76 137 123t133 65t130 18q66 0 146 -18t140 -40t132 -40t126 -18q30 0 57 5t54 17t54 32t51 48q28 32 72 32q36 0 64 -24q32 -28 32 -72q0 -36 -24 -64q-180 -206 -400 -206q-84 0 -186 29t-197 58t-161 29q-126 0 -216 -102q-28 -32 -72 -32 q-6 0 -12 1t-11 2t-10 3t-11 5t-10 6t-10 7q-32 28 -32 72z" />
<glyph unicode="&#xa0;" />
<glyph unicode="&#xa1;" d="M-174 -318q0 10 2 19t6 17l332 800q4 14 14 25t22 19t25 12t27 4q6 0 12 -1t13 -2t11 -5q18 -6 32 -20t21 -32t7 -36q0 -10 -2 -19t-6 -17l-332 -800q-10 -28 -35 -44t-53 -16q-20 0 -36 8q-14 4 -25 14t-19 22t-12 25t-4 27zM268 888q0 6 1 13t3 15l4 16l2 4 q16 40 48 68t70 41t78 13q48 0 86 -35t38 -85q0 -20 -8 -42q-2 -2 -2 -4q-24 -58 -78 -90t-116 -32q-44 0 -85 34t-41 84z" />
<glyph unicode="&#xa2;" horiz-adv-x="1320" d="M46 -272q0 26 14 48l944 1600q8 16 21 26t29 16t32 6q14 0 26 -3t22 -11q22 -12 35 -35t13 -47q0 -14 -3 -26t-11 -22l-944 -1600q-28 -48 -82 -48q-26 0 -48 14q-16 8 -26 21t-16 29t-6 32zM50 352q2 106 46 212q86 214 289 361t415 147q82 0 152 -26t121 -76t79 -120 l4 -16t2 -18q0 -28 -17 -53t-45 -37q-4 -2 -8 -3l-8 -2t-8 -1h-10t-12 1t-12 3l-12 4t-12 5t-11 7t-9 9l-8 10t-8 11t-6 12q-38 98 -172 98q-164 0 -336 -140q-134 -112 -192 -248q-32 -80 -32 -144q0 -116 96 -156q40 -16 92 -16q56 0 119 19t126 56t119 89q26 24 64 24 q42 0 72 -32q24 -26 24 -64q0 -42 -32 -72q-108 -98 -236 -155t-256 -57q-90 0 -164 30q-104 42 -159 132t-55 206z" />
<glyph unicode="&#xa3;" horiz-adv-x="1760" d="M78 96q0 42 32 72q188 170 280 282t118 190h-188q-40 0 -68 28t-28 68t28 68t68 28h182q-16 56 -16 100q0 72 38 160q74 180 275 288t437 108q90 0 169 -16t150 -50t113 -97t42 -149q0 -66 -32 -140q-6 -18 -20 -32t-32 -21t-37 -7t-35 8q-18 6 -32 20t-21 32t-7 36 q0 10 2 19t6 17q4 12 7 22t5 18t3 15t1 13q0 48 -66 84t-216 36q-92 0 -182 -23t-159 -62t-121 -89t-74 -102q-6 -16 -6 -37t10 -72t12 -79h324q40 0 68 -28t28 -68t-28 -68t-68 -28h-340q-56 -206 -288 -448h762q40 0 68 -28t28 -68t-28 -68t-68 -28h-1000q-16 0 -34 7 t-32 19q-8 8 -13 16t-9 17t-6 18t-2 19z" />
<glyph unicode="&#xa4;" horiz-adv-x="1440" d="M38 384q0 54 46 82l212 128q-4 16 -6 32t-2 34q0 56 24 112q36 90 116 162l-76 92q-22 26 -22 62q0 20 9 40t25 34q26 22 62 22q46 0 74 -34l92 -112q56 24 116 37t118 13q86 0 154 -28q26 -10 50 -26l12 8l214 128q22 14 50 14q54 0 82 -46q14 -22 14 -50q0 -54 -46 -82 l-212 -128q2 -10 4 -21t3 -22t1 -23q0 -14 -2 -28l-4 -28t-7 -28t-11 -28q-4 -12 -9 -23t-11 -22t-13 -22t-15 -21l-16 -20t-16 -19t-17 -18t-19 -17l76 -92q22 -26 22 -62q0 -46 -34 -74q-26 -22 -62 -22q-46 0 -74 34l-92 112q-116 -50 -234 -50q-86 0 -154 28 q-14 6 -26 12t-24 14l-12 -8l-214 -128q-22 -14 -50 -14q-54 0 -82 46q-14 22 -14 50zM478 652q0 -40 54 -62q16 -6 37 -10t45 -4q104 0 206 61t132 135q2 8 4 14t3 12t2 11t1 11q0 40 -54 62q-10 4 -22 7t-28 5t-32 2q-104 0 -206 -61t-132 -135q-10 -28 -10 -48z" />
<glyph unicode="&#xa5;" horiz-adv-x="1640" d="M84 496q0 40 28 68t68 28h1080q40 0 68 -28t28 -68t-28 -68t-68 -28h-1080q-40 0 -68 28t-28 68zM284 976q0 40 28 68t68 28h1080q40 0 68 -28t28 -68t-28 -68t-68 -28h-1080q-40 0 -68 28t-28 68zM410 1376q0 58 50 84l8 4t7 3t7 2l8 2t8 1h8q58 0 84 -50l276 -512 l744 544q12 8 26 13t30 5q50 0 78 -40q8 -12 13 -26t5 -30q0 -50 -40 -78l-810 -592l-270 -646q-10 -28 -35 -44t-53 -16q-10 0 -19 2t-17 6q-18 6 -32 20t-21 32t-7 37t8 35l262 630l-306 568q-12 22 -12 46z" />
<glyph unicode="&#xa6;" d="M-68 -64q0 20 8 36l252 608q10 28 35 44t53 16h8t7 -1t7 -2l8 -2t6 -3q28 -10 44 -35t16 -53l-8 -36l-252 -608q-10 -28 -35 -44t-53 -16q-20 0 -36 8q-28 10 -44 35t-16 53zM344 928q0 10 2 19t6 17l252 608q10 28 35 44t53 16q20 0 36 -8q28 -10 44 -35t16 -53 q0 -6 -1 -12l-2 -12t-5 -12l-252 -608q-10 -28 -35 -44t-53 -16q-6 0 -12 1l-12 2t-12 5q-28 10 -44 35t-16 53z" />
<glyph unicode="&#xa7;" horiz-adv-x="1560" d="M-104 -94q0 38 28 67t66 29h2q12 0 25 -4t23 -10t19 -15t15 -19t10 -21t4 -23q0 -6 1 -13t14 -28t37 -36t79 -28t131 -13q84 0 163 17t139 45t103 66t61 78q4 10 5 17t1 13q0 8 -3 17t-21 24t-47 27t-87 27t-136 23q-138 18 -230 56q-66 28 -110 71t-63 90t-19 97 q0 58 24 114q40 96 132 173t220 127q-96 74 -96 182l2 32q0 10 2 20t5 19l6 18t7 17q44 110 149 185t231 108t264 33q98 0 176 -20t125 -52t80 -67t47 -72t20 -59t6 -36q0 -24 -13 -46t-34 -36t-47 -14h-2q-26 0 -48 13t-34 34t-14 45q0 6 -1 13t-14 28t-37 36t-79 28 t-131 13q-168 0 -300 -61t-168 -145q-6 -18 -6 -30q0 -8 3 -17t21 -24t47 -27t87 -27t136 -23q138 -18 230 -56q66 -28 111 -71t64 -90t19 -99q0 -18 -3 -38t-8 -38t-13 -36q-12 -28 -28 -55t-37 -51t-45 -47t-52 -43t-58 -39t-64 -35t-68 -30q46 -36 70 -82t24 -100 q0 -16 -2 -32q-4 -38 -20 -74q-44 -110 -149 -185t-230 -108t-263 -33q-66 0 -124 9t-100 25t-77 37t-58 44t-41 48t-28 47t-16 43t-8 33t-2 20zM292 450q0 -36 80 -70q66 -28 174 -42q196 2 354 81t196 171q4 8 5 13t4 12t4 12t1 11q0 36 -82 70q-66 28 -174 42 q-196 -2 -353 -81t-195 -171q-14 -34 -14 -48z" />
<glyph unicode="&#xa8;" horiz-adv-x="1200" d="M490 1280q0 20 8 36l40 96q10 28 35 44t53 16q20 0 36 -8q28 -10 44 -35t16 -53q0 -10 -2 -19t-6 -17l-40 -96q-4 -12 -11 -21t-16 -16t-19 -12t-21 -8t-21 -3t-19 2t-17 6q-28 10 -44 35t-16 53zM970 1280q0 6 1 12t2 13t5 11l40 96q6 18 20 32t32 21t37 7t35 -8 q12 -4 21 -11t16 -16t12 -19t8 -21t3 -21t-2 -19t-6 -17l-40 -96q-4 -12 -11 -21t-16 -16t-19 -12t-21 -8t-21 -3q-6 0 -12 1t-13 2t-11 5q-28 10 -44 35t-16 53z" />
<glyph unicode="&#xa9;" horiz-adv-x="1840" d="M-18 538q0 116 50 234q80 196 263 358t419 252t472 90q188 0 336 -62q158 -64 247 -191t89 -285q0 -56 -12 -115t-38 -119q-80 -196 -263 -358t-419 -252t-472 -90q-188 0 -336 62q-158 64 -247 191t-89 285zM172 530q0 -200 220 -292q112 -46 262 -46q86 0 176 16 t174 45t165 70t153 92t132 108t105 121t73 128q36 90 36 170q0 98 -57 173t-163 119q-112 46 -262 46q-198 0 -403 -81t-358 -214t-217 -285q-36 -90 -36 -170zM486 606q0 84 36 166q68 164 219 276t315 112q68 0 120 -20t79 -48t45 -61t23 -54t5 -31q0 -40 -26 -68t-64 -30 h-6q-18 0 -34 6t-29 17t-22 28t-11 37q2 4 1 9t-21 14t-60 9q-94 0 -203 -80t-155 -188q-2 -8 -4 -14l-4 -12l-4 -12t-3 -11t-3 -10t-2 -10t-1 -10t-1 -9v-10q0 -66 54 -88q4 -2 10 -4t13 -3t15 -2t16 -1q68 0 135 39t93 71q28 50 86 50q18 0 34 -8q28 -10 44 -35t16 -53 q0 -20 -8 -36q-28 -72 -142 -146t-258 -74q-22 0 -44 3t-43 8t-41 13q-84 34 -127 106t-43 164z" />
<glyph unicode="&#xaa;" horiz-adv-x="1100" d="M380 1072v2q2 60 28 124q32 78 94 142t143 102t163 38q72 0 132 -36q8 10 19 16t23 9t24 3q20 0 36 -8q18 -6 32 -20t21 -32t7 -37t-8 -35l-180 -432q-6 -18 -20 -32t-32 -21t-36 -7q-10 0 -19 2t-17 6q-14 4 -24 14q-58 -24 -144 -30q-50 0 -95 18t-77 48t-51 73t-19 93 zM572 1070q0 -22 9 -30t41 -8q38 0 87 24t87 64l60 146q-6 22 -48 22q-58 0 -127 -50t-97 -116q-6 -14 -9 -27t-3 -23v-2z" />
<glyph unicode="&#xab;" horiz-adv-x="1920" d="M140 528q0 56 44 82l718 432q22 14 50 14q16 0 31 -5t29 -16t22 -25q14 -22 14 -50q0 -54 -46 -82l-622 -374l288 -346q10 -14 16 -30t6 -32q0 -46 -34 -74q-26 -22 -62 -22q-10 0 -20 2t-20 7t-18 11t-16 14l-360 432q-20 24 -20 62zM840 528q0 56 44 82l718 432 q22 14 50 14q16 0 31 -5t29 -16t22 -25q14 -22 14 -50q0 -54 -46 -82l-622 -374l288 -346q22 -26 22 -62q0 -46 -34 -74q-26 -22 -62 -22q-46 0 -74 34l-360 432q-10 12 -15 28t-5 34z" />
<glyph unicode="&#xac;" horiz-adv-x="1600" d="M240 920q0 40 28 68t68 28h1080q40 0 68 -29t28 -67q0 -20 -8 -36l-152 -368q-6 -18 -20 -32t-32 -21t-37 -7t-35 8q-28 10 -44 35t-16 53q0 20 8 36l96 236h-936q-40 0 -68 28t-28 68z" />
<glyph unicode="&#xad;" horiz-adv-x="1040" d="M18 528q0 40 28 68t68 28h640q40 0 68 -28t28 -68t-28 -68t-68 -28h-640q-40 0 -68 28t-28 68z" />
<glyph unicode="&#xae;" horiz-adv-x="1840" d="M-18 538q0 116 50 234q80 196 263 358t419 252t472 90q188 0 336 -62q158 -64 247 -191t89 -285q0 -56 -12 -115t-38 -119q-80 -196 -263 -358t-419 -252t-472 -90q-188 0 -336 62q-158 64 -247 191t-89 285zM172 530q0 -200 220 -292q112 -46 262 -46q86 0 176 16 t174 45t165 70t153 92t132 108t105 121t73 128q36 90 36 170q0 98 -57 173t-163 119q-112 46 -262 46q-198 0 -403 -81t-358 -214t-217 -285q-36 -90 -36 -170zM432 417q0 19 8 35l152 372l112 268q10 28 35 44t53 16h330q88 0 146 -24q68 -26 98 -82q22 -38 22 -86 q0 -44 -20 -92q-62 -152 -240 -196l30 -244v-6v-6q0 -36 -24 -64t-60 -32h-12q-24 0 -45 11t-34 30t-17 43l-30 252h-206l-114 -276q-10 -28 -35 -44t-53 -16q-6 0 -12 1l-12 2t-12 5q-18 6 -32 20t-21 32t-7 37zM810 848h186q38 0 71 6t57 18t41 29t27 39q2 6 2 10 q-26 10 -72 10h-266z" />
<glyph unicode="&#xaf;" horiz-adv-x="800" d="M330 1376q0 40 28 68t68 28h480q40 0 68 -28t28 -68t-28 -68t-68 -28h-480q-40 0 -68 28t-28 68z" />
<glyph unicode="&#xb0;" horiz-adv-x="1200" d="M328 1044q0 56 24 112q56 140 204 228t310 88q86 0 154 -28q80 -32 126 -99t46 -149q0 -56 -24 -112q-56 -140 -204 -228t-310 -88q-86 0 -154 28q-80 32 -126 99t-46 149zM518 1036q0 -14 6 -26t18 -20t30 -16q16 -6 37 -10t45 -4q104 0 206 61t132 135q10 28 10 48v8 t-2 8t-3 7t-3 7t-5 7l-6 6t-7 5t-8 5t-9 5t-11 4q-10 4 -22 7t-28 5t-32 2q-104 0 -206 -61t-132 -135q-4 -14 -7 -26t-3 -22z" />
<glyph unicode="&#xb1;" horiz-adv-x="1600" d="M-94 112q0 40 28 68t68 28h1080q40 0 68 -28t28 -68t-28 -68t-68 -28h-1080q-40 0 -68 28t-28 68zM244 928q0 40 28 68t68 28h474l156 372q6 18 20 32t32 21t36 7q10 0 19 -2t18 -6t17 -9t14 -12t12 -15t9 -16t5 -18t2 -19t-2 -18t-6 -17l-124 -300h398q40 0 68 -28 t28 -68t-28 -68t-68 -28h-476l-156 -372q-10 -28 -35 -44t-53 -16q-10 0 -19 2t-17 6q-14 4 -25 14t-19 22t-12 25t-4 27q0 20 8 36l124 300h-396q-40 0 -68 28t-28 68z" />
<glyph unicode="&#xb2;" horiz-adv-x="1320" d="M322 1056q0 20 8 36q20 50 45 94t50 79t62 69t65 58t79 52t84 46t99 46t105 44t121 48l15 6t14 5t15 7q142 56 189 89t67 77q10 26 10 42q0 34 -58 58q-22 8 -54 14t-70 6q-54 0 -105 -9t-93 -25t-77 -38t-60 -50t-39 -58q-6 -18 -20 -32t-32 -21t-37 -7t-35 8 q-6 2 -11 5l-10 6t-9 7t-7 8t-7 9t-6 10l-4 10t-3 11l-2 12t-1 10q0 20 8 36q42 102 133 172t196 99t221 29q56 0 105 -9t93 -25q80 -34 127 -99t47 -145q0 -54 -24 -106q-16 -40 -39 -72t-52 -58t-72 -51t-88 -46t-109 -47q-122 -48 -180 -72t-135 -58t-116 -59t-78 -57 t-67 -68h602q40 0 68 -28t28 -68t-28 -68t-68 -28h-764q-4 0 -9 1t-11 2t-10 1q-20 8 -35 22t-23 32t-8 38z" />
<glyph unicode="&#xb3;" horiz-adv-x="1320" d="M386 1214q0 20 9 40t26 34t39 20q6 0 11 1t11 1q20 0 40 -9t34 -26t19 -38t25 -42t69 -38t115 -17q144 0 279 75t173 165q14 36 14 66q0 108 -196 108q-66 0 -176 -30q-6 -2 -13 -3t-13 -1q-24 0 -46 12q-16 10 -28 24t-18 32v2q-4 12 -4 26q0 24 12 46q20 36 56 46 q250 74 422 212h-468q-40 0 -68 28t-28 68t28 68t68 28h690q22 0 42 -10q16 -8 29 -22t19 -30t6 -34q0 -26 -14 -48q-2 -6 -6 -12t-17 -23t-27 -34t-38 -42t-51 -49t-63 -52t-76 -54q80 -38 125 -103t45 -153q0 -34 -7 -69t-23 -69q-64 -160 -246 -260t-382 -100 q-70 0 -134 15t-118 45t-92 77t-52 107q-2 10 -2 22z" />
<glyph unicode="&#xb4;" d="M328 1470q0 68 64 90l558 192q6 2 11 3l10 2t11 1q30 0 55 -18t35 -46q6 -16 6 -32q0 -20 -8 -38t-23 -32t-33 -20l-558 -192q-16 -6 -32 -6q-20 0 -38 8t-32 23t-20 33q-4 8 -5 16t-1 16z" />
<glyph unicode="&#xb5;" horiz-adv-x="1450" d="M-160 -280q0 4 1 7t2 7l2 8t3 6l252 612l12 28l252 608q6 18 20 32t32 21t37 7t35 -8q28 -10 44 -35t16 -53q0 -20 -8 -36l-6 -18q-2 -8 -6 -14l-246 -598q-8 -22 -8 -40q0 -78 114 -78q90 0 192 41t155 76t95 69l264 634q6 18 20 32t32 21t36 7q6 0 10 -1t9 -1t9 -2 l8 -4q28 -10 44 -35t16 -53q0 -10 -2 -19t-6 -17l-358 -864q-10 -28 -35 -44t-53 -16q-20 0 -36 8q-42 16 -56 60q-174 -84 -344 -84q-122 0 -208 68l-156 -376q-10 -28 -35 -44t-53 -16q-10 0 -19 2t-17 6q-28 10 -44 35t-16 53v8z" />
<glyph unicode="&#xb6;" horiz-adv-x="1640" d="M242 918q0 74 36 158q32 80 86 146t120 112t144 77t158 46t160 15h600q6 0 14 -1t16 -3q30 -10 48 -36t18 -56q0 -20 -8 -36l-690 -1664q-6 -18 -20 -32t-32 -21t-36 -7q-6 0 -12 1l-12 2t-12 5q-28 10 -44 35t-16 53q0 6 1 10t1 9t2 9l4 8l634 1532h-274q0 -2 -2 -4 l-662 -1600q-10 -28 -35 -44t-53 -16q-10 0 -19 2t-17 6q-12 4 -21 11t-16 16t-12 19t-8 21t-3 21q0 20 8 36l354 860q-36 2 -72 7t-72 14t-68 23t-61 32t-52 42t-39 53t-26 64t-10 75zM434 920l6 -34q2 8 6 14l92 226q-10 -10 -20 -21t-19 -23t-17 -25t-15 -26t-13 -27 q-6 -18 -11 -34t-7 -28t-2 -22zM872 1276q22 -28 22 -62l26 66q-8 0 -16 -1l-16 -2t-16 -1z" />
<glyph unicode="&#xb7;" d="M196 712q0 20 8 42l1 2l1 2q24 58 78 90t116 32q48 0 86 -35t38 -85q0 -6 -1 -13t-3 -14t-4 -15l-2 -4q-24 -58 -78 -90t-116 -32q-48 0 -86 35t-38 85z" />
<glyph unicode="&#xb8;" horiz-adv-x="800" d="M-326 -400q0 40 28 68t68 28q72 0 131 8t92 19t47 23q-54 14 -164 14q-40 0 -68 29t-28 67q0 44 32 72l252 224q28 24 64 24q20 0 39 -8t33 -24q24 -28 24 -64q0 -44 -32 -72l-90 -80q120 -38 142 -132q2 -16 2 -32q0 -12 -2 -25t-5 -25t-9 -22q-24 -60 -71 -99t-114 -58 t-129 -25t-146 -6q-40 0 -68 28t-28 68z" />
<glyph unicode="&#xb9;" d="M396 1056q0 20 8 36l398 960q4 14 14 25t22 19t25 12t27 4q10 0 19 -2t17 -6q28 -10 44 -35t16 -53q0 -6 -1 -12l-2 -12t-5 -12l-398 -960q-10 -28 -35 -44t-53 -16q-20 0 -36 8q-28 10 -44 35t-16 53z" />
<glyph unicode="&#xba;" horiz-adv-x="1080" d="M382 1074q0 62 26 124q50 120 163 201t237 81q56 0 104 -20q68 -28 103 -86t35 -130q0 -62 -26 -122q-50 -120 -163 -201t-239 -81q-56 0 -104 20q-46 18 -77 52t-45 75t-14 87zM572 1070q0 -24 20 -32q12 -6 30 -6q38 0 83 22t85 61t58 83q12 30 12 50q0 16 -6 24 t-14 10q-14 6 -32 6q-58 0 -127 -50t-97 -116q-12 -32 -12 -52z" />
<glyph unicode="&#xbb;" horiz-adv-x="1920" d="M-2 96q0 54 46 82l624 374l-290 346q-22 26 -22 62q0 46 34 74q26 22 62 22q20 0 40 -9t34 -25l362 -432q22 -26 22 -62q0 -54 -46 -82l-720 -432q-22 -14 -50 -14q-54 0 -82 46q-14 22 -14 50zM698 96q0 54 46 82l624 374l-290 346q-10 14 -16 30t-6 32q0 46 34 74 q14 10 30 16t32 6q20 0 40 -9t34 -25l362 -432q10 -14 16 -29t6 -33q0 -24 -12 -47t-34 -35l-720 -432q-22 -14 -50 -14q-54 0 -82 46q-14 22 -14 50z" />
<glyph unicode="&#xbc;" horiz-adv-x="1560" d="M-128 -204q0 4 1 8t2 7l2 6t1 7l38 94q12 28 36 44l794 530q12 8 27 12t27 4h116q20 0 37 -8t30 -21t21 -31t8 -36q0 -6 -8 -36l-202 -492h66q40 0 68 -28t28 -68t-28 -68t-68 -28h-146l-116 -276q-10 -28 -35 -44t-53 -16q-20 0 -36 8q-28 10 -44 35t-16 53q0 20 8 36 l84 204h-546q-40 0 -68 29t-28 67v8zM144 736q0 40 28 68t68 28h1080q40 0 68 -28t28 -68t-28 -68t-68 -28h-1080q-40 0 -68 28t-28 68zM182 -116h412l156 380zM816 1056q0 20 8 36l398 960q4 14 14 25t22 19t25 12t27 4q10 0 19 -2t17 -6q28 -10 44 -35t16 -53q0 -6 -1 -12 l-2 -12t-5 -12l-398 -960q-10 -28 -35 -44t-53 -16q-20 0 -36 8q-28 10 -44 35t-16 53z" />
<glyph unicode="&#xbd;" horiz-adv-x="1560" d="M-222 -544q0 20 8 36q20 50 45 94t50 79t62 68t65 57t79 53t84 46t99 45t104 44t120 48q32 12 48 20q198 78 238 134q10 14 18 32q4 14 7 24t3 18q0 34 -58 58q-22 8 -54 14t-70 6q-136 0 -238 -50t-136 -130q-10 -28 -35 -44t-53 -16q-10 0 -19 2t-17 6q-28 10 -44 35 t-16 53q0 6 1 10t1 9t2 9l4 8q32 78 91 137t134 94t157 52t168 17q112 0 198 -34q32 -14 59 -32t48 -42t36 -50t23 -57t8 -63q0 -54 -24 -106q-20 -48 -50 -86t-76 -70t-100 -58t-134 -60q-284 -112 -398 -171t-180 -143h604q40 0 68 -28t28 -68t-28 -68t-68 -28h-766 q-6 0 -14 1t-16 3q-20 8 -35 22t-23 32t-8 38zM144 736q0 40 28 68t68 28h1080q40 0 68 -28t28 -68t-28 -68t-68 -28h-1080q-40 0 -68 28t-28 68zM816 1056q0 20 8 36l398 960q4 14 14 25t22 19t25 12t27 4q10 0 19 -2t17 -6q28 -10 44 -35t16 -53q0 -6 -1 -12l-2 -12 t-5 -12l-398 -960q-10 -28 -35 -44t-53 -16q-20 0 -36 8q-28 10 -44 35t-16 53z" />
<glyph unicode="&#xbe;" horiz-adv-x="1560" d="M-128 -204q0 4 1 8t2 7l2 6t1 7l38 94q12 28 36 44l794 530q12 8 27 12t27 4h116q20 0 37 -8t30 -21t21 -31t8 -36q0 -6 -8 -36l-202 -492h66q40 0 68 -28t28 -68t-28 -68t-68 -28h-146l-116 -276q-10 -28 -35 -44t-53 -16q-20 0 -36 8q-28 10 -44 35t-16 53q0 20 8 36 l84 204h-546q-40 0 -68 29t-28 67v8zM144 736q0 40 28 68t68 28h1080q40 0 68 -28t28 -68t-28 -68t-68 -28h-1080q-40 0 -68 28t-28 68zM182 -116h412l156 380zM506 1214q0 20 9 40t26 34t39 20q6 0 11 1t11 1q20 0 40 -9t34 -26t19 -38t25 -42t69 -38t115 -17q144 0 279 75 t173 165q14 36 14 66q0 108 -196 108q-66 0 -176 -30q-6 -2 -13 -3t-13 -1q-24 0 -46 12q-16 10 -28 24t-18 32v2q-4 12 -4 26q0 24 12 46q20 36 56 46q250 74 422 212h-468q-40 0 -68 28t-28 68t28 68t68 28h690q22 0 42 -10q16 -8 29 -22t19 -30t6 -34q0 -26 -14 -48 q-2 -6 -6 -12t-17 -23t-27 -34t-38 -42t-51 -49t-63 -52t-76 -54q80 -38 125 -103t45 -153q0 -34 -7 -69t-23 -69q-64 -160 -246 -260t-382 -100q-70 0 -134 15t-118 45t-92 77t-52 107q-2 10 -2 22z" />
<glyph unicode="&#xbf;" horiz-adv-x="1600" d="M-78 -122q0 54 24 110q50 122 148 193t260 133q160 62 219 118t119 196q10 28 35 44t53 16q20 0 36 -8q14 -4 25 -14t19 -22t12 -25t4 -27q0 -20 -8 -36q-46 -114 -105 -191t-139 -130t-202 -101q-140 -54 -204 -99t-96 -119q-12 -30 -12 -46q0 -20 15 -33t53 -27 q82 -34 224 -34q190 0 332 70t192 190q10 28 35 44t53 16q10 0 19 -2t17 -6q28 -10 44 -35t16 -53q0 -20 -8 -36q-52 -128 -166 -216t-248 -126t-286 -38q-180 0 -296 48q-84 34 -134 99t-50 147zM754 902q0 22 8 44l2 4q26 58 80 90t116 32q48 0 86 -35t38 -85 q0 -20 -8 -42l-2 -4q-24 -58 -78 -90t-116 -32q-44 0 -85 34t-41 84z" />
<glyph unicode="&#xc0;" horiz-adv-x="1720" d="M-122 96q0 36 22 62l1082 1280q30 34 74 34h104h36q40 0 68 -29t28 -65l18 -1280q0 -40 -28 -69t-66 -29h-2q-20 0 -37 8t-30 20t-21 30t-8 36l-2 194h-854l-214 -254q-30 -34 -74 -34q-36 0 -62 22q-34 30 -34 74zM114 1824q0 22 10 42q12 24 36 39t50 15q22 0 42 -10 l402 -192q54 -26 54 -86q0 -22 -10 -42q-12 -24 -36 -39t-50 -15q-12 0 -22 2t-20 8l-402 192q-24 12 -39 36t-15 50zM424 480h688l-10 800z" />
<glyph unicode="&#xc1;" horiz-adv-x="1720" d="M-122 96q0 36 22 62l1082 1280q30 34 74 34h104h36q40 0 68 -29t28 -65l18 -1280q0 -40 -28 -69t-66 -29h-2q-20 0 -37 8t-30 20t-21 30t-8 36l-2 194h-854l-214 -254q-30 -34 -74 -34q-36 0 -62 22q-34 30 -34 74zM36 1632q0 68 64 90l558 192q6 2 11 3l10 2t11 1 q30 0 55 -18t35 -46q6 -16 6 -32q0 -20 -8 -38t-23 -32t-33 -20l-558 -192q-16 -6 -32 -6q-20 0 -38 8t-32 23t-20 33q-4 8 -5 16t-1 16zM424 480h688l-10 800z" />
<glyph unicode="&#xc2;" horiz-adv-x="1720" d="M-122 96q0 36 22 62l1082 1280q30 34 74 34h104h36q40 0 68 -29t28 -65l18 -1280q0 -40 -28 -69t-66 -29h-2q-20 0 -37 8t-30 20t-21 30t-8 36l-2 194h-854l-214 -254q-30 -34 -74 -34q-36 0 -62 22q-34 30 -34 74zM8 1664q0 28 15 52t41 36l346 160q18 8 38 8 q34 0 60 -20l214 -160q18 -12 28 -33t10 -43q0 -8 -1 -15t-4 -15t-6 -15t-9 -13q-28 -38 -76 -38q-16 0 -31 5t-27 15l-168 124l-294 -136q-10 -4 -20 -6t-20 -2q-62 0 -88 56q-8 18 -8 40zM424 480h688l-10 800z" />
<glyph unicode="&#xc3;" horiz-adv-x="1720" d="M-122 96q0 36 22 62l1082 1280q30 34 74 34h104h36q40 0 68 -29t28 -65l18 -1280q0 -40 -28 -69t-66 -29h-2q-20 0 -37 8t-30 20t-21 30t-8 36l-2 194h-854l-214 -254q-30 -34 -74 -34q-36 0 -62 22q-34 30 -34 74zM-78 1648q0 30 18 54q8 12 17 23t41 41t66 51t90 38 t116 17q86 0 138 -20t66 -44t29 -44t35 -20q46 0 89 22t60 39t29 31q4 6 9 11t11 9t13 7t13 5t14 3t15 1t14 -1t14 -4l14 -6t13 -7q40 -28 40 -78q0 -30 -18 -54q-4 -8 -8 -13t-22 -24t-35 -34t-47 -35t-60 -33t-72 -22t-86 -9q-86 0 -138 20t-66 44t-29 44t-35 20 q-18 0 -36 -3t-33 -9t-28 -13t-25 -15t-21 -16t-16 -16t-11 -12l-8 -8q-26 -34 -76 -34q-30 0 -54 16q-40 28 -40 78zM424 480h688l-10 800z" />
<glyph unicode="&#xc4;" horiz-adv-x="1720" d="M-122 96q0 36 22 62l1082 1280q30 34 74 34h104h36q40 0 68 -29t28 -65l18 -1280q0 -40 -28 -69t-66 -29h-2q-20 0 -37 8t-30 20t-21 30t-8 36l-2 194h-854l-214 -254q-30 -34 -74 -34q-36 0 -62 22q-34 30 -34 74zM424 480h688l-10 800zM490 1280q0 20 8 36l40 96 q10 28 35 44t53 16q20 0 36 -8q28 -10 44 -35t16 -53q0 -10 -2 -19t-6 -17l-40 -96q-4 -12 -11 -21t-16 -16t-19 -12t-21 -8t-21 -3t-19 2t-17 6q-28 10 -44 35t-16 53zM970 1280q0 6 1 12t2 13t5 11l40 96q6 18 20 32t32 21t37 7t35 -8q12 -4 21 -11t16 -16t12 -19t8 -21 t3 -21t-2 -19t-6 -17l-40 -96q-4 -12 -11 -21t-16 -16t-19 -12t-21 -8t-21 -3q-6 0 -12 1t-13 2t-11 5q-28 10 -44 35t-16 53z" />
<glyph unicode="&#xc5;" horiz-adv-x="1720" d="M-122 96q0 36 22 62l1082 1280q30 34 74 34h104h36q40 0 68 -29t28 -65l18 -1280q0 -40 -28 -69t-66 -29h-2q-20 0 -37 8t-30 20t-21 30t-8 36l-2 194h-854l-214 -254q-30 -34 -74 -34q-36 0 -62 22q-34 30 -34 74zM132 1742q0 44 18 86q40 98 141 159t213 61q14 0 28 -1 t28 -4t27 -6t27 -9q24 -10 46 -25t39 -36t29 -45q16 -38 16 -80q0 -44 -18 -86q-40 -98 -141 -159t-213 -61q-30 0 -57 5t-53 15q-80 34 -114 106q-8 20 -12 40t-4 40zM324 1740l3 -2t15 -6t30 -4q36 0 75 17t66 40t37 43q4 10 2 16q-8 12 -48 12q-54 0 -109 -33t-69 -67 q-4 -10 -2 -16zM424 480h688l-10 800z" />
<glyph unicode="&#xc6;" horiz-adv-x="2280" d="M-122 96q0 42 30 68l1322 1280q28 28 66 28h112h28h780q40 0 68 -28t28 -68t-28 -68t-68 -28h-716l-170 -408h396q40 0 68 -28t28 -68t-28 -68t-68 -28h-476l-202 -488h666q40 0 68 -28t28 -68t-28 -68t-68 -28h-810q-6 0 -14 2q-6 0 -12 2q-2 0 -4 1t-4 1t-2 2 q-28 10 -44 35t-16 53q0 10 2 19t6 17l64 156h-546q-10 0 -22 2l-272 -262q-26 -28 -66 -28q-42 0 -68 30q-28 26 -28 66zM508 480h452l304 730z" />
<glyph unicode="&#xc7;" horiz-adv-x="1710" d="M-326 -400q0 40 28 68t68 28q72 0 131 8t92 19t47 23q-54 14 -164 14q-40 0 -68 29t-28 67q0 44 32 72l252 224q28 24 64 24q20 0 39 -8t33 -24q24 -28 24 -64q0 -44 -32 -72l-90 -80q120 -38 142 -132q2 -16 2 -32q0 -12 -2 -25t-5 -25t-9 -22q-24 -60 -71 -99t-114 -58 t-129 -25t-146 -6q-40 0 -68 28t-28 68zM148 476q2 146 64 296q124 300 406 508t574 208q60 0 112 -9t91 -24t73 -35t58 -43t43 -47t30 -49t19 -45t12 -39t6 -29t2 -14q0 -26 -12 -48t-33 -35t-47 -15h-4q-24 0 -45 11t-35 32t-16 49q0 6 -1 12t-6 22t-15 29t-29 30t-44 28 t-67 19t-92 8q-230 0 -474 -184q-232 -176 -330 -412q-50 -124 -50 -228q0 -202 166 -270q20 -8 42 -14t48 -9t54 -3q94 0 191 34t167 81t116 87t62 64q12 24 36 39t52 15q18 0 34 -8q18 -6 32 -20t21 -32t7 -37t-8 -35q-12 -32 -51 -77t-106 -99t-147 -99t-188 -75 t-218 -30q-40 0 -77 5t-72 14t-69 21q-136 58 -209 177t-73 275z" />
<glyph unicode="&#xc8;" horiz-adv-x="1740" d="M-2 96q0 20 8 36l532 1280q10 26 35 43t53 17h1040q40 0 68 -28t28 -68t-28 -68t-68 -28h-976l-170 -408h576q40 0 68 -28t28 -68t-28 -68t-68 -28h-656l-202 -488h936q40 0 68 -28t28 -68t-28 -68t-68 -28h-1080q-4 0 -9 1t-11 2t-10 1q-30 10 -48 36t-18 56zM114 1824 q0 22 10 42q12 24 36 39t50 15q22 0 42 -10l402 -192q54 -26 54 -86q0 -22 -10 -42q-12 -24 -36 -39t-50 -15q-12 0 -22 2t-20 8l-402 192q-24 12 -39 36t-15 50z" />
<glyph unicode="&#xc9;" horiz-adv-x="1740" d="M-2 96q0 20 8 36l532 1280q10 26 35 43t53 17h1040q40 0 68 -28t28 -68t-28 -68t-68 -28h-976l-170 -408h576q40 0 68 -28t28 -68t-28 -68t-68 -28h-656l-202 -488h936q40 0 68 -28t28 -68t-28 -68t-68 -28h-1080q-4 0 -9 1t-11 2t-10 1q-30 10 -48 36t-18 56zM36 1632 q0 68 64 90l558 192q6 2 11 3l10 2t11 1q30 0 55 -18t35 -46q6 -16 6 -32q0 -20 -8 -38t-23 -32t-33 -20l-558 -192q-16 -6 -32 -6q-20 0 -38 8t-32 23t-20 33q-4 8 -5 16t-1 16z" />
<glyph unicode="&#xca;" horiz-adv-x="1740" d="M-2 96q0 20 8 36l532 1280q10 26 35 43t53 17h1040q40 0 68 -28t28 -68t-28 -68t-68 -28h-976l-170 -408h576q40 0 68 -28t28 -68t-28 -68t-68 -28h-656l-202 -488h936q40 0 68 -28t28 -68t-28 -68t-68 -28h-1080q-4 0 -9 1t-11 2t-10 1q-30 10 -48 36t-18 56zM8 1664 q0 28 15 52t41 36l346 160q18 8 38 8q34 0 60 -20l214 -160q18 -12 28 -33t10 -43q0 -8 -1 -15t-4 -15t-6 -15t-9 -13q-28 -38 -76 -38q-16 0 -31 5t-27 15l-168 124l-294 -136q-10 -4 -20 -6t-20 -2q-62 0 -88 56q-8 18 -8 40z" />
<glyph unicode="&#xcb;" horiz-adv-x="1740" d="M-2 96q0 20 8 36l532 1280q10 26 35 43t53 17h1040q40 0 68 -28t28 -68t-28 -68t-68 -28h-976l-170 -408h576q40 0 68 -28t28 -68t-28 -68t-68 -28h-656l-202 -488h936q40 0 68 -28t28 -68t-28 -68t-68 -28h-1080q-4 0 -9 1t-11 2t-10 1q-30 10 -48 36t-18 56zM490 1280 q0 20 8 36l40 96q10 28 35 44t53 16q20 0 36 -8q28 -10 44 -35t16 -53q0 -10 -2 -19t-6 -17l-40 -96q-4 -12 -11 -21t-16 -16t-19 -12t-21 -8t-21 -3t-19 2t-17 6q-28 10 -44 35t-16 53zM970 1280q0 6 1 12t2 13t5 11l40 96q6 18 20 32t32 21t37 7t35 -8q12 -4 21 -11 t16 -16t12 -19t8 -21t3 -21t-2 -19t-6 -17l-40 -96q-4 -12 -11 -21t-16 -16t-19 -12t-21 -8t-21 -3q-6 0 -12 1t-13 2t-11 5q-28 10 -44 35t-16 53z" />
<glyph unicode="&#xcc;" horiz-adv-x="840" d="M58 97q0 19 8 35l532 1280q10 28 35 44t53 16q20 0 36 -8q10 -4 18 -9t14 -12t12 -15t9 -16t5 -18t2 -19t-2 -18t-6 -17l-532 -1280q-10 -28 -35 -44t-53 -16q-6 0 -10 1t-9 1t-9 2l-8 4q-18 6 -32 20t-21 32t-7 37zM114 1824q0 22 10 42q12 24 36 39t50 15q22 0 42 -10 l402 -192q54 -26 54 -86q0 -22 -10 -42q-12 -24 -36 -39t-50 -15q-12 0 -22 2t-20 8l-402 192q-24 12 -39 36t-15 50z" />
<glyph unicode="&#xcd;" horiz-adv-x="840" d="M36 1632q0 68 64 90l558 192q6 2 11 3l10 2t11 1q30 0 55 -18t35 -46q6 -16 6 -32q0 -20 -8 -38t-23 -32t-33 -20l-558 -192q-16 -6 -32 -6q-20 0 -38 8t-32 23t-20 33q-4 8 -5 16t-1 16zM58 97q0 19 8 35l532 1280q10 28 35 44t53 16q20 0 36 -8q10 -4 18 -9t14 -12 t12 -15t9 -16t5 -18t2 -19t-2 -18t-6 -17l-532 -1280q-10 -28 -35 -44t-53 -16q-6 0 -10 1t-9 1t-9 2l-8 4q-18 6 -32 20t-21 32t-7 37z" />
<glyph unicode="&#xce;" horiz-adv-x="840" d="M8 1664q0 28 15 52t41 36l346 160q18 8 38 8q34 0 60 -20l214 -160q18 -12 28 -33t10 -43q0 -8 -1 -15t-4 -15t-6 -15t-9 -13q-28 -38 -76 -38q-16 0 -31 5t-27 15l-168 124l-294 -136q-10 -4 -20 -6t-20 -2q-62 0 -88 56q-8 18 -8 40zM58 97q0 19 8 35l532 1280 q10 28 35 44t53 16q20 0 36 -8q10 -4 18 -9t14 -12t12 -15t9 -16t5 -18t2 -19t-2 -18t-6 -17l-532 -1280q-10 -28 -35 -44t-53 -16q-6 0 -10 1t-9 1t-9 2l-8 4q-18 6 -32 20t-21 32t-7 37z" />
<glyph unicode="&#xcf;" horiz-adv-x="840" d="M58 97q0 19 8 35l532 1280q10 28 35 44t53 16q20 0 36 -8q10 -4 18 -9t14 -12t12 -15t9 -16t5 -18t2 -19t-2 -18t-6 -17l-532 -1280q-10 -28 -35 -44t-53 -16q-6 0 -10 1t-9 1t-9 2l-8 4q-18 6 -32 20t-21 32t-7 37zM490 1280q0 20 8 36l40 96q10 28 35 44t53 16 q20 0 36 -8q28 -10 44 -35t16 -53q0 -10 -2 -19t-6 -17l-40 -96q-4 -12 -11 -21t-16 -16t-19 -12t-21 -8t-21 -3t-19 2t-17 6q-28 10 -44 35t-16 53zM970 1280q0 6 1 12t2 13t5 11l40 96q6 18 20 32t32 21t37 7t35 -8q12 -4 21 -11t16 -16t12 -19t8 -21t3 -21t-2 -19t-6 -17 l-40 -96q-4 -12 -11 -21t-16 -16t-19 -12t-21 -8t-21 -3q-6 0 -12 1t-13 2t-11 5q-28 10 -44 35t-16 53z" />
<glyph unicode="&#xd0;" horiz-adv-x="1740" d="M-2 96q0 6 8 36l226 548h-96q-40 0 -68 28t-28 68t28 68t68 28h176l226 540q10 28 35 44t53 16h520q94 0 188 -38q116 -48 191 -154t75 -262q0 -22 -2 -46t-5 -50t-9 -52t-14 -54t-18 -57t-24 -59q-64 -158 -164 -285t-201 -202t-210 -125t-191 -69t-148 -19h-520 q-40 0 -68 29t-28 67zM238 192h376q36 0 86 11t117 35t140 69t144 106t137 154t114 205q32 78 47 142t15 116q0 164 -154 226q-58 24 -114 24h-456l-170 -408h216q40 0 68 -28t28 -68t-28 -68t-68 -28h-296z" />
<glyph unicode="&#xd1;" horiz-adv-x="1800" d="M-78 1648q0 30 18 54q8 12 17 23t41 41t66 51t90 38t116 17q86 0 138 -20t66 -44t29 -44t35 -20q46 0 89 22t60 39t29 31q4 6 9 11t11 9t13 7t13 5t14 3t15 1t14 -1t14 -4l14 -6t13 -7q40 -28 40 -78q0 -30 -18 -54q-4 -8 -8 -13t-22 -24t-35 -34t-47 -35t-60 -33 t-72 -22t-86 -9q-86 0 -138 20t-66 44t-29 44t-35 20q-18 0 -36 -3t-33 -9t-28 -13t-25 -15t-21 -16t-16 -16t-11 -12l-8 -8q-26 -34 -76 -34q-30 0 -54 16q-40 28 -40 78zM-2 96q0 20 8 36l532 1280q10 28 35 44t53 16h52h48q20 0 40 -9t33 -25t19 -36l326 -1130l474 1140 q10 28 35 44t53 16q20 0 36 -8q28 -10 44 -35t16 -53q0 -10 -2 -19t-6 -17l-532 -1280q-10 -26 -35 -43t-53 -17h-44h-36q-32 0 -58 19t-34 51l-334 1158l-486 -1168q-10 -28 -35 -44t-53 -16q-20 0 -36 8q-28 10 -44 35t-16 53z" />
<glyph unicode="&#xd2;" horiz-adv-x="1840" d="M114 1824q0 22 10 42q12 24 36 39t50 15q22 0 42 -10l402 -192q54 -26 54 -86q0 -22 -10 -42q-12 -24 -36 -39t-50 -15q-12 0 -22 2t-20 8l-402 192q-24 12 -39 36t-15 50zM148 474q2 148 64 298q124 300 406 508t574 208q120 0 218 -40q138 -56 210 -176t72 -274 q0 -146 -64 -298q-124 -300 -406 -508t-574 -208q-30 0 -58 3t-56 8t-54 12t-50 17q-138 56 -210 176t-72 274zM338 472q0 -50 12 -94t34 -77t52 -58t68 -41q62 -26 144 -26q144 0 305 80t296 218t203 298q16 42 28 83t17 76t5 69q0 66 -21 121t-57 92t-88 57q-30 12 -66 19 t-78 7q-230 0 -474 -184q-232 -176 -330 -412q-26 -64 -38 -121t-12 -107z" />
<glyph unicode="&#xd3;" horiz-adv-x="1840" d="M36 1632q0 68 64 90l558 192q6 2 11 3l10 2t11 1q30 0 55 -18t35 -46q6 -16 6 -32q0 -20 -8 -38t-23 -32t-33 -20l-558 -192q-16 -6 -32 -6q-20 0 -38 8t-32 23t-20 33q-4 8 -5 16t-1 16zM148 474q2 148 64 298q124 300 406 508t574 208q120 0 218 -40q138 -56 210 -176 t72 -274q0 -146 -64 -298q-124 -300 -406 -508t-574 -208q-30 0 -58 3t-56 8t-54 12t-50 17q-138 56 -210 176t-72 274zM338 472q0 -50 12 -94t34 -77t52 -58t68 -41q62 -26 144 -26q144 0 305 80t296 218t203 298q16 42 28 83t17 76t5 69q0 66 -21 121t-57 92t-88 57 q-30 12 -66 19t-78 7q-230 0 -474 -184q-232 -176 -330 -412q-26 -64 -38 -121t-12 -107z" />
<glyph unicode="&#xd4;" horiz-adv-x="1840" d="M8 1664q0 28 15 52t41 36l346 160q18 8 38 8q34 0 60 -20l214 -160q18 -12 28 -33t10 -43q0 -8 -1 -15t-4 -15t-6 -15t-9 -13q-28 -38 -76 -38q-16 0 -31 5t-27 15l-168 124l-294 -136q-10 -4 -20 -6t-20 -2q-62 0 -88 56q-8 18 -8 40zM148 474q2 148 64 298 q124 300 406 508t574 208q120 0 218 -40q138 -56 210 -176t72 -274q0 -146 -64 -298q-124 -300 -406 -508t-574 -208q-30 0 -58 3t-56 8t-54 12t-50 17q-138 56 -210 176t-72 274zM338 472q0 -50 12 -94t34 -77t52 -58t68 -41q62 -26 144 -26q144 0 305 80t296 218t203 298 q16 42 28 83t17 76t5 69q0 66 -21 121t-57 92t-88 57q-30 12 -66 19t-78 7q-230 0 -474 -184q-232 -176 -330 -412q-26 -64 -38 -121t-12 -107z" />
<glyph unicode="&#xd5;" horiz-adv-x="1840" d="M-78 1648q0 30 18 54q8 12 17 23t41 41t66 51t90 38t116 17q86 0 138 -20t66 -44t29 -44t35 -20q46 0 89 22t60 39t29 31q4 6 9 11t11 9t13 7t13 5t14 3t15 1t14 -1t14 -4l14 -6t13 -7q40 -28 40 -78q0 -30 -18 -54q-4 -8 -8 -13t-22 -24t-35 -34t-47 -35t-60 -33 t-72 -22t-86 -9q-86 0 -138 20t-66 44t-29 44t-35 20q-18 0 -36 -3t-33 -9t-28 -13t-25 -15t-21 -16t-16 -16t-11 -12l-8 -8q-26 -34 -76 -34q-30 0 -54 16q-40 28 -40 78zM148 474q2 148 64 298q124 300 406 508t574 208q120 0 218 -40q138 -56 210 -176t72 -274 q0 -146 -64 -298q-124 -300 -406 -508t-574 -208q-30 0 -58 3t-56 8t-54 12t-50 17q-138 56 -210 176t-72 274zM338 472q0 -50 12 -94t34 -77t52 -58t68 -41q62 -26 144 -26q144 0 305 80t296 218t203 298q16 42 28 83t17 76t5 69q0 66 -21 121t-57 92t-88 57q-30 12 -66 19 t-78 7q-230 0 -474 -184q-232 -176 -330 -412q-26 -64 -38 -121t-12 -107z" />
<glyph unicode="&#xd6;" horiz-adv-x="1840" d="M148 474q2 148 64 298q124 300 406 508t574 208q120 0 218 -40q138 -56 210 -176t72 -274q0 -146 -64 -298q-124 -300 -406 -508t-574 -208q-30 0 -58 3t-56 8t-54 12t-50 17q-138 56 -210 176t-72 274zM338 472q0 -50 12 -94t34 -77t52 -58t68 -41q62 -26 144 -26 q144 0 305 80t296 218t203 298q16 42 28 83t17 76t5 69q0 66 -21 121t-57 92t-88 57q-30 12 -66 19t-78 7q-230 0 -474 -184q-232 -176 -330 -412q-26 -64 -38 -121t-12 -107zM490 1280q0 20 8 36l40 96q10 28 35 44t53 16q20 0 36 -8q28 -10 44 -35t16 -53q0 -10 -2 -19 t-6 -17l-40 -96q-4 -12 -11 -21t-16 -16t-19 -12t-21 -8t-21 -3t-19 2t-17 6q-28 10 -44 35t-16 53zM970 1280q0 6 1 12t2 13t5 11l40 96q6 18 20 32t32 21t37 7t35 -8q12 -4 21 -11t16 -16t12 -19t8 -21t3 -21t-2 -19t-6 -17l-40 -96q-4 -12 -11 -21t-16 -16t-19 -12 t-21 -8t-21 -3q-6 0 -12 1t-13 2t-11 5q-28 10 -44 35t-16 53z" />
<glyph unicode="&#xd7;" horiz-adv-x="1600" d="M118 384q0 16 5 31t16 29t25 22l490 294l-222 266q-22 26 -22 62q0 20 9 40t25 34q26 22 62 22q20 0 40 -9t34 -25l242 -290l514 310q22 14 50 14q54 0 82 -46q4 -6 6 -12l4 -12t3 -12t1 -14q0 -24 -12 -47t-34 -35l-490 -294l222 -266q22 -26 22 -62q0 -8 -2 -16l-4 -16 t-6 -15t-10 -14t-12 -13q-26 -22 -62 -22q-46 0 -74 34l-242 290l-514 -310q-22 -14 -50 -14q-24 0 -47 12t-35 34q-8 12 -11 24t-3 26z" />
<glyph unicode="&#xd8;" horiz-adv-x="1840" d="M-42 96q0 48 38 78l1732 1280q26 18 58 18q48 0 78 -38q18 -26 18 -58q0 -48 -38 -78l-1732 -1280q-26 -18 -58 -18q-48 0 -78 38q-8 14 -13 28t-5 30zM148 474q2 148 64 298q124 300 406 508t574 208q120 0 218 -40q138 -56 210 -176t72 -274q0 -146 -64 -298 q-124 -300 -406 -508t-574 -208q-30 0 -58 3t-56 8t-54 12t-50 17q-138 56 -210 176t-72 274zM338 472q0 -50 12 -94t34 -77t52 -58t68 -41q62 -26 144 -26q144 0 305 80t296 218t203 298q16 42 28 83t17 76t5 69q0 66 -21 121t-57 92t-88 57q-30 12 -66 19t-78 7 q-230 0 -474 -184q-232 -176 -330 -412q-26 -64 -38 -121t-12 -107z" />
<glyph unicode="&#xd9;" horiz-adv-x="1780" d="M114 1824q0 22 10 42q12 24 36 39t50 15q22 0 42 -10l402 -192q54 -26 54 -86q0 -22 -10 -42q-12 -24 -36 -39t-50 -15q-12 0 -22 2t-20 8l-402 192q-24 12 -39 36t-15 50zM120 342q0 64 26 126l392 944q4 14 14 25t22 19t25 12t27 4h8t7 -1t7 -2l8 -2t6 -3 q28 -10 44 -35t16 -53q0 -20 -8 -36l-392 -944q-12 -32 -12 -60q0 -80 114 -126q82 -34 194 -34q128 0 256 44t215 111t117 137l392 944q6 18 20 32t32 21t37 7t35 -8q28 -10 44 -35t16 -53q0 -10 -2 -19t-6 -17l-392 -944q-50 -122 -172 -217t-277 -145t-315 -50 q-150 0 -266 48q-106 44 -169 126t-63 184z" />
<glyph unicode="&#xda;" horiz-adv-x="1780" d="M36 1632q0 68 64 90l558 192q6 2 11 3l10 2t11 1q30 0 55 -18t35 -46q6 -16 6 -32q0 -20 -8 -38t-23 -32t-33 -20l-558 -192q-16 -6 -32 -6q-20 0 -38 8t-32 23t-20 33q-4 8 -5 16t-1 16zM120 342q0 64 26 126l392 944q4 14 14 25t22 19t25 12t27 4h8t7 -1t7 -2l8 -2 t6 -3q28 -10 44 -35t16 -53q0 -20 -8 -36l-392 -944q-12 -32 -12 -60q0 -80 114 -126q82 -34 194 -34q128 0 256 44t215 111t117 137l392 944q6 18 20 32t32 21t37 7t35 -8q28 -10 44 -35t16 -53q0 -10 -2 -19t-6 -17l-392 -944q-50 -122 -172 -217t-277 -145t-315 -50 q-150 0 -266 48q-106 44 -169 126t-63 184z" />
<glyph unicode="&#xdb;" horiz-adv-x="1780" d="M8 1664q0 28 15 52t41 36l346 160q18 8 38 8q34 0 60 -20l214 -160q18 -12 28 -33t10 -43q0 -8 -1 -15t-4 -15t-6 -15t-9 -13q-28 -38 -76 -38q-16 0 -31 5t-27 15l-168 124l-294 -136q-10 -4 -20 -6t-20 -2q-62 0 -88 56q-8 18 -8 40zM120 342q0 64 26 126l392 944 q4 14 14 25t22 19t25 12t27 4h8t7 -1t7 -2l8 -2t6 -3q28 -10 44 -35t16 -53q0 -20 -8 -36l-392 -944q-12 -32 -12 -60q0 -80 114 -126q82 -34 194 -34q128 0 256 44t215 111t117 137l392 944q6 18 20 32t32 21t37 7t35 -8q28 -10 44 -35t16 -53q0 -10 -2 -19t-6 -17 l-392 -944q-50 -122 -172 -217t-277 -145t-315 -50q-150 0 -266 48q-106 44 -169 126t-63 184z" />
<glyph unicode="&#xdc;" horiz-adv-x="1780" d="M120 342q0 64 26 126l392 944q4 14 14 25t22 19t25 12t27 4h8t7 -1t7 -2l8 -2t6 -3q28 -10 44 -35t16 -53q0 -20 -8 -36l-392 -944q-12 -32 -12 -60q0 -80 114 -126q82 -34 194 -34q128 0 256 44t215 111t117 137l392 944q6 18 20 32t32 21t37 7t35 -8q28 -10 44 -35 t16 -53q0 -10 -2 -19t-6 -17l-392 -944q-50 -122 -172 -217t-277 -145t-315 -50q-150 0 -266 48q-106 44 -169 126t-63 184zM490 1280q0 20 8 36l40 96q10 28 35 44t53 16q20 0 36 -8q28 -10 44 -35t16 -53q0 -10 -2 -19t-6 -17l-40 -96q-4 -12 -11 -21t-16 -16t-19 -12 t-21 -8t-21 -3t-19 2t-17 6q-28 10 -44 35t-16 53zM970 1280q0 6 1 12t2 13t5 11l40 96q6 18 20 32t32 21t37 7t35 -8q12 -4 21 -11t16 -16t12 -19t8 -21t3 -21t-2 -19t-6 -17l-40 -96q-4 -12 -11 -21t-16 -16t-19 -12t-21 -8t-21 -3q-6 0 -12 1t-13 2t-11 5q-28 10 -44 35 t-16 53z" />
<glyph unicode="&#xdd;" horiz-adv-x="1640" d="M36 1632q0 68 64 90l558 192q6 2 11 3l10 2t11 1q30 0 55 -18t35 -46q6 -16 6 -32q0 -20 -8 -38t-23 -32t-33 -20l-558 -192q-16 -6 -32 -6q-20 0 -38 8t-32 23t-20 33q-4 8 -5 16t-1 16zM410 1376q0 58 50 84l8 4t7 3t7 2l8 2t8 1h8q58 0 84 -50l276 -512l744 544 q12 8 26 13t30 5q50 0 78 -40q8 -12 13 -26t5 -30q0 -50 -40 -78l-810 -592l-270 -646q-10 -28 -35 -44t-53 -16q-10 0 -19 2t-17 6q-18 6 -32 20t-21 32t-7 37t8 35l262 630l-306 568q-12 22 -12 46z" />
<glyph unicode="&#xde;" horiz-adv-x="1700" d="M-2 96q0 20 8 36l420 1012q0 2 1 4t1 4l110 260q10 28 35 44t53 16q20 0 36 -8q10 -4 18 -9t14 -12t12 -15t9 -16t5 -18t2 -19t-2 -18t-6 -17l-54 -132h456q64 0 122 -10t108 -30q90 -36 140 -109t50 -167q0 -14 -1 -29t-3 -30t-6 -30t-9 -31t-13 -32q-52 -132 -162 -223 t-238 -132t-266 -41h-536l-120 -284q-10 -28 -35 -44t-53 -16q-20 0 -36 8q-28 10 -44 35t-16 53zM380 536h458q80 0 157 19t141 53t114 87t78 117q22 56 22 90t-19 53t-57 35q-20 8 -44 14t-53 9t-61 3h-536z" />
<glyph unicode="&#xdf;" horiz-adv-x="1580" d="M-2 96q0 20 8 36l398 960q42 102 135 192t225 147t268 57h80q110 0 194 -34q92 -38 142 -113t50 -165q0 -66 -26 -128q-22 -58 -64 -111t-97 -97t-121 -78q82 -88 82 -218q0 -78 -32 -152q-66 -160 -241 -284t-391 -124h-40q-40 0 -68 28t-28 68t28 68t68 28h40 q150 0 281 92t175 196q18 46 18 84q0 20 -5 37t-15 32t-25 26t-35 19q-42 18 -106 18h-40q-40 0 -68 28t-28 68t28 68t68 28q98 0 193 39t158 95t89 114q14 36 14 62q0 62 -76 94q-50 20 -122 20h-80q-140 0 -276 -90t-176 -186l-398 -960q-4 -14 -14 -25t-22 -19t-25 -12 t-27 -4q-20 0 -36 8q-28 10 -44 35t-16 53z" />
<glyph unicode="&#xe0;" horiz-adv-x="1470" d="M50 354q0 102 46 210q88 214 293 361t421 147q178 0 288 -112l16 36q6 18 20 32t32 21t36 7q10 0 19 -2t17 -6q28 -10 44 -35t16 -53q0 -10 -2 -19t-6 -17l-358 -864q-10 -28 -35 -44t-53 -16q-20 0 -36 8q-42 16 -56 58q-158 -82 -314 -82q-170 0 -279 104t-109 266z M114 1824q0 22 10 42q12 24 36 39t50 15q22 0 42 -10l402 -192q54 -26 54 -86q0 -22 -10 -42q-12 -24 -36 -39t-50 -15q-12 0 -22 2t-20 8l-402 192q-24 12 -39 36t-15 50zM242 354q0 -178 196 -178q170 0 342 138q46 36 82 76l142 344q-18 146 -194 146q-150 0 -311 -115 t-227 -273q-8 -20 -13 -38t-9 -36t-6 -34t-2 -30z" />
<glyph unicode="&#xe1;" horiz-adv-x="1470" d="M36 1632q0 68 64 90l558 192q6 2 11 3l10 2t11 1q30 0 55 -18t35 -46q6 -16 6 -32q0 -20 -8 -38t-23 -32t-33 -20l-558 -192q-16 -6 -32 -6q-20 0 -38 8t-32 23t-20 33q-4 8 -5 16t-1 16zM50 354q0 102 46 210q88 214 293 361t421 147q178 0 288 -112l16 36q6 18 20 32 t32 21t36 7q10 0 19 -2t17 -6q28 -10 44 -35t16 -53q0 -10 -2 -19t-6 -17l-358 -864q-10 -28 -35 -44t-53 -16q-20 0 -36 8q-42 16 -56 58q-158 -82 -314 -82q-170 0 -279 104t-109 266zM242 354q0 -178 196 -178q170 0 342 138q46 36 82 76l142 344q-18 146 -194 146 q-150 0 -311 -115t-227 -273q-8 -20 -13 -38t-9 -36t-6 -34t-2 -30z" />
<glyph unicode="&#xe2;" horiz-adv-x="1470" d="M8 1664q0 28 15 52t41 36l346 160q18 8 38 8q34 0 60 -20l214 -160q18 -12 28 -33t10 -43q0 -8 -1 -15t-4 -15t-6 -15t-9 -13q-28 -38 -76 -38q-16 0 -31 5t-27 15l-168 124l-294 -136q-10 -4 -20 -6t-20 -2q-62 0 -88 56q-8 18 -8 40zM50 354q0 102 46 210 q88 214 293 361t421 147q178 0 288 -112l16 36q6 18 20 32t32 21t36 7q10 0 19 -2t17 -6q28 -10 44 -35t16 -53q0 -10 -2 -19t-6 -17l-358 -864q-10 -28 -35 -44t-53 -16q-20 0 -36 8q-42 16 -56 58q-158 -82 -314 -82q-170 0 -279 104t-109 266zM242 354q0 -178 196 -178 q170 0 342 138q46 36 82 76l142 344q-18 146 -194 146q-150 0 -311 -115t-227 -273q-8 -20 -13 -38t-9 -36t-6 -34t-2 -30z" />
<glyph unicode="&#xe3;" horiz-adv-x="1470" d="M-78 1648q0 30 18 54q8 12 17 23t41 41t66 51t90 38t116 17q86 0 138 -20t66 -44t29 -44t35 -20q46 0 89 22t60 39t29 31q4 6 9 11t11 9t13 7t13 5t14 3t15 1t14 -1t14 -4l14 -6t13 -7q40 -28 40 -78q0 -30 -18 -54q-4 -8 -8 -13t-22 -24t-35 -34t-47 -35t-60 -33 t-72 -22t-86 -9q-86 0 -138 20t-66 44t-29 44t-35 20q-18 0 -36 -3t-33 -9t-28 -13t-25 -15t-21 -16t-16 -16t-11 -12l-8 -8q-26 -34 -76 -34q-30 0 -54 16q-40 28 -40 78zM50 354q0 102 46 210q88 214 293 361t421 147q178 0 288 -112l16 36q6 18 20 32t32 21t36 7 q10 0 19 -2t17 -6q28 -10 44 -35t16 -53q0 -10 -2 -19t-6 -17l-358 -864q-10 -28 -35 -44t-53 -16q-20 0 -36 8q-42 16 -56 58q-158 -82 -314 -82q-170 0 -279 104t-109 266zM242 354q0 -178 196 -178q170 0 342 138q46 36 82 76l142 344q-18 146 -194 146q-150 0 -311 -115 t-227 -273q-8 -20 -13 -38t-9 -36t-6 -34t-2 -30z" />
<glyph unicode="&#xe4;" horiz-adv-x="1470" d="M50 354q0 102 46 210q88 214 293 361t421 147q178 0 288 -112l16 36q6 18 20 32t32 21t36 7q10 0 19 -2t17 -6q28 -10 44 -35t16 -53q0 -10 -2 -19t-6 -17l-358 -864q-10 -28 -35 -44t-53 -16q-20 0 -36 8q-42 16 -56 58q-158 -82 -314 -82q-170 0 -279 104t-109 266z M242 354q0 -178 196 -178q170 0 342 138q46 36 82 76l142 344q-18 146 -194 146q-150 0 -311 -115t-227 -273q-8 -20 -13 -38t-9 -36t-6 -34t-2 -30zM490 1280q0 20 8 36l40 96q10 28 35 44t53 16q20 0 36 -8q28 -10 44 -35t16 -53q0 -10 -2 -19t-6 -17l-40 -96 q-4 -12 -11 -21t-16 -16t-19 -12t-21 -8t-21 -3t-19 2t-17 6q-28 10 -44 35t-16 53zM970 1280q0 6 1 12t2 13t5 11l40 96q6 18 20 32t32 21t37 7t35 -8q12 -4 21 -11t16 -16t12 -19t8 -21t3 -21t-2 -19t-6 -17l-40 -96q-4 -12 -11 -21t-16 -16t-19 -12t-21 -8t-21 -3 q-6 0 -12 1t-13 2t-11 5q-28 10 -44 35t-16 53z" />
<glyph unicode="&#xe5;" horiz-adv-x="1470" d="M50 354q0 102 46 210q88 214 293 361t421 147q178 0 288 -112l16 36q6 18 20 32t32 21t36 7q10 0 19 -2t17 -6q28 -10 44 -35t16 -53q0 -10 -2 -19t-6 -17l-358 -864q-10 -28 -35 -44t-53 -16q-20 0 -36 8q-42 16 -56 58q-158 -82 -314 -82q-170 0 -279 104t-109 266z M132 1742q0 44 18 86q40 98 141 159t213 61q14 0 28 -1t28 -4t27 -6t27 -9q24 -10 46 -25t39 -36t29 -45q16 -38 16 -80q0 -44 -18 -86q-40 -98 -141 -159t-213 -61q-30 0 -57 5t-53 15q-80 34 -114 106q-8 20 -12 40t-4 40zM242 354q0 -178 196 -178q170 0 342 138 q46 36 82 76l142 344q-18 146 -194 146q-150 0 -311 -115t-227 -273q-8 -20 -13 -38t-9 -36t-6 -34t-2 -30zM324 1740l3 -2t15 -6t30 -4q36 0 75 17t66 40t37 43q4 10 2 16q-8 12 -48 12q-54 0 -109 -33t-69 -67q-4 -10 -2 -16z" />
<glyph unicode="&#xe6;" horiz-adv-x="2000" d="M-14 244q0 56 24 114q110 260 528 290q88 6 155 26t103 47t54 48t28 43v2l4 12q0 4 -2 7t-7 8t-14 10t-23 9q-46 20 -116 20q-36 0 -74 -5t-68 -13t-59 -18t-48 -19t-37 -19t-25 -14t-11 -8q-24 -16 -54 -16q-50 0 -78 40q-18 24 -18 54q0 16 5 30t13 27t20 23 q12 8 26 17t59 31t91 39t117 30t141 13q34 0 67 -4t62 -11t57 -17q84 -34 130 -104q192 136 394 136q78 0 145 -20t122 -68t81 -118q22 -60 22 -124q0 -90 -48 -202q-10 -28 -35 -44t-53 -16h-756q-30 -78 -30 -140q0 -24 5 -45t13 -37t20 -29t26 -23t30 -16q38 -14 86 -14 q66 0 132 16t111 35t87 45t57 38t25 18q4 4 9 7l10 6t10 5t11 3t11 2t11 1q44 0 72 -32q24 -26 24 -62q0 -10 -2 -20t-6 -19t-10 -18t-12 -15q-14 -12 -31 -26t-72 -49t-113 -60t-146 -46t-178 -21t-162 30q-82 34 -132 98q-210 -128 -416 -128q-156 0 -259 68t-103 192z M178 244q0 -6 1 -13t11 -18t27 -18t51 -13t80 -6q156 0 344 120q-4 24 -4 48q0 12 1 23l2 22l2 22t3 23t5 23t5 23q-34 -8 -73 -14t-83 -10q-100 -8 -170 -25t-108 -45t-55 -50t-31 -54q-8 -20 -8 -38zM1028 672h568q6 20 9 37t3 33q0 28 -10 58q-30 80 -168 80 q-96 0 -206 -56t-196 -152z" />
<glyph unicode="&#xe7;" horiz-adv-x="1320" d="M-326 -400q0 40 28 68t68 28q72 0 131 8t92 19t47 23q-54 14 -164 14q-40 0 -68 29t-28 67q0 44 32 72l252 224q28 24 64 24q20 0 39 -8t33 -24q24 -28 24 -64q0 -44 -32 -72l-90 -80q120 -38 142 -132q2 -16 2 -32q0 -12 -2 -25t-5 -25t-9 -22q-24 -60 -71 -99t-114 -58 t-129 -25t-146 -6q-40 0 -68 28t-28 68zM50 352q2 106 46 212q86 214 289 361t415 147q82 0 152 -26t121 -76t79 -120l4 -16t2 -18q0 -28 -17 -53t-45 -37q-4 -2 -8 -3l-8 -2t-8 -1h-10t-12 1t-12 3l-12 4t-12 5t-11 7t-9 9l-8 10t-8 11t-6 12q-38 98 -172 98 q-164 0 -336 -140q-134 -112 -192 -248q-32 -80 -32 -144q0 -116 96 -156q40 -16 92 -16q56 0 119 19t126 56t119 89q26 24 64 24q42 0 72 -32q24 -26 24 -64q0 -42 -32 -72q-108 -98 -236 -155t-256 -57q-90 0 -164 30q-104 42 -159 132t-55 206z" />
<glyph unicode="&#xe8;" horiz-adv-x="1360" d="M48 344q2 110 48 220q24 60 60 118q108 172 281 281t353 109q58 0 110 -12t99 -36t83 -65t56 -93q8 -22 13 -42t7 -40t2 -42q0 -90 -48 -202q-4 -12 -11 -21t-16 -16t-19 -12t-21 -8t-21 -3h-756q-30 -78 -30 -140q0 -114 94 -150q38 -14 86 -14q66 0 132 16t111 35 t87 45t57 38t25 18q26 24 62 24q20 0 39 -8t33 -24q24 -26 24 -62q0 -44 -30 -72q-8 -8 -17 -15t-39 -29t-61 -40t-80 -41t-99 -39t-114 -27t-130 -11q-90 0 -162 30q-102 42 -155 129t-53 201zM114 1824q0 22 10 42q12 24 36 39t50 15q22 0 42 -10l402 -192q54 -26 54 -86 q0 -22 -10 -42q-12 -24 -36 -39t-50 -15q-12 0 -22 2t-20 8l-402 192q-24 12 -39 36t-15 50zM388 672h568q4 8 5 16t3 15t3 14t1 13v12q0 28 -10 58q-30 80 -168 80q-96 0 -206 -56t-196 -152z" />
<glyph unicode="&#xe9;" horiz-adv-x="1360" d="M36 1632q0 68 64 90l558 192q6 2 11 3l10 2t11 1q30 0 55 -18t35 -46q6 -16 6 -32q0 -20 -8 -38t-23 -32t-33 -20l-558 -192q-16 -6 -32 -6q-20 0 -38 8t-32 23t-20 33q-4 8 -5 16t-1 16zM48 344q2 110 48 220q24 60 60 118q108 172 281 281t353 109q58 0 110 -12t99 -36 t83 -65t56 -93q8 -22 13 -42t7 -40t2 -42q0 -90 -48 -202q-4 -12 -11 -21t-16 -16t-19 -12t-21 -8t-21 -3h-756q-30 -78 -30 -140q0 -114 94 -150q38 -14 86 -14q66 0 132 16t111 35t87 45t57 38t25 18q26 24 62 24q20 0 39 -8t33 -24q24 -26 24 -62q0 -44 -30 -72 q-8 -8 -17 -15t-39 -29t-61 -40t-80 -41t-99 -39t-114 -27t-130 -11q-90 0 -162 30q-102 42 -155 129t-53 201zM388 672h568q4 8 5 16t3 15t3 14t1 13v12q0 28 -10 58q-30 80 -168 80q-96 0 -206 -56t-196 -152z" />
<glyph unicode="&#xea;" horiz-adv-x="1360" d="M8 1664q0 28 15 52t41 36l346 160q18 8 38 8q34 0 60 -20l214 -160q18 -12 28 -33t10 -43q0 -8 -1 -15t-4 -15t-6 -15t-9 -13q-28 -38 -76 -38q-16 0 -31 5t-27 15l-168 124l-294 -136q-10 -4 -20 -6t-20 -2q-62 0 -88 56q-8 18 -8 40zM48 344q2 110 48 220q24 60 60 118 q108 172 281 281t353 109q58 0 110 -12t99 -36t83 -65t56 -93q8 -22 13 -42t7 -40t2 -42q0 -90 -48 -202q-4 -12 -11 -21t-16 -16t-19 -12t-21 -8t-21 -3h-756q-30 -78 -30 -140q0 -114 94 -150q38 -14 86 -14q66 0 132 16t111 35t87 45t57 38t25 18q26 24 62 24q20 0 39 -8 t33 -24q24 -26 24 -62q0 -44 -30 -72q-8 -8 -17 -15t-39 -29t-61 -40t-80 -41t-99 -39t-114 -27t-130 -11q-90 0 -162 30q-102 42 -155 129t-53 201zM388 672h568q4 8 5 16t3 15t3 14t1 13v12q0 28 -10 58q-30 80 -168 80q-96 0 -206 -56t-196 -152z" />
<glyph unicode="&#xeb;" horiz-adv-x="1360" d="M48 344q2 110 48 220q24 60 60 118q108 172 281 281t353 109q58 0 110 -12t99 -36t83 -65t56 -93q8 -22 13 -42t7 -40t2 -42q0 -90 -48 -202q-4 -12 -11 -21t-16 -16t-19 -12t-21 -8t-21 -3h-756q-30 -78 -30 -140q0 -114 94 -150q38 -14 86 -14q66 0 132 16t111 35 t87 45t57 38t25 18q26 24 62 24q20 0 39 -8t33 -24q24 -26 24 -62q0 -44 -30 -72q-8 -8 -17 -15t-39 -29t-61 -40t-80 -41t-99 -39t-114 -27t-130 -11q-90 0 -162 30q-102 42 -155 129t-53 201zM388 672h568q4 8 5 16t3 15t3 14t1 13v12q0 28 -10 58q-30 80 -168 80 q-96 0 -206 -56t-196 -152zM490 1280q0 20 8 36l40 96q10 28 35 44t53 16q20 0 36 -8q28 -10 44 -35t16 -53q0 -10 -2 -19t-6 -17l-40 -96q-4 -12 -11 -21t-16 -16t-19 -12t-21 -8t-21 -3t-19 2t-17 6q-28 10 -44 35t-16 53zM970 1280q0 6 1 12t2 13t5 11l40 96q6 18 20 32 t32 21t37 7t35 -8q12 -4 21 -11t16 -16t12 -19t8 -21t3 -21t-2 -19t-6 -17l-40 -96q-4 -12 -11 -21t-16 -16t-19 -12t-21 -8t-21 -3q-6 0 -12 1t-13 2t-11 5q-28 10 -44 35t-16 53z" />
<glyph unicode="&#xec;" d="M-2 96q0 20 8 36l358 864q10 28 35 44t53 16q10 0 19 -2t17 -6q18 -6 32 -20t21 -32t7 -37t-8 -35l-358 -864q-10 -28 -35 -44t-53 -16q-20 0 -36 8q-28 10 -44 35t-16 53zM114 1824q0 22 10 42q12 24 36 39t50 15q22 0 42 -10l402 -192q54 -26 54 -86q0 -22 -10 -42 q-12 -24 -36 -39t-50 -15q-12 0 -22 2t-20 8l-402 192q-24 12 -39 36t-15 50z" />
<glyph unicode="&#xed;" d="M-2 96q0 20 8 36l358 864q10 28 35 44t53 16q10 0 19 -2t17 -6q18 -6 32 -20t21 -32t7 -37t-8 -35l-358 -864q-10 -28 -35 -44t-53 -16q-20 0 -36 8q-28 10 -44 35t-16 53zM36 1632q0 68 64 90l558 192q6 2 11 3l10 2t11 1q30 0 55 -18t35 -46q6 -16 6 -32q0 -20 -8 -38 t-23 -32t-33 -20l-558 -192q-16 -6 -32 -6q-20 0 -38 8t-32 23t-20 33q-4 8 -5 16t-1 16z" />
<glyph unicode="&#xee;" d="M-2 96q0 20 8 36l358 864q10 28 35 44t53 16q10 0 19 -2t17 -6q18 -6 32 -20t21 -32t7 -37t-8 -35l-358 -864q-10 -28 -35 -44t-53 -16q-20 0 -36 8q-28 10 -44 35t-16 53zM8 1664q0 28 15 52t41 36l346 160q18 8 38 8q34 0 60 -20l214 -160q18 -12 28 -33t10 -43 q0 -8 -1 -15t-4 -15t-6 -15t-9 -13q-28 -38 -76 -38q-16 0 -31 5t-27 15l-168 124l-294 -136q-10 -4 -20 -6t-20 -2q-62 0 -88 56q-8 18 -8 40z" />
<glyph unicode="&#xef;" d="M-2 96q0 20 8 36l358 864q10 28 35 44t53 16q10 0 19 -2t17 -6q18 -6 32 -20t21 -32t7 -37t-8 -35l-358 -864q-10 -28 -35 -44t-53 -16q-20 0 -36 8q-28 10 -44 35t-16 53zM490 1280q0 20 8 36l40 96q10 28 35 44t53 16q20 0 36 -8q28 -10 44 -35t16 -53q0 -10 -2 -19 t-6 -17l-40 -96q-4 -12 -11 -21t-16 -16t-19 -12t-21 -8t-21 -3t-19 2t-17 6q-28 10 -44 35t-16 53zM970 1280q0 6 1 12t2 13t5 11l40 96q6 18 20 32t32 21t37 7t35 -8q12 -4 21 -11t16 -16t12 -19t8 -21t3 -21t-2 -19t-6 -17l-40 -96q-4 -12 -11 -21t-16 -16t-19 -12 t-21 -8t-21 -3q-6 0 -12 1t-13 2t-11 5q-28 10 -44 35t-16 53z" />
<glyph unicode="&#xf0;" horiz-adv-x="1420" d="M52 356q0 104 44 208q88 214 293 361t421 147q94 0 170 -32q4 -2 10 -4q-14 28 -32 57t-40 61q-194 -66 -332 -66q-40 0 -68 28t-28 68t28 68t68 28q74 0 200 42q-6 8 -9 17t-5 18t-2 19t2 20t7 20t11 18t14 16l12 8t12 6l12 4t13 3t13 1q46 0 74 -34q10 -12 19 -23 t17 -23q224 80 370 80q40 0 68 -28t28 -68t-28 -68t-68 -28q-50 0 -108 -15t-138 -43q126 -202 126 -398q0 -154 -74 -332q-88 -214 -293 -361t-421 -147q-46 0 -89 8t-81 24q-106 42 -161 133t-55 207zM240 352q0 -118 100 -158q20 -10 45 -14t53 -4q150 0 311 115t227 273 q32 78 32 140q0 40 -14 73t-35 53t-51 32q-42 18 -98 18q-42 0 -87 -10t-90 -30t-89 -46t-85 -60t-76 -72t-63 -82t-48 -88q-32 -78 -32 -140z" />
<glyph unicode="&#xf1;" horiz-adv-x="1450" d="M-78 1648q0 30 18 54q8 12 17 23t41 41t66 51t90 38t116 17q86 0 138 -20t66 -44t29 -44t35 -20q46 0 89 22t60 39t29 31q4 6 9 11t11 9t13 7t13 5t14 3t15 1t14 -1t14 -4l14 -6t13 -7q40 -28 40 -78q0 -30 -18 -54q-4 -8 -8 -13t-22 -24t-35 -34t-47 -35t-60 -33 t-72 -22t-86 -9q-86 0 -138 20t-66 44t-29 44t-35 20q-18 0 -36 -3t-33 -9t-28 -13t-25 -15t-21 -16t-16 -16t-11 -12l-8 -8q-26 -34 -76 -34q-30 0 -54 16q-40 28 -40 78zM-2 96q0 20 8 36l358 864q10 28 35 44t53 16q10 0 19 -2t17 -6q42 -16 56 -62q80 40 167 63t179 23 q60 0 115 -19t97 -52t67 -85t25 -112q0 -66 -30 -136l-252 -608q-10 -28 -35 -44t-53 -16q-20 0 -36 8q-28 10 -44 35t-16 53q0 20 8 36l252 608q6 20 10 35t4 29q0 34 -25 55t-87 21q-58 0 -120 -16t-110 -38t-96 -52t-73 -48t-47 -34l-262 -632q-10 -28 -35 -44t-53 -16 q-20 0 -36 8q-28 10 -44 35t-16 53z" />
<glyph unicode="&#xf2;" horiz-adv-x="1420" d="M52 356q0 104 44 208q88 214 293 361t421 147q94 0 170 -32q106 -42 161 -133t55 -207q0 -50 -11 -103t-33 -105q-88 -214 -293 -361t-421 -147q-46 0 -89 8t-81 24q-106 42 -161 133t-55 207zM114 1824q0 22 10 42q12 24 36 39t50 15q22 0 42 -10l402 -192 q54 -26 54 -86q0 -22 -10 -42q-12 -24 -36 -39t-50 -15q-12 0 -22 2t-20 8l-402 192q-24 12 -39 36t-15 50zM240 352q0 -118 100 -158q20 -10 45 -14t53 -4q150 0 311 115t227 273q32 78 32 140q0 40 -14 73t-35 53t-51 32q-42 18 -98 18q-42 0 -87 -10t-90 -30t-89 -46 t-85 -60t-76 -72t-63 -82t-48 -88q-32 -78 -32 -140z" />
<glyph unicode="&#xf3;" horiz-adv-x="1420" d="M36 1632q0 68 64 90l558 192q6 2 11 3l10 2t11 1q30 0 55 -18t35 -46q6 -16 6 -32q0 -20 -8 -38t-23 -32t-33 -20l-558 -192q-16 -6 -32 -6q-20 0 -38 8t-32 23t-20 33q-4 8 -5 16t-1 16zM52 356q0 104 44 208q88 214 293 361t421 147q94 0 170 -32q106 -42 161 -133 t55 -207q0 -50 -11 -103t-33 -105q-88 -214 -293 -361t-421 -147q-46 0 -89 8t-81 24q-106 42 -161 133t-55 207zM240 352q0 -118 100 -158q20 -10 45 -14t53 -4q150 0 311 115t227 273q32 78 32 140q0 40 -14 73t-35 53t-51 32q-42 18 -98 18q-42 0 -87 -10t-90 -30 t-89 -46t-85 -60t-76 -72t-63 -82t-48 -88q-32 -78 -32 -140z" />
<glyph unicode="&#xf4;" horiz-adv-x="1420" d="M8 1664q0 28 15 52t41 36l346 160q18 8 38 8q34 0 60 -20l214 -160q18 -12 28 -33t10 -43q0 -8 -1 -15t-4 -15t-6 -15t-9 -13q-28 -38 -76 -38q-16 0 -31 5t-27 15l-168 124l-294 -136q-10 -4 -20 -6t-20 -2q-62 0 -88 56q-8 18 -8 40zM52 356q0 104 44 208 q88 214 293 361t421 147q94 0 170 -32q106 -42 161 -133t55 -207q0 -50 -11 -103t-33 -105q-88 -214 -293 -361t-421 -147q-46 0 -89 8t-81 24q-106 42 -161 133t-55 207zM240 352q0 -118 100 -158q20 -10 45 -14t53 -4q150 0 311 115t227 273q32 78 32 140q0 40 -14 73 t-35 53t-51 32q-42 18 -98 18q-42 0 -87 -10t-90 -30t-89 -46t-85 -60t-76 -72t-63 -82t-48 -88q-32 -78 -32 -140z" />
<glyph unicode="&#xf5;" horiz-adv-x="1420" d="M52 356q0 104 44 208q88 214 293 361t421 147q94 0 170 -32q106 -42 161 -133t55 -207q0 -50 -11 -103t-33 -105q-88 -214 -293 -361t-421 -147q-46 0 -89 8t-81 24q-106 42 -161 133t-55 207zM240 352q0 -118 100 -158q20 -10 45 -14t53 -4q150 0 311 115t227 273 q32 78 32 140q0 40 -14 73t-35 53t-51 32q-42 18 -98 18q-42 0 -87 -10t-90 -30t-89 -46t-85 -60t-76 -72t-63 -82t-48 -88q-32 -78 -32 -140z" />
<glyph unicode="&#xf6;" horiz-adv-x="1420" d="M52 356q0 104 44 208q88 214 293 361t421 147q94 0 170 -32q106 -42 161 -133t55 -207q0 -50 -11 -103t-33 -105q-88 -214 -293 -361t-421 -147q-46 0 -89 8t-81 24q-106 42 -161 133t-55 207zM240 352q0 -118 100 -158q20 -10 45 -14t53 -4q150 0 311 115t227 273 q32 78 32 140q0 40 -14 73t-35 53t-51 32q-42 18 -98 18q-42 0 -87 -10t-90 -30t-89 -46t-85 -60t-76 -72t-63 -82t-48 -88q-32 -78 -32 -140zM490 1280q0 20 8 36l40 96q10 28 35 44t53 16q20 0 36 -8q28 -10 44 -35t16 -53q0 -10 -2 -19t-6 -17l-40 -96q-4 -12 -11 -21 t-16 -16t-19 -12t-21 -8t-21 -3t-19 2t-17 6q-28 10 -44 35t-16 53zM970 1280q0 6 1 12t2 13t5 11l40 96q6 18 20 32t32 21t37 7t35 -8q12 -4 21 -11t16 -16t12 -19t8 -21t3 -21t-2 -19t-6 -17l-40 -96q-4 -12 -11 -21t-16 -16t-19 -12t-21 -8t-21 -3q-6 0 -12 1t-13 2 t-11 5q-28 10 -44 35t-16 53z" />
<glyph unicode="&#xf7;" horiz-adv-x="1600" d="M164 736q0 40 28 68t68 28h1080q40 0 68 -28t28 -68t-28 -68t-68 -28h-1080q-40 0 -68 28t-28 68zM456 278q0 22 8 44l2 4q24 58 78 90t116 32q20 0 42 -8t41 -23t31 -38t12 -49q0 -22 -8 -44q-2 -2 -2 -4q-16 -38 -47 -66t-69 -42t-78 -14q-44 0 -85 34t-41 84z M814 1142q0 10 2 21t6 23q2 2 2 4q24 58 78 90t116 32q44 0 85 -34t41 -84q0 -22 -8 -44q-2 -2 -2 -4q-24 -58 -78 -90t-116 -32q-44 0 -85 34t-41 84z" />
<glyph unicode="&#xf8;" horiz-adv-x="1420" d="M-72 96q0 50 40 78l1198 864q24 18 56 18q22 0 43 -10t35 -30q18 -24 18 -56q0 -22 -10 -43t-30 -35l-1198 -864q-24 -18 -56 -18q-50 0 -78 40q-18 24 -18 56zM52 356q0 104 44 208q88 214 293 361t421 147q94 0 170 -32q106 -42 161 -133t55 -207q0 -50 -11 -103 t-33 -105q-88 -214 -293 -361t-421 -147q-46 0 -89 8t-81 24q-106 42 -161 133t-55 207zM240 352q0 -118 100 -158q20 -10 45 -14t53 -4q150 0 311 115t227 273q32 78 32 140q0 40 -14 73t-35 53t-51 32q-42 18 -98 18q-42 0 -87 -10t-90 -30t-89 -46t-85 -60t-76 -72 t-63 -82t-48 -88q-32 -78 -32 -140z" />
<glyph unicode="&#xf9;" horiz-adv-x="1450" d="M82 254q0 10 1 19t2 19t3 20t4 19t5 19t7 19t8 19l252 608q6 18 20 32t32 21t37 7t35 -8q28 -10 44 -35t16 -53q0 -20 -8 -36l-252 -608q-6 -18 -10 -34t-4 -28q0 -78 114 -78q90 0 192 41t155 76t95 69l264 634q6 18 20 32t32 21t36 7q6 0 10 -1t9 -1t9 -2l8 -4 q28 -10 44 -35t16 -53q0 -10 -2 -19t-6 -17l-358 -864q-10 -28 -35 -44t-53 -16q-20 0 -36 8q-42 16 -56 60q-174 -84 -344 -84q-126 0 -216 74t-90 196zM114 1824q0 22 10 42q12 24 36 39t50 15q22 0 42 -10l402 -192q54 -26 54 -86q0 -22 -10 -42q-12 -24 -36 -39t-50 -15 q-12 0 -22 2t-20 8l-402 192q-24 12 -39 36t-15 50z" />
<glyph unicode="&#xfa;" horiz-adv-x="1450" d="M36 1632q0 68 64 90l558 192q6 2 11 3l10 2t11 1q30 0 55 -18t35 -46q6 -16 6 -32q0 -20 -8 -38t-23 -32t-33 -20l-558 -192q-16 -6 -32 -6q-20 0 -38 8t-32 23t-20 33q-4 8 -5 16t-1 16zM82 254q0 10 1 19t2 19t3 20t4 19t5 19t7 19t8 19l252 608q6 18 20 32t32 21t37 7 t35 -8q28 -10 44 -35t16 -53q0 -20 -8 -36l-252 -608q-6 -18 -10 -34t-4 -28q0 -78 114 -78q90 0 192 41t155 76t95 69l264 634q6 18 20 32t32 21t36 7q6 0 10 -1t9 -1t9 -2l8 -4q28 -10 44 -35t16 -53q0 -10 -2 -19t-6 -17l-358 -864q-10 -28 -35 -44t-53 -16q-20 0 -36 8 q-42 16 -56 60q-174 -84 -344 -84q-126 0 -216 74t-90 196z" />
<glyph unicode="&#xfb;" horiz-adv-x="1450" d="M8 1664q0 28 15 52t41 36l346 160q18 8 38 8q34 0 60 -20l214 -160q18 -12 28 -33t10 -43q0 -8 -1 -15t-4 -15t-6 -15t-9 -13q-28 -38 -76 -38q-16 0 -31 5t-27 15l-168 124l-294 -136q-10 -4 -20 -6t-20 -2q-62 0 -88 56q-8 18 -8 40zM82 254q0 10 1 19t2 19t3 20t4 19 t5 19t7 19t8 19l252 608q6 18 20 32t32 21t37 7t35 -8q28 -10 44 -35t16 -53q0 -20 -8 -36l-252 -608q-6 -18 -10 -34t-4 -28q0 -78 114 -78q90 0 192 41t155 76t95 69l264 634q6 18 20 32t32 21t36 7q6 0 10 -1t9 -1t9 -2l8 -4q28 -10 44 -35t16 -53q0 -10 -2 -19t-6 -17 l-358 -864q-10 -28 -35 -44t-53 -16q-20 0 -36 8q-42 16 -56 60q-174 -84 -344 -84q-126 0 -216 74t-90 196z" />
<glyph unicode="&#xfc;" horiz-adv-x="1450" d="M82 254q0 10 1 19t2 19t3 20t4 19t5 19t7 19t8 19l252 608q6 18 20 32t32 21t37 7t35 -8q28 -10 44 -35t16 -53q0 -20 -8 -36l-252 -608q-6 -18 -10 -34t-4 -28q0 -78 114 -78q90 0 192 41t155 76t95 69l264 634q6 18 20 32t32 21t36 7q6 0 10 -1t9 -1t9 -2l8 -4 q28 -10 44 -35t16 -53q0 -10 -2 -19t-6 -17l-358 -864q-10 -28 -35 -44t-53 -16q-20 0 -36 8q-42 16 -56 60q-174 -84 -344 -84q-126 0 -216 74t-90 196zM490 1280q0 20 8 36l40 96q10 28 35 44t53 16q20 0 36 -8q28 -10 44 -35t16 -53q0 -10 -2 -19t-6 -17l-40 -96 q-4 -12 -11 -21t-16 -16t-19 -12t-21 -8t-21 -3t-19 2t-17 6q-28 10 -44 35t-16 53zM970 1280q0 6 1 12t2 13t5 11l40 96q6 18 20 32t32 21t37 7t35 -8q12 -4 21 -11t16 -16t12 -19t8 -21t3 -21t-2 -19t-6 -17l-40 -96q-4 -12 -11 -21t-16 -16t-19 -12t-21 -8t-21 -3 q-6 0 -12 1t-13 2t-11 5q-28 10 -44 35t-16 53z" />
<glyph unicode="&#xfd;" horiz-adv-x="1240" d="M-280 -288q0 8 2 16q6 34 33 57t61 23h7h5q22 -4 46 -4q76 0 156 54t142 130q46 58 92 112l-28 856q0 26 12 49t34 37t46 14h4q8 0 15 -1t14 -4l14 -6t13 -7t11 -9t9 -11l8 -12t6 -13t4 -15t2 -14l20 -638q530 644 570 696q26 32 78 32q16 0 34 -6q52 -30 52 -72 q0 -36 -27 -87t-105 -148t-161 -195t-251 -297t-318 -381q-208 -256 -446 -256q-44 0 -76 6q-24 4 -41 18t-27 34t-10 42zM36 1632q0 68 64 90l558 192q6 2 11 3l10 2t11 1q30 0 55 -18t35 -46q6 -16 6 -32q0 -20 -8 -38t-23 -32t-33 -20l-558 -192q-16 -6 -32 -6 q-20 0 -38 8t-32 23t-20 33q-4 8 -5 16t-1 16z" />
<glyph unicode="&#xfe;" horiz-adv-x="1470" d="M-160 -288q0 10 2 19t6 17l690 1664q10 28 35 44t53 16q10 0 19 -2t17 -6q28 -10 44 -35t16 -53q0 -20 -8 -36l-138 -336q144 68 284 68q94 0 170 -32q106 -42 161 -133t55 -207q0 -24 -3 -50t-8 -53t-13 -53t-20 -52q-88 -214 -293 -361t-421 -147q-178 0 -288 112 l-176 -420q-10 -28 -35 -44t-53 -16q-10 0 -19 2t-17 6q-28 10 -44 35t-16 53zM294 324q18 -148 194 -148q150 0 311 115t227 273q32 78 32 140q0 40 -14 73t-35 53t-51 32q-42 18 -98 18q-68 0 -144 -26t-149 -76t-133 -114z" />
<glyph unicode="&#xff;" horiz-adv-x="1240" d="M-280 -288q0 8 2 16q6 34 33 57t61 23h7h5q22 -4 46 -4q76 0 156 54t142 130q46 58 92 112l-28 856q0 26 12 49t34 37t46 14h4q8 0 15 -1t14 -4l14 -6t13 -7t11 -9t9 -11l8 -12t6 -13t4 -15t2 -14l20 -638q530 644 570 696q26 32 78 32q16 0 34 -6q52 -30 52 -72 q0 -36 -27 -87t-105 -148t-161 -195t-251 -297t-318 -381q-208 -256 -446 -256q-44 0 -76 6q-24 4 -41 18t-27 34t-10 42zM490 1280q0 20 8 36l40 96q10 28 35 44t53 16q20 0 36 -8q28 -10 44 -35t16 -53q0 -10 -2 -19t-6 -17l-40 -96q-4 -12 -11 -21t-16 -16t-19 -12 t-21 -8t-21 -3t-19 2t-17 6q-28 10 -44 35t-16 53zM970 1280q0 6 1 12t2 13t5 11l40 96q6 18 20 32t32 21t37 7t35 -8q12 -4 21 -11t16 -16t12 -19t8 -21t3 -21t-2 -19t-6 -17l-40 -96q-4 -12 -11 -21t-16 -16t-19 -12t-21 -8t-21 -3q-6 0 -12 1t-13 2t-11 5q-28 10 -44 35 t-16 53z" />
<glyph unicode="&#x178;" horiz-adv-x="1640" d="M410 1376q0 58 50 84l8 4t7 3t7 2l8 2t8 1h8q58 0 84 -50l276 -512l744 544q12 8 26 13t30 5q50 0 78 -40q8 -12 13 -26t5 -30q0 -50 -40 -78l-810 -592l-270 -646q-10 -28 -35 -44t-53 -16q-10 0 -19 2t-17 6q-18 6 -32 20t-21 32t-7 37t8 35l262 630l-306 568 q-12 22 -12 46zM490 1280q0 20 8 36l40 96q10 28 35 44t53 16q20 0 36 -8q28 -10 44 -35t16 -53q0 -10 -2 -19t-6 -17l-40 -96q-4 -12 -11 -21t-16 -16t-19 -12t-21 -8t-21 -3t-19 2t-17 6q-28 10 -44 35t-16 53zM970 1280q0 6 1 12t2 13t5 11l40 96q6 18 20 32t32 21t37 7 t35 -8q12 -4 21 -11t16 -16t12 -19t8 -21t3 -21t-2 -19t-6 -17l-40 -96q-4 -12 -11 -21t-16 -16t-19 -12t-21 -8t-21 -3q-6 0 -12 1t-13 2t-11 5q-28 10 -44 35t-16 53z" />
<glyph unicode="&#x2dc;" horiz-adv-x="0" d="M-78 1648q0 30 18 54q8 12 17 23t41 41t66 51t90 38t116 17q86 0 138 -20t66 -44t29 -44t35 -20q46 0 89 22t60 39t29 31q4 6 9 11t11 9t13 7t13 5t14 3t15 1t14 -1t14 -4l14 -6t13 -7q40 -28 40 -78q0 -30 -18 -54q-4 -8 -8 -13t-22 -24t-35 -34t-47 -35t-60 -33 t-72 -22t-86 -9q-86 0 -138 20t-66 44t-29 44t-35 20q-18 0 -36 -3t-33 -9t-28 -13t-25 -15t-21 -16t-16 -16t-11 -12l-8 -8q-26 -34 -76 -34q-30 0 -54 16q-40 28 -40 78z" />
<glyph unicode="&#x2000;" horiz-adv-x="1062" />
<glyph unicode="&#x2001;" horiz-adv-x="2124" />
<glyph unicode="&#x2002;" horiz-adv-x="1062" />
<glyph unicode="&#x2003;" horiz-adv-x="2124" />
<glyph unicode="&#x2004;" horiz-adv-x="708" />
<glyph unicode="&#x2005;" horiz-adv-x="531" />
<glyph unicode="&#x2006;" horiz-adv-x="354" />
<glyph unicode="&#x2007;" horiz-adv-x="354" />
<glyph unicode="&#x2008;" horiz-adv-x="265" />
<glyph unicode="&#x2009;" horiz-adv-x="424" />
<glyph unicode="&#x200a;" horiz-adv-x="118" />
<glyph unicode="&#x2010;" horiz-adv-x="1040" d="M18 528q0 40 28 68t68 28h640q40 0 68 -28t28 -68t-28 -68t-68 -28h-640q-40 0 -68 28t-28 68z" />
<glyph unicode="&#x2011;" horiz-adv-x="1040" d="M18 528q0 40 28 68t68 28h640q40 0 68 -28t28 -68t-28 -68t-68 -28h-640q-40 0 -68 28t-28 68z" />
<glyph unicode="&#x2012;" horiz-adv-x="1040" d="M18 528q0 40 28 68t68 28h640q40 0 68 -28t28 -68t-28 -68t-68 -28h-640q-40 0 -68 28t-28 68z" />
<glyph unicode="&#x2013;" horiz-adv-x="1280" d="M-62 528q0 40 28 68t68 28h1040q40 0 68 -28t28 -68t-28 -68t-68 -28h-1040q-40 0 -68 28t-28 68z" />
<glyph unicode="&#x2014;" horiz-adv-x="2560" d="M-62 528q0 40 28 68t68 28h2320q40 0 68 -28t28 -68t-28 -68t-68 -28h-2320q-40 0 -68 28t-28 68z" />
<glyph unicode="&#x2018;" horiz-adv-x="740" d="M366 1116q0 30 12 58q40 94 204 268q28 30 68 30q38 0 66 -26q30 -28 30 -70q0 -18 -7 -35t-19 -31q-4 -4 -9 -10t-22 -25t-33 -37q46 -38 46 -96q0 -20 -6 -40q-2 -2 -2 -4q-24 -58 -78 -90t-116 -32q-26 0 -52 10q-18 6 -33 19t-26 30t-17 38t-6 43z" />
<glyph unicode="&#x2019;" horiz-adv-x="740" d="M398 1072q0 18 7 35t19 31q2 0 4 3t9 10t14 15t17 20l20 24q-46 38 -46 96v11t1 9t2 9t3 11l2 4q26 58 80 90t116 32h10t9 -1l10 -2t10 -3t11 -4q36 -14 59 -50t23 -78q0 -32 -12 -60q-40 -94 -204 -268q-28 -30 -68 -30q-38 0 -66 26q-10 10 -17 21t-10 24t-3 25z" />
<glyph unicode="&#x201a;" horiz-adv-x="740" d="M-92 -112q0 38 26 66q28 30 64 72q-46 38 -46 98q0 10 1 19t5 19q2 2 2 4q24 58 78 90t116 32q26 0 52 -10q36 -14 59 -50t23 -80q0 -14 -3 -29t-9 -29q-40 -94 -204 -268q-28 -30 -68 -30q-38 0 -66 26q-30 28 -30 70z" />
<glyph unicode="&#x201c;" horiz-adv-x="1280" d="M366 1116q0 30 12 58q40 94 204 268q28 30 68 30q38 0 66 -26q30 -28 30 -70q0 -18 -7 -35t-19 -31q-4 -4 -9 -10t-22 -25t-33 -37q46 -38 46 -96q0 -20 -6 -40q-2 -2 -2 -4q-24 -58 -78 -90t-116 -32q-26 0 -52 10q-18 6 -33 19t-26 30t-17 38t-6 43zM906 1116 q0 30 12 58q40 94 204 268q14 16 32 23t36 7t35 -7t31 -19q30 -28 30 -70q0 -38 -26 -66q-28 -30 -64 -72q46 -38 46 -96q0 -20 -6 -40q-2 -2 -2 -4q-24 -58 -78 -90t-116 -32q-26 0 -52 10q-36 14 -59 50t-23 80z" />
<glyph unicode="&#x201d;" horiz-adv-x="1280" d="M398 1072q0 18 7 35t19 31q2 0 4 3t9 10t14 15t17 20l20 24q-46 38 -46 96v11t1 9t2 9t3 11l2 4q26 58 80 90t116 32h10t9 -1l10 -2t10 -3t11 -4q36 -14 59 -50t23 -78q0 -32 -12 -60q-40 -94 -204 -268q-28 -30 -68 -30q-38 0 -66 26q-10 10 -17 21t-10 24t-3 25z M938 1072q0 18 7 35t19 31q4 4 9 10t22 25t33 37q-20 16 -33 42t-13 54q0 20 6 40q2 2 2 4q26 58 80 90t116 32q6 0 12 -1l12 -2t13 -2t13 -5q18 -6 33 -19t26 -30t17 -38t6 -41q0 -32 -12 -60q-46 -108 -200 -266q-2 -2 -4 -2q-14 -16 -32 -23t-36 -7q-38 0 -66 26 q-30 28 -30 70z" />
<glyph unicode="&#x201e;" horiz-adv-x="1280" d="M-92 -112q0 38 26 66q28 30 64 72q-46 38 -46 98q0 10 1 19t5 19q2 2 2 4q24 58 78 90t116 32q26 0 52 -10q36 -14 59 -50t23 -80q0 -14 -3 -29t-9 -29q-40 -94 -204 -268q-28 -30 -68 -30q-38 0 -66 26q-30 28 -30 70zM448 -112q0 38 26 66q28 30 64 72q-22 18 -34 44 t-12 54q0 20 6 38l2 4q24 58 78 90t116 32q26 0 52 -10q36 -14 59 -50t23 -80q0 -30 -12 -58q-42 -102 -204 -268q-14 -16 -32 -23t-36 -7q-38 0 -66 26q-30 28 -30 70z" />
<glyph unicode="&#x2022;" horiz-adv-x="880" d="M176 696q0 20 4 40t12 38q36 84 121 135t181 51q54 0 98 -18q20 -10 38 -23t31 -29t23 -35t15 -40t5 -43q0 -18 -4 -37t-12 -37q-36 -84 -121 -135t-181 -51q-26 0 -51 5t-47 13q-32 14 -57 38t-41 54l-8 24t-5 24t-1 26z" />
<glyph unicode="&#x202f;" horiz-adv-x="424" />
<glyph unicode="&#x205f;" horiz-adv-x="531" />
<glyph unicode="&#x25fc;" horiz-adv-x="1060" d="M0 0v1060h1060v-1060h-1060z" />
</font>
</defs>
</svg>
